<?xml version="1.0" encoding="UTF-8" standalone="no"?>
<!DOCTYPE svg PUBLIC "-//W3C//DTD SVG 1.1//EN"
 "http://www.w3.org/Graphics/SVG/1.1/DTD/svg11.dtd">
<!-- Generated by graphviz version 7.1.0 (20230121.1956)
 -->
<!-- Title: Storm::TargetMatrixInterface&lt; TargetMatrix &gt; Pages: 1 -->
<svg width="326pt" height="157pt"
 viewBox="0.00 0.00 326.00 156.50" xmlns="http://www.w3.org/2000/svg" xmlns:xlink="http://www.w3.org/1999/xlink">
<g id="graph0" class="graph" transform="scale(1 1) rotate(0) translate(4 152.5)">
<title>Storm::TargetMatrixInterface&lt; TargetMatrix &gt;</title>
<!-- Node1 -->
<g id="node1" class="node">
<title>Node1</title>
<g id="a_node1"><a xlink:title="CRTP interface to a target matrix.">
<polygon fill="#999999" stroke="#666666" points="141,-94.5 0,-94.5 0,-64.5 141,-64.5 141,-94.5"/>
<text text-anchor="start" x="8" y="-82.5" font-family="Helvetica,sans-Serif" font-size="10.00">Storm::TargetMatrixInterface</text>
<text text-anchor="middle" x="70.5" y="-71.5" font-family="Helvetica,sans-Serif" font-size="10.00">&lt; TargetMatrix &gt;</text>
</a>
</g>
</g>
<!-- Node2 -->
<g id="node2" class="node">
<title>Node2</title>
<g id="a_node2"><a xlink:href="class_storm_1_1_feathers_1_1_field.html" target="_top" xlink:title=" ">
<polygon fill="white" stroke="#666666" points="304.5,-148.5 190.5,-148.5 190.5,-118.5 304.5,-118.5 304.5,-148.5"/>
<text text-anchor="start" x="198.5" y="-136.5" font-family="Helvetica,sans-Serif" font-size="10.00">Storm::Feathers::Field</text>
<text text-anchor="middle" x="247.5" y="-125.5" font-family="Helvetica,sans-Serif" font-size="10.00">&lt; Mesh, real_t &gt;</text>
</a>
</g>
</g>
<!-- Node1&#45;&gt;Node2 -->
<g id="edge1" class="edge">
<title>Node1&#45;&gt;Node2</title>
<path fill="none" stroke="#63b8ff" d="M132.63,-98.36C153.46,-104.79 176.48,-111.89 196.34,-118.02"/>
<polygon fill="#63b8ff" stroke="#63b8ff" points="133.68,-95.02 123.09,-95.42 131.62,-101.71 133.68,-95.02"/>
</g>
<!-- Node3 -->
<g id="node3" class="node">
<title>Node3</title>
<g id="a_node3"><a xlink:href="class_storm_1_1_feathers_1_1_field.html" target="_top" xlink:title=" ">
<polygon fill="white" stroke="#666666" points="318,-100 177,-100 177,-59 318,-59 318,-100"/>
<text text-anchor="start" x="185" y="-88" font-family="Helvetica,sans-Serif" font-size="10.00">Storm::Feathers::Field</text>
<text text-anchor="start" x="185" y="-77" font-family="Helvetica,sans-Serif" font-size="10.00">&lt; Storm::UnstructuredMesh,</text>
<text text-anchor="middle" x="247.5" y="-66" font-family="Helvetica,sans-Serif" font-size="10.00"> real_t, 5 &gt;</text>
</a>
</g>
</g>
<!-- Node1&#45;&gt;Node3 -->
<g id="edge2" class="edge">
<title>Node1&#45;&gt;Node3</title>
<path fill="none" stroke="#63b8ff" d="M152.68,-79.5C160.71,-79.5 168.8,-79.5 176.69,-79.5"/>
<polygon fill="#63b8ff" stroke="#63b8ff" points="152.93,-76 142.93,-79.5 152.93,-83 152.93,-76"/>
</g>
<!-- Node4 -->
<g id="node4" class="node">
<title>Node4</title>
<g id="a_node4"><a xlink:href="class_storm_1_1_feathers_1_1_field.html" target="_top" xlink:title="Generic mesh field.">
<polygon fill="white" stroke="#666666" points="304.5,-41 190.5,-41 190.5,0 304.5,0 304.5,-41"/>
<text text-anchor="start" x="198.5" y="-29" font-family="Helvetica,sans-Serif" font-size="10.00">Storm::Feathers::Field</text>
<text text-anchor="start" x="198.5" y="-18" font-family="Helvetica,sans-Serif" font-size="10.00">&lt; Mesh, Index, Value,</text>
<text text-anchor="middle" x="247.5" y="-7" font-family="Helvetica,sans-Serif" font-size="10.00"> NumVars &gt;</text>
</a>
</g>
</g>
<!-- Node1&#45;&gt;Node4 -->
<g id="edge3" class="edge">
<title>Node1&#45;&gt;Node4</title>
<path fill="none" stroke="#63b8ff" d="M127.83,-60.51C147.81,-53.77 170.29,-46.2 190.26,-39.46"/>
<polygon fill="#63b8ff" stroke="#63b8ff" points="126.81,-57.16 118.46,-63.67 129.05,-63.79 126.81,-57.16"/>
</g>
</g>
</svg>
