<?xml version="1.0" encoding="UTF-8" standalone="no"?>
<!DOCTYPE svg PUBLIC "-//W3C//DTD SVG 1.1//EN"
 "http://www.w3.org/Graphics/SVG/1.1/DTD/svg11.dtd">
<!-- Generated by graphviz version 8.1.0 (20230707.0739)
 -->
<!-- Title: Storm::Object Pages: 1 -->
<svg width="1102pt" height="618pt"
 viewBox="0.00 0.00 1101.75 617.50" xmlns="http://www.w3.org/2000/svg" xmlns:xlink="http://www.w3.org/1999/xlink">
<g id="graph0" class="graph" transform="scale(1 1) rotate(0) translate(4 613.5)">
<title>Storm::Object</title>
<!-- Node1 -->
<g id="Node000001" class="node">
<title>Node1</title>
<g id="a_Node000001"><a xlink:title="A base object.">
<polygon fill="#999999" stroke="#666666" points="258.5,-492.88 181.75,-492.88 181.75,-473.62 258.5,-473.62 258.5,-492.88"/>
<text text-anchor="middle" x="220.12" y="-479.38" font-family="Helvetica,sans-Serif" font-size="10.00">Storm::Object</text>
</a>
</g>
</g>
<!-- Node3 -->
<g id="Node000003" class="node">
<title>Node3</title>
<g id="a_Node000003"><a xlink:href="class_storm_1_1_operator.html" target="_top" xlink:title=" ">
<polygon fill="white" stroke="#666666" points="428.25,-609.5 294.5,-609.5 294.5,-579 428.25,-579 428.25,-609.5"/>
<text text-anchor="start" x="302.5" y="-596" font-family="Helvetica,sans-Serif" font-size="10.00">Storm::Operator&lt; InVector,</text>
<text text-anchor="middle" x="361.38" y="-584.75" font-family="Helvetica,sans-Serif" font-size="10.00"> InVector &gt;</text>
</a>
</g>
</g>
<!-- Node1&#45;&gt;Node3 -->
<g id="edge2_Node000001_Node000003" class="edge">
<title>Node1&#45;&gt;Node3</title>
<g id="a_edge2_Node000001_Node000003"><a xlink:title=" ">
<path fill="none" stroke="#63b8ff" d="M232.97,-502.48C245.9,-522.02 268.29,-551.94 294.5,-570.25 298.99,-573.39 303.94,-576.16 309.04,-578.61"/>
<polygon fill="#63b8ff" stroke="#63b8ff" points="235.45,-500.86 227.1,-494.33 229.55,-504.64 235.45,-500.86"/>
</a>
</g>
</g>
<!-- Node4 -->
<g id="Node000004" class="node">
<title>Node4</title>
<g id="a_Node000004"><a xlink:href="class_storm_1_1_operator.html" target="_top" xlink:title=" ">
<polygon fill="white" stroke="#666666" points="427.5,-560.88 295.25,-560.88 295.25,-541.62 427.5,-541.62 427.5,-560.88"/>
<text text-anchor="middle" x="361.38" y="-547.38" font-family="Helvetica,sans-Serif" font-size="10.00">Storm::Operator&lt; Vector &gt;</text>
</a>
</g>
</g>
<!-- Node1&#45;&gt;Node4 -->
<g id="edge3_Node000001_Node000004" class="edge">
<title>Node1&#45;&gt;Node4</title>
<g id="a_edge3_Node000001_Node000004"><a xlink:title=" ">
<path fill="none" stroke="#63b8ff" d="M241.87,-499.63C256.03,-510.16 275.58,-523.46 294.5,-532.25 301.95,-535.71 310.17,-538.68 318.2,-541.18"/>
<polygon fill="#63b8ff" stroke="#63b8ff" points="244.48,-496.46 234.4,-493.19 240.24,-502.03 244.48,-496.46"/>
</a>
</g>
</g>
<!-- Node7 -->
<g id="Node000007" class="node">
<title>Node7</title>
<g id="a_Node000007"><a xlink:href="class_storm_1_1_solver.html" target="_top" xlink:title=" ">
<polygon fill="white" stroke="#666666" points="423.38,-523.5 299.38,-523.5 299.38,-493 423.38,-493 423.38,-523.5"/>
<text text-anchor="start" x="307.38" y="-510" font-family="Helvetica,sans-Serif" font-size="10.00">Storm::Solver&lt; InVector,</text>
<text text-anchor="middle" x="361.38" y="-498.75" font-family="Helvetica,sans-Serif" font-size="10.00"> OutVector &gt;</text>
</a>
</g>
</g>
<!-- Node1&#45;&gt;Node7 -->
<g id="edge6_Node000001_Node000007" class="edge">
<title>Node1&#45;&gt;Node7</title>
<g id="a_edge6_Node000001_Node000007"><a xlink:title=" ">
<path fill="none" stroke="#63b8ff" d="M269.33,-491.9C278.91,-493.62 289.09,-495.45 299.04,-497.24"/>
<polygon fill="#63b8ff" stroke="#63b8ff" points="270.27,-488.34 259.81,-490.02 269.03,-495.23 270.27,-488.34"/>
</a>
</g>
</g>
<!-- Node9 -->
<g id="Node000009" class="node">
<title>Node9</title>
<g id="a_Node000009"><a xlink:href="class_storm_1_1_solver.html" target="_top" xlink:title=" ">
<polygon fill="white" stroke="#666666" points="423.38,-474.5 299.38,-474.5 299.38,-444 423.38,-444 423.38,-474.5"/>
<text text-anchor="start" x="307.38" y="-461" font-family="Helvetica,sans-Serif" font-size="10.00">Storm::Solver&lt; InVector,</text>
<text text-anchor="middle" x="361.38" y="-449.75" font-family="Helvetica,sans-Serif" font-size="10.00"> InVector &gt;</text>
</a>
</g>
</g>
<!-- Node1&#45;&gt;Node9 -->
<g id="edge8_Node000001_Node000009" class="edge">
<title>Node1&#45;&gt;Node9</title>
<g id="a_edge8_Node000001_Node000009"><a xlink:title=" ">
<path fill="none" stroke="#63b8ff" d="M269.64,-474.89C279.13,-473.25 289.2,-471.52 299.04,-469.82"/>
<polygon fill="#63b8ff" stroke="#63b8ff" points="269.07,-471.61 259.81,-476.76 270.26,-478.51 269.07,-471.61"/>
</a>
</g>
</g>
<!-- Node10 -->
<g id="Node000010" class="node">
<title>Node10</title>
<g id="a_Node000010"><a xlink:href="class_storm_1_1_operator.html" target="_top" xlink:title="Abstract operator ð’š â† ð“(ð’™). &#45;=&#45;=&#45;=&#45;=&#45;=&#45;=&#45;=&#45;=&#45;=&#45;=&#45;=&#45;=&#45;=&#45;=&#45;=&#45;=&#45;=&#45;=&#45;=&#45;=&#45;=&#45;=&#45;=&#45;=&#45;=&#45;=&#45;=&#45;=&#45;=&#45;=&#45;=&#45;=&#45; ///.">
<polygon fill="white" stroke="#666666" points="428.25,-425.5 294.5,-425.5 294.5,-395 428.25,-395 428.25,-425.5"/>
<text text-anchor="start" x="302.5" y="-412" font-family="Helvetica,sans-Serif" font-size="10.00">Storm::Operator&lt; InVector,</text>
<text text-anchor="middle" x="361.38" y="-400.75" font-family="Helvetica,sans-Serif" font-size="10.00"> OutVector &gt;</text>
</a>
</g>
</g>
<!-- Node1&#45;&gt;Node10 -->
<g id="edge9_Node000001_Node000010" class="edge">
<title>Node1&#45;&gt;Node10</title>
<g id="a_edge9_Node000001_Node000010"><a xlink:title=" ">
<path fill="none" stroke="#63b8ff" d="M242.94,-467.18C257.15,-457.17 276.36,-444.49 294.5,-435.25 301.04,-431.92 308.13,-428.78 315.16,-425.92"/>
<polygon fill="#63b8ff" stroke="#63b8ff" points="241.48,-464.64 235.39,-473.31 245.55,-470.33 241.48,-464.64"/>
</a>
</g>
</g>
<!-- Node12 -->
<g id="Node000012" class="node">
<title>Node12</title>
<g id="a_Node000012"><a xlink:href="class_storm_1_1_solver.html" target="_top" xlink:title="Abstract operator equation solver. &#45;=&#45;=&#45;=&#45;=&#45;=&#45;=&#45;=&#45;=&#45;=&#45;=&#45;=&#45;=&#45;=&#45;=&#45;=&#45;=&#45;=&#45;=&#45;=&#45;=&#45;=&#45;=&#45;=&#45;=&#45;=&#45;=&#45;=&#45;=&#45;=&#45;=&#45;=&#45;=&#45; ...">
<polygon fill="white" stroke="#666666" points="423.38,-355.5 299.38,-355.5 299.38,-325 423.38,-325 423.38,-355.5"/>
<text text-anchor="start" x="307.38" y="-342" font-family="Helvetica,sans-Serif" font-size="10.00">Storm::Solver&lt; InVector,</text>
<text text-anchor="middle" x="361.38" y="-330.75" font-family="Helvetica,sans-Serif" font-size="10.00"> OutVector &gt;</text>
</a>
</g>
</g>
<!-- Node1&#45;&gt;Node12 -->
<g id="edge11_Node000001_Node000012" class="edge">
<title>Node1&#45;&gt;Node12</title>
<g id="a_edge11_Node000001_Node000012"><a xlink:title=" ">
<path fill="none" stroke="#63b8ff" d="M232.83,-464.35C246.17,-443.72 269.4,-410.41 294.5,-386.25 306.36,-374.83 321.28,-364.17 333.92,-355.99"/>
<polygon fill="#63b8ff" stroke="#63b8ff" points="229.52,-462.05 227.11,-472.37 235.43,-465.8 229.52,-462.05"/>
</a>
</g>
</g>
<!-- Node2 -->
<g id="Node000002" class="node">
<title>Node2</title>
<g id="a_Node000002"><a xlink:href="class_storm_1_1_non_copyable_interface.html" target="_top" xlink:title="Non copyable object interface.">
<polygon fill="white" stroke="#666666" points="145.75,-492.88 0,-492.88 0,-473.62 145.75,-473.62 145.75,-492.88"/>
<text text-anchor="middle" x="72.88" y="-479.38" font-family="Helvetica,sans-Serif" font-size="10.00">Storm::NonCopyableInterface</text>
</a>
</g>
</g>
<!-- Node2&#45;&gt;Node1 -->
<g id="edge1_Node000001_Node000002" class="edge">
<title>Node2&#45;&gt;Node1</title>
<g id="a_edge1_Node000001_Node000002"><a xlink:title=" ">
<path fill="none" stroke="#63b8ff" d="M156.95,-483.25C165.48,-483.25 173.81,-483.25 181.47,-483.25"/>
<polygon fill="#63b8ff" stroke="#63b8ff" points="157.07,-479.75 147.07,-483.25 157.07,-486.75 157.07,-479.75"/>
</a>
</g>
</g>
<!-- Node5 -->
<g id="Node000005" class="node">
<title>Node5</title>
<g id="a_Node000005"><a xlink:href="class_storm_1_1_preconditioner.html" target="_top" xlink:title="Abstract preconditioner operator. &#45;=&#45;=&#45;=&#45;=&#45;=&#45;=&#45;=&#45;=&#45;=&#45;=&#45;=&#45;=&#45;=&#45;=&#45;=&#45;=&#45;=&#45;=&#45;=&#45;=&#45;=&#45;=&#45;=&#45;=&#45;=&#45;=&#45;=&#45;=&#45;=&#45;=&#45;=&#45;=&#45; /...">
<polygon fill="white" stroke="#666666" points="584.88,-583.5 474.38,-583.5 474.38,-553 584.88,-553 584.88,-583.5"/>
<text text-anchor="start" x="482.38" y="-570" font-family="Helvetica,sans-Serif" font-size="10.00">Storm::Preconditioner</text>
<text text-anchor="middle" x="529.62" y="-558.75" font-family="Helvetica,sans-Serif" font-size="10.00">&lt; Vector &gt;</text>
</a>
</g>
</g>
<!-- Node4&#45;&gt;Node5 -->
<g id="edge4_Node000004_Node000005" class="edge">
<title>Node4&#45;&gt;Node5</title>
<g id="a_edge4_Node000004_Node000005"><a xlink:title=" ">
<path fill="none" stroke="#63b8ff" d="M438.53,-559.04C450.51,-560.26 462.69,-561.51 474.06,-562.67"/>
<polygon fill="#63b8ff" stroke="#63b8ff" points="438.91,-555.46 428.6,-557.92 438.2,-562.42 438.91,-555.46"/>
</a>
</g>
</g>
<!-- Node6 -->
<g id="Node000006" class="node">
<title>Node6</title>
<g id="a_Node000006"><a xlink:href="class_storm_1_1_identity_preconditioner.html" target="_top" xlink:title="Identity preconditioner, intended to be used for debugging only. &#45;=&#45;=&#45;=&#45;=&#45;=&#45;=&#45;=&#45;=&#45;=&#45;=&#45;=&#45;=&#45;=&#45;=&#45;=&#45;=&#45;=&#45;=...">
<polygon fill="white" stroke="#666666" points="776.38,-594.5 633.62,-594.5 633.62,-564 776.38,-564 776.38,-594.5"/>
<text text-anchor="start" x="641.62" y="-581" font-family="Helvetica,sans-Serif" font-size="10.00">Storm::IdentityPreconditioner</text>
<text text-anchor="middle" x="705" y="-569.75" font-family="Helvetica,sans-Serif" font-size="10.00">&lt; Vector &gt;</text>
</a>
</g>
</g>
<!-- Node5&#45;&gt;Node6 -->
<g id="edge5_Node000005_Node000006" class="edge">
<title>Node5&#45;&gt;Node6</title>
<g id="a_edge5_Node000005_Node000006"><a xlink:title=" ">
<path fill="none" stroke="#63b8ff" d="M595.61,-572.37C607.9,-573.15 620.81,-573.97 633.26,-574.76"/>
<polygon fill="#63b8ff" stroke="#63b8ff" points="596.21,-568.84 586.01,-571.7 595.76,-575.83 596.21,-568.84"/>
</a>
</g>
</g>
<!-- Node8 -->
<g id="Node000008" class="node">
<title>Node8</title>
<g id="a_Node000008"><a xlink:href="class_storm_1_1_iterative_solver.html" target="_top" xlink:title=" ">
<polygon fill="white" stroke="#666666" points="586,-523.5 473.25,-523.5 473.25,-493 586,-493 586,-523.5"/>
<text text-anchor="start" x="481.25" y="-510" font-family="Helvetica,sans-Serif" font-size="10.00">Storm::IterativeSolver</text>
<text text-anchor="middle" x="529.62" y="-498.75" font-family="Helvetica,sans-Serif" font-size="10.00">&lt; InVector, InVector &gt;</text>
</a>
</g>
</g>
<!-- Node7&#45;&gt;Node8 -->
<g id="edge7_Node000007_Node000008" class="edge">
<title>Node7&#45;&gt;Node8</title>
<g id="a_edge7_Node000007_Node000008"><a xlink:title=" ">
<path fill="none" stroke="#63b8ff" d="M434.51,-508.25C447.38,-508.25 460.61,-508.25 472.94,-508.25"/>
<polygon fill="#63b8ff" stroke="#63b8ff" points="434.81,-504.75 424.81,-508.25 434.81,-511.75 434.81,-504.75"/>
</a>
</g>
</g>
<!-- Node11 -->
<g id="Node000011" class="node">
<title>Node11</title>
<g id="a_Node000011"><a xlink:href="class_storm_1_1_functional_operator.html" target="_top" xlink:title="Operator implementation with external function pointers. &#45;=&#45;=&#45;=&#45;=&#45;=&#45;=&#45;=&#45;=&#45;=&#45;=&#45;=&#45;=&#45;=&#45;=&#45;=&#45;=&#45;=&#45;=&#45;=&#45;=&#45;=&#45;=...">
<polygon fill="white" stroke="#666666" points="595,-425.5 464.25,-425.5 464.25,-395 595,-395 595,-425.5"/>
<text text-anchor="start" x="472.25" y="-412" font-family="Helvetica,sans-Serif" font-size="10.00">Storm::FunctionalOperator</text>
<text text-anchor="middle" x="529.62" y="-400.75" font-family="Helvetica,sans-Serif" font-size="10.00">&lt; InVector, OutVector &gt;</text>
</a>
</g>
</g>
<!-- Node10&#45;&gt;Node11 -->
<g id="edge10_Node000010_Node000011" class="edge">
<title>Node10&#45;&gt;Node11</title>
<g id="a_edge10_Node000010_Node000011"><a xlink:title=" ">
<path fill="none" stroke="#63b8ff" d="M439.53,-410.25C447.63,-410.25 455.81,-410.25 463.75,-410.25"/>
<polygon fill="#63b8ff" stroke="#63b8ff" points="439.56,-406.75 429.56,-410.25 439.56,-413.75 439.56,-406.75"/>
</a>
</g>
</g>
<!-- Node13 -->
<g id="Node000013" class="node">
<title>Node13</title>
<g id="a_Node000013"><a xlink:href="class_storm_1_1_iterative_solver.html" target="_top" xlink:title=" ">
<polygon fill="white" stroke="#666666" points="585.25,-355.5 474,-355.5 474,-325 585.25,-325 585.25,-355.5"/>
<text text-anchor="start" x="482" y="-342" font-family="Helvetica,sans-Serif" font-size="10.00">Storm::IterativeSolver</text>
<text text-anchor="middle" x="529.62" y="-330.75" font-family="Helvetica,sans-Serif" font-size="10.00">&lt; Vector &gt;</text>
</a>
</g>
</g>
<!-- Node12&#45;&gt;Node13 -->
<g id="edge12_Node000012_Node000013" class="edge">
<title>Node12&#45;&gt;Node13</title>
<g id="a_edge12_Node000012_Node000013"><a xlink:title=" ">
<path fill="none" stroke="#63b8ff" d="M434.7,-340.25C447.79,-340.25 461.26,-340.25 473.75,-340.25"/>
<polygon fill="#63b8ff" stroke="#63b8ff" points="434.81,-336.75 424.81,-340.25 434.81,-343.75 434.81,-336.75"/>
</a>
</g>
</g>
<!-- Node25 -->
<g id="Node000025" class="node">
<title>Node25</title>
<g id="a_Node000025"><a xlink:href="class_storm_1_1_iterative_solver.html" target="_top" xlink:title="Abstract operator equation iterative solver. &#45;=&#45;=&#45;=&#45;=&#45;=&#45;=&#45;=&#45;=&#45;=&#45;=&#45;=&#45;=&#45;=&#45;=&#45;=&#45;=&#45;=&#45;=&#45;=&#45;=&#45;=&#45;=&#45;=&#45;=&#45;=&#45;=&#45;=&#45;=...">
<polygon fill="white" stroke="#666666" points="589.75,-128.5 469.5,-128.5 469.5,-98 589.75,-98 589.75,-128.5"/>
<text text-anchor="start" x="477.5" y="-115" font-family="Helvetica,sans-Serif" font-size="10.00">Storm::IterativeSolver</text>
<text text-anchor="middle" x="529.62" y="-103.75" font-family="Helvetica,sans-Serif" font-size="10.00">&lt; InVector, OutVector &gt;</text>
</a>
</g>
</g>
<!-- Node12&#45;&gt;Node25 -->
<g id="edge24_Node000012_Node000025" class="edge">
<title>Node12&#45;&gt;Node25</title>
<g id="a_edge24_Node000012_Node000025"><a xlink:title=" ">
<path fill="none" stroke="#63b8ff" d="M380.3,-315.78C414.59,-268.96 488.62,-167.87 517.12,-128.96"/>
<polygon fill="#63b8ff" stroke="#63b8ff" points="376.89,-313.51 373.8,-323.65 382.53,-317.65 376.89,-313.51"/>
</a>
</g>
</g>
<!-- Node14 -->
<g id="Node000014" class="node">
<title>Node14</title>
<g id="a_Node000014"><a xlink:href="class_storm_1_1_base_tfqmr_solver.html" target="_top" xlink:title=" ">
<polygon fill="white" stroke="#666666" points="767,-545.5 643,-545.5 643,-515 767,-515 767,-545.5"/>
<text text-anchor="start" x="651" y="-532" font-family="Helvetica,sans-Serif" font-size="10.00">Storm::BaseTfqmrSolver</text>
<text text-anchor="middle" x="705" y="-520.75" font-family="Helvetica,sans-Serif" font-size="10.00">&lt; Vector, true &gt;</text>
</a>
</g>
</g>
<!-- Node13&#45;&gt;Node14 -->
<g id="edge13_Node000013_Node000014" class="edge">
<title>Node13&#45;&gt;Node14</title>
<g id="a_edge13_Node000013_Node000014"><a xlink:title=" ">
<path fill="none" stroke="#63b8ff" d="M569.61,-361.92C579.01,-368.67 588.27,-376.86 595,-386.25 627.2,-431.16 592.64,-465.48 631,-505.25 634.53,-508.91 638.63,-512.04 643.04,-514.71"/>
<polygon fill="#63b8ff" stroke="#63b8ff" points="571.89,-358.56 561.64,-355.88 567.98,-364.36 571.89,-358.56"/>
</a>
</g>
</g>
<!-- Node16 -->
<g id="Node000016" class="node">
<title>Node16</title>
<g id="a_Node000016"><a xlink:href="class_storm_1_1_base_tfqmr_solver.html" target="_top" xlink:title=" ">
<polygon fill="white" stroke="#666666" points="767,-496.5 643,-496.5 643,-466 767,-466 767,-496.5"/>
<text text-anchor="start" x="651" y="-483" font-family="Helvetica,sans-Serif" font-size="10.00">Storm::BaseTfqmrSolver</text>
<text text-anchor="middle" x="705" y="-471.75" font-family="Helvetica,sans-Serif" font-size="10.00">&lt; Vector, false &gt;</text>
</a>
</g>
</g>
<!-- Node13&#45;&gt;Node16 -->
<g id="edge15_Node000013_Node000016" class="edge">
<title>Node13&#45;&gt;Node16</title>
<g id="a_edge15_Node000013_Node000016"><a xlink:title=" ">
<path fill="none" stroke="#63b8ff" d="M567.18,-361.85C577.01,-368.8 587.09,-377.1 595,-386.25 617.88,-412.72 604.53,-433.37 631,-456.25 635.15,-459.84 639.85,-462.92 644.81,-465.57"/>
<polygon fill="#63b8ff" stroke="#63b8ff" points="569.55,-358.55 559.3,-355.86 565.63,-364.36 569.55,-358.55"/>
</a>
</g>
</g>
<!-- Node18 -->
<g id="Node000018" class="node">
<title>Node18</title>
<g id="a_Node000018"><a xlink:href="class_storm_1_1_base_tfqmr_solver.html" target="_top" xlink:title="Parametrized TFQMR solver.">
<polygon fill="white" stroke="#666666" points="767,-447.5 643,-447.5 643,-417 767,-417 767,-447.5"/>
<text text-anchor="start" x="651" y="-434" font-family="Helvetica,sans-Serif" font-size="10.00">Storm::BaseTfqmrSolver</text>
<text text-anchor="middle" x="705" y="-422.75" font-family="Helvetica,sans-Serif" font-size="10.00">&lt; Vector, L1 &gt;</text>
</a>
</g>
</g>
<!-- Node13&#45;&gt;Node18 -->
<g id="edge17_Node000013_Node000018" class="edge">
<title>Node13&#45;&gt;Node18</title>
<g id="a_edge17_Node000013_Node000018"><a xlink:title=" ">
<path fill="none" stroke="#63b8ff" d="M561.25,-361.96C585.31,-378.78 617.01,-400.33 631,-407.25 637.84,-410.63 645.26,-413.75 652.65,-416.55"/>
<polygon fill="#63b8ff" stroke="#63b8ff" points="563.66,-358.67 553.46,-355.79 559.64,-364.4 563.66,-358.67"/>
</a>
</g>
</g>
<!-- Node19 -->
<g id="Node000019" class="node">
<title>Node19</title>
<g id="a_Node000019"><a xlink:href="class_storm_1_1_bi_cg_stab_solver.html" target="_top" xlink:title="The BiCGStab (Biconjugate Gradients Stabilized) linear operator equation solver.">
<polygon fill="white" stroke="#666666" points="764,-398.5 646,-398.5 646,-368 764,-368 764,-398.5"/>
<text text-anchor="start" x="654" y="-385" font-family="Helvetica,sans-Serif" font-size="10.00">Storm::BiCgStabSolver</text>
<text text-anchor="middle" x="705" y="-373.75" font-family="Helvetica,sans-Serif" font-size="10.00">&lt; Vector &gt;</text>
</a>
</g>
</g>
<!-- Node13&#45;&gt;Node19 -->
<g id="edge18_Node000013_Node000019" class="edge">
<title>Node13&#45;&gt;Node19</title>
<g id="a_edge18_Node000013_Node000019"><a xlink:title=" ">
<path fill="none" stroke="#63b8ff" d="M596.01,-356.47C612.31,-360.51 629.67,-364.82 645.61,-368.77"/>
<polygon fill="#63b8ff" stroke="#63b8ff" points="597.03,-352.87 586.48,-353.86 595.35,-359.66 597.03,-352.87"/>
</a>
</g>
</g>
<!-- Node20 -->
<g id="Node000020" class="node">
<title>Node20</title>
<g id="a_Node000020"><a xlink:href="class_storm_1_1_cg_solver.html" target="_top" xlink:title="The CG (Conjugate Gradients) linear self&#45;adjoint definite operator equation solver.">
<polygon fill="white" stroke="#666666" points="772.62,-349.88 637.38,-349.88 637.38,-330.62 772.62,-330.62 772.62,-349.88"/>
<text text-anchor="middle" x="705" y="-336.38" font-family="Helvetica,sans-Serif" font-size="10.00">Storm::CgSolver&lt; Vector &gt;</text>
</a>
</g>
</g>
<!-- Node13&#45;&gt;Node20 -->
<g id="edge19_Node000013_Node000020" class="edge">
<title>Node13&#45;&gt;Node20</title>
<g id="a_edge19_Node000013_Node000020"><a xlink:title=" ">
<path fill="none" stroke="#63b8ff" d="M596.45,-340.25C609.73,-340.25 623.71,-340.25 637.03,-340.25"/>
<polygon fill="#63b8ff" stroke="#63b8ff" points="596.48,-336.75 586.48,-340.25 596.48,-343.75 596.48,-336.75"/>
</a>
</g>
</g>
<!-- Node21 -->
<g id="Node000021" class="node">
<title>Node21</title>
<g id="a_Node000021"><a xlink:href="class_storm_1_1_cgs_solver.html" target="_top" xlink:title="The CGS (Conjugate Gradients Squared) linear operator equation solver.">
<polygon fill="white" stroke="#666666" points="775.25,-312.88 634.75,-312.88 634.75,-293.62 775.25,-293.62 775.25,-312.88"/>
<text text-anchor="middle" x="705" y="-299.38" font-family="Helvetica,sans-Serif" font-size="10.00">Storm::CgsSolver&lt; Vector &gt;</text>
</a>
</g>
</g>
<!-- Node13&#45;&gt;Node21 -->
<g id="edge20_Node000013_Node000021" class="edge">
<title>Node13&#45;&gt;Node21</title>
<g id="a_edge20_Node000013_Node000021"><a xlink:title=" ">
<path fill="none" stroke="#63b8ff" d="M596.17,-326.26C616.33,-321.96 638.12,-317.31 656.8,-313.32"/>
<polygon fill="#63b8ff" stroke="#63b8ff" points="595.53,-323.03 586.48,-328.54 596.99,-329.88 595.53,-323.03"/>
</a>
</g>
</g>
<!-- Node22 -->
<g id="Node000022" class="node">
<title>Node22</title>
<g id="a_Node000022"><a xlink:href="class_storm_1_1_jfnk_solver.html" target="_top" xlink:title="The first&#45;order JFNK (Jacobian free&#45;Newton&#45;Krylov) nonlinear operator equation solver.">
<polygon fill="white" stroke="#666666" points="755.38,-275.5 654.62,-275.5 654.62,-245 755.38,-245 755.38,-275.5"/>
<text text-anchor="start" x="662.62" y="-262" font-family="Helvetica,sans-Serif" font-size="10.00">Storm::JfnkSolver&lt;</text>
<text text-anchor="middle" x="705" y="-250.75" font-family="Helvetica,sans-Serif" font-size="10.00"> Vector &gt;</text>
</a>
</g>
</g>
<!-- Node13&#45;&gt;Node22 -->
<g id="edge21_Node000013_Node000022" class="edge">
<title>Node13&#45;&gt;Node22</title>
<g id="a_edge21_Node000013_Node000022"><a xlink:title=" ">
<path fill="none" stroke="#63b8ff" d="M564.94,-318.95C583.95,-307.71 608.28,-294.21 631,-284.25 638.45,-280.98 646.5,-277.91 654.43,-275.12"/>
<polygon fill="#63b8ff" stroke="#63b8ff" points="563.3,-316.46 556.52,-324.6 566.89,-322.46 563.3,-316.46"/>
</a>
</g>
</g>
<!-- Node23 -->
<g id="Node000023" class="node">
<title>Node23</title>
<g id="a_Node000023"><a xlink:href="class_storm_1_1_newton_solver.html" target="_top" xlink:title="The Newton method nonlinear operator equation solver.">
<polygon fill="white" stroke="#666666" points="759.88,-226.5 650.12,-226.5 650.12,-196 759.88,-196 759.88,-226.5"/>
<text text-anchor="start" x="658.12" y="-213" font-family="Helvetica,sans-Serif" font-size="10.00">Storm::NewtonSolver</text>
<text text-anchor="middle" x="705" y="-201.75" font-family="Helvetica,sans-Serif" font-size="10.00">&lt; Vector &gt;</text>
</a>
</g>
</g>
<!-- Node13&#45;&gt;Node23 -->
<g id="edge22_Node000013_Node000023" class="edge">
<title>Node13&#45;&gt;Node23</title>
<g id="a_edge22_Node000013_Node000023"><a xlink:title=" ">
<path fill="none" stroke="#63b8ff" d="M548.47,-315.95C566.8,-292.56 597.36,-257.65 631,-236.25 636.76,-232.58 643.13,-229.39 649.63,-226.61"/>
<polygon fill="#63b8ff" stroke="#63b8ff" points="545.14,-313.54 541.84,-323.6 550.7,-317.8 545.14,-313.54"/>
</a>
</g>
</g>
<!-- Node24 -->
<g id="Node000024" class="node">
<title>Node24</title>
<g id="a_Node000024"><a xlink:href="class_storm_1_1_richardson_solver.html" target="_top" xlink:title="The Richardson iteration linear operator equation solver.">
<polygon fill="white" stroke="#666666" points="767.75,-177.5 642.25,-177.5 642.25,-147 767.75,-147 767.75,-177.5"/>
<text text-anchor="start" x="650.25" y="-164" font-family="Helvetica,sans-Serif" font-size="10.00">Storm::RichardsonSolver</text>
<text text-anchor="middle" x="705" y="-152.75" font-family="Helvetica,sans-Serif" font-size="10.00">&lt; Vector &gt;</text>
</a>
</g>
</g>
<!-- Node13&#45;&gt;Node24 -->
<g id="edge23_Node000013_Node000024" class="edge">
<title>Node13&#45;&gt;Node24</title>
<g id="a_edge23_Node000013_Node000024"><a xlink:title=" ">
<path fill="none" stroke="#63b8ff" d="M540.98,-314.78C555.97,-280.96 586.84,-221.53 631,-187.25 635.66,-183.64 640.87,-180.53 646.31,-177.85"/>
<polygon fill="#63b8ff" stroke="#63b8ff" points="537.4,-313.23 536.67,-323.8 543.84,-315.99 537.4,-313.23"/>
</a>
</g>
</g>
<!-- Node15 -->
<g id="Node000015" class="node">
<title>Node15</title>
<g id="a_Node000015"><a xlink:href="class_storm_1_1_tfqmr1_solver.html" target="_top" xlink:title="The TFQMR1 (Transpose&#45;Free 1&#45;norm Quasi&#45;Minimal Residual) linear operator equation solver.">
<polygon fill="white" stroke="#666666" points="935.25,-545.5 828.5,-545.5 828.5,-515 935.25,-515 935.25,-545.5"/>
<text text-anchor="start" x="836.5" y="-532" font-family="Helvetica,sans-Serif" font-size="10.00">Storm::Tfqmr1Solver</text>
<text text-anchor="middle" x="881.88" y="-520.75" font-family="Helvetica,sans-Serif" font-size="10.00">&lt; Vector &gt;</text>
</a>
</g>
</g>
<!-- Node14&#45;&gt;Node15 -->
<g id="edge14_Node000014_Node000015" class="edge">
<title>Node14&#45;&gt;Node15</title>
<g id="a_edge14_Node000014_Node000015"><a xlink:title=" ">
<path fill="none" stroke="#63b8ff" d="M778.05,-530.25C794.84,-530.25 812.41,-530.25 828.18,-530.25"/>
<polygon fill="#63b8ff" stroke="#63b8ff" points="778.16,-526.75 768.16,-530.25 778.16,-533.75 778.16,-526.75"/>
</a>
</g>
</g>
<!-- Node17 -->
<g id="Node000017" class="node">
<title>Node17</title>
<g id="a_Node000017"><a xlink:href="class_storm_1_1_tfqmr_solver.html" target="_top" xlink:title="The TFQMR (Transpose&#45;Free Quasi&#45;Minimal Residual) linear operator equation solver.">
<polygon fill="white" stroke="#666666" points="932.62,-496.5 831.12,-496.5 831.12,-466 932.62,-466 932.62,-496.5"/>
<text text-anchor="start" x="839.12" y="-483" font-family="Helvetica,sans-Serif" font-size="10.00">Storm::TfqmrSolver</text>
<text text-anchor="middle" x="881.88" y="-471.75" font-family="Helvetica,sans-Serif" font-size="10.00">&lt; Vector &gt;</text>
</a>
</g>
</g>
<!-- Node16&#45;&gt;Node17 -->
<g id="edge16_Node000016_Node000017" class="edge">
<title>Node16&#45;&gt;Node17</title>
<g id="a_edge16_Node000016_Node000017"><a xlink:title=" ">
<path fill="none" stroke="#63b8ff" d="M778.05,-481.25C795.75,-481.25 814.32,-481.25 830.73,-481.25"/>
<polygon fill="#63b8ff" stroke="#63b8ff" points="778.16,-477.75 768.16,-481.25 778.16,-484.75 778.16,-477.75"/>
</a>
</g>
</g>
<!-- Node26 -->
<g id="Node000026" class="node">
<title>Node26</title>
<g id="a_Node000026"><a xlink:href="class_storm_1_1_inner_outer_iterative_solver.html" target="_top" xlink:title=" ">
<polygon fill="white" stroke="#666666" points="769.62,-128.5 640.38,-128.5 640.38,-98 769.62,-98 769.62,-128.5"/>
<text text-anchor="start" x="648.38" y="-115" font-family="Helvetica,sans-Serif" font-size="10.00">Storm::InnerOuterIterative</text>
<text text-anchor="middle" x="705" y="-103.75" font-family="Helvetica,sans-Serif" font-size="10.00">Solver&lt; Vector &gt;</text>
</a>
</g>
</g>
<!-- Node25&#45;&gt;Node26 -->
<g id="edge25_Node000025_Node000026" class="edge">
<title>Node25&#45;&gt;Node26</title>
<g id="a_edge25_Node000025_Node000026"><a xlink:title=" ">
<path fill="none" stroke="#63b8ff" d="M600.61,-113.25C613.64,-113.25 627.2,-113.25 640.04,-113.25"/>
<polygon fill="#63b8ff" stroke="#63b8ff" points="600.81,-109.75 590.81,-113.25 600.81,-116.75 600.81,-109.75"/>
</a>
</g>
</g>
<!-- Node34 -->
<g id="Node000034" class="node">
<title>Node34</title>
<g id="a_Node000034"><a xlink:href="class_storm_1_1_inner_outer_iterative_solver.html" target="_top" xlink:title="Abstract inner&#45;outer iterative solver. &#45;=&#45;=&#45;=&#45;=&#45;=&#45;=&#45;=&#45;=&#45;=&#45;=&#45;=&#45;=&#45;=&#45;=&#45;=&#45;=&#45;=&#45;=&#45;=&#45;=&#45;=&#45;=&#45;=&#45;=&#45;=&#45;=&#45;=&#45;=&#45;=&#45;=&#45;=...">
<polygon fill="white" stroke="#666666" points="779,-79.5 631,-79.5 631,-49 779,-49 779,-79.5"/>
<text text-anchor="start" x="639" y="-66" font-family="Helvetica,sans-Serif" font-size="10.00">Storm::InnerOuterIterative</text>
<text text-anchor="middle" x="705" y="-54.75" font-family="Helvetica,sans-Serif" font-size="10.00">Solver&lt; InVector, OutVector &gt;</text>
</a>
</g>
</g>
<!-- Node25&#45;&gt;Node34 -->
<g id="edge33_Node000025_Node000034" class="edge">
<title>Node25&#45;&gt;Node34</title>
<g id="a_edge33_Node000025_Node000034"><a xlink:title=" ">
<path fill="none" stroke="#63b8ff" d="M596.43,-94.65C613.53,-89.82 631.78,-84.66 648.3,-79.99"/>
<polygon fill="#63b8ff" stroke="#63b8ff" points="595.63,-91.52 586.96,-97.61 597.53,-98.26 595.63,-91.52"/>
</a>
</g>
</g>
<!-- Node27 -->
<g id="Node000027" class="node">
<title>Node27</title>
<g id="a_Node000027"><a xlink:href="class_storm_1_1_base_gmres_solver.html" target="_top" xlink:title=" ">
<polygon fill="white" stroke="#666666" points="945.75,-226.5 818,-226.5 818,-196 945.75,-196 945.75,-226.5"/>
<text text-anchor="start" x="826" y="-213" font-family="Helvetica,sans-Serif" font-size="10.00">Storm::BaseGmresSolver</text>
<text text-anchor="middle" x="881.88" y="-201.75" font-family="Helvetica,sans-Serif" font-size="10.00">&lt; Vector, true &gt;</text>
</a>
</g>
</g>
<!-- Node26&#45;&gt;Node27 -->
<g id="edge26_Node000026_Node000027" class="edge">
<title>Node26&#45;&gt;Node27</title>
<g id="a_edge26_Node000026_Node000027"><a xlink:title=" ">
<path fill="none" stroke="#63b8ff" d="M772.32,-133.86C774.63,-135.24 776.87,-136.7 779,-138.25 800.57,-153.93 793.69,-170.22 815,-186.25 819.69,-189.78 824.94,-192.87 830.37,-195.55"/>
<polygon fill="#63b8ff" stroke="#63b8ff" points="774.56,-130.56 764.09,-128.98 771.29,-136.75 774.56,-130.56"/>
</a>
</g>
</g>
<!-- Node29 -->
<g id="Node000029" class="node">
<title>Node29</title>
<g id="a_Node000029"><a xlink:href="class_storm_1_1_base_gmres_solver.html" target="_top" xlink:title=" ">
<polygon fill="white" stroke="#666666" points="945.75,-177.5 818,-177.5 818,-147 945.75,-147 945.75,-177.5"/>
<text text-anchor="start" x="826" y="-164" font-family="Helvetica,sans-Serif" font-size="10.00">Storm::BaseGmresSolver</text>
<text text-anchor="middle" x="881.88" y="-152.75" font-family="Helvetica,sans-Serif" font-size="10.00">&lt; Vector, false &gt;</text>
</a>
</g>
</g>
<!-- Node26&#45;&gt;Node29 -->
<g id="edge28_Node000026_Node000029" class="edge">
<title>Node26&#45;&gt;Node29</title>
<g id="a_edge28_Node000026_Node000029"><a xlink:title=" ">
<path fill="none" stroke="#63b8ff" d="M772.37,-131.85C789.62,-136.68 808.03,-141.84 824.69,-146.51"/>
<polygon fill="#63b8ff" stroke="#63b8ff" points="773.39,-128.22 762.81,-128.89 771.5,-134.96 773.39,-128.22"/>
</a>
</g>
</g>
<!-- Node31 -->
<g id="Node000031" class="node">
<title>Node31</title>
<g id="a_Node000031"><a xlink:href="class_storm_1_1_base_gmres_solver.html" target="_top" xlink:title="Parmetrized GMRES solver.">
<polygon fill="white" stroke="#666666" points="948.75,-128.5 815,-128.5 815,-98 948.75,-98 948.75,-128.5"/>
<text text-anchor="start" x="823" y="-115" font-family="Helvetica,sans-Serif" font-size="10.00">Storm::BaseGmresSolver</text>
<text text-anchor="middle" x="881.88" y="-103.75" font-family="Helvetica,sans-Serif" font-size="10.00">&lt; Vector, Flexible, Loose &gt;</text>
</a>
</g>
</g>
<!-- Node26&#45;&gt;Node31 -->
<g id="edge30_Node000026_Node000031" class="edge">
<title>Node26&#45;&gt;Node31</title>
<g id="a_edge30_Node000026_Node000031"><a xlink:title=" ">
<path fill="none" stroke="#63b8ff" d="M780.81,-113.25C792.08,-113.25 803.64,-113.25 814.71,-113.25"/>
<polygon fill="#63b8ff" stroke="#63b8ff" points="781.12,-109.75 771.12,-113.25 781.12,-116.75 781.12,-109.75"/>
</a>
</g>
</g>
<!-- Node32 -->
<g id="Node000032" class="node">
<title>Node32</title>
<g id="a_Node000032"><a xlink:href="class_storm_1_1_bi_cg_stab_l_solver.html" target="_top" xlink:title="The BiCGStab(l) (Biconjugate Gradients Stabilized) linear operator equation solver.">
<polygon fill="white" stroke="#666666" points="943.5,-79.5 820.25,-79.5 820.25,-49 943.5,-49 943.5,-79.5"/>
<text text-anchor="start" x="828.25" y="-66" font-family="Helvetica,sans-Serif" font-size="10.00">Storm::BiCgStabLSolver</text>
<text text-anchor="middle" x="881.88" y="-54.75" font-family="Helvetica,sans-Serif" font-size="10.00">&lt; Vector &gt;</text>
</a>
</g>
</g>
<!-- Node26&#45;&gt;Node32 -->
<g id="edge31_Node000026_Node000032" class="edge">
<title>Node26&#45;&gt;Node32</title>
<g id="a_edge31_Node000026_Node000032"><a xlink:title=" ">
<path fill="none" stroke="#63b8ff" d="M772.37,-94.65C789.62,-89.82 808.03,-84.66 824.69,-79.99"/>
<polygon fill="#63b8ff" stroke="#63b8ff" points="771.5,-91.54 762.81,-97.61 773.39,-98.28 771.5,-91.54"/>
</a>
</g>
</g>
<!-- Node33 -->
<g id="Node000033" class="node">
<title>Node33</title>
<g id="a_Node000033"><a xlink:href="class_storm_1_1_idrs_solver.html" target="_top" xlink:title="The IDR(s) (Induced Dimension Reduction) linear operator equation solver.">
<polygon fill="white" stroke="#666666" points="931.12,-30.5 832.62,-30.5 832.62,0 931.12,0 931.12,-30.5"/>
<text text-anchor="start" x="840.62" y="-17" font-family="Helvetica,sans-Serif" font-size="10.00">Storm::IdrsSolver&lt;</text>
<text text-anchor="middle" x="881.88" y="-5.75" font-family="Helvetica,sans-Serif" font-size="10.00"> Vector &gt;</text>
</a>
</g>
</g>
<!-- Node26&#45;&gt;Node33 -->
<g id="edge32_Node000026_Node000033" class="edge">
<title>Node26&#45;&gt;Node33</title>
<g id="a_edge32_Node000026_Node000033"><a xlink:title=" ">
<path fill="none" stroke="#63b8ff" d="M772.32,-92.64C774.63,-91.26 776.87,-89.8 779,-88.25 800.57,-72.57 793.69,-56.28 815,-40.25 820.28,-36.28 826.26,-32.87 832.42,-29.96"/>
<polygon fill="#63b8ff" stroke="#63b8ff" points="771.29,-89.75 764.09,-97.52 774.56,-95.94 771.29,-89.75"/>
</a>
</g>
</g>
<!-- Node28 -->
<g id="Node000028" class="node">
<title>Node28</title>
<g id="a_Node000028"><a xlink:href="class_storm_1_1_fgmres_solver.html" target="_top" xlink:title="The FGMRES (Flexible Generalized Minimal Residual) linear operator equation solver.">
<polygon fill="white" stroke="#666666" points="1093.75,-226.5 984.75,-226.5 984.75,-196 1093.75,-196 1093.75,-226.5"/>
<text text-anchor="start" x="992.75" y="-213" font-family="Helvetica,sans-Serif" font-size="10.00">Storm::FgmresSolver</text>
<text text-anchor="middle" x="1039.25" y="-201.75" font-family="Helvetica,sans-Serif" font-size="10.00">&lt; Vector &gt;</text>
</a>
</g>
</g>
<!-- Node27&#45;&gt;Node28 -->
<g id="edge27_Node000027_Node000028" class="edge">
<title>Node27&#45;&gt;Node28</title>
<g id="a_edge27_Node000027_Node000028"><a xlink:title=" ">
<path fill="none" stroke="#63b8ff" d="M956.94,-211.25C966.26,-211.25 975.64,-211.25 984.56,-211.25"/>
<polygon fill="#63b8ff" stroke="#63b8ff" points="957.07,-207.75 947.07,-211.25 957.07,-214.75 957.07,-207.75"/>
</a>
</g>
</g>
<!-- Node30 -->
<g id="Node000030" class="node">
<title>Node30</title>
<g id="a_Node000030"><a xlink:href="class_storm_1_1_gmres_solver.html" target="_top" xlink:title="The GMRES (Generalized Minimal Residual) linear operator equation solver.">
<polygon fill="white" stroke="#666666" points="1091.88,-177.5 986.62,-177.5 986.62,-147 1091.88,-147 1091.88,-177.5"/>
<text text-anchor="start" x="994.62" y="-164" font-family="Helvetica,sans-Serif" font-size="10.00">Storm::GmresSolver</text>
<text text-anchor="middle" x="1039.25" y="-152.75" font-family="Helvetica,sans-Serif" font-size="10.00">&lt; Vector &gt;</text>
</a>
</g>
</g>
<!-- Node29&#45;&gt;Node30 -->
<g id="edge29_Node000029_Node000030" class="edge">
<title>Node29&#45;&gt;Node30</title>
<g id="a_edge29_Node000029_Node000030"><a xlink:title=" ">
<path fill="none" stroke="#63b8ff" d="M956.88,-162.25C966.9,-162.25 977,-162.25 986.51,-162.25"/>
<polygon fill="#63b8ff" stroke="#63b8ff" points="957.07,-158.75 947.07,-162.25 957.07,-165.75 957.07,-158.75"/>
</a>
</g>
</g>
</g>
</svg>
