<?xml version="1.0" encoding="UTF-8" standalone="no"?>
<!DOCTYPE svg PUBLIC "-//W3C//DTD SVG 1.1//EN"
 "http://www.w3.org/Graphics/SVG/1.1/DTD/svg11.dtd">
<!-- Generated by graphviz version 8.0.5 (20230430.1635)
 -->
<!-- Title: Storm::Feathers::MhdFvBcNoSlipT&lt; MhdPhysicsT &gt; Pages: 1 -->
<svg width="143pt" height="183pt"
 viewBox="0.00 0.00 142.50 182.75" xmlns="http://www.w3.org/2000/svg" xmlns:xlink="http://www.w3.org/1999/xlink">
<g id="graph0" class="graph" transform="scale(1 1) rotate(0) translate(4 178.75)">
<title>Storm::Feathers::MhdFvBcNoSlipT&lt; MhdPhysicsT &gt;</title>
<!-- Node1 -->
<g id="node1" class="node">
<title>Node1</title>
<g id="a_node1"><a xlink:title="No&#45;slip wall boundary condition.">
<polygon fill="#999999" stroke="#666666" points="134.5,-30.5 0,-30.5 0,0 134.5,0 134.5,-30.5"/>
<text text-anchor="start" x="8" y="-17" font-family="Helvetica,sans-Serif" font-size="10.00">Storm::Feathers::MhdFvBc</text>
<text text-anchor="middle" x="67.25" y="-5.75" font-family="Helvetica,sans-Serif" font-size="10.00">NoSlipT&lt; MhdPhysicsT &gt;</text>
</a>
</g>
</g>
<!-- Node2 -->
<g id="node2" class="node">
<title>Node2</title>
<g id="a_node2"><a xlink:href="class_storm_1_1_feathers_1_1_mhd_fv_bc_p_t.html" target="_top" xlink:title="Abstract boundary condition.">
<polygon fill="white" stroke="#666666" points="134.5,-97 0,-97 0,-66.5 134.5,-66.5 134.5,-97"/>
<text text-anchor="start" x="8" y="-83.5" font-family="Helvetica,sans-Serif" font-size="10.00">Storm::Feathers::MhdFvBc</text>
<text text-anchor="middle" x="67.25" y="-72.25" font-family="Helvetica,sans-Serif" font-size="10.00">PT&lt; MhdPhysicsT &gt;</text>
</a>
</g>
</g>
<!-- Node2&#45;&gt;Node1 -->
<g id="edge1" class="edge">
<title>Node2&#45;&gt;Node1</title>
<path fill="none" stroke="#63b8ff" d="M67.25,-55.38C67.25,-47.05 67.25,-38.08 67.25,-30.83"/>
<polygon fill="#63b8ff" stroke="#63b8ff" points="63.75,-55.11 67.25,-65.11 70.75,-55.11 63.75,-55.11"/>
</g>
<!-- Node3 -->
<g id="node3" class="node">
<title>Node3</title>
<g id="a_node3"><a xlink:title=" ">
<polygon fill="white" stroke="#bfbfbf" points="130,-174.75 4.5,-174.75 4.5,-133 130,-133 130,-174.75"/>
<text text-anchor="start" x="12.5" y="-161.25" font-family="Helvetica,sans-Serif" font-size="10.00">std::enable_shared</text>
<text text-anchor="start" x="12.5" y="-150" font-family="Helvetica,sans-Serif" font-size="10.00">_from_this&lt; MhdFvBcPT</text>
<text text-anchor="middle" x="67.25" y="-138.75" font-family="Helvetica,sans-Serif" font-size="10.00">&lt; MhdPhysicsT &gt; &gt;</text>
</a>
</g>
</g>
<!-- Node3&#45;&gt;Node2 -->
<g id="edge2" class="edge">
<title>Node3&#45;&gt;Node2</title>
<path fill="none" stroke="#63b8ff" d="M67.25,-121.71C67.25,-113.17 67.25,-104.31 67.25,-97.2"/>
<polygon fill="#63b8ff" stroke="#63b8ff" points="63.75,-121.59 67.25,-131.59 70.75,-121.59 63.75,-121.59"/>
</g>
</g>
</svg>
