<?xml version="1.0" encoding="UTF-8" standalone="no"?>
<!DOCTYPE svg PUBLIC "-//W3C//DTD SVG 1.1//EN"
 "http://www.w3.org/Graphics/SVG/1.1/DTD/svg11.dtd">
<!-- Generated by graphviz version 8.1.0 (20230707.0739)
 -->
<!-- Title: Storm::NonCopyableInterface Pages: 1 -->
<svg width="1176pt" height="618pt"
 viewBox="0.00 0.00 1176.00 617.50" xmlns="http://www.w3.org/2000/svg" xmlns:xlink="http://www.w3.org/1999/xlink">
<g id="graph0" class="graph" transform="scale(1 1) rotate(0) translate(4 613.5)">
<title>Storm::NonCopyableInterface</title>
<!-- Node1 -->
<g id="Node000001" class="node">
<title>Node1</title>
<g id="a_Node000001"><a xlink:title="Non copyable object interface.">
<polygon fill="#999999" stroke="#666666" points="145.75,-535.88 0,-535.88 0,-516.62 145.75,-516.62 145.75,-535.88"/>
<text text-anchor="middle" x="72.88" y="-522.38" font-family="Helvetica,sans-Serif" font-size="10.00">Storm::NonCopyableInterface</text>
</a>
</g>
</g>
<!-- Node2 -->
<g id="Node000002" class="node">
<title>Node2</title>
<g id="a_Node000002"><a xlink:href="class_storm_1_1_filtering_streambuf.html" target="_top" xlink:title="Filtering stream buffer.">
<polygon fill="white" stroke="#666666" points="332.75,-590.5 181.75,-590.5 181.75,-560 332.75,-560 332.75,-590.5"/>
<text text-anchor="start" x="189.75" y="-577" font-family="Helvetica,sans-Serif" font-size="10.00">Storm::FilteringStreambuf</text>
<text text-anchor="middle" x="257.25" y="-565.75" font-family="Helvetica,sans-Serif" font-size="10.00">&lt; Char, BeginFilter, EndFilter &gt;</text>
</a>
</g>
</g>
<!-- Node1&#45;&gt;Node2 -->
<g id="edge1_Node000001_Node000002" class="edge">
<title>Node1&#45;&gt;Node2</title>
<g id="a_edge1_Node000001_Node000002"><a xlink:title=" ">
<path fill="none" stroke="#63b8ff" d="M121.56,-539.06C144.88,-545.33 173.15,-552.92 197.77,-559.54"/>
<polygon fill="#63b8ff" stroke="#63b8ff" points="122.79,-535.5 112.22,-536.28 120.97,-542.26 122.79,-535.5"/>
</a>
</g>
</g>
<!-- Node3 -->
<g id="Node000003" class="node">
<title>Node3</title>
<g id="a_Node000003"><a xlink:href="class_storm_1_1_matrix_owning_view.html" target="_top" xlink:title="Matrix owning view.">
<polygon fill="white" stroke="#666666" points="322.25,-541.5 192.25,-541.5 192.25,-511 322.25,-511 322.25,-541.5"/>
<text text-anchor="start" x="200.25" y="-528" font-family="Helvetica,sans-Serif" font-size="10.00">Storm::MatrixOwningView</text>
<text text-anchor="middle" x="257.25" y="-516.75" font-family="Helvetica,sans-Serif" font-size="10.00">&lt; Matrix &gt;</text>
</a>
</g>
</g>
<!-- Node1&#45;&gt;Node3 -->
<g id="edge2_Node000001_Node000003" class="edge">
<title>Node1&#45;&gt;Node3</title>
<g id="a_edge2_Node000001_Node000003"><a xlink:title=" ">
<path fill="none" stroke="#63b8ff" d="M156.94,-526.25C168.7,-526.25 180.64,-526.25 191.97,-526.25"/>
<polygon fill="#63b8ff" stroke="#63b8ff" points="157.22,-522.75 147.22,-526.25 157.22,-529.75 157.22,-522.75"/>
</a>
</g>
</g>
<!-- Node4 -->
<g id="Node000004" class="node">
<title>Node4</title>
<g id="a_Node000004"><a xlink:href="class_storm_1_1_object.html" target="_top" xlink:title="A base object.">
<polygon fill="white" stroke="#666666" points="295.62,-492.88 218.88,-492.88 218.88,-473.62 295.62,-473.62 295.62,-492.88"/>
<text text-anchor="middle" x="257.25" y="-479.38" font-family="Helvetica,sans-Serif" font-size="10.00">Storm::Object</text>
</a>
</g>
</g>
<!-- Node1&#45;&gt;Node4 -->
<g id="edge3_Node000001_Node000004" class="edge">
<title>Node1&#45;&gt;Node4</title>
<g id="a_edge3_Node000001_Node000004"><a xlink:title=" ">
<path fill="none" stroke="#63b8ff" d="M127.1,-513.7C156.37,-506.8 191.99,-498.4 218.4,-492.17"/>
<polygon fill="#63b8ff" stroke="#63b8ff" points="126.56,-510.47 117.63,-516.17 128.17,-517.28 126.56,-510.47"/>
</a>
</g>
</g>
<!-- Node5 -->
<g id="Node000005" class="node">
<title>Node5</title>
<g id="a_Node000005"><a xlink:href="class_storm_1_1_operator.html" target="_top" xlink:title=" ">
<polygon fill="white" stroke="#666666" points="502.5,-609.5 368.75,-609.5 368.75,-579 502.5,-579 502.5,-609.5"/>
<text text-anchor="start" x="376.75" y="-596" font-family="Helvetica,sans-Serif" font-size="10.00">Storm::Operator&lt; InVector,</text>
<text text-anchor="middle" x="435.62" y="-584.75" font-family="Helvetica,sans-Serif" font-size="10.00"> InVector &gt;</text>
</a>
</g>
</g>
<!-- Node4&#45;&gt;Node5 -->
<g id="edge4_Node000004_Node000005" class="edge">
<title>Node4&#45;&gt;Node5</title>
<g id="a_edge4_Node000004_Node000005"><a xlink:title=" ">
<path fill="none" stroke="#63b8ff" d="M306.43,-489.3C315.83,-492.13 325.13,-496.25 332.75,-502.25 359.62,-523.4 342.97,-547.79 368.75,-570.25 372.42,-573.45 376.55,-576.23 380.91,-578.66"/>
<polygon fill="#63b8ff" stroke="#63b8ff" points="307.4,-485.68 296.84,-486.62 305.68,-492.47 307.4,-485.68"/>
</a>
</g>
</g>
<!-- Node6 -->
<g id="Node000006" class="node">
<title>Node6</title>
<g id="a_Node000006"><a xlink:href="class_storm_1_1_operator.html" target="_top" xlink:title=" ">
<polygon fill="white" stroke="#666666" points="501.75,-560.88 369.5,-560.88 369.5,-541.62 501.75,-541.62 501.75,-560.88"/>
<text text-anchor="middle" x="435.62" y="-547.38" font-family="Helvetica,sans-Serif" font-size="10.00">Storm::Operator&lt; Vector &gt;</text>
</a>
</g>
</g>
<!-- Node4&#45;&gt;Node6 -->
<g id="edge5_Node000004_Node000006" class="edge">
<title>Node4&#45;&gt;Node6</title>
<g id="a_edge5_Node000004_Node000006"><a xlink:title=" ">
<path fill="none" stroke="#63b8ff" d="M306.3,-492.15C315.35,-494.75 324.55,-498.06 332.75,-502.25 351.3,-511.72 350.35,-522.49 368.75,-532.25 375.37,-535.76 382.73,-538.7 390.05,-541.13"/>
<polygon fill="#63b8ff" stroke="#63b8ff" points="307.36,-488.55 296.8,-489.41 305.6,-495.32 307.36,-488.55"/>
</a>
</g>
</g>
<!-- Node9 -->
<g id="Node000009" class="node">
<title>Node9</title>
<g id="a_Node000009"><a xlink:href="class_storm_1_1_solver.html" target="_top" xlink:title=" ">
<polygon fill="white" stroke="#666666" points="497.62,-523.5 373.62,-523.5 373.62,-493 497.62,-493 497.62,-523.5"/>
<text text-anchor="start" x="381.62" y="-510" font-family="Helvetica,sans-Serif" font-size="10.00">Storm::Solver&lt; InVector,</text>
<text text-anchor="middle" x="435.62" y="-498.75" font-family="Helvetica,sans-Serif" font-size="10.00"> OutVector &gt;</text>
</a>
</g>
</g>
<!-- Node4&#45;&gt;Node9 -->
<g id="edge8_Node000004_Node000009" class="edge">
<title>Node4&#45;&gt;Node9</title>
<g id="a_edge8_Node000004_Node000009"><a xlink:title=" ">
<path fill="none" stroke="#63b8ff" d="M306.78,-490.13C327.33,-493.04 351.5,-496.47 373.26,-499.55"/>
<polygon fill="#63b8ff" stroke="#63b8ff" points="307.48,-486.55 297.09,-488.61 306.5,-493.48 307.48,-486.55"/>
</a>
</g>
</g>
<!-- Node11 -->
<g id="Node000011" class="node">
<title>Node11</title>
<g id="a_Node000011"><a xlink:href="class_storm_1_1_solver.html" target="_top" xlink:title=" ">
<polygon fill="white" stroke="#666666" points="497.62,-474.5 373.62,-474.5 373.62,-444 497.62,-444 497.62,-474.5"/>
<text text-anchor="start" x="381.62" y="-461" font-family="Helvetica,sans-Serif" font-size="10.00">Storm::Solver&lt; InVector,</text>
<text text-anchor="middle" x="435.62" y="-449.75" font-family="Helvetica,sans-Serif" font-size="10.00"> InVector &gt;</text>
</a>
</g>
</g>
<!-- Node4&#45;&gt;Node11 -->
<g id="edge10_Node000004_Node000011" class="edge">
<title>Node4&#45;&gt;Node11</title>
<g id="a_edge10_Node000004_Node000011"><a xlink:title=" ">
<path fill="none" stroke="#63b8ff" d="M306.78,-476.65C327.33,-473.85 351.5,-470.56 373.26,-467.6"/>
<polygon fill="#63b8ff" stroke="#63b8ff" points="306.52,-473.28 297.09,-478.1 307.47,-480.22 306.52,-473.28"/>
</a>
</g>
</g>
<!-- Node12 -->
<g id="Node000012" class="node">
<title>Node12</title>
<g id="a_Node000012"><a xlink:href="class_storm_1_1_operator.html" target="_top" xlink:title="Abstract operator ð’š â† ð“(ð’™). &#45;=&#45;=&#45;=&#45;=&#45;=&#45;=&#45;=&#45;=&#45;=&#45;=&#45;=&#45;=&#45;=&#45;=&#45;=&#45;=&#45;=&#45;=&#45;=&#45;=&#45;=&#45;=&#45;=&#45;=&#45;=&#45;=&#45;=&#45;=&#45;=&#45;=&#45;=&#45;=&#45; ///.">
<polygon fill="white" stroke="#666666" points="502.5,-425.5 368.75,-425.5 368.75,-395 502.5,-395 502.5,-425.5"/>
<text text-anchor="start" x="376.75" y="-412" font-family="Helvetica,sans-Serif" font-size="10.00">Storm::Operator&lt; InVector,</text>
<text text-anchor="middle" x="435.62" y="-400.75" font-family="Helvetica,sans-Serif" font-size="10.00"> OutVector &gt;</text>
</a>
</g>
</g>
<!-- Node4&#45;&gt;Node12 -->
<g id="edge11_Node000004_Node000012" class="edge">
<title>Node4&#45;&gt;Node12</title>
<g id="a_edge11_Node000004_Node000012"><a xlink:title=" ">
<path fill="none" stroke="#63b8ff" d="M290.35,-468.83C312.31,-459.08 342.16,-446.07 368.75,-435.25 376.34,-432.16 384.47,-428.98 392.34,-425.96"/>
<polygon fill="#63b8ff" stroke="#63b8ff" points="289.26,-465.93 281.55,-473.19 292.11,-472.32 289.26,-465.93"/>
</a>
</g>
</g>
<!-- Node14 -->
<g id="Node000014" class="node">
<title>Node14</title>
<g id="a_Node000014"><a xlink:href="class_storm_1_1_solver.html" target="_top" xlink:title="Abstract operator equation solver. &#45;=&#45;=&#45;=&#45;=&#45;=&#45;=&#45;=&#45;=&#45;=&#45;=&#45;=&#45;=&#45;=&#45;=&#45;=&#45;=&#45;=&#45;=&#45;=&#45;=&#45;=&#45;=&#45;=&#45;=&#45;=&#45;=&#45;=&#45;=&#45;=&#45;=&#45;=&#45;=&#45; ...">
<polygon fill="white" stroke="#666666" points="497.62,-355.5 373.62,-355.5 373.62,-325 497.62,-325 497.62,-355.5"/>
<text text-anchor="start" x="381.62" y="-342" font-family="Helvetica,sans-Serif" font-size="10.00">Storm::Solver&lt; InVector,</text>
<text text-anchor="middle" x="435.62" y="-330.75" font-family="Helvetica,sans-Serif" font-size="10.00"> OutVector &gt;</text>
</a>
</g>
</g>
<!-- Node4&#45;&gt;Node14 -->
<g id="edge13_Node000004_Node000014" class="edge">
<title>Node4&#45;&gt;Node14</title>
<g id="a_edge13_Node000004_Node000014"><a xlink:title=" ">
<path fill="none" stroke="#63b8ff" d="M276.87,-465.77C298.4,-445.82 335.21,-412.55 368.75,-386.25 382.36,-375.58 398.24,-364.45 411,-355.81"/>
<polygon fill="#63b8ff" stroke="#63b8ff" points="274.82,-462.82 269.89,-472.2 279.59,-467.95 274.82,-462.82"/>
</a>
</g>
</g>
<!-- Node7 -->
<g id="Node000007" class="node">
<title>Node7</title>
<g id="a_Node000007"><a xlink:href="class_storm_1_1_preconditioner.html" target="_top" xlink:title="Abstract preconditioner operator. &#45;=&#45;=&#45;=&#45;=&#45;=&#45;=&#45;=&#45;=&#45;=&#45;=&#45;=&#45;=&#45;=&#45;=&#45;=&#45;=&#45;=&#45;=&#45;=&#45;=&#45;=&#45;=&#45;=&#45;=&#45;=&#45;=&#45;=&#45;=&#45;=&#45;=&#45;=&#45;=&#45; /...">
<polygon fill="white" stroke="#666666" points="659.12,-583.5 548.62,-583.5 548.62,-553 659.12,-553 659.12,-583.5"/>
<text text-anchor="start" x="556.62" y="-570" font-family="Helvetica,sans-Serif" font-size="10.00">Storm::Preconditioner</text>
<text text-anchor="middle" x="603.88" y="-558.75" font-family="Helvetica,sans-Serif" font-size="10.00">&lt; Vector &gt;</text>
</a>
</g>
</g>
<!-- Node6&#45;&gt;Node7 -->
<g id="edge6_Node000006_Node000007" class="edge">
<title>Node6&#45;&gt;Node7</title>
<g id="a_edge6_Node000006_Node000007"><a xlink:title=" ">
<path fill="none" stroke="#63b8ff" d="M512.78,-559.04C524.76,-560.26 536.94,-561.51 548.31,-562.67"/>
<polygon fill="#63b8ff" stroke="#63b8ff" points="513.16,-555.46 502.85,-557.92 512.45,-562.42 513.16,-555.46"/>
</a>
</g>
</g>
<!-- Node8 -->
<g id="Node000008" class="node">
<title>Node8</title>
<g id="a_Node000008"><a xlink:href="class_storm_1_1_identity_preconditioner.html" target="_top" xlink:title="Identity preconditioner, intended to be used for debugging only. &#45;=&#45;=&#45;=&#45;=&#45;=&#45;=&#45;=&#45;=&#45;=&#45;=&#45;=&#45;=&#45;=&#45;=&#45;=&#45;=&#45;=&#45;=...">
<polygon fill="white" stroke="#666666" points="850.62,-594.5 707.88,-594.5 707.88,-564 850.62,-564 850.62,-594.5"/>
<text text-anchor="start" x="715.88" y="-581" font-family="Helvetica,sans-Serif" font-size="10.00">Storm::IdentityPreconditioner</text>
<text text-anchor="middle" x="779.25" y="-569.75" font-family="Helvetica,sans-Serif" font-size="10.00">&lt; Vector &gt;</text>
</a>
</g>
</g>
<!-- Node7&#45;&gt;Node8 -->
<g id="edge7_Node000007_Node000008" class="edge">
<title>Node7&#45;&gt;Node8</title>
<g id="a_edge7_Node000007_Node000008"><a xlink:title=" ">
<path fill="none" stroke="#63b8ff" d="M669.86,-572.37C682.15,-573.15 695.06,-573.97 707.51,-574.76"/>
<polygon fill="#63b8ff" stroke="#63b8ff" points="670.46,-568.84 660.26,-571.7 670.01,-575.83 670.46,-568.84"/>
</a>
</g>
</g>
<!-- Node10 -->
<g id="Node000010" class="node">
<title>Node10</title>
<g id="a_Node000010"><a xlink:href="class_storm_1_1_iterative_solver.html" target="_top" xlink:title=" ">
<polygon fill="white" stroke="#666666" points="660.25,-523.5 547.5,-523.5 547.5,-493 660.25,-493 660.25,-523.5"/>
<text text-anchor="start" x="555.5" y="-510" font-family="Helvetica,sans-Serif" font-size="10.00">Storm::IterativeSolver</text>
<text text-anchor="middle" x="603.88" y="-498.75" font-family="Helvetica,sans-Serif" font-size="10.00">&lt; InVector, InVector &gt;</text>
</a>
</g>
</g>
<!-- Node9&#45;&gt;Node10 -->
<g id="edge9_Node000009_Node000010" class="edge">
<title>Node9&#45;&gt;Node10</title>
<g id="a_edge9_Node000009_Node000010"><a xlink:title=" ">
<path fill="none" stroke="#63b8ff" d="M508.76,-508.25C521.63,-508.25 534.86,-508.25 547.19,-508.25"/>
<polygon fill="#63b8ff" stroke="#63b8ff" points="509.06,-504.75 499.06,-508.25 509.06,-511.75 509.06,-504.75"/>
</a>
</g>
</g>
<!-- Node13 -->
<g id="Node000013" class="node">
<title>Node13</title>
<g id="a_Node000013"><a xlink:href="class_storm_1_1_functional_operator.html" target="_top" xlink:title="Operator implementation with external function pointers. &#45;=&#45;=&#45;=&#45;=&#45;=&#45;=&#45;=&#45;=&#45;=&#45;=&#45;=&#45;=&#45;=&#45;=&#45;=&#45;=&#45;=&#45;=&#45;=&#45;=&#45;=&#45;=...">
<polygon fill="white" stroke="#666666" points="669.25,-425.5 538.5,-425.5 538.5,-395 669.25,-395 669.25,-425.5"/>
<text text-anchor="start" x="546.5" y="-412" font-family="Helvetica,sans-Serif" font-size="10.00">Storm::FunctionalOperator</text>
<text text-anchor="middle" x="603.88" y="-400.75" font-family="Helvetica,sans-Serif" font-size="10.00">&lt; InVector, OutVector &gt;</text>
</a>
</g>
</g>
<!-- Node12&#45;&gt;Node13 -->
<g id="edge12_Node000012_Node000013" class="edge">
<title>Node12&#45;&gt;Node13</title>
<g id="a_edge12_Node000012_Node000013"><a xlink:title=" ">
<path fill="none" stroke="#63b8ff" d="M513.78,-410.25C521.88,-410.25 530.06,-410.25 538,-410.25"/>
<polygon fill="#63b8ff" stroke="#63b8ff" points="513.81,-406.75 503.81,-410.25 513.81,-413.75 513.81,-406.75"/>
</a>
</g>
</g>
<!-- Node15 -->
<g id="Node000015" class="node">
<title>Node15</title>
<g id="a_Node000015"><a xlink:href="class_storm_1_1_iterative_solver.html" target="_top" xlink:title=" ">
<polygon fill="white" stroke="#666666" points="659.5,-355.5 548.25,-355.5 548.25,-325 659.5,-325 659.5,-355.5"/>
<text text-anchor="start" x="556.25" y="-342" font-family="Helvetica,sans-Serif" font-size="10.00">Storm::IterativeSolver</text>
<text text-anchor="middle" x="603.88" y="-330.75" font-family="Helvetica,sans-Serif" font-size="10.00">&lt; Vector &gt;</text>
</a>
</g>
</g>
<!-- Node14&#45;&gt;Node15 -->
<g id="edge14_Node000014_Node000015" class="edge">
<title>Node14&#45;&gt;Node15</title>
<g id="a_edge14_Node000014_Node000015"><a xlink:title=" ">
<path fill="none" stroke="#63b8ff" d="M508.95,-340.25C522.04,-340.25 535.51,-340.25 548,-340.25"/>
<polygon fill="#63b8ff" stroke="#63b8ff" points="509.06,-336.75 499.06,-340.25 509.06,-343.75 509.06,-336.75"/>
</a>
</g>
</g>
<!-- Node27 -->
<g id="Node000027" class="node">
<title>Node27</title>
<g id="a_Node000027"><a xlink:href="class_storm_1_1_iterative_solver.html" target="_top" xlink:title="Abstract operator equation iterative solver. &#45;=&#45;=&#45;=&#45;=&#45;=&#45;=&#45;=&#45;=&#45;=&#45;=&#45;=&#45;=&#45;=&#45;=&#45;=&#45;=&#45;=&#45;=&#45;=&#45;=&#45;=&#45;=&#45;=&#45;=&#45;=&#45;=&#45;=&#45;=...">
<polygon fill="white" stroke="#666666" points="664,-128.5 543.75,-128.5 543.75,-98 664,-98 664,-128.5"/>
<text text-anchor="start" x="551.75" y="-115" font-family="Helvetica,sans-Serif" font-size="10.00">Storm::IterativeSolver</text>
<text text-anchor="middle" x="603.88" y="-103.75" font-family="Helvetica,sans-Serif" font-size="10.00">&lt; InVector, OutVector &gt;</text>
</a>
</g>
</g>
<!-- Node14&#45;&gt;Node27 -->
<g id="edge26_Node000014_Node000027" class="edge">
<title>Node14&#45;&gt;Node27</title>
<g id="a_edge26_Node000014_Node000027"><a xlink:title=" ">
<path fill="none" stroke="#63b8ff" d="M454.55,-315.78C488.84,-268.96 562.87,-167.87 591.37,-128.96"/>
<polygon fill="#63b8ff" stroke="#63b8ff" points="451.14,-313.51 448.05,-323.65 456.78,-317.65 451.14,-313.51"/>
</a>
</g>
</g>
<!-- Node16 -->
<g id="Node000016" class="node">
<title>Node16</title>
<g id="a_Node000016"><a xlink:href="class_storm_1_1_base_tfqmr_solver.html" target="_top" xlink:title=" ">
<polygon fill="white" stroke="#666666" points="841.25,-545.5 717.25,-545.5 717.25,-515 841.25,-515 841.25,-545.5"/>
<text text-anchor="start" x="725.25" y="-532" font-family="Helvetica,sans-Serif" font-size="10.00">Storm::BaseTfqmrSolver</text>
<text text-anchor="middle" x="779.25" y="-520.75" font-family="Helvetica,sans-Serif" font-size="10.00">&lt; Vector, true &gt;</text>
</a>
</g>
</g>
<!-- Node15&#45;&gt;Node16 -->
<g id="edge15_Node000015_Node000016" class="edge">
<title>Node15&#45;&gt;Node16</title>
<g id="a_edge15_Node000015_Node000016"><a xlink:title=" ">
<path fill="none" stroke="#63b8ff" d="M643.86,-361.92C653.26,-368.67 662.52,-376.86 669.25,-386.25 701.45,-431.16 666.89,-465.48 705.25,-505.25 708.78,-508.91 712.88,-512.04 717.29,-514.71"/>
<polygon fill="#63b8ff" stroke="#63b8ff" points="646.14,-358.56 635.89,-355.88 642.23,-364.36 646.14,-358.56"/>
</a>
</g>
</g>
<!-- Node18 -->
<g id="Node000018" class="node">
<title>Node18</title>
<g id="a_Node000018"><a xlink:href="class_storm_1_1_base_tfqmr_solver.html" target="_top" xlink:title=" ">
<polygon fill="white" stroke="#666666" points="841.25,-496.5 717.25,-496.5 717.25,-466 841.25,-466 841.25,-496.5"/>
<text text-anchor="start" x="725.25" y="-483" font-family="Helvetica,sans-Serif" font-size="10.00">Storm::BaseTfqmrSolver</text>
<text text-anchor="middle" x="779.25" y="-471.75" font-family="Helvetica,sans-Serif" font-size="10.00">&lt; Vector, false &gt;</text>
</a>
</g>
</g>
<!-- Node15&#45;&gt;Node18 -->
<g id="edge17_Node000015_Node000018" class="edge">
<title>Node15&#45;&gt;Node18</title>
<g id="a_edge17_Node000015_Node000018"><a xlink:title=" ">
<path fill="none" stroke="#63b8ff" d="M641.43,-361.85C651.26,-368.8 661.34,-377.1 669.25,-386.25 692.13,-412.72 678.78,-433.37 705.25,-456.25 709.4,-459.84 714.1,-462.92 719.06,-465.57"/>
<polygon fill="#63b8ff" stroke="#63b8ff" points="643.8,-358.55 633.55,-355.86 639.88,-364.36 643.8,-358.55"/>
</a>
</g>
</g>
<!-- Node20 -->
<g id="Node000020" class="node">
<title>Node20</title>
<g id="a_Node000020"><a xlink:href="class_storm_1_1_base_tfqmr_solver.html" target="_top" xlink:title="Parametrized TFQMR solver.">
<polygon fill="white" stroke="#666666" points="841.25,-447.5 717.25,-447.5 717.25,-417 841.25,-417 841.25,-447.5"/>
<text text-anchor="start" x="725.25" y="-434" font-family="Helvetica,sans-Serif" font-size="10.00">Storm::BaseTfqmrSolver</text>
<text text-anchor="middle" x="779.25" y="-422.75" font-family="Helvetica,sans-Serif" font-size="10.00">&lt; Vector, L1 &gt;</text>
</a>
</g>
</g>
<!-- Node15&#45;&gt;Node20 -->
<g id="edge19_Node000015_Node000020" class="edge">
<title>Node15&#45;&gt;Node20</title>
<g id="a_edge19_Node000015_Node000020"><a xlink:title=" ">
<path fill="none" stroke="#63b8ff" d="M635.5,-361.96C659.56,-378.78 691.26,-400.33 705.25,-407.25 712.09,-410.63 719.51,-413.75 726.9,-416.55"/>
<polygon fill="#63b8ff" stroke="#63b8ff" points="637.91,-358.67 627.71,-355.79 633.89,-364.4 637.91,-358.67"/>
</a>
</g>
</g>
<!-- Node21 -->
<g id="Node000021" class="node">
<title>Node21</title>
<g id="a_Node000021"><a xlink:href="class_storm_1_1_bi_cg_stab_solver.html" target="_top" xlink:title="The BiCGStab (Biconjugate Gradients Stabilized) linear operator equation solver.">
<polygon fill="white" stroke="#666666" points="838.25,-398.5 720.25,-398.5 720.25,-368 838.25,-368 838.25,-398.5"/>
<text text-anchor="start" x="728.25" y="-385" font-family="Helvetica,sans-Serif" font-size="10.00">Storm::BiCgStabSolver</text>
<text text-anchor="middle" x="779.25" y="-373.75" font-family="Helvetica,sans-Serif" font-size="10.00">&lt; Vector &gt;</text>
</a>
</g>
</g>
<!-- Node15&#45;&gt;Node21 -->
<g id="edge20_Node000015_Node000021" class="edge">
<title>Node15&#45;&gt;Node21</title>
<g id="a_edge20_Node000015_Node000021"><a xlink:title=" ">
<path fill="none" stroke="#63b8ff" d="M670.26,-356.47C686.56,-360.51 703.92,-364.82 719.86,-368.77"/>
<polygon fill="#63b8ff" stroke="#63b8ff" points="671.28,-352.87 660.73,-353.86 669.6,-359.66 671.28,-352.87"/>
</a>
</g>
</g>
<!-- Node22 -->
<g id="Node000022" class="node">
<title>Node22</title>
<g id="a_Node000022"><a xlink:href="class_storm_1_1_cg_solver.html" target="_top" xlink:title="The CG (Conjugate Gradients) linear self&#45;adjoint definite operator equation solver.">
<polygon fill="white" stroke="#666666" points="846.88,-349.88 711.62,-349.88 711.62,-330.62 846.88,-330.62 846.88,-349.88"/>
<text text-anchor="middle" x="779.25" y="-336.38" font-family="Helvetica,sans-Serif" font-size="10.00">Storm::CgSolver&lt; Vector &gt;</text>
</a>
</g>
</g>
<!-- Node15&#45;&gt;Node22 -->
<g id="edge21_Node000015_Node000022" class="edge">
<title>Node15&#45;&gt;Node22</title>
<g id="a_edge21_Node000015_Node000022"><a xlink:title=" ">
<path fill="none" stroke="#63b8ff" d="M670.7,-340.25C683.98,-340.25 697.96,-340.25 711.28,-340.25"/>
<polygon fill="#63b8ff" stroke="#63b8ff" points="670.73,-336.75 660.73,-340.25 670.73,-343.75 670.73,-336.75"/>
</a>
</g>
</g>
<!-- Node23 -->
<g id="Node000023" class="node">
<title>Node23</title>
<g id="a_Node000023"><a xlink:href="class_storm_1_1_cgs_solver.html" target="_top" xlink:title="The CGS (Conjugate Gradients Squared) linear operator equation solver.">
<polygon fill="white" stroke="#666666" points="849.5,-312.88 709,-312.88 709,-293.62 849.5,-293.62 849.5,-312.88"/>
<text text-anchor="middle" x="779.25" y="-299.38" font-family="Helvetica,sans-Serif" font-size="10.00">Storm::CgsSolver&lt; Vector &gt;</text>
</a>
</g>
</g>
<!-- Node15&#45;&gt;Node23 -->
<g id="edge22_Node000015_Node000023" class="edge">
<title>Node15&#45;&gt;Node23</title>
<g id="a_edge22_Node000015_Node000023"><a xlink:title=" ">
<path fill="none" stroke="#63b8ff" d="M670.42,-326.26C690.58,-321.96 712.37,-317.31 731.05,-313.32"/>
<polygon fill="#63b8ff" stroke="#63b8ff" points="669.78,-323.03 660.73,-328.54 671.24,-329.88 669.78,-323.03"/>
</a>
</g>
</g>
<!-- Node24 -->
<g id="Node000024" class="node">
<title>Node24</title>
<g id="a_Node000024"><a xlink:href="class_storm_1_1_jfnk_solver.html" target="_top" xlink:title="The first&#45;order JFNK (Jacobian free&#45;Newton&#45;Krylov) nonlinear operator equation solver.">
<polygon fill="white" stroke="#666666" points="829.62,-275.5 728.88,-275.5 728.88,-245 829.62,-245 829.62,-275.5"/>
<text text-anchor="start" x="736.88" y="-262" font-family="Helvetica,sans-Serif" font-size="10.00">Storm::JfnkSolver&lt;</text>
<text text-anchor="middle" x="779.25" y="-250.75" font-family="Helvetica,sans-Serif" font-size="10.00"> Vector &gt;</text>
</a>
</g>
</g>
<!-- Node15&#45;&gt;Node24 -->
<g id="edge23_Node000015_Node000024" class="edge">
<title>Node15&#45;&gt;Node24</title>
<g id="a_edge23_Node000015_Node000024"><a xlink:title=" ">
<path fill="none" stroke="#63b8ff" d="M639.19,-318.95C658.2,-307.71 682.53,-294.21 705.25,-284.25 712.7,-280.98 720.75,-277.91 728.68,-275.12"/>
<polygon fill="#63b8ff" stroke="#63b8ff" points="637.55,-316.46 630.77,-324.6 641.14,-322.46 637.55,-316.46"/>
</a>
</g>
</g>
<!-- Node25 -->
<g id="Node000025" class="node">
<title>Node25</title>
<g id="a_Node000025"><a xlink:href="class_storm_1_1_newton_solver.html" target="_top" xlink:title="The Newton method nonlinear operator equation solver.">
<polygon fill="white" stroke="#666666" points="834.12,-226.5 724.38,-226.5 724.38,-196 834.12,-196 834.12,-226.5"/>
<text text-anchor="start" x="732.38" y="-213" font-family="Helvetica,sans-Serif" font-size="10.00">Storm::NewtonSolver</text>
<text text-anchor="middle" x="779.25" y="-201.75" font-family="Helvetica,sans-Serif" font-size="10.00">&lt; Vector &gt;</text>
</a>
</g>
</g>
<!-- Node15&#45;&gt;Node25 -->
<g id="edge24_Node000015_Node000025" class="edge">
<title>Node15&#45;&gt;Node25</title>
<g id="a_edge24_Node000015_Node000025"><a xlink:title=" ">
<path fill="none" stroke="#63b8ff" d="M622.72,-315.95C641.05,-292.56 671.61,-257.65 705.25,-236.25 711.01,-232.58 717.38,-229.39 723.88,-226.61"/>
<polygon fill="#63b8ff" stroke="#63b8ff" points="619.39,-313.54 616.09,-323.6 624.95,-317.8 619.39,-313.54"/>
</a>
</g>
</g>
<!-- Node26 -->
<g id="Node000026" class="node">
<title>Node26</title>
<g id="a_Node000026"><a xlink:href="class_storm_1_1_richardson_solver.html" target="_top" xlink:title="The Richardson iteration linear operator equation solver.">
<polygon fill="white" stroke="#666666" points="842,-177.5 716.5,-177.5 716.5,-147 842,-147 842,-177.5"/>
<text text-anchor="start" x="724.5" y="-164" font-family="Helvetica,sans-Serif" font-size="10.00">Storm::RichardsonSolver</text>
<text text-anchor="middle" x="779.25" y="-152.75" font-family="Helvetica,sans-Serif" font-size="10.00">&lt; Vector &gt;</text>
</a>
</g>
</g>
<!-- Node15&#45;&gt;Node26 -->
<g id="edge25_Node000015_Node000026" class="edge">
<title>Node15&#45;&gt;Node26</title>
<g id="a_edge25_Node000015_Node000026"><a xlink:title=" ">
<path fill="none" stroke="#63b8ff" d="M615.23,-314.78C630.22,-280.96 661.09,-221.53 705.25,-187.25 709.91,-183.64 715.12,-180.53 720.56,-177.85"/>
<polygon fill="#63b8ff" stroke="#63b8ff" points="611.65,-313.23 610.92,-323.8 618.09,-315.99 611.65,-313.23"/>
</a>
</g>
</g>
<!-- Node17 -->
<g id="Node000017" class="node">
<title>Node17</title>
<g id="a_Node000017"><a xlink:href="class_storm_1_1_tfqmr1_solver.html" target="_top" xlink:title="The TFQMR1 (Transpose&#45;Free 1&#45;norm Quasi&#45;Minimal Residual) linear operator equation solver.">
<polygon fill="white" stroke="#666666" points="1009.5,-545.5 902.75,-545.5 902.75,-515 1009.5,-515 1009.5,-545.5"/>
<text text-anchor="start" x="910.75" y="-532" font-family="Helvetica,sans-Serif" font-size="10.00">Storm::Tfqmr1Solver</text>
<text text-anchor="middle" x="956.12" y="-520.75" font-family="Helvetica,sans-Serif" font-size="10.00">&lt; Vector &gt;</text>
</a>
</g>
</g>
<!-- Node16&#45;&gt;Node17 -->
<g id="edge16_Node000016_Node000017" class="edge">
<title>Node16&#45;&gt;Node17</title>
<g id="a_edge16_Node000016_Node000017"><a xlink:title=" ">
<path fill="none" stroke="#63b8ff" d="M852.3,-530.25C869.09,-530.25 886.66,-530.25 902.43,-530.25"/>
<polygon fill="#63b8ff" stroke="#63b8ff" points="852.41,-526.75 842.41,-530.25 852.41,-533.75 852.41,-526.75"/>
</a>
</g>
</g>
<!-- Node19 -->
<g id="Node000019" class="node">
<title>Node19</title>
<g id="a_Node000019"><a xlink:href="class_storm_1_1_tfqmr_solver.html" target="_top" xlink:title="The TFQMR (Transpose&#45;Free Quasi&#45;Minimal Residual) linear operator equation solver.">
<polygon fill="white" stroke="#666666" points="1006.88,-496.5 905.38,-496.5 905.38,-466 1006.88,-466 1006.88,-496.5"/>
<text text-anchor="start" x="913.38" y="-483" font-family="Helvetica,sans-Serif" font-size="10.00">Storm::TfqmrSolver</text>
<text text-anchor="middle" x="956.12" y="-471.75" font-family="Helvetica,sans-Serif" font-size="10.00">&lt; Vector &gt;</text>
</a>
</g>
</g>
<!-- Node18&#45;&gt;Node19 -->
<g id="edge18_Node000018_Node000019" class="edge">
<title>Node18&#45;&gt;Node19</title>
<g id="a_edge18_Node000018_Node000019"><a xlink:title=" ">
<path fill="none" stroke="#63b8ff" d="M852.3,-481.25C870,-481.25 888.57,-481.25 904.98,-481.25"/>
<polygon fill="#63b8ff" stroke="#63b8ff" points="852.41,-477.75 842.41,-481.25 852.41,-484.75 852.41,-477.75"/>
</a>
</g>
</g>
<!-- Node28 -->
<g id="Node000028" class="node">
<title>Node28</title>
<g id="a_Node000028"><a xlink:href="class_storm_1_1_inner_outer_iterative_solver.html" target="_top" xlink:title=" ">
<polygon fill="white" stroke="#666666" points="843.88,-128.5 714.62,-128.5 714.62,-98 843.88,-98 843.88,-128.5"/>
<text text-anchor="start" x="722.62" y="-115" font-family="Helvetica,sans-Serif" font-size="10.00">Storm::InnerOuterIterative</text>
<text text-anchor="middle" x="779.25" y="-103.75" font-family="Helvetica,sans-Serif" font-size="10.00">Solver&lt; Vector &gt;</text>
</a>
</g>
</g>
<!-- Node27&#45;&gt;Node28 -->
<g id="edge27_Node000027_Node000028" class="edge">
<title>Node27&#45;&gt;Node28</title>
<g id="a_edge27_Node000027_Node000028"><a xlink:title=" ">
<path fill="none" stroke="#63b8ff" d="M674.86,-113.25C687.89,-113.25 701.45,-113.25 714.29,-113.25"/>
<polygon fill="#63b8ff" stroke="#63b8ff" points="675.06,-109.75 665.06,-113.25 675.06,-116.75 675.06,-109.75"/>
</a>
</g>
</g>
<!-- Node36 -->
<g id="Node000036" class="node">
<title>Node36</title>
<g id="a_Node000036"><a xlink:href="class_storm_1_1_inner_outer_iterative_solver.html" target="_top" xlink:title="Abstract inner&#45;outer iterative solver. &#45;=&#45;=&#45;=&#45;=&#45;=&#45;=&#45;=&#45;=&#45;=&#45;=&#45;=&#45;=&#45;=&#45;=&#45;=&#45;=&#45;=&#45;=&#45;=&#45;=&#45;=&#45;=&#45;=&#45;=&#45;=&#45;=&#45;=&#45;=&#45;=&#45;=&#45;=...">
<polygon fill="white" stroke="#666666" points="853.25,-79.5 705.25,-79.5 705.25,-49 853.25,-49 853.25,-79.5"/>
<text text-anchor="start" x="713.25" y="-66" font-family="Helvetica,sans-Serif" font-size="10.00">Storm::InnerOuterIterative</text>
<text text-anchor="middle" x="779.25" y="-54.75" font-family="Helvetica,sans-Serif" font-size="10.00">Solver&lt; InVector, OutVector &gt;</text>
</a>
</g>
</g>
<!-- Node27&#45;&gt;Node36 -->
<g id="edge35_Node000027_Node000036" class="edge">
<title>Node27&#45;&gt;Node36</title>
<g id="a_edge35_Node000027_Node000036"><a xlink:title=" ">
<path fill="none" stroke="#63b8ff" d="M670.68,-94.65C687.78,-89.82 706.03,-84.66 722.55,-79.99"/>
<polygon fill="#63b8ff" stroke="#63b8ff" points="669.88,-91.52 661.21,-97.61 671.78,-98.26 669.88,-91.52"/>
</a>
</g>
</g>
<!-- Node29 -->
<g id="Node000029" class="node">
<title>Node29</title>
<g id="a_Node000029"><a xlink:href="class_storm_1_1_base_gmres_solver.html" target="_top" xlink:title=" ">
<polygon fill="white" stroke="#666666" points="1020,-226.5 892.25,-226.5 892.25,-196 1020,-196 1020,-226.5"/>
<text text-anchor="start" x="900.25" y="-213" font-family="Helvetica,sans-Serif" font-size="10.00">Storm::BaseGmresSolver</text>
<text text-anchor="middle" x="956.12" y="-201.75" font-family="Helvetica,sans-Serif" font-size="10.00">&lt; Vector, true &gt;</text>
</a>
</g>
</g>
<!-- Node28&#45;&gt;Node29 -->
<g id="edge28_Node000028_Node000029" class="edge">
<title>Node28&#45;&gt;Node29</title>
<g id="a_edge28_Node000028_Node000029"><a xlink:title=" ">
<path fill="none" stroke="#63b8ff" d="M846.57,-133.86C848.88,-135.24 851.12,-136.7 853.25,-138.25 874.82,-153.93 867.94,-170.22 889.25,-186.25 893.94,-189.78 899.19,-192.87 904.62,-195.55"/>
<polygon fill="#63b8ff" stroke="#63b8ff" points="848.81,-130.56 838.34,-128.98 845.54,-136.75 848.81,-130.56"/>
</a>
</g>
</g>
<!-- Node31 -->
<g id="Node000031" class="node">
<title>Node31</title>
<g id="a_Node000031"><a xlink:href="class_storm_1_1_base_gmres_solver.html" target="_top" xlink:title=" ">
<polygon fill="white" stroke="#666666" points="1020,-177.5 892.25,-177.5 892.25,-147 1020,-147 1020,-177.5"/>
<text text-anchor="start" x="900.25" y="-164" font-family="Helvetica,sans-Serif" font-size="10.00">Storm::BaseGmresSolver</text>
<text text-anchor="middle" x="956.12" y="-152.75" font-family="Helvetica,sans-Serif" font-size="10.00">&lt; Vector, false &gt;</text>
</a>
</g>
</g>
<!-- Node28&#45;&gt;Node31 -->
<g id="edge30_Node000028_Node000031" class="edge">
<title>Node28&#45;&gt;Node31</title>
<g id="a_edge30_Node000028_Node000031"><a xlink:title=" ">
<path fill="none" stroke="#63b8ff" d="M846.62,-131.85C863.87,-136.68 882.28,-141.84 898.94,-146.51"/>
<polygon fill="#63b8ff" stroke="#63b8ff" points="847.64,-128.22 837.06,-128.89 845.75,-134.96 847.64,-128.22"/>
</a>
</g>
</g>
<!-- Node33 -->
<g id="Node000033" class="node">
<title>Node33</title>
<g id="a_Node000033"><a xlink:href="class_storm_1_1_base_gmres_solver.html" target="_top" xlink:title="Parmetrized GMRES solver.">
<polygon fill="white" stroke="#666666" points="1023,-128.5 889.25,-128.5 889.25,-98 1023,-98 1023,-128.5"/>
<text text-anchor="start" x="897.25" y="-115" font-family="Helvetica,sans-Serif" font-size="10.00">Storm::BaseGmresSolver</text>
<text text-anchor="middle" x="956.12" y="-103.75" font-family="Helvetica,sans-Serif" font-size="10.00">&lt; Vector, Flexible, Loose &gt;</text>
</a>
</g>
</g>
<!-- Node28&#45;&gt;Node33 -->
<g id="edge32_Node000028_Node000033" class="edge">
<title>Node28&#45;&gt;Node33</title>
<g id="a_edge32_Node000028_Node000033"><a xlink:title=" ">
<path fill="none" stroke="#63b8ff" d="M855.06,-113.25C866.33,-113.25 877.89,-113.25 888.96,-113.25"/>
<polygon fill="#63b8ff" stroke="#63b8ff" points="855.37,-109.75 845.37,-113.25 855.37,-116.75 855.37,-109.75"/>
</a>
</g>
</g>
<!-- Node34 -->
<g id="Node000034" class="node">
<title>Node34</title>
<g id="a_Node000034"><a xlink:href="class_storm_1_1_bi_cg_stab_l_solver.html" target="_top" xlink:title="The BiCGStab(l) (Biconjugate Gradients Stabilized) linear operator equation solver.">
<polygon fill="white" stroke="#666666" points="1017.75,-79.5 894.5,-79.5 894.5,-49 1017.75,-49 1017.75,-79.5"/>
<text text-anchor="start" x="902.5" y="-66" font-family="Helvetica,sans-Serif" font-size="10.00">Storm::BiCgStabLSolver</text>
<text text-anchor="middle" x="956.12" y="-54.75" font-family="Helvetica,sans-Serif" font-size="10.00">&lt; Vector &gt;</text>
</a>
</g>
</g>
<!-- Node28&#45;&gt;Node34 -->
<g id="edge33_Node000028_Node000034" class="edge">
<title>Node28&#45;&gt;Node34</title>
<g id="a_edge33_Node000028_Node000034"><a xlink:title=" ">
<path fill="none" stroke="#63b8ff" d="M846.62,-94.65C863.87,-89.82 882.28,-84.66 898.94,-79.99"/>
<polygon fill="#63b8ff" stroke="#63b8ff" points="845.75,-91.54 837.06,-97.61 847.64,-98.28 845.75,-91.54"/>
</a>
</g>
</g>
<!-- Node35 -->
<g id="Node000035" class="node">
<title>Node35</title>
<g id="a_Node000035"><a xlink:href="class_storm_1_1_idrs_solver.html" target="_top" xlink:title="The IDR(s) (Induced Dimension Reduction) linear operator equation solver.">
<polygon fill="white" stroke="#666666" points="1005.38,-30.5 906.88,-30.5 906.88,0 1005.38,0 1005.38,-30.5"/>
<text text-anchor="start" x="914.88" y="-17" font-family="Helvetica,sans-Serif" font-size="10.00">Storm::IdrsSolver&lt;</text>
<text text-anchor="middle" x="956.12" y="-5.75" font-family="Helvetica,sans-Serif" font-size="10.00"> Vector &gt;</text>
</a>
</g>
</g>
<!-- Node28&#45;&gt;Node35 -->
<g id="edge34_Node000028_Node000035" class="edge">
<title>Node28&#45;&gt;Node35</title>
<g id="a_edge34_Node000028_Node000035"><a xlink:title=" ">
<path fill="none" stroke="#63b8ff" d="M846.57,-92.64C848.88,-91.26 851.12,-89.8 853.25,-88.25 874.82,-72.57 867.94,-56.28 889.25,-40.25 894.53,-36.28 900.51,-32.87 906.67,-29.96"/>
<polygon fill="#63b8ff" stroke="#63b8ff" points="845.54,-89.75 838.34,-97.52 848.81,-95.94 845.54,-89.75"/>
</a>
</g>
</g>
<!-- Node30 -->
<g id="Node000030" class="node">
<title>Node30</title>
<g id="a_Node000030"><a xlink:href="class_storm_1_1_fgmres_solver.html" target="_top" xlink:title="The FGMRES (Flexible Generalized Minimal Residual) linear operator equation solver.">
<polygon fill="white" stroke="#666666" points="1168,-226.5 1059,-226.5 1059,-196 1168,-196 1168,-226.5"/>
<text text-anchor="start" x="1067" y="-213" font-family="Helvetica,sans-Serif" font-size="10.00">Storm::FgmresSolver</text>
<text text-anchor="middle" x="1113.5" y="-201.75" font-family="Helvetica,sans-Serif" font-size="10.00">&lt; Vector &gt;</text>
</a>
</g>
</g>
<!-- Node29&#45;&gt;Node30 -->
<g id="edge29_Node000029_Node000030" class="edge">
<title>Node29&#45;&gt;Node30</title>
<g id="a_edge29_Node000029_Node000030"><a xlink:title=" ">
<path fill="none" stroke="#63b8ff" d="M1031.19,-211.25C1040.51,-211.25 1049.89,-211.25 1058.81,-211.25"/>
<polygon fill="#63b8ff" stroke="#63b8ff" points="1031.32,-207.75 1021.32,-211.25 1031.32,-214.75 1031.32,-207.75"/>
</a>
</g>
</g>
<!-- Node32 -->
<g id="Node000032" class="node">
<title>Node32</title>
<g id="a_Node000032"><a xlink:href="class_storm_1_1_gmres_solver.html" target="_top" xlink:title="The GMRES (Generalized Minimal Residual) linear operator equation solver.">
<polygon fill="white" stroke="#666666" points="1166.12,-177.5 1060.88,-177.5 1060.88,-147 1166.12,-147 1166.12,-177.5"/>
<text text-anchor="start" x="1068.88" y="-164" font-family="Helvetica,sans-Serif" font-size="10.00">Storm::GmresSolver</text>
<text text-anchor="middle" x="1113.5" y="-152.75" font-family="Helvetica,sans-Serif" font-size="10.00">&lt; Vector &gt;</text>
</a>
</g>
</g>
<!-- Node31&#45;&gt;Node32 -->
<g id="edge31_Node000031_Node000032" class="edge">
<title>Node31&#45;&gt;Node32</title>
<g id="a_edge31_Node000031_Node000032"><a xlink:title=" ">
<path fill="none" stroke="#63b8ff" d="M1031.13,-162.25C1041.15,-162.25 1051.25,-162.25 1060.76,-162.25"/>
<polygon fill="#63b8ff" stroke="#63b8ff" points="1031.32,-158.75 1021.32,-162.25 1031.32,-165.75 1031.32,-158.75"/>
</a>
</g>
</g>
</g>
</svg>
