<?xml version="1.0" encoding="UTF-8" standalone="no"?>
<!DOCTYPE svg PUBLIC "-//W3C//DTD SVG 1.1//EN"
 "http://www.w3.org/Graphics/SVG/1.1/DTD/svg11.dtd">
<!-- Generated by graphviz version 7.0.4 (20221203.1631)
 -->
<!-- Title: Storm::Solver&lt; InVector, OutVector &gt; Pages: 1 -->
<svg width="1051pt" height="545pt"
 viewBox="0.00 0.00 1051.00 545.00" xmlns="http://www.w3.org/2000/svg" xmlns:xlink="http://www.w3.org/1999/xlink">
<g id="graph0" class="graph" transform="scale(1 1) rotate(0) translate(4 541)">
<title>Storm::Solver&lt; InVector, OutVector &gt;</title>
<!-- Node1 -->
<g id="node1" class="node">
<title>Node1</title>
<g id="a_node1"><a xlink:title="Abstract operator equation solver. &#45;=&#45;=&#45;=&#45;=&#45;=&#45;=&#45;=&#45;=&#45;=&#45;=&#45;=&#45;=&#45;=&#45;=&#45;=&#45;=&#45;=&#45;=&#45;=&#45;=&#45;=&#45;=&#45;=&#45;=&#45;=&#45;=&#45;=&#45;=&#45;=&#45;=&#45;=&#45;=&#45; ...">
<polygon fill="#999999" stroke="#666666" points="385,-219 260,-219 260,-189 385,-189 385,-219"/>
<text text-anchor="start" x="268" y="-207" font-family="Helvetica,sans-Serif" font-size="10.00">Storm::Solver&lt; InVector,</text>
<text text-anchor="middle" x="322.5" y="-196" font-family="Helvetica,sans-Serif" font-size="10.00"> OutVector &gt;</text>
</a>
</g>
</g>
<!-- Node4 -->
<g id="node4" class="node">
<title>Node4</title>
<g id="a_node4"><a xlink:href="class_storm_1_1_iterative_solver.html" target="_top" xlink:title=" ">
<polygon fill="white" stroke="#666666" points="537.5,-331 425.5,-331 425.5,-301 537.5,-301 537.5,-331"/>
<text text-anchor="start" x="433.5" y="-319" font-family="Helvetica,sans-Serif" font-size="10.00">Storm::IterativeSolver</text>
<text text-anchor="middle" x="481.5" y="-308" font-family="Helvetica,sans-Serif" font-size="10.00">&lt; Vector &gt;</text>
</a>
</g>
</g>
<!-- Node1&#45;&gt;Node4 -->
<g id="edge3" class="edge">
<title>Node1&#45;&gt;Node4</title>
<path fill="none" stroke="#63b8ff" d="M354.03,-225.78C384.9,-247.8 431.84,-281.29 459.01,-300.67"/>
<polygon fill="#63b8ff" stroke="#63b8ff" points="356.41,-223.18 346.23,-220.22 352.34,-228.87 356.41,-223.18"/>
</g>
<!-- Node16 -->
<g id="node16" class="node">
<title>Node16</title>
<g id="a_node16"><a xlink:href="class_storm_1_1_iterative_solver.html" target="_top" xlink:title="Abstract operator equation iterative solver. &#45;=&#45;=&#45;=&#45;=&#45;=&#45;=&#45;=&#45;=&#45;=&#45;=&#45;=&#45;=&#45;=&#45;=&#45;=&#45;=&#45;=&#45;=&#45;=&#45;=&#45;=&#45;=&#45;=&#45;=&#45;=&#45;=&#45;=&#45;=...">
<polygon fill="white" stroke="#666666" points="542,-126 421,-126 421,-96 542,-96 542,-126"/>
<text text-anchor="start" x="429" y="-114" font-family="Helvetica,sans-Serif" font-size="10.00">Storm::IterativeSolver</text>
<text text-anchor="middle" x="481.5" y="-103" font-family="Helvetica,sans-Serif" font-size="10.00">&lt; InVector, OutVector &gt;</text>
</a>
</g>
</g>
<!-- Node1&#45;&gt;Node16 -->
<g id="edge15" class="edge">
<title>Node1&#45;&gt;Node16</title>
<path fill="none" stroke="#63b8ff" d="M359.18,-182.86C388.21,-165.67 428.5,-141.8 454.54,-126.38"/>
<polygon fill="#63b8ff" stroke="#63b8ff" points="357.55,-179.76 350.73,-187.87 361.12,-185.79 357.55,-179.76"/>
</g>
<!-- Node2 -->
<g id="node2" class="node">
<title>Node2</title>
<g id="a_node2"><a xlink:href="class_storm_1_1_object.html" target="_top" xlink:title="A base object.">
<polygon fill="white" stroke="#666666" points="224,-213.5 147,-213.5 147,-194.5 224,-194.5 224,-213.5"/>
<text text-anchor="middle" x="185.5" y="-201.5" font-family="Helvetica,sans-Serif" font-size="10.00">Storm::Object</text>
</a>
</g>
</g>
<!-- Node2&#45;&gt;Node1 -->
<g id="edge1" class="edge">
<title>Node2&#45;&gt;Node1</title>
<path fill="none" stroke="#63b8ff" d="M235.85,-204C243.55,-204 251.61,-204 259.55,-204"/>
<polygon fill="#63b8ff" stroke="#63b8ff" points="235.98,-200.5 225.98,-204 235.98,-207.5 235.98,-200.5"/>
</g>
<!-- Node3 -->
<g id="node3" class="node">
<title>Node3</title>
<g id="a_node3"><a xlink:href="class_storm_1_1_non_copyable.html" target="_top" xlink:title="Non copyable object interface.">
<polygon fill="white" stroke="#666666" points="111,-213.5 0,-213.5 0,-194.5 111,-194.5 111,-213.5"/>
<text text-anchor="middle" x="55.5" y="-201.5" font-family="Helvetica,sans-Serif" font-size="10.00">detail_::noncopyable_</text>
</a>
</g>
</g>
<!-- Node3&#45;&gt;Node2 -->
<g id="edge2" class="edge">
<title>Node3&#45;&gt;Node2</title>
<path fill="none" stroke="#63b8ff" d="M122.44,-204C130.74,-204 139,-204 146.65,-204"/>
<polygon fill="#63b8ff" stroke="#63b8ff" points="122.67,-200.5 112.67,-204 122.67,-207.5 122.67,-200.5"/>
</g>
<!-- Node5 -->
<g id="node5" class="node">
<title>Node5</title>
<g id="a_node5"><a xlink:href="class_storm_1_1_base_tfqmr_solver.html" target="_top" xlink:title=" ">
<polygon fill="white" stroke="#666666" points="715,-537 590,-537 590,-507 715,-507 715,-537"/>
<text text-anchor="start" x="598" y="-525" font-family="Helvetica,sans-Serif" font-size="10.00">Storm::BaseTfqmrSolver</text>
<text text-anchor="middle" x="652.5" y="-514" font-family="Helvetica,sans-Serif" font-size="10.00">&lt; Vector, true &gt;</text>
</a>
</g>
</g>
<!-- Node4&#45;&gt;Node5 -->
<g id="edge4" class="edge">
<title>Node4&#45;&gt;Node5</title>
<path fill="none" stroke="#63b8ff" d="M489.45,-342.52C501.14,-382.02 528.48,-456.15 578,-498 581.9,-501.29 586.26,-504.14 590.85,-506.59"/>
<polygon fill="#63b8ff" stroke="#63b8ff" points="492.82,-341.57 486.73,-332.9 486.08,-343.47 492.82,-341.57"/>
</g>
<!-- Node7 -->
<g id="node7" class="node">
<title>Node7</title>
<g id="a_node7"><a xlink:href="class_storm_1_1_base_tfqmr_solver.html" target="_top" xlink:title=" ">
<polygon fill="white" stroke="#666666" points="715,-489 590,-489 590,-459 715,-459 715,-489"/>
<text text-anchor="start" x="598" y="-477" font-family="Helvetica,sans-Serif" font-size="10.00">Storm::BaseTfqmrSolver</text>
<text text-anchor="middle" x="652.5" y="-466" font-family="Helvetica,sans-Serif" font-size="10.00">&lt; Vector, false &gt;</text>
</a>
</g>
</g>
<!-- Node4&#45;&gt;Node7 -->
<g id="edge6" class="edge">
<title>Node4&#45;&gt;Node7</title>
<path fill="none" stroke="#63b8ff" d="M494.31,-341.41C509.55,-371.53 538.84,-421.23 578,-450 582.44,-453.26 587.34,-456.09 592.44,-458.54"/>
<polygon fill="#63b8ff" stroke="#63b8ff" points="497.55,-340.08 490.01,-332.64 491.27,-343.16 497.55,-340.08"/>
</g>
<!-- Node9 -->
<g id="node9" class="node">
<title>Node9</title>
<g id="a_node9"><a xlink:href="class_storm_1_1_base_tfqmr_solver.html" target="_top" xlink:title="Parametrized TFQMR solver.">
<polygon fill="white" stroke="#666666" points="715,-441 590,-441 590,-411 715,-411 715,-441"/>
<text text-anchor="start" x="598" y="-429" font-family="Helvetica,sans-Serif" font-size="10.00">Storm::BaseTfqmrSolver</text>
<text text-anchor="middle" x="652.5" y="-418" font-family="Helvetica,sans-Serif" font-size="10.00">&lt; Vector, L1 &gt;</text>
</a>
</g>
</g>
<!-- Node4&#45;&gt;Node9 -->
<g id="edge8" class="edge">
<title>Node4&#45;&gt;Node9</title>
<path fill="none" stroke="#63b8ff" d="M503.47,-339.73C521.53,-358.9 549.19,-385.34 578,-402 583.58,-405.23 589.65,-408.09 595.83,-410.6"/>
<polygon fill="#63b8ff" stroke="#63b8ff" points="506.25,-337.58 496.89,-332.61 501.1,-342.33 506.25,-337.58"/>
</g>
<!-- Node10 -->
<g id="node10" class="node">
<title>Node10</title>
<g id="a_node10"><a xlink:href="class_storm_1_1_bi_cg_stab_solver.html" target="_top" xlink:title="The BiCGStab (Biconjugate Gradients Stabilized) linear operator equation solver.">
<polygon fill="white" stroke="#666666" points="712,-393 593,-393 593,-363 712,-363 712,-393"/>
<text text-anchor="start" x="601" y="-381" font-family="Helvetica,sans-Serif" font-size="10.00">Storm::BiCgStabSolver</text>
<text text-anchor="middle" x="652.5" y="-370" font-family="Helvetica,sans-Serif" font-size="10.00">&lt; Vector &gt;</text>
</a>
</g>
</g>
<!-- Node4&#45;&gt;Node10 -->
<g id="edge9" class="edge">
<title>Node4&#45;&gt;Node10</title>
<path fill="none" stroke="#63b8ff" d="M529.76,-335.49C545.07,-341.62 562.19,-348.28 578,-354 585.95,-356.88 594.44,-359.79 602.72,-362.55"/>
<polygon fill="#63b8ff" stroke="#63b8ff" points="531.47,-332.4 520.89,-331.91 528.85,-338.9 531.47,-332.4"/>
</g>
<!-- Node11 -->
<g id="node11" class="node">
<title>Node11</title>
<g id="a_node11"><a xlink:href="class_storm_1_1_cg_solver.html" target="_top" xlink:title="The CG (Conjugate Gradients) linear self&#45;adjoint definite operator equation solver.">
<polygon fill="white" stroke="#666666" points="720.5,-344.5 584.5,-344.5 584.5,-325.5 720.5,-325.5 720.5,-344.5"/>
<text text-anchor="middle" x="652.5" y="-332.5" font-family="Helvetica,sans-Serif" font-size="10.00">Storm::CgSolver&lt; Vector &gt;</text>
</a>
</g>
</g>
<!-- Node4&#45;&gt;Node11 -->
<g id="edge10" class="edge">
<title>Node4&#45;&gt;Node11</title>
<path fill="none" stroke="#63b8ff" d="M549.18,-323.5C560.71,-324.79 572.7,-326.14 584.24,-327.44"/>
<polygon fill="#63b8ff" stroke="#63b8ff" points="549.67,-320.03 539.34,-322.39 548.89,-326.99 549.67,-320.03"/>
</g>
<!-- Node12 -->
<g id="node12" class="node">
<title>Node12</title>
<g id="a_node12"><a xlink:href="class_storm_1_1_cgs_solver.html" target="_top" xlink:title="The CGS (Conjugate Gradients Squared) linear operator equation solver.">
<polygon fill="white" stroke="#666666" points="723,-307.5 582,-307.5 582,-288.5 723,-288.5 723,-307.5"/>
<text text-anchor="middle" x="652.5" y="-295.5" font-family="Helvetica,sans-Serif" font-size="10.00">Storm::CgsSolver&lt; Vector &gt;</text>
</a>
</g>
</g>
<!-- Node4&#45;&gt;Node12 -->
<g id="edge11" class="edge">
<title>Node4&#45;&gt;Node12</title>
<path fill="none" stroke="#63b8ff" d="M549.18,-308.9C559.81,-307.77 570.83,-306.59 581.54,-305.45"/>
<polygon fill="#63b8ff" stroke="#63b8ff" points="548.91,-305.41 539.34,-309.95 549.66,-312.37 548.91,-305.41"/>
</g>
<!-- Node13 -->
<g id="node13" class="node">
<title>Node13</title>
<g id="a_node13"><a xlink:href="class_storm_1_1_jfnk_solver.html" target="_top" xlink:title="The first&#45;order JFNK (Jacobian free&#45;Newton&#45;Krylov) nonlinear operator equation solver.">
<polygon fill="white" stroke="#666666" points="703,-270 602,-270 602,-240 703,-240 703,-270"/>
<text text-anchor="start" x="610" y="-258" font-family="Helvetica,sans-Serif" font-size="10.00">Storm::JfnkSolver&lt;</text>
<text text-anchor="middle" x="652.5" y="-247" font-family="Helvetica,sans-Serif" font-size="10.00"> Vector &gt;</text>
</a>
</g>
</g>
<!-- Node4&#45;&gt;Node13 -->
<g id="edge12" class="edge">
<title>Node4&#45;&gt;Node13</title>
<path fill="none" stroke="#63b8ff" d="M533.11,-296.57C547.57,-291.11 563.38,-285.24 578,-280 586.88,-276.82 596.4,-273.5 605.55,-270.37"/>
<polygon fill="#63b8ff" stroke="#63b8ff" points="531.88,-293.29 523.77,-300.11 534.36,-299.84 531.88,-293.29"/>
</g>
<!-- Node14 -->
<g id="node14" class="node">
<title>Node14</title>
<g id="a_node14"><a xlink:href="class_storm_1_1_newton_solver.html" target="_top" xlink:title="The Newton method nonlinear operator equation solver.">
<polygon fill="white" stroke="#666666" points="707.5,-222 597.5,-222 597.5,-192 707.5,-192 707.5,-222"/>
<text text-anchor="start" x="605.5" y="-210" font-family="Helvetica,sans-Serif" font-size="10.00">Storm::NewtonSolver</text>
<text text-anchor="middle" x="652.5" y="-199" font-family="Helvetica,sans-Serif" font-size="10.00">&lt; Vector &gt;</text>
</a>
</g>
</g>
<!-- Node4&#45;&gt;Node14 -->
<g id="edge13" class="edge">
<title>Node4&#45;&gt;Node14</title>
<path fill="none" stroke="#63b8ff" d="M503.76,-292.3C521.87,-273.39 549.42,-247.42 578,-231 583.94,-227.59 590.42,-224.59 597.01,-221.96"/>
<polygon fill="#63b8ff" stroke="#63b8ff" points="501.22,-289.9 496.94,-299.59 506.33,-294.68 501.22,-289.9"/>
</g>
<!-- Node15 -->
<g id="node15" class="node">
<title>Node15</title>
<g id="a_node15"><a xlink:href="class_storm_1_1_richardson_solver.html" target="_top" xlink:title="The Richardson iteration linear operator equation solver.">
<polygon fill="white" stroke="#666666" points="715.5,-174 589.5,-174 589.5,-144 715.5,-144 715.5,-174"/>
<text text-anchor="start" x="597.5" y="-162" font-family="Helvetica,sans-Serif" font-size="10.00">Storm::RichardsonSolver</text>
<text text-anchor="middle" x="652.5" y="-151" font-family="Helvetica,sans-Serif" font-size="10.00">&lt; Vector &gt;</text>
</a>
</g>
</g>
<!-- Node4&#45;&gt;Node15 -->
<g id="edge14" class="edge">
<title>Node4&#45;&gt;Node15</title>
<path fill="none" stroke="#63b8ff" d="M494.36,-290.78C509.65,-260.89 538.98,-211.56 578,-183 582.44,-179.75 587.34,-176.92 592.45,-174.47"/>
<polygon fill="#63b8ff" stroke="#63b8ff" points="491.35,-288.96 490.04,-299.48 497.62,-292.07 491.35,-288.96"/>
</g>
<!-- Node6 -->
<g id="node6" class="node">
<title>Node6</title>
<g id="a_node6"><a xlink:href="class_storm_1_1_tfqmr1_solver.html" target="_top" xlink:title="The TFQMR1 (Transpose&#45;Free 1&#45;norm Quasi&#45;Minimal Residual) linear operator equation solver.">
<polygon fill="white" stroke="#666666" points="883.5,-537 776.5,-537 776.5,-507 883.5,-507 883.5,-537"/>
<text text-anchor="start" x="784.5" y="-525" font-family="Helvetica,sans-Serif" font-size="10.00">Storm::Tfqmr1Solver</text>
<text text-anchor="middle" x="830" y="-514" font-family="Helvetica,sans-Serif" font-size="10.00">&lt; Vector &gt;</text>
</a>
</g>
</g>
<!-- Node5&#45;&gt;Node6 -->
<g id="edge5" class="edge">
<title>Node5&#45;&gt;Node6</title>
<path fill="none" stroke="#63b8ff" d="M726.71,-522C743.28,-522 760.57,-522 776.12,-522"/>
<polygon fill="#63b8ff" stroke="#63b8ff" points="726.89,-518.5 716.89,-522 726.89,-525.5 726.89,-518.5"/>
</g>
<!-- Node8 -->
<g id="node8" class="node">
<title>Node8</title>
<g id="a_node8"><a xlink:href="class_storm_1_1_tfqmr_solver.html" target="_top" xlink:title="The TFQMR (Transpose&#45;Free Quasi&#45;Minimal Residual) linear operator equation solver.">
<polygon fill="white" stroke="#666666" points="881,-489 779,-489 779,-459 881,-459 881,-489"/>
<text text-anchor="start" x="787" y="-477" font-family="Helvetica,sans-Serif" font-size="10.00">Storm::TfqmrSolver</text>
<text text-anchor="middle" x="830" y="-466" font-family="Helvetica,sans-Serif" font-size="10.00">&lt; Vector &gt;</text>
</a>
</g>
</g>
<!-- Node7&#45;&gt;Node8 -->
<g id="edge7" class="edge">
<title>Node7&#45;&gt;Node8</title>
<path fill="none" stroke="#63b8ff" d="M726.72,-474C744.21,-474 762.48,-474 778.67,-474"/>
<polygon fill="#63b8ff" stroke="#63b8ff" points="726.89,-470.5 716.89,-474 726.89,-477.5 726.89,-470.5"/>
</g>
<!-- Node17 -->
<g id="node17" class="node">
<title>Node17</title>
<g id="a_node17"><a xlink:href="class_storm_1_1_inner_outer_iterative_solver.html" target="_top" xlink:title=" ">
<polygon fill="white" stroke="#666666" points="717.5,-126 587.5,-126 587.5,-96 717.5,-96 717.5,-126"/>
<text text-anchor="start" x="595.5" y="-114" font-family="Helvetica,sans-Serif" font-size="10.00">Storm::InnerOuterIterative</text>
<text text-anchor="middle" x="652.5" y="-103" font-family="Helvetica,sans-Serif" font-size="10.00">Solver&lt; Vector &gt;</text>
</a>
</g>
</g>
<!-- Node16&#45;&gt;Node17 -->
<g id="edge16" class="edge">
<title>Node16&#45;&gt;Node17</title>
<path fill="none" stroke="#63b8ff" d="M553.51,-111C564.62,-111 576.05,-111 587,-111"/>
<polygon fill="#63b8ff" stroke="#63b8ff" points="553.6,-107.5 543.6,-111 553.6,-114.5 553.6,-107.5"/>
</g>
<!-- Node25 -->
<g id="node25" class="node">
<title>Node25</title>
<g id="a_node25"><a xlink:href="class_storm_1_1_inner_outer_iterative_solver.html" target="_top" xlink:title="Abstract inner&#45;outer iterative solver. &#45;=&#45;=&#45;=&#45;=&#45;=&#45;=&#45;=&#45;=&#45;=&#45;=&#45;=&#45;=&#45;=&#45;=&#45;=&#45;=&#45;=&#45;=&#45;=&#45;=&#45;=&#45;=&#45;=&#45;=&#45;=&#45;=&#45;=&#45;=&#45;=&#45;=&#45;=...">
<polygon fill="white" stroke="#666666" points="727,-78 578,-78 578,-48 727,-48 727,-78"/>
<text text-anchor="start" x="586" y="-66" font-family="Helvetica,sans-Serif" font-size="10.00">Storm::InnerOuterIterative</text>
<text text-anchor="middle" x="652.5" y="-55" font-family="Helvetica,sans-Serif" font-size="10.00">Solver&lt; InVector, OutVector &gt;</text>
</a>
</g>
</g>
<!-- Node16&#45;&gt;Node25 -->
<g id="edge24" class="edge">
<title>Node16&#45;&gt;Node25</title>
<path fill="none" stroke="#63b8ff" d="M547.51,-92.54C563.92,-87.87 581.38,-82.92 597.2,-78.42"/>
<polygon fill="#63b8ff" stroke="#63b8ff" points="547.02,-89.04 538.36,-95.13 548.93,-95.77 547.02,-89.04"/>
</g>
<!-- Node18 -->
<g id="node18" class="node">
<title>Node18</title>
<g id="a_node18"><a xlink:href="class_storm_1_1_base_gmres_solver.html" target="_top" xlink:title=" ">
<polygon fill="white" stroke="#666666" points="894,-222 766,-222 766,-192 894,-192 894,-222"/>
<text text-anchor="start" x="774" y="-210" font-family="Helvetica,sans-Serif" font-size="10.00">Storm::BaseGmresSolver</text>
<text text-anchor="middle" x="830" y="-199" font-family="Helvetica,sans-Serif" font-size="10.00">&lt; Vector, true &gt;</text>
</a>
</g>
</g>
<!-- Node17&#45;&gt;Node18 -->
<g id="edge17" class="edge">
<title>Node17&#45;&gt;Node18</title>
<path fill="none" stroke="#63b8ff" d="M722.12,-131.77C723.79,-132.79 725.42,-133.87 727,-135 748.68,-150.53 741.58,-167.12 763,-183 767.41,-186.27 772.3,-189.13 777.38,-191.62"/>
<polygon fill="#63b8ff" stroke="#63b8ff" points="723.9,-128.75 713.44,-127.11 720.59,-134.92 723.9,-128.75"/>
</g>
<!-- Node20 -->
<g id="node20" class="node">
<title>Node20</title>
<g id="a_node20"><a xlink:href="class_storm_1_1_base_gmres_solver.html" target="_top" xlink:title=" ">
<polygon fill="white" stroke="#666666" points="894,-174 766,-174 766,-144 894,-144 894,-174"/>
<text text-anchor="start" x="774" y="-162" font-family="Helvetica,sans-Serif" font-size="10.00">Storm::BaseGmresSolver</text>
<text text-anchor="middle" x="830" y="-151" font-family="Helvetica,sans-Serif" font-size="10.00">&lt; Vector, false &gt;</text>
</a>
</g>
</g>
<!-- Node17&#45;&gt;Node20 -->
<g id="edge19" class="edge">
<title>Node17&#45;&gt;Node20</title>
<path fill="none" stroke="#63b8ff" d="M721.01,-129.46C738.06,-134.13 756.18,-139.08 772.61,-143.58"/>
<polygon fill="#63b8ff" stroke="#63b8ff" points="722.02,-126.11 711.46,-126.85 720.18,-132.87 722.02,-126.11"/>
</g>
<!-- Node22 -->
<g id="node22" class="node">
<title>Node22</title>
<g id="a_node22"><a xlink:href="class_storm_1_1_base_gmres_solver.html" target="_top" xlink:title="Parmetrized GMRES solver.">
<polygon fill="white" stroke="#666666" points="897,-126 763,-126 763,-96 897,-96 897,-126"/>
<text text-anchor="start" x="771" y="-114" font-family="Helvetica,sans-Serif" font-size="10.00">Storm::BaseGmresSolver</text>
<text text-anchor="middle" x="830" y="-103" font-family="Helvetica,sans-Serif" font-size="10.00">&lt; Vector, Flexible, Loose &gt;</text>
</a>
</g>
</g>
<!-- Node17&#45;&gt;Node22 -->
<g id="edge21" class="edge">
<title>Node17&#45;&gt;Node22</title>
<path fill="none" stroke="#63b8ff" d="M729.28,-111C740.37,-111 751.71,-111 762.59,-111"/>
<polygon fill="#63b8ff" stroke="#63b8ff" points="729.37,-107.5 719.37,-111 729.37,-114.5 729.37,-107.5"/>
</g>
<!-- Node23 -->
<g id="node23" class="node">
<title>Node23</title>
<g id="a_node23"><a xlink:href="class_storm_1_1_bi_cg_stab_l_solver.html" target="_top" xlink:title="The BiCGStab(l) (Biconjugate Gradients Stabilized) linear operator equation solver.">
<polygon fill="white" stroke="#666666" points="892,-78 768,-78 768,-48 892,-48 892,-78"/>
<text text-anchor="start" x="776" y="-66" font-family="Helvetica,sans-Serif" font-size="10.00">Storm::BiCgStabLSolver</text>
<text text-anchor="middle" x="830" y="-55" font-family="Helvetica,sans-Serif" font-size="10.00">&lt; Vector &gt;</text>
</a>
</g>
</g>
<!-- Node17&#45;&gt;Node23 -->
<g id="edge22" class="edge">
<title>Node17&#45;&gt;Node23</title>
<path fill="none" stroke="#63b8ff" d="M721.01,-92.54C738.06,-87.87 756.18,-82.92 772.61,-78.42"/>
<polygon fill="#63b8ff" stroke="#63b8ff" points="720.18,-89.13 711.46,-95.15 722.02,-95.89 720.18,-89.13"/>
</g>
<!-- Node24 -->
<g id="node24" class="node">
<title>Node24</title>
<g id="a_node24"><a xlink:href="class_storm_1_1_idrs_solver.html" target="_top" xlink:title="The IDR(s) (Induced Dimension Reduction) linear operator equation solver.">
<polygon fill="white" stroke="#666666" points="879.5,-30 780.5,-30 780.5,0 879.5,0 879.5,-30"/>
<text text-anchor="start" x="788.5" y="-18" font-family="Helvetica,sans-Serif" font-size="10.00">Storm::IdrsSolver&lt;</text>
<text text-anchor="middle" x="830" y="-7" font-family="Helvetica,sans-Serif" font-size="10.00"> Vector &gt;</text>
</a>
</g>
</g>
<!-- Node17&#45;&gt;Node24 -->
<g id="edge23" class="edge">
<title>Node17&#45;&gt;Node24</title>
<path fill="none" stroke="#63b8ff" d="M722.12,-90.23C723.79,-89.21 725.42,-88.13 727,-87 748.68,-71.47 741.58,-54.88 763,-39 768.19,-35.15 774.06,-31.87 780.11,-29.08"/>
<polygon fill="#63b8ff" stroke="#63b8ff" points="720.59,-87.08 713.44,-94.89 723.9,-93.25 720.59,-87.08"/>
</g>
<!-- Node19 -->
<g id="node19" class="node">
<title>Node19</title>
<g id="a_node19"><a xlink:href="class_storm_1_1_fgmres_solver.html" target="_top" xlink:title="The FGMRES (Flexible Generalized Minimal Residual) linear operator equation solver.">
<polygon fill="white" stroke="#666666" points="1043,-222 933,-222 933,-192 1043,-192 1043,-222"/>
<text text-anchor="start" x="941" y="-210" font-family="Helvetica,sans-Serif" font-size="10.00">Storm::FgmresSolver</text>
<text text-anchor="middle" x="988" y="-199" font-family="Helvetica,sans-Serif" font-size="10.00">&lt; Vector &gt;</text>
</a>
</g>
</g>
<!-- Node18&#45;&gt;Node19 -->
<g id="edge18" class="edge">
<title>Node18&#45;&gt;Node19</title>
<path fill="none" stroke="#63b8ff" d="M905.82,-207C914.86,-207 923.94,-207 932.6,-207"/>
<polygon fill="#63b8ff" stroke="#63b8ff" points="905.96,-203.5 895.96,-207 905.96,-210.5 905.96,-203.5"/>
</g>
<!-- Node21 -->
<g id="node21" class="node">
<title>Node21</title>
<g id="a_node21"><a xlink:href="class_storm_1_1_gmres_solver.html" target="_top" xlink:title="The GMRES (Generalized Minimal Residual) linear operator equation solver.">
<polygon fill="white" stroke="#666666" points="1041,-174 935,-174 935,-144 1041,-144 1041,-174"/>
<text text-anchor="start" x="943" y="-162" font-family="Helvetica,sans-Serif" font-size="10.00">Storm::GmresSolver</text>
<text text-anchor="middle" x="988" y="-151" font-family="Helvetica,sans-Serif" font-size="10.00">&lt; Vector &gt;</text>
</a>
</g>
</g>
<!-- Node20&#45;&gt;Node21 -->
<g id="edge20" class="edge">
<title>Node20&#45;&gt;Node21</title>
<path fill="none" stroke="#63b8ff" d="M905.8,-159C915.52,-159 925.31,-159 934.57,-159"/>
<polygon fill="#63b8ff" stroke="#63b8ff" points="905.96,-155.5 895.96,-159 905.96,-162.5 905.96,-155.5"/>
</g>
</g>
</svg>
