<?xml version="1.0" encoding="UTF-8" standalone="no"?>
<!DOCTYPE svg PUBLIC "-//W3C//DTD SVG 1.1//EN"
 "http://www.w3.org/Graphics/SVG/1.1/DTD/svg11.dtd">
<!-- Generated by graphviz version 8.0.5 (20230430.1635)
 -->
<!-- Title: Storm::Vulture::gl::Texture Pages: 1 -->
<svg width="408pt" height="147pt"
 viewBox="0.00 0.00 407.75 147.12" xmlns="http://www.w3.org/2000/svg" xmlns:xlink="http://www.w3.org/1999/xlink">
<g id="graph0" class="graph" transform="scale(1 1) rotate(0) translate(4 143.12)">
<title>Storm::Vulture::gl::Texture</title>
<!-- Node1 -->
<g id="node1" class="node">
<title>Node1</title>
<g id="a_node1"><a xlink:title="OpenGL texture.">
<polygon fill="#999999" stroke="#666666" points="239,-79.5 146.5,-79.5 146.5,-49 239,-49 239,-79.5"/>
<text text-anchor="start" x="154.5" y="-66" font-family="Helvetica,sans-Serif" font-size="10.00">Storm::Vulture::gl</text>
<text text-anchor="middle" x="192.75" y="-54.75" font-family="Helvetica,sans-Serif" font-size="10.00">::Texture</text>
</a>
</g>
</g>
<!-- Node3 -->
<g id="node3" class="node">
<title>Node3</title>
<g id="a_node3"><a xlink:href="class_storm_1_1_vulture_1_1gl_1_1_multisampled_texture2_d.html" target="_top" xlink:title="OpenGL multisampled 2D texture.">
<polygon fill="white" stroke="#666666" points="399.75,-139.12 275,-139.12 275,-97.38 399.75,-97.38 399.75,-139.12"/>
<text text-anchor="start" x="283" y="-125.62" font-family="Helvetica,sans-Serif" font-size="10.00">Storm::Vulture::gl</text>
<text text-anchor="start" x="283" y="-114.38" font-family="Helvetica,sans-Serif" font-size="10.00">::MultisampledTexture2D</text>
<text text-anchor="middle" x="337.38" y="-103.12" font-family="Helvetica,sans-Serif" font-size="10.00">&lt; Pixel &gt;</text>
</a>
</g>
</g>
<!-- Node1&#45;&gt;Node3 -->
<g id="edge2" class="edge">
<title>Node1&#45;&gt;Node3</title>
<path fill="none" stroke="#63b8ff" d="M245.17,-83.72C256.51,-88.01 268.58,-92.58 280.09,-96.94"/>
<polygon fill="#63b8ff" stroke="#63b8ff" points="246.59,-80.14 236,-79.87 244.12,-86.68 246.59,-80.14"/>
</g>
<!-- Node4 -->
<g id="node4" class="node">
<title>Node4</title>
<g id="a_node4"><a xlink:href="class_storm_1_1_vulture_1_1gl_1_1_texture2_d.html" target="_top" xlink:title="OpenGL 2D texture.">
<polygon fill="white" stroke="#666666" points="390.75,-79.5 284,-79.5 284,-49 390.75,-49 390.75,-79.5"/>
<text text-anchor="start" x="292" y="-66" font-family="Helvetica,sans-Serif" font-size="10.00">Storm::Vulture::gl</text>
<text text-anchor="middle" x="337.38" y="-54.75" font-family="Helvetica,sans-Serif" font-size="10.00">::Texture2D&lt; Pixel &gt;</text>
</a>
</g>
</g>
<!-- Node1&#45;&gt;Node4 -->
<g id="edge3" class="edge">
<title>Node1&#45;&gt;Node4</title>
<path fill="none" stroke="#63b8ff" d="M250.1,-64.25C261.13,-64.25 272.67,-64.25 283.59,-64.25"/>
<polygon fill="#63b8ff" stroke="#63b8ff" points="250.27,-60.75 240.27,-64.25 250.27,-67.75 250.27,-60.75"/>
</g>
<!-- Node5 -->
<g id="node5" class="node">
<title>Node5</title>
<g id="a_node5"><a xlink:href="class_storm_1_1_vulture_1_1gl_1_1_texture_buffer.html" target="_top" xlink:title="OpenGL texture buffer.">
<polygon fill="white" stroke="#666666" points="383.62,-30.5 291.12,-30.5 291.12,0 383.62,0 383.62,-30.5"/>
<text text-anchor="start" x="299.12" y="-17" font-family="Helvetica,sans-Serif" font-size="10.00">Storm::Vulture::gl</text>
<text text-anchor="middle" x="337.38" y="-5.75" font-family="Helvetica,sans-Serif" font-size="10.00">::TextureBuffer</text>
</a>
</g>
</g>
<!-- Node1&#45;&gt;Node5 -->
<g id="edge4" class="edge">
<title>Node1&#45;&gt;Node5</title>
<path fill="none" stroke="#63b8ff" d="M249.53,-45.09C263.2,-40.39 277.67,-35.42 290.8,-30.91"/>
<polygon fill="#63b8ff" stroke="#63b8ff" points="248.59,-42.05 240.27,-48.61 250.86,-48.67 248.59,-42.05"/>
</g>
<!-- Node2 -->
<g id="node2" class="node">
<title>Node2</title>
<g id="a_node2"><a xlink:href="class_storm_1_1_non_copyable.html" target="_top" xlink:title="Non copyable object interface.">
<polygon fill="white" stroke="#666666" points="110.5,-73.88 0,-73.88 0,-54.62 110.5,-54.62 110.5,-73.88"/>
<text text-anchor="middle" x="55.25" y="-60.38" font-family="Helvetica,sans-Serif" font-size="10.00">detail_::noncopyable_</text>
</a>
</g>
</g>
<!-- Node2&#45;&gt;Node1 -->
<g id="edge1" class="edge">
<title>Node2&#45;&gt;Node1</title>
<path fill="none" stroke="#8b1a1a" d="M121.82,-64.25C130.13,-64.25 138.48,-64.25 146.37,-64.25"/>
<polygon fill="#8b1a1a" stroke="#8b1a1a" points="121.97,-60.75 111.97,-64.25 121.97,-67.75 121.97,-60.75"/>
</g>
</g>
</svg>
