<?xml version="1.0" encoding="UTF-8" standalone="no"?>
<!DOCTYPE svg PUBLIC "-//W3C//DTD SVG 1.1//EN"
 "http://www.w3.org/Graphics/SVG/1.1/DTD/svg11.dtd">
<!-- Generated by graphviz version 8.0.5 (20230430.1635)
 -->
<!-- Title: Storm::BaseGmresSolver&lt; Vector, Flexible, Loose &gt; Pages: 1 -->
<svg width="142pt" height="349pt"
 viewBox="0.00 0.00 141.75 348.50" xmlns="http://www.w3.org/2000/svg" xmlns:xlink="http://www.w3.org/1999/xlink">
<g id="graph0" class="graph" transform="scale(1 1) rotate(0) translate(4 344.5)">
<title>Storm::BaseGmresSolver&lt; Vector, Flexible, Loose &gt;</title>
<!-- Node1 -->
<g id="node1" class="node">
<title>Node1</title>
<g id="a_node1"><a xlink:title="Parmetrized GMRES solver.">
<polygon fill="#999999" stroke="#666666" points="133.75,-30.5 0,-30.5 0,0 133.75,0 133.75,-30.5"/>
<text text-anchor="start" x="8" y="-17" font-family="Helvetica,sans-Serif" font-size="10.00">Storm::BaseGmresSolver</text>
<text text-anchor="middle" x="66.88" y="-5.75" font-family="Helvetica,sans-Serif" font-size="10.00">&lt; Vector, Flexible, Loose &gt;</text>
</a>
</g>
</g>
<!-- Node2 -->
<g id="node2" class="node">
<title>Node2</title>
<g id="a_node2"><a xlink:href="class_storm_1_1_inner_outer_iterative_solver.html" target="_top" xlink:title=" ">
<polygon fill="white" stroke="#666666" points="131.5,-97 2.25,-97 2.25,-66.5 131.5,-66.5 131.5,-97"/>
<text text-anchor="start" x="10.25" y="-83.5" font-family="Helvetica,sans-Serif" font-size="10.00">Storm::InnerOuterIterative</text>
<text text-anchor="middle" x="66.88" y="-72.25" font-family="Helvetica,sans-Serif" font-size="10.00">Solver&lt; Vector &gt;</text>
</a>
</g>
</g>
<!-- Node2&#45;&gt;Node1 -->
<g id="edge1" class="edge">
<title>Node2&#45;&gt;Node1</title>
<path fill="none" stroke="#63b8ff" d="M66.88,-55.38C66.88,-47.05 66.88,-38.08 66.88,-30.83"/>
<polygon fill="#63b8ff" stroke="#63b8ff" points="63.38,-55.11 66.88,-65.11 70.38,-55.11 63.38,-55.11"/>
</g>
<!-- Node3 -->
<g id="node3" class="node">
<title>Node3</title>
<g id="a_node3"><a xlink:href="class_storm_1_1_iterative_solver.html" target="_top" xlink:title="Abstract operator equation iterative solver. &#45;=&#45;=&#45;=&#45;=&#45;=&#45;=&#45;=&#45;=&#45;=&#45;=&#45;=&#45;=&#45;=&#45;=&#45;=&#45;=&#45;=&#45;=&#45;=&#45;=&#45;=&#45;=&#45;=&#45;=&#45;=&#45;=&#45;=&#45;=...">
<polygon fill="white" stroke="#666666" points="127,-163.5 6.75,-163.5 6.75,-133 127,-133 127,-163.5"/>
<text text-anchor="start" x="14.75" y="-150" font-family="Helvetica,sans-Serif" font-size="10.00">Storm::IterativeSolver</text>
<text text-anchor="middle" x="66.88" y="-138.75" font-family="Helvetica,sans-Serif" font-size="10.00">&lt; InVector, OutVector &gt;</text>
</a>
</g>
</g>
<!-- Node3&#45;&gt;Node2 -->
<g id="edge2" class="edge">
<title>Node3&#45;&gt;Node2</title>
<path fill="none" stroke="#63b8ff" d="M66.88,-121.88C66.88,-113.55 66.88,-104.58 66.88,-97.33"/>
<polygon fill="#63b8ff" stroke="#63b8ff" points="63.38,-121.61 66.88,-131.61 70.38,-121.61 63.38,-121.61"/>
</g>
<!-- Node4 -->
<g id="node4" class="node">
<title>Node4</title>
<g id="a_node4"><a xlink:href="class_storm_1_1_solver.html" target="_top" xlink:title="Abstract operator equation solver. &#45;=&#45;=&#45;=&#45;=&#45;=&#45;=&#45;=&#45;=&#45;=&#45;=&#45;=&#45;=&#45;=&#45;=&#45;=&#45;=&#45;=&#45;=&#45;=&#45;=&#45;=&#45;=&#45;=&#45;=&#45;=&#45;=&#45;=&#45;=&#45;=&#45;=&#45;=&#45;=&#45; ...">
<polygon fill="white" stroke="#666666" points="128.88,-230 4.88,-230 4.88,-199.5 128.88,-199.5 128.88,-230"/>
<text text-anchor="start" x="12.88" y="-216.5" font-family="Helvetica,sans-Serif" font-size="10.00">Storm::Solver&lt; InVector,</text>
<text text-anchor="middle" x="66.88" y="-205.25" font-family="Helvetica,sans-Serif" font-size="10.00"> OutVector &gt;</text>
</a>
</g>
</g>
<!-- Node4&#45;&gt;Node3 -->
<g id="edge3" class="edge">
<title>Node4&#45;&gt;Node3</title>
<path fill="none" stroke="#63b8ff" d="M66.88,-188.38C66.88,-180.05 66.88,-171.08 66.88,-163.83"/>
<polygon fill="#63b8ff" stroke="#63b8ff" points="63.38,-188.11 66.88,-198.11 70.38,-188.11 63.38,-188.11"/>
</g>
<!-- Node5 -->
<g id="node5" class="node">
<title>Node5</title>
<g id="a_node5"><a xlink:href="class_storm_1_1_object.html" target="_top" xlink:title="A base object.">
<polygon fill="white" stroke="#666666" points="105.25,-285.25 28.5,-285.25 28.5,-266 105.25,-266 105.25,-285.25"/>
<text text-anchor="middle" x="66.88" y="-271.75" font-family="Helvetica,sans-Serif" font-size="10.00">Storm::Object</text>
</a>
</g>
</g>
<!-- Node5&#45;&gt;Node4 -->
<g id="edge4" class="edge">
<title>Node5&#45;&gt;Node4</title>
<path fill="none" stroke="#63b8ff" d="M66.88,-254.7C66.88,-246.7 66.88,-237.65 66.88,-230.28"/>
<polygon fill="#63b8ff" stroke="#63b8ff" points="63.38,-254.68 66.88,-264.68 70.38,-254.68 63.38,-254.68"/>
</g>
<!-- Node6 -->
<g id="node6" class="node">
<title>Node6</title>
<g id="a_node6"><a xlink:href="class_storm_1_1_non_copyable.html" target="_top" xlink:title="Non copyable object interface.">
<polygon fill="white" stroke="#666666" points="122.12,-340.5 11.62,-340.5 11.62,-321.25 122.12,-321.25 122.12,-340.5"/>
<text text-anchor="middle" x="66.88" y="-327" font-family="Helvetica,sans-Serif" font-size="10.00">detail_::noncopyable_</text>
</a>
</g>
</g>
<!-- Node6&#45;&gt;Node5 -->
<g id="edge5" class="edge">
<title>Node6&#45;&gt;Node5</title>
<path fill="none" stroke="#63b8ff" d="M66.88,-310.21C66.88,-301.77 66.88,-292.33 66.88,-285.61"/>
<polygon fill="#63b8ff" stroke="#63b8ff" points="63.38,-310.08 66.88,-320.08 70.38,-310.08 63.38,-310.08"/>
</g>
</g>
</svg>
