<?xml version="1.0" encoding="UTF-8" standalone="no"?>
<!DOCTYPE svg PUBLIC "-//W3C//DTD SVG 1.1//EN"
 "http://www.w3.org/Graphics/SVG/1.1/DTD/svg11.dtd">
<!-- Generated by graphviz version 8.1.0 (20230707.0739)
 -->
<!-- Title: Storm::JfnkSolver&lt; Vector &gt; Pages: 1 -->
<svg width="154pt" height="282pt"
 viewBox="0.00 0.00 153.75 282.00" xmlns="http://www.w3.org/2000/svg" xmlns:xlink="http://www.w3.org/1999/xlink">
<g id="graph0" class="graph" transform="scale(1 1) rotate(0) translate(4 278)">
<title>Storm::JfnkSolver&lt; Vector &gt;</title>
<!-- Node1 -->
<g id="Node000001" class="node">
<title>Node1</title>
<g id="a_Node000001"><a xlink:title="The first&#45;order JFNK (Jacobian free&#45;Newton&#45;Krylov) nonlinear operator equation solver.">
<polygon fill="#999999" stroke="#666666" points="123.25,-30.5 22.5,-30.5 22.5,0 123.25,0 123.25,-30.5"/>
<text text-anchor="start" x="30.5" y="-17" font-family="Helvetica,sans-Serif" font-size="10.00">Storm::JfnkSolver&lt;</text>
<text text-anchor="middle" x="72.88" y="-5.75" font-family="Helvetica,sans-Serif" font-size="10.00"> Vector &gt;</text>
</a>
</g>
</g>
<!-- Node2 -->
<g id="Node000002" class="node">
<title>Node2</title>
<g id="a_Node000002"><a xlink:href="class_storm_1_1_iterative_solver.html" target="_top" xlink:title=" ">
<polygon fill="white" stroke="#666666" points="128.5,-97 17.25,-97 17.25,-66.5 128.5,-66.5 128.5,-97"/>
<text text-anchor="start" x="25.25" y="-83.5" font-family="Helvetica,sans-Serif" font-size="10.00">Storm::IterativeSolver</text>
<text text-anchor="middle" x="72.88" y="-72.25" font-family="Helvetica,sans-Serif" font-size="10.00">&lt; Vector &gt;</text>
</a>
</g>
</g>
<!-- Node2&#45;&gt;Node1 -->
<g id="edge1_Node000001_Node000002" class="edge">
<title>Node2&#45;&gt;Node1</title>
<g id="a_edge1_Node000001_Node000002"><a xlink:title=" ">
<path fill="none" stroke="#63b8ff" d="M72.88,-55.38C72.88,-47.05 72.88,-38.08 72.88,-30.83"/>
<polygon fill="#63b8ff" stroke="#63b8ff" points="69.38,-55.11 72.88,-65.11 76.38,-55.11 69.38,-55.11"/>
</a>
</g>
</g>
<!-- Node3 -->
<g id="Node000003" class="node">
<title>Node3</title>
<g id="a_Node000003"><a xlink:href="class_storm_1_1_solver.html" target="_top" xlink:title="Abstract operator equation solver. &#45;=&#45;=&#45;=&#45;=&#45;=&#45;=&#45;=&#45;=&#45;=&#45;=&#45;=&#45;=&#45;=&#45;=&#45;=&#45;=&#45;=&#45;=&#45;=&#45;=&#45;=&#45;=&#45;=&#45;=&#45;=&#45;=&#45;=&#45;=&#45;=&#45;=&#45;=&#45;=&#45; ...">
<polygon fill="white" stroke="#666666" points="134.88,-163.5 10.88,-163.5 10.88,-133 134.88,-133 134.88,-163.5"/>
<text text-anchor="start" x="18.88" y="-150" font-family="Helvetica,sans-Serif" font-size="10.00">Storm::Solver&lt; InVector,</text>
<text text-anchor="middle" x="72.88" y="-138.75" font-family="Helvetica,sans-Serif" font-size="10.00"> OutVector &gt;</text>
</a>
</g>
</g>
<!-- Node3&#45;&gt;Node2 -->
<g id="edge2_Node000002_Node000003" class="edge">
<title>Node3&#45;&gt;Node2</title>
<g id="a_edge2_Node000002_Node000003"><a xlink:title=" ">
<path fill="none" stroke="#63b8ff" d="M72.88,-121.88C72.88,-113.55 72.88,-104.58 72.88,-97.33"/>
<polygon fill="#63b8ff" stroke="#63b8ff" points="69.38,-121.61 72.88,-131.61 76.38,-121.61 69.38,-121.61"/>
</a>
</g>
</g>
<!-- Node4 -->
<g id="Node000004" class="node">
<title>Node4</title>
<g id="a_Node000004"><a xlink:href="class_storm_1_1_object.html" target="_top" xlink:title="A base object.">
<polygon fill="white" stroke="#666666" points="111.25,-218.75 34.5,-218.75 34.5,-199.5 111.25,-199.5 111.25,-218.75"/>
<text text-anchor="middle" x="72.88" y="-205.25" font-family="Helvetica,sans-Serif" font-size="10.00">Storm::Object</text>
</a>
</g>
</g>
<!-- Node4&#45;&gt;Node3 -->
<g id="edge3_Node000003_Node000004" class="edge">
<title>Node4&#45;&gt;Node3</title>
<g id="a_edge3_Node000003_Node000004"><a xlink:title=" ">
<path fill="none" stroke="#63b8ff" d="M72.88,-188.2C72.88,-180.2 72.88,-171.15 72.88,-163.78"/>
<polygon fill="#63b8ff" stroke="#63b8ff" points="69.38,-188.18 72.88,-198.18 76.38,-188.18 69.38,-188.18"/>
</a>
</g>
</g>
<!-- Node5 -->
<g id="Node000005" class="node">
<title>Node5</title>
<g id="a_Node000005"><a xlink:href="class_storm_1_1_non_copyable_interface.html" target="_top" xlink:title="Non copyable object interface.">
<polygon fill="white" stroke="#666666" points="145.75,-274 0,-274 0,-254.75 145.75,-254.75 145.75,-274"/>
<text text-anchor="middle" x="72.88" y="-260.5" font-family="Helvetica,sans-Serif" font-size="10.00">Storm::NonCopyableInterface</text>
</a>
</g>
</g>
<!-- Node5&#45;&gt;Node4 -->
<g id="edge4_Node000004_Node000005" class="edge">
<title>Node5&#45;&gt;Node4</title>
<g id="a_edge4_Node000004_Node000005"><a xlink:title=" ">
<path fill="none" stroke="#63b8ff" d="M72.88,-243.71C72.88,-235.27 72.88,-225.83 72.88,-219.11"/>
<polygon fill="#63b8ff" stroke="#63b8ff" points="69.38,-243.58 72.88,-253.58 76.38,-243.58 69.38,-243.58"/>
</a>
</g>
</g>
</g>
</svg>
