<?xml version="1.0" encoding="UTF-8" standalone="no"?>
<!DOCTYPE svg PUBLIC "-//W3C//DTD SVG 1.1//EN"
 "http://www.w3.org/Graphics/SVG/1.1/DTD/svg11.dtd">
<!-- Generated by graphviz version 7.0.2 (20221119.0110)
 -->
<!-- Title: Storm::NonCopyable Pages: 1 -->
<svg width="1121pt" height="603pt"
 viewBox="0.00 0.00 1121.00 603.00" xmlns="http://www.w3.org/2000/svg" xmlns:xlink="http://www.w3.org/1999/xlink">
<g id="graph0" class="graph" transform="scale(1 1) rotate(0) translate(4 599)">
<title>Storm::NonCopyable</title>
<!-- Node1 -->
<g id="node1" class="node">
<title>Node1</title>
<g id="a_node1"><a xlink:title="Non copyable object interface.">
<polygon fill="#999999" stroke="#666666" points="108,-348.5 0,-348.5 0,-329.5 108,-329.5 108,-348.5"/>
<text text-anchor="middle" x="54" y="-336.5" font-family="Helvetica,sans-Serif" font-size="10.00">Storm::NonCopyable</text>
</a>
</g>
</g>
<!-- Node2 -->
<g id="node2" class="node">
<title>Node2</title>
<g id="a_node2"><a xlink:href="class_storm_1_1_matrix_owning_view.html" target="_top" xlink:title="Matrix owning view. Matrix should be noexcept&#45;movable.">
<polygon fill="white" stroke="#666666" points="275,-512 144,-512 144,-482 275,-482 275,-512"/>
<text text-anchor="start" x="152" y="-500" font-family="Helvetica,sans-Serif" font-size="10.00">Storm::MatrixOwningView</text>
<text text-anchor="middle" x="209.5" y="-489" font-family="Helvetica,sans-Serif" font-size="10.00">&lt; Matrix &gt;</text>
</a>
</g>
</g>
<!-- Node1&#45;&gt;Node2 -->
<g id="edge1" class="edge">
<title>Node1&#45;&gt;Node2</title>
<path fill="none" stroke="#63b8ff" d="M63.71,-359.28C77.05,-388.1 105.12,-440.85 144,-472 148.59,-475.68 153.79,-478.87 159.19,-481.61"/>
<polygon fill="#63b8ff" stroke="#63b8ff" points="66.94,-357.93 59.67,-350.23 60.55,-360.79 66.94,-357.93"/>
</g>
<!-- Node3 -->
<g id="node3" class="node">
<title>Node3</title>
<g id="a_node3"><a xlink:href="class_storm_1_1_object.html" target="_top" xlink:title="A base object.">
<polygon fill="white" stroke="#666666" points="248,-463.5 171,-463.5 171,-444.5 248,-444.5 248,-463.5"/>
<text text-anchor="middle" x="209.5" y="-451.5" font-family="Helvetica,sans-Serif" font-size="10.00">Storm::Object</text>
</a>
</g>
</g>
<!-- Node1&#45;&gt;Node3 -->
<g id="edge2" class="edge">
<title>Node1&#45;&gt;Node3</title>
<path fill="none" stroke="#63b8ff" d="M67.72,-357.97C83.24,-379.69 111.48,-414.84 144,-435 152.04,-439.98 161.45,-443.71 170.55,-446.49"/>
<polygon fill="#63b8ff" stroke="#63b8ff" points="70.78,-356.24 62.2,-350.02 65.03,-360.23 70.78,-356.24"/>
</g>
<!-- Node36 -->
<g id="node36" class="node">
<title>Node36</title>
<g id="a_node36"><a xlink:href="class_storm_1_1_vulture_1_1gl_1_1_buffer.html" target="_top" xlink:title="OpenGL buffer.">
<polygon fill="white" stroke="#666666" points="256,-426 163,-426 163,-396 256,-396 256,-426"/>
<text text-anchor="start" x="171" y="-414" font-family="Helvetica,sans-Serif" font-size="10.00">Storm::Vulture::gl</text>
<text text-anchor="middle" x="209.5" y="-403" font-family="Helvetica,sans-Serif" font-size="10.00">::Buffer&lt; Type &gt;</text>
</a>
</g>
</g>
<!-- Node1&#45;&gt;Node36 -->
<g id="edge35" class="edge">
<title>Node1&#45;&gt;Node36</title>
<path fill="none" stroke="#8b1a1a" d="M81.22,-354.38C98.7,-364.33 122.35,-377.19 144,-387 150.53,-389.96 157.54,-392.85 164.45,-395.54"/>
<polygon fill="#8b1a1a" stroke="#8b1a1a" points="83.43,-351.62 73.02,-349.67 79.95,-357.69 83.43,-351.62"/>
</g>
<!-- Node37 -->
<g id="node37" class="node">
<title>Node37</title>
<g id="a_node37"><a xlink:href="class_storm_1_1_vulture_1_1gl_1_1_framebuffer.html" target="_top" xlink:title="OpenGL framebuffer.">
<polygon fill="white" stroke="#666666" points="256,-378 163,-378 163,-348 256,-348 256,-378"/>
<text text-anchor="start" x="171" y="-366" font-family="Helvetica,sans-Serif" font-size="10.00">Storm::Vulture::gl</text>
<text text-anchor="middle" x="209.5" y="-355" font-family="Helvetica,sans-Serif" font-size="10.00">::Framebuffer</text>
</a>
</g>
</g>
<!-- Node1&#45;&gt;Node37 -->
<g id="edge36" class="edge">
<title>Node1&#45;&gt;Node37</title>
<path fill="none" stroke="#8b1a1a" d="M119.27,-349.05C133.87,-351.33 149.09,-353.71 162.74,-355.85"/>
<polygon fill="#8b1a1a" stroke="#8b1a1a" points="120.17,-345.65 109.75,-347.56 119.09,-352.56 120.17,-345.65"/>
</g>
<!-- Node38 -->
<g id="node38" class="node">
<title>Node38</title>
<g id="a_node38"><a xlink:href="class_storm_1_1_vulture_1_1gl_1_1_program.html" target="_top" xlink:title="OpenGL shader program.">
<polygon fill="white" stroke="#666666" points="256,-330 163,-330 163,-300 256,-300 256,-330"/>
<text text-anchor="start" x="171" y="-318" font-family="Helvetica,sans-Serif" font-size="10.00">Storm::Vulture::gl</text>
<text text-anchor="middle" x="209.5" y="-307" font-family="Helvetica,sans-Serif" font-size="10.00">::Program</text>
</a>
</g>
</g>
<!-- Node1&#45;&gt;Node38 -->
<g id="edge37" class="edge">
<title>Node1&#45;&gt;Node38</title>
<path fill="none" stroke="#8b1a1a" d="M119.27,-328.95C133.87,-326.67 149.09,-324.29 162.74,-322.15"/>
<polygon fill="#8b1a1a" stroke="#8b1a1a" points="119.09,-325.44 109.75,-330.44 120.17,-332.35 119.09,-325.44"/>
</g>
<!-- Node39 -->
<g id="node39" class="node">
<title>Node39</title>
<g id="a_node39"><a xlink:href="class_storm_1_1_vulture_1_1gl_1_1_shader.html" target="_top" xlink:title="OpenGL shader.">
<polygon fill="white" stroke="#666666" points="256,-282 163,-282 163,-252 256,-252 256,-282"/>
<text text-anchor="start" x="171" y="-270" font-family="Helvetica,sans-Serif" font-size="10.00">Storm::Vulture::gl</text>
<text text-anchor="middle" x="209.5" y="-259" font-family="Helvetica,sans-Serif" font-size="10.00">::Shader</text>
</a>
</g>
</g>
<!-- Node1&#45;&gt;Node39 -->
<g id="edge38" class="edge">
<title>Node1&#45;&gt;Node39</title>
<path fill="none" stroke="#8b1a1a" d="M81.22,-323.62C98.7,-313.67 122.35,-300.81 144,-291 150.53,-288.04 157.54,-285.15 164.45,-282.46"/>
<polygon fill="#8b1a1a" stroke="#8b1a1a" points="79.95,-320.31 73.02,-328.33 83.43,-326.38 79.95,-320.31"/>
</g>
<!-- Node40 -->
<g id="node40" class="node">
<title>Node40</title>
<g id="a_node40"><a xlink:href="class_storm_1_1_vulture_1_1gl_1_1_texture.html" target="_top" xlink:title="OpenGL texture.">
<polygon fill="white" stroke="#666666" points="256,-234 163,-234 163,-204 256,-204 256,-234"/>
<text text-anchor="start" x="171" y="-222" font-family="Helvetica,sans-Serif" font-size="10.00">Storm::Vulture::gl</text>
<text text-anchor="middle" x="209.5" y="-211" font-family="Helvetica,sans-Serif" font-size="10.00">::Texture</text>
</a>
</g>
</g>
<!-- Node1&#45;&gt;Node40 -->
<g id="edge39" class="edge">
<title>Node1&#45;&gt;Node40</title>
<path fill="none" stroke="#8b1a1a" d="M68.22,-320.09C84.03,-298.73 112.37,-264.17 144,-243 149.76,-239.15 156.22,-235.81 162.77,-232.95"/>
<polygon fill="#8b1a1a" stroke="#8b1a1a" points="65.58,-317.77 62.57,-327.92 71.26,-321.86 65.58,-317.77"/>
</g>
<!-- Node44 -->
<g id="node44" class="node">
<title>Node44</title>
<g id="a_node44"><a xlink:href="class_storm_1_1_vulture_1_1gl_1_1_vertex_array.html" target="_top" xlink:title="OpenGL vertex array.">
<polygon fill="white" stroke="#666666" points="256,-186 163,-186 163,-156 256,-156 256,-186"/>
<text text-anchor="start" x="171" y="-174" font-family="Helvetica,sans-Serif" font-size="10.00">Storm::Vulture::gl</text>
<text text-anchor="middle" x="209.5" y="-163" font-family="Helvetica,sans-Serif" font-size="10.00">::VertexArray</text>
</a>
</g>
</g>
<!-- Node1&#45;&gt;Node44 -->
<g id="edge43" class="edge">
<title>Node1&#45;&gt;Node44</title>
<path fill="none" stroke="#8b1a1a" d="M62.51,-318.7C74.9,-287.81 102.48,-229.04 144,-195 149.54,-190.45 156.03,-186.72 162.72,-183.67"/>
<polygon fill="#8b1a1a" stroke="#8b1a1a" points="59.39,-317.06 59.05,-327.65 65.92,-319.58 59.39,-317.06"/>
</g>
<!-- Node4 -->
<g id="node4" class="node">
<title>Node4</title>
<g id="a_node4"><a xlink:href="class_storm_1_1_operator.html" target="_top" xlink:title=" ">
<polygon fill="white" stroke="#666666" points="445,-595 311,-595 311,-565 445,-565 445,-595"/>
<text text-anchor="start" x="319" y="-583" font-family="Helvetica,sans-Serif" font-size="10.00">Storm::Operator&lt; InVector,</text>
<text text-anchor="middle" x="378" y="-572" font-family="Helvetica,sans-Serif" font-size="10.00"> InVector &gt;</text>
</a>
</g>
</g>
<!-- Node3&#45;&gt;Node4 -->
<g id="edge3" class="edge">
<title>Node3&#45;&gt;Node4</title>
<path fill="none" stroke="#63b8ff" d="M259.07,-463.15C264.86,-465.67 270.35,-468.89 275,-473 305.12,-499.63 281.72,-528.44 311,-556 314.46,-559.26 318.4,-562.08 322.59,-564.53"/>
<polygon fill="#63b8ff" stroke="#63b8ff" points="260.46,-459.93 249.86,-459.82 258.08,-466.51 260.46,-459.93"/>
</g>
<!-- Node5 -->
<g id="node5" class="node">
<title>Node5</title>
<g id="a_node5"><a xlink:href="class_storm_1_1_operator.html" target="_top" xlink:title=" ">
<polygon fill="white" stroke="#666666" points="444.5,-546.5 311.5,-546.5 311.5,-527.5 444.5,-527.5 444.5,-546.5"/>
<text text-anchor="middle" x="378" y="-534.5" font-family="Helvetica,sans-Serif" font-size="10.00">Storm::Operator&lt; Vector &gt;</text>
</a>
</g>
</g>
<!-- Node3&#45;&gt;Node5 -->
<g id="edge4" class="edge">
<title>Node3&#45;&gt;Node5</title>
<path fill="none" stroke="#63b8ff" d="M259.18,-464.79C264.75,-467.04 270.16,-469.75 275,-473 296.26,-487.28 289.69,-503.79 311,-518 316.56,-521.7 322.84,-524.7 329.26,-527.11"/>
<polygon fill="#63b8ff" stroke="#63b8ff" points="260.4,-461.51 249.8,-461.51 258.08,-468.12 260.4,-461.51"/>
</g>
<!-- Node8 -->
<g id="node8" class="node">
<title>Node8</title>
<g id="a_node8"><a xlink:href="class_storm_1_1_solver.html" target="_top" xlink:title=" ">
<polygon fill="white" stroke="#666666" points="440.5,-509 315.5,-509 315.5,-479 440.5,-479 440.5,-509"/>
<text text-anchor="start" x="323.5" y="-497" font-family="Helvetica,sans-Serif" font-size="10.00">Storm::Solver&lt; InVector,</text>
<text text-anchor="middle" x="378" y="-486" font-family="Helvetica,sans-Serif" font-size="10.00"> OutVector &gt;</text>
</a>
</g>
</g>
<!-- Node3&#45;&gt;Node8 -->
<g id="edge7" class="edge">
<title>Node3&#45;&gt;Node8</title>
<path fill="none" stroke="#63b8ff" d="M259.37,-465.74C276.85,-469.94 296.78,-474.73 315.2,-479.15"/>
<polygon fill="#63b8ff" stroke="#63b8ff" points="260.29,-462.36 249.75,-463.43 258.66,-469.17 260.29,-462.36"/>
</g>
<!-- Node10 -->
<g id="node10" class="node">
<title>Node10</title>
<g id="a_node10"><a xlink:href="class_storm_1_1_solver.html" target="_top" xlink:title=" ">
<polygon fill="white" stroke="#666666" points="440.5,-461 315.5,-461 315.5,-431 440.5,-431 440.5,-461"/>
<text text-anchor="start" x="323.5" y="-449" font-family="Helvetica,sans-Serif" font-size="10.00">Storm::Solver&lt; InVector,</text>
<text text-anchor="middle" x="378" y="-438" font-family="Helvetica,sans-Serif" font-size="10.00"> InVector &gt;</text>
</a>
</g>
</g>
<!-- Node3&#45;&gt;Node10 -->
<g id="edge9" class="edge">
<title>Node3&#45;&gt;Node10</title>
<path fill="none" stroke="#63b8ff" d="M259.37,-451.65C276.85,-450.81 296.78,-449.85 315.2,-448.97"/>
<polygon fill="#63b8ff" stroke="#63b8ff" points="259.61,-448.14 249.79,-452.11 259.95,-455.13 259.61,-448.14"/>
</g>
<!-- Node11 -->
<g id="node11" class="node">
<title>Node11</title>
<g id="a_node11"><a xlink:href="class_storm_1_1_operator.html" target="_top" xlink:title="Abstract operator ð’š â† ð“(ð’™). &#45;=&#45;=&#45;=&#45;=&#45;=&#45;=&#45;=&#45;=&#45;=&#45;=&#45;=&#45;=&#45;=&#45;=&#45;=&#45;=&#45;=&#45;=&#45;=&#45;=&#45;=&#45;=&#45;=&#45;=&#45;=&#45;=&#45;=&#45;=&#45;=&#45;=&#45;=&#45;=&#45; ///.">
<polygon fill="white" stroke="#666666" points="445,-413 311,-413 311,-383 445,-383 445,-413"/>
<text text-anchor="start" x="319" y="-401" font-family="Helvetica,sans-Serif" font-size="10.00">Storm::Operator&lt; InVector,</text>
<text text-anchor="middle" x="378" y="-390" font-family="Helvetica,sans-Serif" font-size="10.00"> OutVector &gt;</text>
</a>
</g>
</g>
<!-- Node3&#45;&gt;Node11 -->
<g id="edge10" class="edge">
<title>Node3&#45;&gt;Node11</title>
<path fill="none" stroke="#63b8ff" d="M256.72,-440.76C262.88,-438.88 269.11,-436.93 275,-435 276.57,-434.48 307.14,-423.39 334.41,-413.48"/>
<polygon fill="#63b8ff" stroke="#63b8ff" points="255.8,-437.38 247.22,-443.6 257.8,-444.09 255.8,-437.38"/>
</g>
<!-- Node13 -->
<g id="node13" class="node">
<title>Node13</title>
<g id="a_node13"><a xlink:href="class_storm_1_1_solver.html" target="_top" xlink:title="Abstract operator equation solver. &#45;=&#45;=&#45;=&#45;=&#45;=&#45;=&#45;=&#45;=&#45;=&#45;=&#45;=&#45;=&#45;=&#45;=&#45;=&#45;=&#45;=&#45;=&#45;=&#45;=&#45;=&#45;=&#45;=&#45;=&#45;=&#45;=&#45;=&#45;=&#45;=&#45;=&#45;=&#45;=&#45; ...">
<polygon fill="white" stroke="#666666" points="440.5,-350 315.5,-350 315.5,-320 440.5,-320 440.5,-350"/>
<text text-anchor="start" x="323.5" y="-338" font-family="Helvetica,sans-Serif" font-size="10.00">Storm::Solver&lt; InVector,</text>
<text text-anchor="middle" x="378" y="-327" font-family="Helvetica,sans-Serif" font-size="10.00"> OutVector &gt;</text>
</a>
</g>
</g>
<!-- Node3&#45;&gt;Node13 -->
<g id="edge12" class="edge">
<title>Node3&#45;&gt;Node13</title>
<path fill="none" stroke="#63b8ff" d="M258.81,-444.21C264.6,-441.79 270.17,-438.77 275,-435 299.83,-415.65 288.75,-396.27 311,-374 320.31,-364.68 332.3,-356.74 343.49,-350.5"/>
<polygon fill="#63b8ff" stroke="#63b8ff" points="257.93,-440.81 249.68,-447.45 260.27,-447.41 257.93,-440.81"/>
</g>
<!-- Node6 -->
<g id="node6" class="node">
<title>Node6</title>
<g id="a_node6"><a xlink:href="class_storm_1_1_preconditioner.html" target="_top" xlink:title="Abstract preconditioner operator. &#45;=&#45;=&#45;=&#45;=&#45;=&#45;=&#45;=&#45;=&#45;=&#45;=&#45;=&#45;=&#45;=&#45;=&#45;=&#45;=&#45;=&#45;=&#45;=&#45;=&#45;=&#45;=&#45;=&#45;=&#45;=&#45;=&#45;=&#45;=&#45;=&#45;=&#45;=&#45;=&#45; /...">
<polygon fill="white" stroke="#666666" points="602,-571 491,-571 491,-541 602,-541 602,-571"/>
<text text-anchor="start" x="499" y="-559" font-family="Helvetica,sans-Serif" font-size="10.00">Storm::Preconditioner</text>
<text text-anchor="middle" x="546.5" y="-548" font-family="Helvetica,sans-Serif" font-size="10.00">&lt; Vector &gt;</text>
</a>
</g>
</g>
<!-- Node5&#45;&gt;Node6 -->
<g id="edge5" class="edge">
<title>Node5&#45;&gt;Node6</title>
<path fill="none" stroke="#63b8ff" d="M455.95,-545.78C467.65,-547.12 479.52,-548.47 490.63,-549.74"/>
<polygon fill="#63b8ff" stroke="#63b8ff" points="456.64,-542.34 446.31,-544.68 455.85,-549.29 456.64,-542.34"/>
</g>
<!-- Node7 -->
<g id="node7" class="node">
<title>Node7</title>
<g id="a_node7"><a xlink:href="class_storm_1_1_identity_preconditioner.html" target="_top" xlink:title="Identity preconditioner, intended to be used for debugging only. &#45;=&#45;=&#45;=&#45;=&#45;=&#45;=&#45;=&#45;=&#45;=&#45;=&#45;=&#45;=&#45;=&#45;=&#45;=&#45;=&#45;=&#45;=...">
<polygon fill="white" stroke="#666666" points="794,-585 651,-585 651,-555 794,-555 794,-585"/>
<text text-anchor="start" x="659" y="-573" font-family="Helvetica,sans-Serif" font-size="10.00">Storm::IdentityPreconditioner</text>
<text text-anchor="middle" x="722.5" y="-562" font-family="Helvetica,sans-Serif" font-size="10.00">&lt; Vector &gt;</text>
</a>
</g>
</g>
<!-- Node6&#45;&gt;Node7 -->
<g id="edge6" class="edge">
<title>Node6&#45;&gt;Node7</title>
<path fill="none" stroke="#63b8ff" d="M613.47,-561.31C625.58,-562.28 638.26,-563.3 650.5,-564.29"/>
<polygon fill="#63b8ff" stroke="#63b8ff" points="613.83,-557.83 603.59,-560.51 613.27,-564.8 613.83,-557.83"/>
</g>
<!-- Node9 -->
<g id="node9" class="node">
<title>Node9</title>
<g id="a_node9"><a xlink:href="class_storm_1_1_iterative_solver.html" target="_top" xlink:title=" ">
<polygon fill="white" stroke="#666666" points="603,-509 490,-509 490,-479 603,-479 603,-509"/>
<text text-anchor="start" x="498" y="-497" font-family="Helvetica,sans-Serif" font-size="10.00">Storm::IterativeSolver</text>
<text text-anchor="middle" x="546.5" y="-486" font-family="Helvetica,sans-Serif" font-size="10.00">&lt; InVector, InVector &gt;</text>
</a>
</g>
</g>
<!-- Node8&#45;&gt;Node9 -->
<g id="edge8" class="edge">
<title>Node8&#45;&gt;Node9</title>
<path fill="none" stroke="#63b8ff" d="M452.4,-494C464.94,-494 477.78,-494 489.76,-494"/>
<polygon fill="#63b8ff" stroke="#63b8ff" points="452.51,-490.5 442.51,-494 452.51,-497.5 452.51,-490.5"/>
</g>
<!-- Node12 -->
<g id="node12" class="node">
<title>Node12</title>
<g id="a_node12"><a xlink:href="class_storm_1_1_functional_operator.html" target="_top" xlink:title="Operator implementation with external function pointers. &#45;=&#45;=&#45;=&#45;=&#45;=&#45;=&#45;=&#45;=&#45;=&#45;=&#45;=&#45;=&#45;=&#45;=&#45;=&#45;=&#45;=&#45;=&#45;=&#45;=&#45;=&#45;=...">
<polygon fill="white" stroke="#666666" points="612,-413 481,-413 481,-383 612,-383 612,-413"/>
<text text-anchor="start" x="489" y="-401" font-family="Helvetica,sans-Serif" font-size="10.00">Storm::FunctionalOperator</text>
<text text-anchor="middle" x="546.5" y="-390" font-family="Helvetica,sans-Serif" font-size="10.00">&lt; InVector, OutVector &gt;</text>
</a>
</g>
</g>
<!-- Node11&#45;&gt;Node12 -->
<g id="edge11" class="edge">
<title>Node11&#45;&gt;Node12</title>
<path fill="none" stroke="#63b8ff" d="M456.55,-398C464.57,-398 472.67,-398 480.53,-398"/>
<polygon fill="#63b8ff" stroke="#63b8ff" points="456.8,-394.5 446.8,-398 456.8,-401.5 456.8,-394.5"/>
</g>
<!-- Node14 -->
<g id="node14" class="node">
<title>Node14</title>
<g id="a_node14"><a xlink:href="class_storm_1_1_iterative_solver.html" target="_top" xlink:title=" ">
<polygon fill="white" stroke="#666666" points="602.5,-350 490.5,-350 490.5,-320 602.5,-320 602.5,-350"/>
<text text-anchor="start" x="498.5" y="-338" font-family="Helvetica,sans-Serif" font-size="10.00">Storm::IterativeSolver</text>
<text text-anchor="middle" x="546.5" y="-327" font-family="Helvetica,sans-Serif" font-size="10.00">&lt; Vector &gt;</text>
</a>
</g>
</g>
<!-- Node13&#45;&gt;Node14 -->
<g id="edge13" class="edge">
<title>Node13&#45;&gt;Node14</title>
<path fill="none" stroke="#63b8ff" d="M452.46,-335C465.08,-335 477.99,-335 490.04,-335"/>
<polygon fill="#63b8ff" stroke="#63b8ff" points="452.51,-331.5 442.51,-335 452.51,-338.5 452.51,-331.5"/>
</g>
<!-- Node26 -->
<g id="node26" class="node">
<title>Node26</title>
<g id="a_node26"><a xlink:href="class_storm_1_1_iterative_solver.html" target="_top" xlink:title="Abstract operator equation iterative solver. &#45;=&#45;=&#45;=&#45;=&#45;=&#45;=&#45;=&#45;=&#45;=&#45;=&#45;=&#45;=&#45;=&#45;=&#45;=&#45;=&#45;=&#45;=&#45;=&#45;=&#45;=&#45;=&#45;=&#45;=&#45;=&#45;=&#45;=&#45;=...">
<polygon fill="white" stroke="#666666" points="607,-126 486,-126 486,-96 607,-96 607,-126"/>
<text text-anchor="start" x="494" y="-114" font-family="Helvetica,sans-Serif" font-size="10.00">Storm::IterativeSolver</text>
<text text-anchor="middle" x="546.5" y="-103" font-family="Helvetica,sans-Serif" font-size="10.00">&lt; InVector, OutVector &gt;</text>
</a>
</g>
</g>
<!-- Node13&#45;&gt;Node26 -->
<g id="edge25" class="edge">
<title>Node13&#45;&gt;Node26</title>
<path fill="none" stroke="#63b8ff" d="M429.34,-314.12C434.99,-310.57 440.37,-306.54 445,-302 498.8,-249.3 530.07,-161.61 541.03,-126.36"/>
<polygon fill="#63b8ff" stroke="#63b8ff" points="427.92,-310.9 420.97,-318.89 431.39,-316.98 427.92,-310.9"/>
</g>
<!-- Node15 -->
<g id="node15" class="node">
<title>Node15</title>
<g id="a_node15"><a xlink:href="class_storm_1_1_base_tfqmr_solver.html" target="_top" xlink:title=" ">
<polygon fill="white" stroke="#666666" points="785,-537 660,-537 660,-507 785,-507 785,-537"/>
<text text-anchor="start" x="668" y="-525" font-family="Helvetica,sans-Serif" font-size="10.00">Storm::BaseTfqmrSolver</text>
<text text-anchor="middle" x="722.5" y="-514" font-family="Helvetica,sans-Serif" font-size="10.00">&lt; Vector, true &gt;</text>
</a>
</g>
</g>
<!-- Node14&#45;&gt;Node15 -->
<g id="edge14" class="edge">
<title>Node14&#45;&gt;Node15</title>
<path fill="none" stroke="#63b8ff" d="M592.63,-356.22C599.89,-361.22 606.73,-367.14 612,-374 646.95,-419.52 608.1,-456.76 648,-498 651.45,-501.57 655.44,-504.61 659.74,-507.2"/>
<polygon fill="#63b8ff" stroke="#63b8ff" points="594.91,-353.52 584.58,-351.17 591.19,-359.45 594.91,-353.52"/>
</g>
<!-- Node17 -->
<g id="node17" class="node">
<title>Node17</title>
<g id="a_node17"><a xlink:href="class_storm_1_1_base_tfqmr_solver.html" target="_top" xlink:title=" ">
<polygon fill="white" stroke="#666666" points="785,-489 660,-489 660,-459 785,-459 785,-489"/>
<text text-anchor="start" x="668" y="-477" font-family="Helvetica,sans-Serif" font-size="10.00">Storm::BaseTfqmrSolver</text>
<text text-anchor="middle" x="722.5" y="-466" font-family="Helvetica,sans-Serif" font-size="10.00">&lt; Vector, false &gt;</text>
</a>
</g>
</g>
<!-- Node14&#45;&gt;Node17 -->
<g id="edge16" class="edge">
<title>Node14&#45;&gt;Node17</title>
<path fill="none" stroke="#63b8ff" d="M590.81,-356.32C598.49,-361.39 605.96,-367.31 612,-374 637.05,-401.73 619.95,-425.3 648,-450 651.73,-453.28 655.91,-456.12 660.35,-458.57"/>
<polygon fill="#63b8ff" stroke="#63b8ff" points="592.7,-353.38 582.35,-351.15 589.05,-359.35 592.7,-353.38"/>
</g>
<!-- Node19 -->
<g id="node19" class="node">
<title>Node19</title>
<g id="a_node19"><a xlink:href="class_storm_1_1_base_tfqmr_solver.html" target="_top" xlink:title="Parametrized TFQMR solver.">
<polygon fill="white" stroke="#666666" points="785,-441 660,-441 660,-411 785,-411 785,-441"/>
<text text-anchor="start" x="668" y="-429" font-family="Helvetica,sans-Serif" font-size="10.00">Storm::BaseTfqmrSolver</text>
<text text-anchor="middle" x="722.5" y="-418" font-family="Helvetica,sans-Serif" font-size="10.00">&lt; Vector, L1 &gt;</text>
</a>
</g>
</g>
<!-- Node14&#45;&gt;Node19 -->
<g id="edge18" class="edge">
<title>Node14&#45;&gt;Node19</title>
<path fill="none" stroke="#63b8ff" d="M584.3,-356.23C593.48,-361.81 603.21,-367.96 612,-374 628.7,-385.49 630.1,-392.49 648,-402 653.93,-405.15 660.34,-407.98 666.83,-410.51"/>
<polygon fill="#63b8ff" stroke="#63b8ff" points="586.3,-353.35 575.92,-351.22 582.7,-359.36 586.3,-353.35"/>
</g>
<!-- Node20 -->
<g id="node20" class="node">
<title>Node20</title>
<g id="a_node20"><a xlink:href="class_storm_1_1_bi_cg_stab_solver.html" target="_top" xlink:title="The BiCGStab (Biconjugate Gradients Stabilized) linear operator equation solver.">
<polygon fill="white" stroke="#666666" points="782,-393 663,-393 663,-363 782,-363 782,-393"/>
<text text-anchor="start" x="671" y="-381" font-family="Helvetica,sans-Serif" font-size="10.00">Storm::BiCgStabSolver</text>
<text text-anchor="middle" x="722.5" y="-370" font-family="Helvetica,sans-Serif" font-size="10.00">&lt; Vector &gt;</text>
</a>
</g>
</g>
<!-- Node14&#45;&gt;Node20 -->
<g id="edge19" class="edge">
<title>Node14&#45;&gt;Node20</title>
<path fill="none" stroke="#63b8ff" d="M613.53,-351.32C629.66,-355.3 646.82,-359.54 662.59,-363.44"/>
<polygon fill="#63b8ff" stroke="#63b8ff" points="614.57,-347.97 604.02,-348.97 612.89,-354.77 614.57,-347.97"/>
</g>
<!-- Node21 -->
<g id="node21" class="node">
<title>Node21</title>
<g id="a_node21"><a xlink:href="class_storm_1_1_cg_solver.html" target="_top" xlink:title="The CG (Conjugate Gradients) linear self&#45;adjoint definite operator equation solver.">
<polygon fill="white" stroke="#666666" points="790.5,-344.5 654.5,-344.5 654.5,-325.5 790.5,-325.5 790.5,-344.5"/>
<text text-anchor="middle" x="722.5" y="-332.5" font-family="Helvetica,sans-Serif" font-size="10.00">Storm::CgSolver&lt; Vector &gt;</text>
</a>
</g>
</g>
<!-- Node14&#45;&gt;Node21 -->
<g id="edge20" class="edge">
<title>Node14&#45;&gt;Node21</title>
<path fill="none" stroke="#63b8ff" d="M613.96,-335C627.17,-335 641.05,-335 654.29,-335"/>
<polygon fill="#63b8ff" stroke="#63b8ff" points="614.07,-331.5 604.07,-335 614.07,-338.5 614.07,-331.5"/>
</g>
<!-- Node22 -->
<g id="node22" class="node">
<title>Node22</title>
<g id="a_node22"><a xlink:href="class_storm_1_1_cgs_solver.html" target="_top" xlink:title="The CGS (Conjugate Gradients Squared) linear operator equation solver.">
<polygon fill="white" stroke="#666666" points="793,-307.5 652,-307.5 652,-288.5 793,-288.5 793,-307.5"/>
<text text-anchor="middle" x="722.5" y="-295.5" font-family="Helvetica,sans-Serif" font-size="10.00">Storm::CgsSolver&lt; Vector &gt;</text>
</a>
</g>
</g>
<!-- Node14&#45;&gt;Node22 -->
<g id="edge21" class="edge">
<title>Node14&#45;&gt;Node22</title>
<path fill="none" stroke="#63b8ff" d="M613.66,-320.93C633.99,-316.61 655.94,-311.94 674.7,-307.95"/>
<polygon fill="#63b8ff" stroke="#63b8ff" points="613.09,-317.47 604.04,-322.98 614.54,-324.32 613.09,-317.47"/>
</g>
<!-- Node23 -->
<g id="node23" class="node">
<title>Node23</title>
<g id="a_node23"><a xlink:href="class_storm_1_1_jfnk_solver.html" target="_top" xlink:title="The first&#45;order JFNK (Jacobian free&#45;Newton&#45;Krylov) nonlinear operator equation solver.">
<polygon fill="white" stroke="#666666" points="773,-270 672,-270 672,-240 773,-240 773,-270"/>
<text text-anchor="start" x="680" y="-258" font-family="Helvetica,sans-Serif" font-size="10.00">Storm::JfnkSolver&lt;</text>
<text text-anchor="middle" x="722.5" y="-247" font-family="Helvetica,sans-Serif" font-size="10.00"> Vector &gt;</text>
</a>
</g>
</g>
<!-- Node14&#45;&gt;Node23 -->
<g id="edge22" class="edge">
<title>Node14&#45;&gt;Node23</title>
<path fill="none" stroke="#63b8ff" d="M581.72,-313.76C600.78,-302.5 625.19,-288.97 648,-279 655.5,-275.72 663.6,-272.64 671.59,-269.85"/>
<polygon fill="#63b8ff" stroke="#63b8ff" points="580.09,-310.66 573.31,-318.81 583.69,-316.67 580.09,-310.66"/>
</g>
<!-- Node24 -->
<g id="node24" class="node">
<title>Node24</title>
<g id="a_node24"><a xlink:href="class_storm_1_1_newton_solver.html" target="_top" xlink:title="The Newton method nonlinear operator equation solver.">
<polygon fill="white" stroke="#666666" points="777.5,-222 667.5,-222 667.5,-192 777.5,-192 777.5,-222"/>
<text text-anchor="start" x="675.5" y="-210" font-family="Helvetica,sans-Serif" font-size="10.00">Storm::NewtonSolver</text>
<text text-anchor="middle" x="722.5" y="-199" font-family="Helvetica,sans-Serif" font-size="10.00">&lt; Vector &gt;</text>
</a>
</g>
</g>
<!-- Node14&#45;&gt;Node24 -->
<g id="edge23" class="edge">
<title>Node14&#45;&gt;Node24</title>
<path fill="none" stroke="#63b8ff" d="M565.25,-310.68C583.55,-287.2 614.14,-252.19 648,-231 653.92,-227.3 660.46,-224.11 667.14,-221.38"/>
<polygon fill="#63b8ff" stroke="#63b8ff" points="562.6,-308.38 559.32,-318.45 568.17,-312.62 562.6,-308.38"/>
</g>
<!-- Node25 -->
<g id="node25" class="node">
<title>Node25</title>
<g id="a_node25"><a xlink:href="class_storm_1_1_richardson_solver.html" target="_top" xlink:title="The Richardson iteration linear operator equation solver.">
<polygon fill="white" stroke="#666666" points="785.5,-174 659.5,-174 659.5,-144 785.5,-144 785.5,-174"/>
<text text-anchor="start" x="667.5" y="-162" font-family="Helvetica,sans-Serif" font-size="10.00">Storm::RichardsonSolver</text>
<text text-anchor="middle" x="722.5" y="-151" font-family="Helvetica,sans-Serif" font-size="10.00">&lt; Vector &gt;</text>
</a>
</g>
</g>
<!-- Node14&#45;&gt;Node25 -->
<g id="edge24" class="edge">
<title>Node14&#45;&gt;Node25</title>
<path fill="none" stroke="#63b8ff" d="M558.04,-309.17C573.1,-275.39 603.92,-216.59 648,-183 652.27,-179.75 657,-176.92 661.94,-174.48"/>
<polygon fill="#63b8ff" stroke="#63b8ff" points="554.89,-307.63 554.14,-318.2 561.32,-310.41 554.89,-307.63"/>
</g>
<!-- Node16 -->
<g id="node16" class="node">
<title>Node16</title>
<g id="a_node16"><a xlink:href="class_storm_1_1_tfqmr1_solver.html" target="_top" xlink:title="The TFQMR1 (Transpose&#45;Free 1&#45;norm Quasi&#45;Minimal Residual) linear operator equation solver.">
<polygon fill="white" stroke="#666666" points="953.5,-537 846.5,-537 846.5,-507 953.5,-507 953.5,-537"/>
<text text-anchor="start" x="854.5" y="-525" font-family="Helvetica,sans-Serif" font-size="10.00">Storm::Tfqmr1Solver</text>
<text text-anchor="middle" x="900" y="-514" font-family="Helvetica,sans-Serif" font-size="10.00">&lt; Vector &gt;</text>
</a>
</g>
</g>
<!-- Node15&#45;&gt;Node16 -->
<g id="edge15" class="edge">
<title>Node15&#45;&gt;Node16</title>
<path fill="none" stroke="#63b8ff" d="M796.71,-522C813.28,-522 830.57,-522 846.12,-522"/>
<polygon fill="#63b8ff" stroke="#63b8ff" points="796.89,-518.5 786.89,-522 796.89,-525.5 796.89,-518.5"/>
</g>
<!-- Node18 -->
<g id="node18" class="node">
<title>Node18</title>
<g id="a_node18"><a xlink:href="class_storm_1_1_tfqmr_solver.html" target="_top" xlink:title="The TFQMR (Transpose&#45;Free Quasi&#45;Minimal Residual) linear operator equation solver.">
<polygon fill="white" stroke="#666666" points="951,-489 849,-489 849,-459 951,-459 951,-489"/>
<text text-anchor="start" x="857" y="-477" font-family="Helvetica,sans-Serif" font-size="10.00">Storm::TfqmrSolver</text>
<text text-anchor="middle" x="900" y="-466" font-family="Helvetica,sans-Serif" font-size="10.00">&lt; Vector &gt;</text>
</a>
</g>
</g>
<!-- Node17&#45;&gt;Node18 -->
<g id="edge17" class="edge">
<title>Node17&#45;&gt;Node18</title>
<path fill="none" stroke="#63b8ff" d="M796.72,-474C814.21,-474 832.48,-474 848.67,-474"/>
<polygon fill="#63b8ff" stroke="#63b8ff" points="796.89,-470.5 786.89,-474 796.89,-477.5 796.89,-470.5"/>
</g>
<!-- Node27 -->
<g id="node27" class="node">
<title>Node27</title>
<g id="a_node27"><a xlink:href="class_storm_1_1_inner_outer_iterative_solver.html" target="_top" xlink:title=" ">
<polygon fill="white" stroke="#666666" points="787.5,-126 657.5,-126 657.5,-96 787.5,-96 787.5,-126"/>
<text text-anchor="start" x="665.5" y="-114" font-family="Helvetica,sans-Serif" font-size="10.00">Storm::InnerOuterIterative</text>
<text text-anchor="middle" x="722.5" y="-103" font-family="Helvetica,sans-Serif" font-size="10.00">Solver&lt; Vector &gt;</text>
</a>
</g>
</g>
<!-- Node26&#45;&gt;Node27 -->
<g id="edge26" class="edge">
<title>Node26&#45;&gt;Node27</title>
<path fill="none" stroke="#63b8ff" d="M618.84,-111C631.49,-111 644.6,-111 657.05,-111"/>
<polygon fill="#63b8ff" stroke="#63b8ff" points="618.89,-107.5 608.89,-111 618.89,-114.5 618.89,-107.5"/>
</g>
<!-- Node35 -->
<g id="node35" class="node">
<title>Node35</title>
<g id="a_node35"><a xlink:href="class_storm_1_1_inner_outer_iterative_solver.html" target="_top" xlink:title="Abstract inner&#45;outer iterative solver. &#45;=&#45;=&#45;=&#45;=&#45;=&#45;=&#45;=&#45;=&#45;=&#45;=&#45;=&#45;=&#45;=&#45;=&#45;=&#45;=&#45;=&#45;=&#45;=&#45;=&#45;=&#45;=&#45;=&#45;=&#45;=&#45;=&#45;=&#45;=&#45;=&#45;=&#45;=...">
<polygon fill="white" stroke="#666666" points="797,-78 648,-78 648,-48 797,-48 797,-78"/>
<text text-anchor="start" x="656" y="-66" font-family="Helvetica,sans-Serif" font-size="10.00">Storm::InnerOuterIterative</text>
<text text-anchor="middle" x="722.5" y="-55" font-family="Helvetica,sans-Serif" font-size="10.00">Solver&lt; InVector, OutVector &gt;</text>
</a>
</g>
</g>
<!-- Node26&#45;&gt;Node35 -->
<g id="edge34" class="edge">
<title>Node26&#45;&gt;Node35</title>
<path fill="none" stroke="#63b8ff" d="M614.43,-92.54C631.33,-87.87 649.3,-82.92 665.59,-78.42"/>
<polygon fill="#63b8ff" stroke="#63b8ff" points="613.68,-89.11 604.97,-95.15 615.54,-95.86 613.68,-89.11"/>
</g>
<!-- Node28 -->
<g id="node28" class="node">
<title>Node28</title>
<g id="a_node28"><a xlink:href="class_storm_1_1_base_gmres_solver.html" target="_top" xlink:title=" ">
<polygon fill="white" stroke="#666666" points="964,-222 836,-222 836,-192 964,-192 964,-222"/>
<text text-anchor="start" x="844" y="-210" font-family="Helvetica,sans-Serif" font-size="10.00">Storm::BaseGmresSolver</text>
<text text-anchor="middle" x="900" y="-199" font-family="Helvetica,sans-Serif" font-size="10.00">&lt; Vector, true &gt;</text>
</a>
</g>
</g>
<!-- Node27&#45;&gt;Node28 -->
<g id="edge27" class="edge">
<title>Node27&#45;&gt;Node28</title>
<path fill="none" stroke="#63b8ff" d="M792.12,-131.77C793.79,-132.79 795.42,-133.87 797,-135 818.68,-150.53 811.58,-167.12 833,-183 837.41,-186.27 842.3,-189.13 847.38,-191.62"/>
<polygon fill="#63b8ff" stroke="#63b8ff" points="793.9,-128.75 783.44,-127.11 790.59,-134.92 793.9,-128.75"/>
</g>
<!-- Node30 -->
<g id="node30" class="node">
<title>Node30</title>
<g id="a_node30"><a xlink:href="class_storm_1_1_base_gmres_solver.html" target="_top" xlink:title=" ">
<polygon fill="white" stroke="#666666" points="964,-174 836,-174 836,-144 964,-144 964,-174"/>
<text text-anchor="start" x="844" y="-162" font-family="Helvetica,sans-Serif" font-size="10.00">Storm::BaseGmresSolver</text>
<text text-anchor="middle" x="900" y="-151" font-family="Helvetica,sans-Serif" font-size="10.00">&lt; Vector, false &gt;</text>
</a>
</g>
</g>
<!-- Node27&#45;&gt;Node30 -->
<g id="edge29" class="edge">
<title>Node27&#45;&gt;Node30</title>
<path fill="none" stroke="#63b8ff" d="M791.01,-129.46C808.06,-134.13 826.18,-139.08 842.61,-143.58"/>
<polygon fill="#63b8ff" stroke="#63b8ff" points="792.02,-126.11 781.46,-126.85 790.18,-132.87 792.02,-126.11"/>
</g>
<!-- Node32 -->
<g id="node32" class="node">
<title>Node32</title>
<g id="a_node32"><a xlink:href="class_storm_1_1_base_gmres_solver.html" target="_top" xlink:title="Parmetrized GMRES solver.">
<polygon fill="white" stroke="#666666" points="967,-126 833,-126 833,-96 967,-96 967,-126"/>
<text text-anchor="start" x="841" y="-114" font-family="Helvetica,sans-Serif" font-size="10.00">Storm::BaseGmresSolver</text>
<text text-anchor="middle" x="900" y="-103" font-family="Helvetica,sans-Serif" font-size="10.00">&lt; Vector, Flexible, Loose &gt;</text>
</a>
</g>
</g>
<!-- Node27&#45;&gt;Node32 -->
<g id="edge31" class="edge">
<title>Node27&#45;&gt;Node32</title>
<path fill="none" stroke="#63b8ff" d="M799.28,-111C810.37,-111 821.71,-111 832.59,-111"/>
<polygon fill="#63b8ff" stroke="#63b8ff" points="799.37,-107.5 789.37,-111 799.37,-114.5 799.37,-107.5"/>
</g>
<!-- Node33 -->
<g id="node33" class="node">
<title>Node33</title>
<g id="a_node33"><a xlink:href="class_storm_1_1_bi_cg_stab_l_solver.html" target="_top" xlink:title="The BiCGStab(l) (Biconjugate Gradients Stabilized) linear operator equation solver.">
<polygon fill="white" stroke="#666666" points="962,-78 838,-78 838,-48 962,-48 962,-78"/>
<text text-anchor="start" x="846" y="-66" font-family="Helvetica,sans-Serif" font-size="10.00">Storm::BiCgStabLSolver</text>
<text text-anchor="middle" x="900" y="-55" font-family="Helvetica,sans-Serif" font-size="10.00">&lt; Vector &gt;</text>
</a>
</g>
</g>
<!-- Node27&#45;&gt;Node33 -->
<g id="edge32" class="edge">
<title>Node27&#45;&gt;Node33</title>
<path fill="none" stroke="#63b8ff" d="M791.01,-92.54C808.06,-87.87 826.18,-82.92 842.61,-78.42"/>
<polygon fill="#63b8ff" stroke="#63b8ff" points="790.18,-89.13 781.46,-95.15 792.02,-95.89 790.18,-89.13"/>
</g>
<!-- Node34 -->
<g id="node34" class="node">
<title>Node34</title>
<g id="a_node34"><a xlink:href="class_storm_1_1_idrs_solver.html" target="_top" xlink:title="The IDR(s) (Induced Dimension Reduction) linear operator equation solver.">
<polygon fill="white" stroke="#666666" points="949.5,-30 850.5,-30 850.5,0 949.5,0 949.5,-30"/>
<text text-anchor="start" x="858.5" y="-18" font-family="Helvetica,sans-Serif" font-size="10.00">Storm::IdrsSolver&lt;</text>
<text text-anchor="middle" x="900" y="-7" font-family="Helvetica,sans-Serif" font-size="10.00"> Vector &gt;</text>
</a>
</g>
</g>
<!-- Node27&#45;&gt;Node34 -->
<g id="edge33" class="edge">
<title>Node27&#45;&gt;Node34</title>
<path fill="none" stroke="#63b8ff" d="M792.12,-90.23C793.79,-89.21 795.42,-88.13 797,-87 818.68,-71.47 811.58,-54.88 833,-39 838.19,-35.15 844.06,-31.87 850.11,-29.08"/>
<polygon fill="#63b8ff" stroke="#63b8ff" points="790.59,-87.08 783.44,-94.89 793.9,-93.25 790.59,-87.08"/>
</g>
<!-- Node29 -->
<g id="node29" class="node">
<title>Node29</title>
<g id="a_node29"><a xlink:href="class_storm_1_1_fgmres_solver.html" target="_top" xlink:title="The FGMRES (Flexible Generalized Minimal Residual) linear operator equation solver.">
<polygon fill="white" stroke="#666666" points="1113,-222 1003,-222 1003,-192 1113,-192 1113,-222"/>
<text text-anchor="start" x="1011" y="-210" font-family="Helvetica,sans-Serif" font-size="10.00">Storm::FgmresSolver</text>
<text text-anchor="middle" x="1058" y="-199" font-family="Helvetica,sans-Serif" font-size="10.00">&lt; Vector &gt;</text>
</a>
</g>
</g>
<!-- Node28&#45;&gt;Node29 -->
<g id="edge28" class="edge">
<title>Node28&#45;&gt;Node29</title>
<path fill="none" stroke="#63b8ff" d="M975.82,-207C984.86,-207 993.94,-207 1002.6,-207"/>
<polygon fill="#63b8ff" stroke="#63b8ff" points="975.96,-203.5 965.96,-207 975.96,-210.5 975.96,-203.5"/>
</g>
<!-- Node31 -->
<g id="node31" class="node">
<title>Node31</title>
<g id="a_node31"><a xlink:href="class_storm_1_1_gmres_solver.html" target="_top" xlink:title="The GMRES (Generalized Minimal Residual) linear operator equation solver.">
<polygon fill="white" stroke="#666666" points="1111,-174 1005,-174 1005,-144 1111,-144 1111,-174"/>
<text text-anchor="start" x="1013" y="-162" font-family="Helvetica,sans-Serif" font-size="10.00">Storm::GmresSolver</text>
<text text-anchor="middle" x="1058" y="-151" font-family="Helvetica,sans-Serif" font-size="10.00">&lt; Vector &gt;</text>
</a>
</g>
</g>
<!-- Node30&#45;&gt;Node31 -->
<g id="edge30" class="edge">
<title>Node30&#45;&gt;Node31</title>
<path fill="none" stroke="#63b8ff" d="M975.8,-159C985.52,-159 995.31,-159 1004.57,-159"/>
<polygon fill="#63b8ff" stroke="#63b8ff" points="975.96,-155.5 965.96,-159 975.96,-162.5 975.96,-155.5"/>
</g>
<!-- Node41 -->
<g id="node41" class="node">
<title>Node41</title>
<g id="a_node41"><a xlink:href="class_storm_1_1_vulture_1_1gl_1_1_multisampled_texture2_d.html" target="_top" xlink:title="OpenGL multisampled 2D texture.">
<polygon fill="white" stroke="#666666" points="440.5,-293.5 315.5,-293.5 315.5,-252.5 440.5,-252.5 440.5,-293.5"/>
<text text-anchor="start" x="323.5" y="-281.5" font-family="Helvetica,sans-Serif" font-size="10.00">Storm::Vulture::gl</text>
<text text-anchor="start" x="323.5" y="-270.5" font-family="Helvetica,sans-Serif" font-size="10.00">::MultisampledTexture2D</text>
<text text-anchor="middle" x="378" y="-259.5" font-family="Helvetica,sans-Serif" font-size="10.00">&lt; Pixel &gt;</text>
</a>
</g>
</g>
<!-- Node40&#45;&gt;Node41 -->
<g id="edge40" class="edge">
<title>Node40&#45;&gt;Node41</title>
<path fill="none" stroke="#63b8ff" d="M267.35,-237.44C282.7,-242.42 299.39,-247.83 315.01,-252.89"/>
<polygon fill="#63b8ff" stroke="#63b8ff" points="268.47,-234.12 257.88,-234.37 266.31,-240.78 268.47,-234.12"/>
</g>
<!-- Node42 -->
<g id="node42" class="node">
<title>Node42</title>
<g id="a_node42"><a xlink:href="class_storm_1_1_vulture_1_1gl_1_1_texture2_d.html" target="_top" xlink:title="OpenGL 2D texture.">
<polygon fill="white" stroke="#666666" points="431.5,-234 324.5,-234 324.5,-204 431.5,-204 431.5,-234"/>
<text text-anchor="start" x="332.5" y="-222" font-family="Helvetica,sans-Serif" font-size="10.00">Storm::Vulture::gl</text>
<text text-anchor="middle" x="378" y="-211" font-family="Helvetica,sans-Serif" font-size="10.00">::Texture2D&lt; Pixel &gt;</text>
</a>
</g>
</g>
<!-- Node40&#45;&gt;Node42 -->
<g id="edge41" class="edge">
<title>Node40&#45;&gt;Node42</title>
<path fill="none" stroke="#63b8ff" d="M267.83,-219C286.1,-219 306.22,-219 324.15,-219"/>
<polygon fill="#63b8ff" stroke="#63b8ff" points="267.95,-215.5 257.95,-219 267.95,-222.5 267.95,-215.5"/>
</g>
<!-- Node43 -->
<g id="node43" class="node">
<title>Node43</title>
<g id="a_node43"><a xlink:href="class_storm_1_1_vulture_1_1gl_1_1_texture_buffer.html" target="_top" xlink:title="OpenGL texture buffer.">
<polygon fill="white" stroke="#666666" points="424.5,-186 331.5,-186 331.5,-156 424.5,-156 424.5,-186"/>
<text text-anchor="start" x="339.5" y="-174" font-family="Helvetica,sans-Serif" font-size="10.00">Storm::Vulture::gl</text>
<text text-anchor="middle" x="378" y="-163" font-family="Helvetica,sans-Serif" font-size="10.00">::TextureBuffer</text>
</a>
</g>
</g>
<!-- Node40&#45;&gt;Node43 -->
<g id="edge42" class="edge">
<title>Node40&#45;&gt;Node43</title>
<path fill="none" stroke="#63b8ff" d="M267.39,-202.6C288.21,-196.6 311.48,-189.89 331.21,-184.2"/>
<polygon fill="#63b8ff" stroke="#63b8ff" points="266.53,-199.2 257.89,-205.34 268.47,-205.93 266.53,-199.2"/>
</g>
</g>
</svg>
