<?xml version="1.0" encoding="UTF-8" standalone="no"?>
<!DOCTYPE svg PUBLIC "-//W3C//DTD SVG 1.1//EN"
 "http://www.w3.org/Graphics/SVG/1.1/DTD/svg11.dtd">
<!-- Generated by graphviz version 8.1.0 (20230707.0739)
 -->
<!-- Title: Storm::MatrixOwningView&lt; Matrix &gt; Pages: 1 -->
<svg width="335pt" height="76pt"
 viewBox="0.00 0.00 334.75 75.88" xmlns="http://www.w3.org/2000/svg" xmlns:xlink="http://www.w3.org/1999/xlink">
<g id="graph0" class="graph" transform="scale(1 1) rotate(0) translate(4 71.88)">
<title>Storm::MatrixOwningView&lt; Matrix &gt;</title>
<!-- Node1 -->
<g id="Node000001" class="node">
<title>Node1</title>
<g id="a_Node000001"><a xlink:title="Matrix owning view.">
<polygon fill="#999999" stroke="#666666" points="326.75,-45.88 196.75,-45.88 196.75,-15.37 326.75,-15.37 326.75,-45.88"/>
<text text-anchor="start" x="204.75" y="-32.38" font-family="Helvetica,sans-Serif" font-size="10.00">Storm::MatrixOwningView</text>
<text text-anchor="middle" x="261.75" y="-21.12" font-family="Helvetica,sans-Serif" font-size="10.00">&lt; Matrix &gt;</text>
</a>
</g>
</g>
<!-- Node2 -->
<g id="Node000002" class="node">
<title>Node2</title>
<g id="a_Node000002"><a xlink:href="class_storm_1_1_matrix_view_interface.html" target="_top" xlink:title=" ">
<polygon fill="white" stroke="#666666" points="160.75,-67.88 0,-67.88 0,-37.38 160.75,-37.38 160.75,-67.88"/>
<text text-anchor="start" x="8" y="-54.38" font-family="Helvetica,sans-Serif" font-size="10.00">Storm::MatrixViewInterface</text>
<text text-anchor="middle" x="80.38" y="-43.12" font-family="Helvetica,sans-Serif" font-size="10.00">&lt; MatrixOwningView&lt; Matrix &gt; &gt;</text>
</a>
</g>
</g>
<!-- Node2&#45;&gt;Node1 -->
<g id="edge1_Node000001_Node000002" class="edge">
<title>Node2&#45;&gt;Node1</title>
<g id="a_edge1_Node000001_Node000002"><a xlink:title=" ">
<path fill="none" stroke="#63b8ff" d="M171.91,-41.52C180.16,-40.51 188.39,-39.5 196.33,-38.53"/>
<polygon fill="#63b8ff" stroke="#63b8ff" points="171.6,-38.16 162.1,-42.85 172.45,-45.1 171.6,-38.16"/>
</a>
</g>
</g>
<!-- Node3 -->
<g id="Node000003" class="node">
<title>Node3</title>
<g id="a_Node000003"><a xlink:href="class_storm_1_1_non_copyable_interface.html" target="_top" xlink:title="Non copyable object interface.">
<polygon fill="white" stroke="#666666" points="153.25,-19.25 7.5,-19.25 7.5,0 153.25,0 153.25,-19.25"/>
<text text-anchor="middle" x="80.38" y="-5.75" font-family="Helvetica,sans-Serif" font-size="10.00">Storm::NonCopyableInterface</text>
</a>
</g>
</g>
<!-- Node3&#45;&gt;Node1 -->
<g id="edge2_Node000001_Node000003" class="edge">
<title>Node3&#45;&gt;Node1</title>
<g id="a_edge2_Node000001_Node000003"><a xlink:title=" ">
<path fill="none" stroke="#63b8ff" d="M164.31,-19.33C175.13,-20.6 186.08,-21.88 196.52,-23.11"/>
<polygon fill="#63b8ff" stroke="#63b8ff" points="164.9,-15.76 154.56,-18.08 164.08,-22.71 164.9,-15.76"/>
</a>
</g>
</g>
</g>
</svg>
