<?xml version="1.0" encoding="UTF-8" standalone="no"?>
<!DOCTYPE svg PUBLIC "-//W3C//DTD SVG 1.1//EN"
 "http://www.w3.org/Graphics/SVG/1.1/DTD/svg11.dtd">
<!-- Generated by graphviz version 8.1.0 (20230707.0739)
 -->
<!-- Title: Storm::FunctionalOperator&lt; InVector, OutVector &gt; Pages: 1 -->
<svg width="154pt" height="216pt"
 viewBox="0.00 0.00 153.75 215.50" xmlns="http://www.w3.org/2000/svg" xmlns:xlink="http://www.w3.org/1999/xlink">
<g id="graph0" class="graph" transform="scale(1 1) rotate(0) translate(4 211.5)">
<title>Storm::FunctionalOperator&lt; InVector, OutVector &gt;</title>
<!-- Node1 -->
<g id="Node000001" class="node">
<title>Node1</title>
<g id="a_Node000001"><a xlink:title="Operator implementation with external function pointers. &#45;=&#45;=&#45;=&#45;=&#45;=&#45;=&#45;=&#45;=&#45;=&#45;=&#45;=&#45;=&#45;=&#45;=&#45;=&#45;=&#45;=&#45;=&#45;=&#45;=&#45;=&#45;=...">
<polygon fill="#999999" stroke="#666666" points="138.25,-30.5 7.5,-30.5 7.5,0 138.25,0 138.25,-30.5"/>
<text text-anchor="start" x="15.5" y="-17" font-family="Helvetica,sans-Serif" font-size="10.00">Storm::FunctionalOperator</text>
<text text-anchor="middle" x="72.88" y="-5.75" font-family="Helvetica,sans-Serif" font-size="10.00">&lt; InVector, OutVector &gt;</text>
</a>
</g>
</g>
<!-- Node2 -->
<g id="Node000002" class="node">
<title>Node2</title>
<g id="a_Node000002"><a xlink:href="class_storm_1_1_operator.html" target="_top" xlink:title="Abstract operator ð’š â† ð“(ð’™). &#45;=&#45;=&#45;=&#45;=&#45;=&#45;=&#45;=&#45;=&#45;=&#45;=&#45;=&#45;=&#45;=&#45;=&#45;=&#45;=&#45;=&#45;=&#45;=&#45;=&#45;=&#45;=&#45;=&#45;=&#45;=&#45;=&#45;=&#45;=&#45;=&#45;=&#45;=&#45;=&#45; ///.">
<polygon fill="white" stroke="#666666" points="139.75,-97 6,-97 6,-66.5 139.75,-66.5 139.75,-97"/>
<text text-anchor="start" x="14" y="-83.5" font-family="Helvetica,sans-Serif" font-size="10.00">Storm::Operator&lt; InVector,</text>
<text text-anchor="middle" x="72.88" y="-72.25" font-family="Helvetica,sans-Serif" font-size="10.00"> OutVector &gt;</text>
</a>
</g>
</g>
<!-- Node2&#45;&gt;Node1 -->
<g id="edge1_Node000001_Node000002" class="edge">
<title>Node2&#45;&gt;Node1</title>
<g id="a_edge1_Node000001_Node000002"><a xlink:title=" ">
<path fill="none" stroke="#63b8ff" d="M72.88,-55.38C72.88,-47.05 72.88,-38.08 72.88,-30.83"/>
<polygon fill="#63b8ff" stroke="#63b8ff" points="69.38,-55.11 72.88,-65.11 76.38,-55.11 69.38,-55.11"/>
</a>
</g>
</g>
<!-- Node3 -->
<g id="Node000003" class="node">
<title>Node3</title>
<g id="a_Node000003"><a xlink:href="class_storm_1_1_object.html" target="_top" xlink:title="A base object.">
<polygon fill="white" stroke="#666666" points="111.25,-152.25 34.5,-152.25 34.5,-133 111.25,-133 111.25,-152.25"/>
<text text-anchor="middle" x="72.88" y="-138.75" font-family="Helvetica,sans-Serif" font-size="10.00">Storm::Object</text>
</a>
</g>
</g>
<!-- Node3&#45;&gt;Node2 -->
<g id="edge2_Node000002_Node000003" class="edge">
<title>Node3&#45;&gt;Node2</title>
<g id="a_edge2_Node000002_Node000003"><a xlink:title=" ">
<path fill="none" stroke="#63b8ff" d="M72.88,-121.7C72.88,-113.7 72.88,-104.65 72.88,-97.28"/>
<polygon fill="#63b8ff" stroke="#63b8ff" points="69.38,-121.68 72.88,-131.68 76.38,-121.68 69.38,-121.68"/>
</a>
</g>
</g>
<!-- Node4 -->
<g id="Node000004" class="node">
<title>Node4</title>
<g id="a_Node000004"><a xlink:href="class_storm_1_1_non_copyable_interface.html" target="_top" xlink:title="Non copyable object interface.">
<polygon fill="white" stroke="#666666" points="145.75,-207.5 0,-207.5 0,-188.25 145.75,-188.25 145.75,-207.5"/>
<text text-anchor="middle" x="72.88" y="-194" font-family="Helvetica,sans-Serif" font-size="10.00">Storm::NonCopyableInterface</text>
</a>
</g>
</g>
<!-- Node4&#45;&gt;Node3 -->
<g id="edge3_Node000003_Node000004" class="edge">
<title>Node4&#45;&gt;Node3</title>
<g id="a_edge3_Node000003_Node000004"><a xlink:title=" ">
<path fill="none" stroke="#63b8ff" d="M72.88,-177.21C72.88,-168.77 72.88,-159.33 72.88,-152.61"/>
<polygon fill="#63b8ff" stroke="#63b8ff" points="69.38,-177.08 72.88,-187.08 76.38,-177.08 69.38,-177.08"/>
</a>
</g>
</g>
</g>
</svg>
