<?xml version="1.0" encoding="UTF-8" standalone="no"?>
<!DOCTYPE svg PUBLIC "-//W3C//DTD SVG 1.1//EN"
 "http://www.w3.org/Graphics/SVG/1.1/DTD/svg11.dtd">
<!-- Generated by graphviz version 7.0.2 (20221119.0110)
 -->
<!-- Title: Storm::Feathers::Field&lt; Mesh, Index, Value, NumVars &gt; Pages: 1 -->
<svg width="149pt" height="170pt"
 viewBox="0.00 0.00 149.00 170.00" xmlns="http://www.w3.org/2000/svg" xmlns:xlink="http://www.w3.org/1999/xlink">
<g id="graph0" class="graph" transform="scale(1 1) rotate(0) translate(4 166)">
<title>Storm::Feathers::Field&lt; Mesh, Index, Value, NumVars &gt;</title>
<!-- Node1 -->
<g id="node1" class="node">
<title>Node1</title>
<g id="a_node1"><a xlink:title="Generic mesh field.">
<polygon fill="#999999" stroke="#666666" points="127.5,-41 13.5,-41 13.5,0 127.5,0 127.5,-41"/>
<text text-anchor="start" x="21.5" y="-29" font-family="Helvetica,sans-Serif" font-size="10.00">Storm::Feathers::Field</text>
<text text-anchor="start" x="21.5" y="-18" font-family="Helvetica,sans-Serif" font-size="10.00">&lt; Mesh, Index, Value,</text>
<text text-anchor="middle" x="70.5" y="-7" font-family="Helvetica,sans-Serif" font-size="10.00"> NumVars &gt;</text>
</a>
</g>
</g>
<!-- Node2 -->
<g id="node2" class="node">
<title>Node2</title>
<g id="a_node2"><a xlink:href="class_storm_1_1_target_matrix_interface.html" target="_top" xlink:title="CRTP interface to a target matrix.">
<polygon fill="white" stroke="#666666" points="141,-107 0,-107 0,-77 141,-77 141,-107"/>
<text text-anchor="start" x="8" y="-95" font-family="Helvetica,sans-Serif" font-size="10.00">Storm::TargetMatrixInterface</text>
<text text-anchor="middle" x="70.5" y="-84" font-family="Helvetica,sans-Serif" font-size="10.00">&lt; TargetMatrix &gt;</text>
</a>
</g>
</g>
<!-- Node2&#45;&gt;Node1 -->
<g id="edge1" class="edge">
<title>Node2&#45;&gt;Node1</title>
<path fill="none" stroke="#63b8ff" d="M70.5,-65.36C70.5,-57.45 70.5,-48.87 70.5,-41.42"/>
<polygon fill="#63b8ff" stroke="#63b8ff" points="67,-65.09 70.5,-75.09 74,-65.09 67,-65.09"/>
</g>
<!-- Node3 -->
<g id="node3" class="node">
<title>Node3</title>
<g id="a_node3"><a xlink:href="class_storm_1_1_non_assignable.html" target="_top" xlink:title="Non assignable object interface.">
<polygon fill="white" stroke="#666666" points="128,-162 13,-162 13,-143 128,-143 128,-162"/>
<text text-anchor="middle" x="70.5" y="-150" font-family="Helvetica,sans-Serif" font-size="10.00">Storm::NonAssignable</text>
</a>
</g>
</g>
<!-- Node3&#45;&gt;Node2 -->
<g id="edge2" class="edge">
<title>Node3&#45;&gt;Node2</title>
<path fill="none" stroke="#63b8ff" d="M70.5,-131.51C70.5,-123.49 70.5,-114.43 70.5,-107.11"/>
<polygon fill="#63b8ff" stroke="#63b8ff" points="67,-131.35 70.5,-141.35 74,-131.35 67,-131.35"/>
</g>
</g>
</svg>
