<?xml version="1.0" encoding="UTF-8" standalone="no"?>
<!DOCTYPE svg PUBLIC "-//W3C//DTD SVG 1.1//EN"
 "http://www.w3.org/Graphics/SVG/1.1/DTD/svg11.dtd">
<!-- Generated by graphviz version 7.0.6 (20230106.0513)
 -->
<!-- Title: Storm::NonCopyable Pages: 1 -->
<svg width="1142pt" height="603pt"
 viewBox="0.00 0.00 1142.00 603.00" xmlns="http://www.w3.org/2000/svg" xmlns:xlink="http://www.w3.org/1999/xlink">
<g id="graph0" class="graph" transform="scale(1 1) rotate(0) translate(4 599)">
<title>Storm::NonCopyable</title>
<!-- Node1 -->
<g id="node1" class="node">
<title>Node1</title>
<g id="a_node1"><a xlink:title="Non copyable object interface.">
<polygon fill="#999999" stroke="#666666" points="108,-372.5 0,-372.5 0,-353.5 108,-353.5 108,-372.5"/>
<text text-anchor="middle" x="54" y="-360.5" font-family="Helvetica,sans-Serif" font-size="10.00">Storm::NonCopyable</text>
</a>
</g>
</g>
<!-- Node2 -->
<g id="node2" class="node">
<title>Node2</title>
<g id="a_node2"><a xlink:href="class_storm_1_1_filtering_streambuf.html" target="_top" xlink:title="Filtering stream buffer.">
<polygon fill="white" stroke="#666666" points="296,-560 144,-560 144,-530 296,-530 296,-560"/>
<text text-anchor="start" x="152" y="-548" font-family="Helvetica,sans-Serif" font-size="10.00">Storm::FilteringStreambuf</text>
<text text-anchor="middle" x="220" y="-537" font-family="Helvetica,sans-Serif" font-size="10.00">&lt; Char, BeginFilter, EndFilter &gt;</text>
</a>
</g>
</g>
<!-- Node1&#45;&gt;Node2 -->
<g id="edge1" class="edge">
<title>Node1&#45;&gt;Node2</title>
<path fill="none" stroke="#63b8ff" d="M61.12,-383.61C72.15,-417.26 98.57,-483.98 144,-521 148.03,-524.28 152.51,-527.12 157.23,-529.57"/>
<polygon fill="#63b8ff" stroke="#63b8ff" points="64.52,-382.76 58.19,-374.26 57.84,-384.85 64.52,-382.76"/>
</g>
<!-- Node3 -->
<g id="node3" class="node">
<title>Node3</title>
<g id="a_node3"><a xlink:href="class_storm_1_1_matrix_owning_view.html" target="_top" xlink:title="Matrix owning view. Matrix should be noexcept&#45;movable.">
<polygon fill="white" stroke="#666666" points="285.5,-512 154.5,-512 154.5,-482 285.5,-482 285.5,-512"/>
<text text-anchor="start" x="162.5" y="-500" font-family="Helvetica,sans-Serif" font-size="10.00">Storm::MatrixOwningView</text>
<text text-anchor="middle" x="220" y="-489" font-family="Helvetica,sans-Serif" font-size="10.00">&lt; Matrix &gt;</text>
</a>
</g>
</g>
<!-- Node1&#45;&gt;Node3 -->
<g id="edge2" class="edge">
<title>Node1&#45;&gt;Node3</title>
<path fill="none" stroke="#63b8ff" d="M66.14,-382.56C80.94,-406.86 109.3,-448.06 144,-472 149.31,-475.66 155.2,-478.82 161.27,-481.54"/>
<polygon fill="#63b8ff" stroke="#63b8ff" points="69.19,-380.83 61.09,-374 63.16,-384.39 69.19,-380.83"/>
</g>
<!-- Node4 -->
<g id="node4" class="node">
<title>Node4</title>
<g id="a_node4"><a xlink:href="class_storm_1_1_object.html" target="_top" xlink:title="A base object.">
<polygon fill="white" stroke="#666666" points="258.5,-463.5 181.5,-463.5 181.5,-444.5 258.5,-444.5 258.5,-463.5"/>
<text text-anchor="middle" x="220" y="-451.5" font-family="Helvetica,sans-Serif" font-size="10.00">Storm::Object</text>
</a>
</g>
</g>
<!-- Node1&#45;&gt;Node4 -->
<g id="edge3" class="edge">
<title>Node1&#45;&gt;Node4</title>
<path fill="none" stroke="#63b8ff" d="M72.22,-380.81C89.05,-397.21 116.15,-421.06 144,-435 155.53,-440.77 168.96,-444.89 181.24,-447.78"/>
<polygon fill="#63b8ff" stroke="#63b8ff" points="75.02,-378.66 65.47,-374.07 70.07,-383.61 75.02,-378.66"/>
</g>
<!-- Node37 -->
<g id="node37" class="node">
<title>Node37</title>
<g id="a_node37"><a xlink:href="class_storm_1_1_vulture_1_1gl_1_1_buffer.html" target="_top" xlink:title="OpenGL buffer.">
<polygon fill="white" stroke="#666666" points="266.5,-426 173.5,-426 173.5,-396 266.5,-396 266.5,-426"/>
<text text-anchor="start" x="181.5" y="-414" font-family="Helvetica,sans-Serif" font-size="10.00">Storm::Vulture::gl</text>
<text text-anchor="middle" x="220" y="-403" font-family="Helvetica,sans-Serif" font-size="10.00">::Buffer&lt; Type &gt;</text>
</a>
</g>
</g>
<!-- Node1&#45;&gt;Node37 -->
<g id="edge36" class="edge">
<title>Node1&#45;&gt;Node37</title>
<path fill="none" stroke="#8b1a1a" d="M99.75,-376.1C122.57,-382.78 150.28,-390.89 173.24,-397.61"/>
<polygon fill="#8b1a1a" stroke="#8b1a1a" points="101.01,-372.82 90.43,-373.37 99.05,-379.54 101.01,-372.82"/>
</g>
<!-- Node38 -->
<g id="node38" class="node">
<title>Node38</title>
<g id="a_node38"><a xlink:href="class_storm_1_1_vulture_1_1gl_1_1_framebuffer.html" target="_top" xlink:title="OpenGL framebuffer.">
<polygon fill="white" stroke="#666666" points="266.5,-378 173.5,-378 173.5,-348 266.5,-348 266.5,-378"/>
<text text-anchor="start" x="181.5" y="-366" font-family="Helvetica,sans-Serif" font-size="10.00">Storm::Vulture::gl</text>
<text text-anchor="middle" x="220" y="-355" font-family="Helvetica,sans-Serif" font-size="10.00">::Framebuffer</text>
</a>
</g>
</g>
<!-- Node1&#45;&gt;Node38 -->
<g id="edge37" class="edge">
<title>Node1&#45;&gt;Node38</title>
<path fill="none" stroke="#8b1a1a" d="M119.52,-363C137.46,-363 156.56,-363 173.18,-363"/>
<polygon fill="#8b1a1a" stroke="#8b1a1a" points="119.76,-359.5 109.76,-363 119.76,-366.5 119.76,-359.5"/>
</g>
<!-- Node39 -->
<g id="node39" class="node">
<title>Node39</title>
<g id="a_node39"><a xlink:href="class_storm_1_1_vulture_1_1gl_1_1_program.html" target="_top" xlink:title="OpenGL shader program.">
<polygon fill="white" stroke="#666666" points="266.5,-330 173.5,-330 173.5,-300 266.5,-300 266.5,-330"/>
<text text-anchor="start" x="181.5" y="-318" font-family="Helvetica,sans-Serif" font-size="10.00">Storm::Vulture::gl</text>
<text text-anchor="middle" x="220" y="-307" font-family="Helvetica,sans-Serif" font-size="10.00">::Program</text>
</a>
</g>
</g>
<!-- Node1&#45;&gt;Node39 -->
<g id="edge38" class="edge">
<title>Node1&#45;&gt;Node39</title>
<path fill="none" stroke="#8b1a1a" d="M99.75,-349.9C122.57,-343.22 150.28,-335.11 173.24,-328.39"/>
<polygon fill="#8b1a1a" stroke="#8b1a1a" points="99.05,-346.46 90.43,-352.63 101.01,-353.18 99.05,-346.46"/>
</g>
<!-- Node40 -->
<g id="node40" class="node">
<title>Node40</title>
<g id="a_node40"><a xlink:href="class_storm_1_1_vulture_1_1gl_1_1_shader.html" target="_top" xlink:title="OpenGL shader.">
<polygon fill="white" stroke="#666666" points="266.5,-282 173.5,-282 173.5,-252 266.5,-252 266.5,-282"/>
<text text-anchor="start" x="181.5" y="-270" font-family="Helvetica,sans-Serif" font-size="10.00">Storm::Vulture::gl</text>
<text text-anchor="middle" x="220" y="-259" font-family="Helvetica,sans-Serif" font-size="10.00">::Shader</text>
</a>
</g>
</g>
<!-- Node1&#45;&gt;Node40 -->
<g id="edge39" class="edge">
<title>Node1&#45;&gt;Node40</title>
<path fill="none" stroke="#8b1a1a" d="M72.42,-345.58C89.4,-329.45 116.6,-305.79 144,-291 153.02,-286.13 163.2,-282.05 173.07,-278.72"/>
<polygon fill="#8b1a1a" stroke="#8b1a1a" points="70.35,-342.71 65.61,-352.19 75.22,-347.73 70.35,-342.71"/>
</g>
<!-- Node41 -->
<g id="node41" class="node">
<title>Node41</title>
<g id="a_node41"><a xlink:href="class_storm_1_1_vulture_1_1gl_1_1_texture.html" target="_top" xlink:title="OpenGL texture.">
<polygon fill="white" stroke="#666666" points="266.5,-234 173.5,-234 173.5,-204 266.5,-204 266.5,-234"/>
<text text-anchor="start" x="181.5" y="-222" font-family="Helvetica,sans-Serif" font-size="10.00">Storm::Vulture::gl</text>
<text text-anchor="middle" x="220" y="-211" font-family="Helvetica,sans-Serif" font-size="10.00">::Texture</text>
</a>
</g>
</g>
<!-- Node1&#45;&gt;Node41 -->
<g id="edge40" class="edge">
<title>Node1&#45;&gt;Node41</title>
<path fill="none" stroke="#8b1a1a" d="M64.59,-343.29C78.49,-316.72 106.72,-269.68 144,-243 152.67,-236.79 163.02,-232.14 173.22,-228.67"/>
<polygon fill="#8b1a1a" stroke="#8b1a1a" points="61.6,-341.45 60.21,-351.95 67.84,-344.61 61.6,-341.45"/>
</g>
<!-- Node45 -->
<g id="node45" class="node">
<title>Node45</title>
<g id="a_node45"><a xlink:href="class_storm_1_1_vulture_1_1gl_1_1_vertex_array.html" target="_top" xlink:title="OpenGL vertex array.">
<polygon fill="white" stroke="#666666" points="266.5,-186 173.5,-186 173.5,-156 266.5,-156 266.5,-186"/>
<text text-anchor="start" x="181.5" y="-174" font-family="Helvetica,sans-Serif" font-size="10.00">Storm::Vulture::gl</text>
<text text-anchor="middle" x="220" y="-163" font-family="Helvetica,sans-Serif" font-size="10.00">::VertexArray</text>
</a>
</g>
</g>
<!-- Node1&#45;&gt;Node45 -->
<g id="edge44" class="edge">
<title>Node1&#45;&gt;Node45</title>
<path fill="none" stroke="#8b1a1a" d="M60.31,-342.58C70.51,-307.33 96.22,-234.97 144,-195 152.39,-187.98 162.86,-183.01 173.29,-179.48"/>
<polygon fill="#8b1a1a" stroke="#8b1a1a" points="57.01,-341.36 57.73,-351.94 63.76,-343.22 57.01,-341.36"/>
</g>
<!-- Node5 -->
<g id="node5" class="node">
<title>Node5</title>
<g id="a_node5"><a xlink:href="class_storm_1_1_operator.html" target="_top" xlink:title=" ">
<polygon fill="white" stroke="#666666" points="466,-595 332,-595 332,-565 466,-565 466,-595"/>
<text text-anchor="start" x="340" y="-583" font-family="Helvetica,sans-Serif" font-size="10.00">Storm::Operator&lt; InVector,</text>
<text text-anchor="middle" x="399" y="-572" font-family="Helvetica,sans-Serif" font-size="10.00"> InVector &gt;</text>
</a>
</g>
</g>
<!-- Node4&#45;&gt;Node5 -->
<g id="edge4" class="edge">
<title>Node4&#45;&gt;Node5</title>
<path fill="none" stroke="#63b8ff" d="M269.89,-459.55C279.33,-462.42 288.57,-466.68 296,-473 326.63,-499.05 302.72,-528.44 332,-556 335.46,-559.26 339.4,-562.08 343.59,-564.53"/>
<polygon fill="#63b8ff" stroke="#63b8ff" points="270.84,-456.19 260.29,-457.16 269.15,-462.98 270.84,-456.19"/>
</g>
<!-- Node6 -->
<g id="node6" class="node">
<title>Node6</title>
<g id="a_node6"><a xlink:href="class_storm_1_1_operator.html" target="_top" xlink:title=" ">
<polygon fill="white" stroke="#666666" points="465.5,-546.5 332.5,-546.5 332.5,-527.5 465.5,-527.5 465.5,-546.5"/>
<text text-anchor="middle" x="399" y="-534.5" font-family="Helvetica,sans-Serif" font-size="10.00">Storm::Operator&lt; Vector &gt;</text>
</a>
</g>
</g>
<!-- Node4&#45;&gt;Node6 -->
<g id="edge5" class="edge">
<title>Node4&#45;&gt;Node6</title>
<path fill="none" stroke="#63b8ff" d="M269.85,-461.49C278.99,-464.22 288.13,-467.93 296,-473 317.53,-486.87 310.69,-503.79 332,-518 337.56,-521.7 343.84,-524.7 350.26,-527.11"/>
<polygon fill="#63b8ff" stroke="#63b8ff" points="270.82,-458.13 260.26,-459.01 269.07,-464.9 270.82,-458.13"/>
</g>
<!-- Node9 -->
<g id="node9" class="node">
<title>Node9</title>
<g id="a_node9"><a xlink:href="class_storm_1_1_solver.html" target="_top" xlink:title=" ">
<polygon fill="white" stroke="#666666" points="461.5,-509 336.5,-509 336.5,-479 461.5,-479 461.5,-509"/>
<text text-anchor="start" x="344.5" y="-497" font-family="Helvetica,sans-Serif" font-size="10.00">Storm::Solver&lt; InVector,</text>
<text text-anchor="middle" x="399" y="-486" font-family="Helvetica,sans-Serif" font-size="10.00"> OutVector &gt;</text>
</a>
</g>
</g>
<!-- Node4&#45;&gt;Node9 -->
<g id="edge8" class="edge">
<title>Node4&#45;&gt;Node9</title>
<path fill="none" stroke="#63b8ff" d="M269.93,-465.06C290.39,-469.68 314.4,-475.11 336.07,-480.01"/>
<polygon fill="#63b8ff" stroke="#63b8ff" points="270.97,-461.71 260.45,-462.91 269.43,-468.53 270.97,-461.71"/>
</g>
<!-- Node11 -->
<g id="node11" class="node">
<title>Node11</title>
<g id="a_node11"><a xlink:href="class_storm_1_1_solver.html" target="_top" xlink:title=" ">
<polygon fill="white" stroke="#666666" points="461.5,-461 336.5,-461 336.5,-431 461.5,-431 461.5,-461"/>
<text text-anchor="start" x="344.5" y="-449" font-family="Helvetica,sans-Serif" font-size="10.00">Storm::Solver&lt; InVector,</text>
<text text-anchor="middle" x="399" y="-438" font-family="Helvetica,sans-Serif" font-size="10.00"> InVector &gt;</text>
</a>
</g>
</g>
<!-- Node4&#45;&gt;Node11 -->
<g id="edge10" class="edge">
<title>Node4&#45;&gt;Node11</title>
<path fill="none" stroke="#63b8ff" d="M270.22,-451.78C290.62,-450.85 314.51,-449.77 336.07,-448.8"/>
<polygon fill="#63b8ff" stroke="#63b8ff" points="270.31,-448.27 260.48,-452.22 270.63,-455.26 270.31,-448.27"/>
</g>
<!-- Node12 -->
<g id="node12" class="node">
<title>Node12</title>
<g id="a_node12"><a xlink:href="class_storm_1_1_operator.html" target="_top" xlink:title="Abstract operator ð’š â† ð“(ð’™). &#45;=&#45;=&#45;=&#45;=&#45;=&#45;=&#45;=&#45;=&#45;=&#45;=&#45;=&#45;=&#45;=&#45;=&#45;=&#45;=&#45;=&#45;=&#45;=&#45;=&#45;=&#45;=&#45;=&#45;=&#45;=&#45;=&#45;=&#45;=&#45;=&#45;=&#45;=&#45;=&#45; ///.">
<polygon fill="white" stroke="#666666" points="466,-413 332,-413 332,-383 466,-383 466,-413"/>
<text text-anchor="start" x="340" y="-401" font-family="Helvetica,sans-Serif" font-size="10.00">Storm::Operator&lt; InVector,</text>
<text text-anchor="middle" x="399" y="-390" font-family="Helvetica,sans-Serif" font-size="10.00"> OutVector &gt;</text>
</a>
</g>
</g>
<!-- Node4&#45;&gt;Node12 -->
<g id="edge11" class="edge">
<title>Node4&#45;&gt;Node12</title>
<path fill="none" stroke="#63b8ff" d="M269.86,-442.38C278.6,-440.08 287.6,-437.58 296,-435 297.59,-434.51 328.37,-423.34 355.7,-413.4"/>
<polygon fill="#63b8ff" stroke="#63b8ff" points="269.26,-438.92 260.44,-444.79 271,-445.7 269.26,-438.92"/>
</g>
<!-- Node14 -->
<g id="node14" class="node">
<title>Node14</title>
<g id="a_node14"><a xlink:href="class_storm_1_1_solver.html" target="_top" xlink:title="Abstract operator equation solver. &#45;=&#45;=&#45;=&#45;=&#45;=&#45;=&#45;=&#45;=&#45;=&#45;=&#45;=&#45;=&#45;=&#45;=&#45;=&#45;=&#45;=&#45;=&#45;=&#45;=&#45;=&#45;=&#45;=&#45;=&#45;=&#45;=&#45;=&#45;=&#45;=&#45;=&#45;=&#45;=&#45; ...">
<polygon fill="white" stroke="#666666" points="461.5,-350 336.5,-350 336.5,-320 461.5,-320 461.5,-350"/>
<text text-anchor="start" x="344.5" y="-338" font-family="Helvetica,sans-Serif" font-size="10.00">Storm::Solver&lt; InVector,</text>
<text text-anchor="middle" x="399" y="-327" font-family="Helvetica,sans-Serif" font-size="10.00"> OutVector &gt;</text>
</a>
</g>
</g>
<!-- Node4&#45;&gt;Node14 -->
<g id="edge13" class="edge">
<title>Node4&#45;&gt;Node14</title>
<path fill="none" stroke="#63b8ff" d="M269.59,-447.63C278.97,-444.82 288.27,-440.79 296,-435 321.2,-416.13 309.75,-396.27 332,-374 341.31,-364.68 353.3,-356.74 364.49,-350.5"/>
<polygon fill="#63b8ff" stroke="#63b8ff" points="268.94,-444.19 260.1,-450.03 270.65,-450.98 268.94,-444.19"/>
</g>
<!-- Node7 -->
<g id="node7" class="node">
<title>Node7</title>
<g id="a_node7"><a xlink:href="class_storm_1_1_preconditioner.html" target="_top" xlink:title="Abstract preconditioner operator. &#45;=&#45;=&#45;=&#45;=&#45;=&#45;=&#45;=&#45;=&#45;=&#45;=&#45;=&#45;=&#45;=&#45;=&#45;=&#45;=&#45;=&#45;=&#45;=&#45;=&#45;=&#45;=&#45;=&#45;=&#45;=&#45;=&#45;=&#45;=&#45;=&#45;=&#45;=&#45;=&#45; /...">
<polygon fill="white" stroke="#666666" points="623,-571 512,-571 512,-541 623,-541 623,-571"/>
<text text-anchor="start" x="520" y="-559" font-family="Helvetica,sans-Serif" font-size="10.00">Storm::Preconditioner</text>
<text text-anchor="middle" x="567.5" y="-548" font-family="Helvetica,sans-Serif" font-size="10.00">&lt; Vector &gt;</text>
</a>
</g>
</g>
<!-- Node6&#45;&gt;Node7 -->
<g id="edge6" class="edge">
<title>Node6&#45;&gt;Node7</title>
<path fill="none" stroke="#63b8ff" d="M476.95,-545.78C488.65,-547.12 500.52,-548.47 511.63,-549.74"/>
<polygon fill="#63b8ff" stroke="#63b8ff" points="477.64,-542.34 467.31,-544.68 476.85,-549.29 477.64,-542.34"/>
</g>
<!-- Node8 -->
<g id="node8" class="node">
<title>Node8</title>
<g id="a_node8"><a xlink:href="class_storm_1_1_identity_preconditioner.html" target="_top" xlink:title="Identity preconditioner, intended to be used for debugging only. &#45;=&#45;=&#45;=&#45;=&#45;=&#45;=&#45;=&#45;=&#45;=&#45;=&#45;=&#45;=&#45;=&#45;=&#45;=&#45;=&#45;=&#45;=...">
<polygon fill="white" stroke="#666666" points="815,-585 672,-585 672,-555 815,-555 815,-585"/>
<text text-anchor="start" x="680" y="-573" font-family="Helvetica,sans-Serif" font-size="10.00">Storm::IdentityPreconditioner</text>
<text text-anchor="middle" x="743.5" y="-562" font-family="Helvetica,sans-Serif" font-size="10.00">&lt; Vector &gt;</text>
</a>
</g>
</g>
<!-- Node7&#45;&gt;Node8 -->
<g id="edge7" class="edge">
<title>Node7&#45;&gt;Node8</title>
<path fill="none" stroke="#63b8ff" d="M634.47,-561.31C646.58,-562.28 659.26,-563.3 671.5,-564.29"/>
<polygon fill="#63b8ff" stroke="#63b8ff" points="634.83,-557.83 624.59,-560.51 634.27,-564.8 634.83,-557.83"/>
</g>
<!-- Node10 -->
<g id="node10" class="node">
<title>Node10</title>
<g id="a_node10"><a xlink:href="class_storm_1_1_iterative_solver.html" target="_top" xlink:title=" ">
<polygon fill="white" stroke="#666666" points="624,-509 511,-509 511,-479 624,-479 624,-509"/>
<text text-anchor="start" x="519" y="-497" font-family="Helvetica,sans-Serif" font-size="10.00">Storm::IterativeSolver</text>
<text text-anchor="middle" x="567.5" y="-486" font-family="Helvetica,sans-Serif" font-size="10.00">&lt; InVector, InVector &gt;</text>
</a>
</g>
</g>
<!-- Node9&#45;&gt;Node10 -->
<g id="edge9" class="edge">
<title>Node9&#45;&gt;Node10</title>
<path fill="none" stroke="#63b8ff" d="M473.4,-494C485.94,-494 498.78,-494 510.76,-494"/>
<polygon fill="#63b8ff" stroke="#63b8ff" points="473.51,-490.5 463.51,-494 473.51,-497.5 473.51,-490.5"/>
</g>
<!-- Node13 -->
<g id="node13" class="node">
<title>Node13</title>
<g id="a_node13"><a xlink:href="class_storm_1_1_functional_operator.html" target="_top" xlink:title="Operator implementation with external function pointers. &#45;=&#45;=&#45;=&#45;=&#45;=&#45;=&#45;=&#45;=&#45;=&#45;=&#45;=&#45;=&#45;=&#45;=&#45;=&#45;=&#45;=&#45;=&#45;=&#45;=&#45;=&#45;=...">
<polygon fill="white" stroke="#666666" points="633,-413 502,-413 502,-383 633,-383 633,-413"/>
<text text-anchor="start" x="510" y="-401" font-family="Helvetica,sans-Serif" font-size="10.00">Storm::FunctionalOperator</text>
<text text-anchor="middle" x="567.5" y="-390" font-family="Helvetica,sans-Serif" font-size="10.00">&lt; InVector, OutVector &gt;</text>
</a>
</g>
</g>
<!-- Node12&#45;&gt;Node13 -->
<g id="edge12" class="edge">
<title>Node12&#45;&gt;Node13</title>
<path fill="none" stroke="#63b8ff" d="M477.55,-398C485.57,-398 493.67,-398 501.53,-398"/>
<polygon fill="#63b8ff" stroke="#63b8ff" points="477.8,-394.5 467.8,-398 477.8,-401.5 477.8,-394.5"/>
</g>
<!-- Node15 -->
<g id="node15" class="node">
<title>Node15</title>
<g id="a_node15"><a xlink:href="class_storm_1_1_iterative_solver.html" target="_top" xlink:title=" ">
<polygon fill="white" stroke="#666666" points="623.5,-350 511.5,-350 511.5,-320 623.5,-320 623.5,-350"/>
<text text-anchor="start" x="519.5" y="-338" font-family="Helvetica,sans-Serif" font-size="10.00">Storm::IterativeSolver</text>
<text text-anchor="middle" x="567.5" y="-327" font-family="Helvetica,sans-Serif" font-size="10.00">&lt; Vector &gt;</text>
</a>
</g>
</g>
<!-- Node14&#45;&gt;Node15 -->
<g id="edge14" class="edge">
<title>Node14&#45;&gt;Node15</title>
<path fill="none" stroke="#63b8ff" d="M473.46,-335C486.08,-335 498.99,-335 511.04,-335"/>
<polygon fill="#63b8ff" stroke="#63b8ff" points="473.51,-331.5 463.51,-335 473.51,-338.5 473.51,-331.5"/>
</g>
<!-- Node27 -->
<g id="node27" class="node">
<title>Node27</title>
<g id="a_node27"><a xlink:href="class_storm_1_1_iterative_solver.html" target="_top" xlink:title="Abstract operator equation iterative solver. &#45;=&#45;=&#45;=&#45;=&#45;=&#45;=&#45;=&#45;=&#45;=&#45;=&#45;=&#45;=&#45;=&#45;=&#45;=&#45;=&#45;=&#45;=&#45;=&#45;=&#45;=&#45;=&#45;=&#45;=&#45;=&#45;=&#45;=&#45;=...">
<polygon fill="white" stroke="#666666" points="628,-126 507,-126 507,-96 628,-96 628,-126"/>
<text text-anchor="start" x="515" y="-114" font-family="Helvetica,sans-Serif" font-size="10.00">Storm::IterativeSolver</text>
<text text-anchor="middle" x="567.5" y="-103" font-family="Helvetica,sans-Serif" font-size="10.00">&lt; InVector, OutVector &gt;</text>
</a>
</g>
</g>
<!-- Node14&#45;&gt;Node27 -->
<g id="edge26" class="edge">
<title>Node14&#45;&gt;Node27</title>
<path fill="none" stroke="#63b8ff" d="M450.34,-314.12C455.99,-310.57 461.37,-306.54 466,-302 519.8,-249.3 551.07,-161.61 562.03,-126.36"/>
<polygon fill="#63b8ff" stroke="#63b8ff" points="448.92,-310.9 441.97,-318.89 452.39,-316.98 448.92,-310.9"/>
</g>
<!-- Node16 -->
<g id="node16" class="node">
<title>Node16</title>
<g id="a_node16"><a xlink:href="class_storm_1_1_base_tfqmr_solver.html" target="_top" xlink:title=" ">
<polygon fill="white" stroke="#666666" points="806,-537 681,-537 681,-507 806,-507 806,-537"/>
<text text-anchor="start" x="689" y="-525" font-family="Helvetica,sans-Serif" font-size="10.00">Storm::BaseTfqmrSolver</text>
<text text-anchor="middle" x="743.5" y="-514" font-family="Helvetica,sans-Serif" font-size="10.00">&lt; Vector, true &gt;</text>
</a>
</g>
</g>
<!-- Node15&#45;&gt;Node16 -->
<g id="edge15" class="edge">
<title>Node15&#45;&gt;Node16</title>
<path fill="none" stroke="#63b8ff" d="M613.63,-356.22C620.89,-361.22 627.73,-367.14 633,-374 667.95,-419.52 629.1,-456.76 669,-498 672.45,-501.57 676.44,-504.61 680.74,-507.2"/>
<polygon fill="#63b8ff" stroke="#63b8ff" points="615.91,-353.52 605.58,-351.17 612.19,-359.45 615.91,-353.52"/>
</g>
<!-- Node18 -->
<g id="node18" class="node">
<title>Node18</title>
<g id="a_node18"><a xlink:href="class_storm_1_1_base_tfqmr_solver.html" target="_top" xlink:title=" ">
<polygon fill="white" stroke="#666666" points="806,-489 681,-489 681,-459 806,-459 806,-489"/>
<text text-anchor="start" x="689" y="-477" font-family="Helvetica,sans-Serif" font-size="10.00">Storm::BaseTfqmrSolver</text>
<text text-anchor="middle" x="743.5" y="-466" font-family="Helvetica,sans-Serif" font-size="10.00">&lt; Vector, false &gt;</text>
</a>
</g>
</g>
<!-- Node15&#45;&gt;Node18 -->
<g id="edge17" class="edge">
<title>Node15&#45;&gt;Node18</title>
<path fill="none" stroke="#63b8ff" d="M611.81,-356.32C619.49,-361.39 626.96,-367.31 633,-374 658.05,-401.73 640.95,-425.3 669,-450 672.73,-453.28 676.91,-456.12 681.35,-458.57"/>
<polygon fill="#63b8ff" stroke="#63b8ff" points="613.7,-353.38 603.35,-351.15 610.05,-359.35 613.7,-353.38"/>
</g>
<!-- Node20 -->
<g id="node20" class="node">
<title>Node20</title>
<g id="a_node20"><a xlink:href="class_storm_1_1_base_tfqmr_solver.html" target="_top" xlink:title="Parametrized TFQMR solver.">
<polygon fill="white" stroke="#666666" points="806,-441 681,-441 681,-411 806,-411 806,-441"/>
<text text-anchor="start" x="689" y="-429" font-family="Helvetica,sans-Serif" font-size="10.00">Storm::BaseTfqmrSolver</text>
<text text-anchor="middle" x="743.5" y="-418" font-family="Helvetica,sans-Serif" font-size="10.00">&lt; Vector, L1 &gt;</text>
</a>
</g>
</g>
<!-- Node15&#45;&gt;Node20 -->
<g id="edge19" class="edge">
<title>Node15&#45;&gt;Node20</title>
<path fill="none" stroke="#63b8ff" d="M605.3,-356.23C614.48,-361.81 624.21,-367.96 633,-374 649.7,-385.49 651.1,-392.49 669,-402 674.93,-405.15 681.34,-407.98 687.83,-410.51"/>
<polygon fill="#63b8ff" stroke="#63b8ff" points="607.3,-353.35 596.92,-351.22 603.7,-359.36 607.3,-353.35"/>
</g>
<!-- Node21 -->
<g id="node21" class="node">
<title>Node21</title>
<g id="a_node21"><a xlink:href="class_storm_1_1_bi_cg_stab_solver.html" target="_top" xlink:title="The BiCGStab (Biconjugate Gradients Stabilized) linear operator equation solver.">
<polygon fill="white" stroke="#666666" points="803,-393 684,-393 684,-363 803,-363 803,-393"/>
<text text-anchor="start" x="692" y="-381" font-family="Helvetica,sans-Serif" font-size="10.00">Storm::BiCgStabSolver</text>
<text text-anchor="middle" x="743.5" y="-370" font-family="Helvetica,sans-Serif" font-size="10.00">&lt; Vector &gt;</text>
</a>
</g>
</g>
<!-- Node15&#45;&gt;Node21 -->
<g id="edge20" class="edge">
<title>Node15&#45;&gt;Node21</title>
<path fill="none" stroke="#63b8ff" d="M634.53,-351.32C650.66,-355.3 667.82,-359.54 683.59,-363.44"/>
<polygon fill="#63b8ff" stroke="#63b8ff" points="635.57,-347.97 625.02,-348.97 633.89,-354.77 635.57,-347.97"/>
</g>
<!-- Node22 -->
<g id="node22" class="node">
<title>Node22</title>
<g id="a_node22"><a xlink:href="class_storm_1_1_cg_solver.html" target="_top" xlink:title="The CG (Conjugate Gradients) linear self&#45;adjoint definite operator equation solver.">
<polygon fill="white" stroke="#666666" points="811.5,-344.5 675.5,-344.5 675.5,-325.5 811.5,-325.5 811.5,-344.5"/>
<text text-anchor="middle" x="743.5" y="-332.5" font-family="Helvetica,sans-Serif" font-size="10.00">Storm::CgSolver&lt; Vector &gt;</text>
</a>
</g>
</g>
<!-- Node15&#45;&gt;Node22 -->
<g id="edge21" class="edge">
<title>Node15&#45;&gt;Node22</title>
<path fill="none" stroke="#63b8ff" d="M634.96,-335C648.17,-335 662.05,-335 675.29,-335"/>
<polygon fill="#63b8ff" stroke="#63b8ff" points="635.07,-331.5 625.07,-335 635.07,-338.5 635.07,-331.5"/>
</g>
<!-- Node23 -->
<g id="node23" class="node">
<title>Node23</title>
<g id="a_node23"><a xlink:href="class_storm_1_1_cgs_solver.html" target="_top" xlink:title="The CGS (Conjugate Gradients Squared) linear operator equation solver.">
<polygon fill="white" stroke="#666666" points="814,-307.5 673,-307.5 673,-288.5 814,-288.5 814,-307.5"/>
<text text-anchor="middle" x="743.5" y="-295.5" font-family="Helvetica,sans-Serif" font-size="10.00">Storm::CgsSolver&lt; Vector &gt;</text>
</a>
</g>
</g>
<!-- Node15&#45;&gt;Node23 -->
<g id="edge22" class="edge">
<title>Node15&#45;&gt;Node23</title>
<path fill="none" stroke="#63b8ff" d="M634.66,-320.93C654.99,-316.61 676.94,-311.94 695.7,-307.95"/>
<polygon fill="#63b8ff" stroke="#63b8ff" points="634.09,-317.47 625.04,-322.98 635.54,-324.32 634.09,-317.47"/>
</g>
<!-- Node24 -->
<g id="node24" class="node">
<title>Node24</title>
<g id="a_node24"><a xlink:href="class_storm_1_1_jfnk_solver.html" target="_top" xlink:title="The first&#45;order JFNK (Jacobian free&#45;Newton&#45;Krylov) nonlinear operator equation solver.">
<polygon fill="white" stroke="#666666" points="794,-270 693,-270 693,-240 794,-240 794,-270"/>
<text text-anchor="start" x="701" y="-258" font-family="Helvetica,sans-Serif" font-size="10.00">Storm::JfnkSolver&lt;</text>
<text text-anchor="middle" x="743.5" y="-247" font-family="Helvetica,sans-Serif" font-size="10.00"> Vector &gt;</text>
</a>
</g>
</g>
<!-- Node15&#45;&gt;Node24 -->
<g id="edge23" class="edge">
<title>Node15&#45;&gt;Node24</title>
<path fill="none" stroke="#63b8ff" d="M602.72,-313.76C621.78,-302.5 646.19,-288.97 669,-279 676.5,-275.72 684.6,-272.64 692.59,-269.85"/>
<polygon fill="#63b8ff" stroke="#63b8ff" points="601.09,-310.66 594.31,-318.81 604.69,-316.67 601.09,-310.66"/>
</g>
<!-- Node25 -->
<g id="node25" class="node">
<title>Node25</title>
<g id="a_node25"><a xlink:href="class_storm_1_1_newton_solver.html" target="_top" xlink:title="The Newton method nonlinear operator equation solver.">
<polygon fill="white" stroke="#666666" points="798.5,-222 688.5,-222 688.5,-192 798.5,-192 798.5,-222"/>
<text text-anchor="start" x="696.5" y="-210" font-family="Helvetica,sans-Serif" font-size="10.00">Storm::NewtonSolver</text>
<text text-anchor="middle" x="743.5" y="-199" font-family="Helvetica,sans-Serif" font-size="10.00">&lt; Vector &gt;</text>
</a>
</g>
</g>
<!-- Node15&#45;&gt;Node25 -->
<g id="edge24" class="edge">
<title>Node15&#45;&gt;Node25</title>
<path fill="none" stroke="#63b8ff" d="M586.25,-310.68C604.55,-287.2 635.14,-252.19 669,-231 674.92,-227.3 681.46,-224.11 688.14,-221.38"/>
<polygon fill="#63b8ff" stroke="#63b8ff" points="583.6,-308.38 580.32,-318.45 589.17,-312.62 583.6,-308.38"/>
</g>
<!-- Node26 -->
<g id="node26" class="node">
<title>Node26</title>
<g id="a_node26"><a xlink:href="class_storm_1_1_richardson_solver.html" target="_top" xlink:title="The Richardson iteration linear operator equation solver.">
<polygon fill="white" stroke="#666666" points="806.5,-174 680.5,-174 680.5,-144 806.5,-144 806.5,-174"/>
<text text-anchor="start" x="688.5" y="-162" font-family="Helvetica,sans-Serif" font-size="10.00">Storm::RichardsonSolver</text>
<text text-anchor="middle" x="743.5" y="-151" font-family="Helvetica,sans-Serif" font-size="10.00">&lt; Vector &gt;</text>
</a>
</g>
</g>
<!-- Node15&#45;&gt;Node26 -->
<g id="edge25" class="edge">
<title>Node15&#45;&gt;Node26</title>
<path fill="none" stroke="#63b8ff" d="M579.04,-309.17C594.1,-275.39 624.92,-216.59 669,-183 673.27,-179.75 678,-176.92 682.94,-174.48"/>
<polygon fill="#63b8ff" stroke="#63b8ff" points="575.89,-307.63 575.14,-318.2 582.32,-310.41 575.89,-307.63"/>
</g>
<!-- Node17 -->
<g id="node17" class="node">
<title>Node17</title>
<g id="a_node17"><a xlink:href="class_storm_1_1_tfqmr1_solver.html" target="_top" xlink:title="The TFQMR1 (Transpose&#45;Free 1&#45;norm Quasi&#45;Minimal Residual) linear operator equation solver.">
<polygon fill="white" stroke="#666666" points="974.5,-537 867.5,-537 867.5,-507 974.5,-507 974.5,-537"/>
<text text-anchor="start" x="875.5" y="-525" font-family="Helvetica,sans-Serif" font-size="10.00">Storm::Tfqmr1Solver</text>
<text text-anchor="middle" x="921" y="-514" font-family="Helvetica,sans-Serif" font-size="10.00">&lt; Vector &gt;</text>
</a>
</g>
</g>
<!-- Node16&#45;&gt;Node17 -->
<g id="edge16" class="edge">
<title>Node16&#45;&gt;Node17</title>
<path fill="none" stroke="#63b8ff" d="M817.71,-522C834.28,-522 851.57,-522 867.12,-522"/>
<polygon fill="#63b8ff" stroke="#63b8ff" points="817.89,-518.5 807.89,-522 817.89,-525.5 817.89,-518.5"/>
</g>
<!-- Node19 -->
<g id="node19" class="node">
<title>Node19</title>
<g id="a_node19"><a xlink:href="class_storm_1_1_tfqmr_solver.html" target="_top" xlink:title="The TFQMR (Transpose&#45;Free Quasi&#45;Minimal Residual) linear operator equation solver.">
<polygon fill="white" stroke="#666666" points="972,-489 870,-489 870,-459 972,-459 972,-489"/>
<text text-anchor="start" x="878" y="-477" font-family="Helvetica,sans-Serif" font-size="10.00">Storm::TfqmrSolver</text>
<text text-anchor="middle" x="921" y="-466" font-family="Helvetica,sans-Serif" font-size="10.00">&lt; Vector &gt;</text>
</a>
</g>
</g>
<!-- Node18&#45;&gt;Node19 -->
<g id="edge18" class="edge">
<title>Node18&#45;&gt;Node19</title>
<path fill="none" stroke="#63b8ff" d="M817.72,-474C835.21,-474 853.48,-474 869.67,-474"/>
<polygon fill="#63b8ff" stroke="#63b8ff" points="817.89,-470.5 807.89,-474 817.89,-477.5 817.89,-470.5"/>
</g>
<!-- Node28 -->
<g id="node28" class="node">
<title>Node28</title>
<g id="a_node28"><a xlink:href="class_storm_1_1_inner_outer_iterative_solver.html" target="_top" xlink:title=" ">
<polygon fill="white" stroke="#666666" points="808.5,-126 678.5,-126 678.5,-96 808.5,-96 808.5,-126"/>
<text text-anchor="start" x="686.5" y="-114" font-family="Helvetica,sans-Serif" font-size="10.00">Storm::InnerOuterIterative</text>
<text text-anchor="middle" x="743.5" y="-103" font-family="Helvetica,sans-Serif" font-size="10.00">Solver&lt; Vector &gt;</text>
</a>
</g>
</g>
<!-- Node27&#45;&gt;Node28 -->
<g id="edge27" class="edge">
<title>Node27&#45;&gt;Node28</title>
<path fill="none" stroke="#63b8ff" d="M639.84,-111C652.49,-111 665.6,-111 678.05,-111"/>
<polygon fill="#63b8ff" stroke="#63b8ff" points="639.89,-107.5 629.89,-111 639.89,-114.5 639.89,-107.5"/>
</g>
<!-- Node36 -->
<g id="node36" class="node">
<title>Node36</title>
<g id="a_node36"><a xlink:href="class_storm_1_1_inner_outer_iterative_solver.html" target="_top" xlink:title="Abstract inner&#45;outer iterative solver. &#45;=&#45;=&#45;=&#45;=&#45;=&#45;=&#45;=&#45;=&#45;=&#45;=&#45;=&#45;=&#45;=&#45;=&#45;=&#45;=&#45;=&#45;=&#45;=&#45;=&#45;=&#45;=&#45;=&#45;=&#45;=&#45;=&#45;=&#45;=&#45;=&#45;=&#45;=...">
<polygon fill="white" stroke="#666666" points="818,-78 669,-78 669,-48 818,-48 818,-78"/>
<text text-anchor="start" x="677" y="-66" font-family="Helvetica,sans-Serif" font-size="10.00">Storm::InnerOuterIterative</text>
<text text-anchor="middle" x="743.5" y="-55" font-family="Helvetica,sans-Serif" font-size="10.00">Solver&lt; InVector, OutVector &gt;</text>
</a>
</g>
</g>
<!-- Node27&#45;&gt;Node36 -->
<g id="edge35" class="edge">
<title>Node27&#45;&gt;Node36</title>
<path fill="none" stroke="#63b8ff" d="M635.43,-92.54C652.33,-87.87 670.3,-82.92 686.59,-78.42"/>
<polygon fill="#63b8ff" stroke="#63b8ff" points="634.68,-89.11 625.97,-95.15 636.54,-95.86 634.68,-89.11"/>
</g>
<!-- Node29 -->
<g id="node29" class="node">
<title>Node29</title>
<g id="a_node29"><a xlink:href="class_storm_1_1_base_gmres_solver.html" target="_top" xlink:title=" ">
<polygon fill="white" stroke="#666666" points="985,-222 857,-222 857,-192 985,-192 985,-222"/>
<text text-anchor="start" x="865" y="-210" font-family="Helvetica,sans-Serif" font-size="10.00">Storm::BaseGmresSolver</text>
<text text-anchor="middle" x="921" y="-199" font-family="Helvetica,sans-Serif" font-size="10.00">&lt; Vector, true &gt;</text>
</a>
</g>
</g>
<!-- Node28&#45;&gt;Node29 -->
<g id="edge28" class="edge">
<title>Node28&#45;&gt;Node29</title>
<path fill="none" stroke="#63b8ff" d="M813.12,-131.77C814.79,-132.79 816.42,-133.87 818,-135 839.68,-150.53 832.58,-167.12 854,-183 858.41,-186.27 863.3,-189.13 868.38,-191.62"/>
<polygon fill="#63b8ff" stroke="#63b8ff" points="814.9,-128.75 804.44,-127.11 811.59,-134.92 814.9,-128.75"/>
</g>
<!-- Node31 -->
<g id="node31" class="node">
<title>Node31</title>
<g id="a_node31"><a xlink:href="class_storm_1_1_base_gmres_solver.html" target="_top" xlink:title=" ">
<polygon fill="white" stroke="#666666" points="985,-174 857,-174 857,-144 985,-144 985,-174"/>
<text text-anchor="start" x="865" y="-162" font-family="Helvetica,sans-Serif" font-size="10.00">Storm::BaseGmresSolver</text>
<text text-anchor="middle" x="921" y="-151" font-family="Helvetica,sans-Serif" font-size="10.00">&lt; Vector, false &gt;</text>
</a>
</g>
</g>
<!-- Node28&#45;&gt;Node31 -->
<g id="edge30" class="edge">
<title>Node28&#45;&gt;Node31</title>
<path fill="none" stroke="#63b8ff" d="M812.01,-129.46C829.06,-134.13 847.18,-139.08 863.61,-143.58"/>
<polygon fill="#63b8ff" stroke="#63b8ff" points="813.02,-126.11 802.46,-126.85 811.18,-132.87 813.02,-126.11"/>
</g>
<!-- Node33 -->
<g id="node33" class="node">
<title>Node33</title>
<g id="a_node33"><a xlink:href="class_storm_1_1_base_gmres_solver.html" target="_top" xlink:title="Parmetrized GMRES solver.">
<polygon fill="white" stroke="#666666" points="988,-126 854,-126 854,-96 988,-96 988,-126"/>
<text text-anchor="start" x="862" y="-114" font-family="Helvetica,sans-Serif" font-size="10.00">Storm::BaseGmresSolver</text>
<text text-anchor="middle" x="921" y="-103" font-family="Helvetica,sans-Serif" font-size="10.00">&lt; Vector, Flexible, Loose &gt;</text>
</a>
</g>
</g>
<!-- Node28&#45;&gt;Node33 -->
<g id="edge32" class="edge">
<title>Node28&#45;&gt;Node33</title>
<path fill="none" stroke="#63b8ff" d="M820.28,-111C831.37,-111 842.71,-111 853.59,-111"/>
<polygon fill="#63b8ff" stroke="#63b8ff" points="820.37,-107.5 810.37,-111 820.37,-114.5 820.37,-107.5"/>
</g>
<!-- Node34 -->
<g id="node34" class="node">
<title>Node34</title>
<g id="a_node34"><a xlink:href="class_storm_1_1_bi_cg_stab_l_solver.html" target="_top" xlink:title="The BiCGStab(l) (Biconjugate Gradients Stabilized) linear operator equation solver.">
<polygon fill="white" stroke="#666666" points="983,-78 859,-78 859,-48 983,-48 983,-78"/>
<text text-anchor="start" x="867" y="-66" font-family="Helvetica,sans-Serif" font-size="10.00">Storm::BiCgStabLSolver</text>
<text text-anchor="middle" x="921" y="-55" font-family="Helvetica,sans-Serif" font-size="10.00">&lt; Vector &gt;</text>
</a>
</g>
</g>
<!-- Node28&#45;&gt;Node34 -->
<g id="edge33" class="edge">
<title>Node28&#45;&gt;Node34</title>
<path fill="none" stroke="#63b8ff" d="M812.01,-92.54C829.06,-87.87 847.18,-82.92 863.61,-78.42"/>
<polygon fill="#63b8ff" stroke="#63b8ff" points="811.18,-89.13 802.46,-95.15 813.02,-95.89 811.18,-89.13"/>
</g>
<!-- Node35 -->
<g id="node35" class="node">
<title>Node35</title>
<g id="a_node35"><a xlink:href="class_storm_1_1_idrs_solver.html" target="_top" xlink:title="The IDR(s) (Induced Dimension Reduction) linear operator equation solver.">
<polygon fill="white" stroke="#666666" points="970.5,-30 871.5,-30 871.5,0 970.5,0 970.5,-30"/>
<text text-anchor="start" x="879.5" y="-18" font-family="Helvetica,sans-Serif" font-size="10.00">Storm::IdrsSolver&lt;</text>
<text text-anchor="middle" x="921" y="-7" font-family="Helvetica,sans-Serif" font-size="10.00"> Vector &gt;</text>
</a>
</g>
</g>
<!-- Node28&#45;&gt;Node35 -->
<g id="edge34" class="edge">
<title>Node28&#45;&gt;Node35</title>
<path fill="none" stroke="#63b8ff" d="M813.12,-90.23C814.79,-89.21 816.42,-88.13 818,-87 839.68,-71.47 832.58,-54.88 854,-39 859.19,-35.15 865.06,-31.87 871.11,-29.08"/>
<polygon fill="#63b8ff" stroke="#63b8ff" points="811.59,-87.08 804.44,-94.89 814.9,-93.25 811.59,-87.08"/>
</g>
<!-- Node30 -->
<g id="node30" class="node">
<title>Node30</title>
<g id="a_node30"><a xlink:href="class_storm_1_1_fgmres_solver.html" target="_top" xlink:title="The FGMRES (Flexible Generalized Minimal Residual) linear operator equation solver.">
<polygon fill="white" stroke="#666666" points="1134,-222 1024,-222 1024,-192 1134,-192 1134,-222"/>
<text text-anchor="start" x="1032" y="-210" font-family="Helvetica,sans-Serif" font-size="10.00">Storm::FgmresSolver</text>
<text text-anchor="middle" x="1079" y="-199" font-family="Helvetica,sans-Serif" font-size="10.00">&lt; Vector &gt;</text>
</a>
</g>
</g>
<!-- Node29&#45;&gt;Node30 -->
<g id="edge29" class="edge">
<title>Node29&#45;&gt;Node30</title>
<path fill="none" stroke="#63b8ff" d="M996.82,-207C1005.86,-207 1014.94,-207 1023.6,-207"/>
<polygon fill="#63b8ff" stroke="#63b8ff" points="996.96,-203.5 986.96,-207 996.96,-210.5 996.96,-203.5"/>
</g>
<!-- Node32 -->
<g id="node32" class="node">
<title>Node32</title>
<g id="a_node32"><a xlink:href="class_storm_1_1_gmres_solver.html" target="_top" xlink:title="The GMRES (Generalized Minimal Residual) linear operator equation solver.">
<polygon fill="white" stroke="#666666" points="1132,-174 1026,-174 1026,-144 1132,-144 1132,-174"/>
<text text-anchor="start" x="1034" y="-162" font-family="Helvetica,sans-Serif" font-size="10.00">Storm::GmresSolver</text>
<text text-anchor="middle" x="1079" y="-151" font-family="Helvetica,sans-Serif" font-size="10.00">&lt; Vector &gt;</text>
</a>
</g>
</g>
<!-- Node31&#45;&gt;Node32 -->
<g id="edge31" class="edge">
<title>Node31&#45;&gt;Node32</title>
<path fill="none" stroke="#63b8ff" d="M996.8,-159C1006.52,-159 1016.31,-159 1025.57,-159"/>
<polygon fill="#63b8ff" stroke="#63b8ff" points="996.96,-155.5 986.96,-159 996.96,-162.5 996.96,-155.5"/>
</g>
<!-- Node42 -->
<g id="node42" class="node">
<title>Node42</title>
<g id="a_node42"><a xlink:href="class_storm_1_1_vulture_1_1gl_1_1_multisampled_texture2_d.html" target="_top" xlink:title="OpenGL multisampled 2D texture.">
<polygon fill="white" stroke="#666666" points="461.5,-293.5 336.5,-293.5 336.5,-252.5 461.5,-252.5 461.5,-293.5"/>
<text text-anchor="start" x="344.5" y="-281.5" font-family="Helvetica,sans-Serif" font-size="10.00">Storm::Vulture::gl</text>
<text text-anchor="start" x="344.5" y="-270.5" font-family="Helvetica,sans-Serif" font-size="10.00">::MultisampledTexture2D</text>
<text text-anchor="middle" x="399" y="-259.5" font-family="Helvetica,sans-Serif" font-size="10.00">&lt; Pixel &gt;</text>
</a>
</g>
</g>
<!-- Node41&#45;&gt;Node42 -->
<g id="edge41" class="edge">
<title>Node41&#45;&gt;Node42</title>
<path fill="none" stroke="#63b8ff" d="M277.34,-236.19C296.09,-241.91 317.08,-248.31 336.23,-254.15"/>
<polygon fill="#63b8ff" stroke="#63b8ff" points="278.62,-232.92 268.03,-233.35 276.57,-239.61 278.62,-232.92"/>
</g>
<!-- Node43 -->
<g id="node43" class="node">
<title>Node43</title>
<g id="a_node43"><a xlink:href="class_storm_1_1_vulture_1_1gl_1_1_texture2_d.html" target="_top" xlink:title="OpenGL 2D texture.">
<polygon fill="white" stroke="#666666" points="452.5,-234 345.5,-234 345.5,-204 452.5,-204 452.5,-234"/>
<text text-anchor="start" x="353.5" y="-222" font-family="Helvetica,sans-Serif" font-size="10.00">Storm::Vulture::gl</text>
<text text-anchor="middle" x="399" y="-211" font-family="Helvetica,sans-Serif" font-size="10.00">::Texture2D&lt; Pixel &gt;</text>
</a>
</g>
</g>
<!-- Node41&#45;&gt;Node43 -->
<g id="edge42" class="edge">
<title>Node41&#45;&gt;Node43</title>
<path fill="none" stroke="#63b8ff" d="M277.89,-219C299.44,-219 323.87,-219 345.04,-219"/>
<polygon fill="#63b8ff" stroke="#63b8ff" points="278.1,-215.5 268.1,-219 278.1,-222.5 278.1,-215.5"/>
</g>
<!-- Node44 -->
<g id="node44" class="node">
<title>Node44</title>
<g id="a_node44"><a xlink:href="class_storm_1_1_vulture_1_1gl_1_1_texture_buffer.html" target="_top" xlink:title="OpenGL texture buffer.">
<polygon fill="white" stroke="#666666" points="445.5,-186 352.5,-186 352.5,-156 445.5,-156 445.5,-186"/>
<text text-anchor="start" x="360.5" y="-174" font-family="Helvetica,sans-Serif" font-size="10.00">Storm::Vulture::gl</text>
<text text-anchor="middle" x="399" y="-163" font-family="Helvetica,sans-Serif" font-size="10.00">::TextureBuffer</text>
</a>
</g>
</g>
<!-- Node41&#45;&gt;Node44 -->
<g id="edge43" class="edge">
<title>Node41&#45;&gt;Node44</title>
<path fill="none" stroke="#63b8ff" d="M277.39,-203.71C301.56,-197.15 329.41,-189.6 352.27,-183.4"/>
<polygon fill="#63b8ff" stroke="#63b8ff" points="276.78,-200.25 268.04,-206.24 278.61,-207 276.78,-200.25"/>
</g>
</g>
</svg>
