<?xml version="1.0" encoding="UTF-8" standalone="no"?>
<!DOCTYPE svg PUBLIC "-//W3C//DTD SVG 1.1//EN"
 "http://www.w3.org/Graphics/SVG/1.1/DTD/svg11.dtd">
<!-- Generated by graphviz version 8.1.0 (20230707.0739)
 -->
<!-- Title: Storm::CgSolver&lt; Vector &gt; Pages: 1 -->
<svg width="143pt" height="271pt"
 viewBox="0.00 0.00 143.25 270.75" xmlns="http://www.w3.org/2000/svg" xmlns:xlink="http://www.w3.org/1999/xlink">
<g id="graph0" class="graph" transform="scale(1 1) rotate(0) translate(4 266.75)">
<title>Storm::CgSolver&lt; Vector &gt;</title>
<!-- Node1 -->
<g id="Node000001" class="node">
<title>Node1</title>
<g id="a_Node000001"><a xlink:title="The CG (Conjugate Gradients) linear self&#45;adjoint definite operator equation solver.">
<polygon fill="#999999" stroke="#666666" points="135.25,-19.25 0,-19.25 0,0 135.25,0 135.25,-19.25"/>
<text text-anchor="middle" x="67.62" y="-5.75" font-family="Helvetica,sans-Serif" font-size="10.00">Storm::CgSolver&lt; Vector &gt;</text>
</a>
</g>
</g>
<!-- Node2 -->
<g id="Node000002" class="node">
<title>Node2</title>
<g id="a_Node000002"><a xlink:href="class_storm_1_1_iterative_solver.html" target="_top" xlink:title=" ">
<polygon fill="white" stroke="#666666" points="123.25,-85.75 12,-85.75 12,-55.25 123.25,-55.25 123.25,-85.75"/>
<text text-anchor="start" x="20" y="-72.25" font-family="Helvetica,sans-Serif" font-size="10.00">Storm::IterativeSolver</text>
<text text-anchor="middle" x="67.62" y="-61" font-family="Helvetica,sans-Serif" font-size="10.00">&lt; Vector &gt;</text>
</a>
</g>
</g>
<!-- Node2&#45;&gt;Node1 -->
<g id="edge1_Node000001_Node000002" class="edge">
<title>Node2&#45;&gt;Node1</title>
<g id="a_edge1_Node000001_Node000002"><a xlink:title=" ">
<path fill="none" stroke="#63b8ff" d="M67.62,-44.07C67.62,-35.39 67.62,-26.23 67.62,-19.7"/>
<polygon fill="#63b8ff" stroke="#63b8ff" points="64.13,-43.95 67.62,-53.95 71.13,-43.95 64.13,-43.95"/>
</a>
</g>
</g>
<!-- Node3 -->
<g id="Node000003" class="node">
<title>Node3</title>
<g id="a_Node000003"><a xlink:href="class_storm_1_1_solver.html" target="_top" xlink:title="Abstract operator equation solver. &#45;=&#45;=&#45;=&#45;=&#45;=&#45;=&#45;=&#45;=&#45;=&#45;=&#45;=&#45;=&#45;=&#45;=&#45;=&#45;=&#45;=&#45;=&#45;=&#45;=&#45;=&#45;=&#45;=&#45;=&#45;=&#45;=&#45;=&#45;=&#45;=&#45;=&#45;=&#45;=&#45; ...">
<polygon fill="white" stroke="#666666" points="129.62,-152.25 5.62,-152.25 5.62,-121.75 129.62,-121.75 129.62,-152.25"/>
<text text-anchor="start" x="13.62" y="-138.75" font-family="Helvetica,sans-Serif" font-size="10.00">Storm::Solver&lt; InVector,</text>
<text text-anchor="middle" x="67.62" y="-127.5" font-family="Helvetica,sans-Serif" font-size="10.00"> OutVector &gt;</text>
</a>
</g>
</g>
<!-- Node3&#45;&gt;Node2 -->
<g id="edge2_Node000002_Node000003" class="edge">
<title>Node3&#45;&gt;Node2</title>
<g id="a_edge2_Node000002_Node000003"><a xlink:title=" ">
<path fill="none" stroke="#63b8ff" d="M67.62,-110.63C67.62,-102.3 67.62,-93.33 67.62,-86.08"/>
<polygon fill="#63b8ff" stroke="#63b8ff" points="64.13,-110.36 67.62,-120.36 71.13,-110.36 64.13,-110.36"/>
</a>
</g>
</g>
<!-- Node4 -->
<g id="Node000004" class="node">
<title>Node4</title>
<g id="a_Node000004"><a xlink:href="class_storm_1_1_object.html" target="_top" xlink:title="A base object.">
<polygon fill="white" stroke="#666666" points="106,-207.5 29.25,-207.5 29.25,-188.25 106,-188.25 106,-207.5"/>
<text text-anchor="middle" x="67.62" y="-194" font-family="Helvetica,sans-Serif" font-size="10.00">Storm::Object</text>
</a>
</g>
</g>
<!-- Node4&#45;&gt;Node3 -->
<g id="edge3_Node000003_Node000004" class="edge">
<title>Node4&#45;&gt;Node3</title>
<g id="a_edge3_Node000003_Node000004"><a xlink:title=" ">
<path fill="none" stroke="#63b8ff" d="M67.62,-176.95C67.62,-168.95 67.62,-159.9 67.62,-152.53"/>
<polygon fill="#63b8ff" stroke="#63b8ff" points="64.13,-176.93 67.62,-186.93 71.13,-176.93 64.13,-176.93"/>
</a>
</g>
</g>
<!-- Node5 -->
<g id="Node000005" class="node">
<title>Node5</title>
<g id="a_Node000005"><a xlink:href="class_storm_1_1_non_copyable.html" target="_top" xlink:title="Non copyable object interface.">
<polygon fill="white" stroke="#666666" points="122.88,-262.75 12.38,-262.75 12.38,-243.5 122.88,-243.5 122.88,-262.75"/>
<text text-anchor="middle" x="67.62" y="-249.25" font-family="Helvetica,sans-Serif" font-size="10.00">detail_::noncopyable_</text>
</a>
</g>
</g>
<!-- Node5&#45;&gt;Node4 -->
<g id="edge4_Node000004_Node000005" class="edge">
<title>Node5&#45;&gt;Node4</title>
<g id="a_edge4_Node000004_Node000005"><a xlink:title=" ">
<path fill="none" stroke="#63b8ff" d="M67.62,-232.46C67.62,-224.02 67.62,-214.58 67.62,-207.86"/>
<polygon fill="#63b8ff" stroke="#63b8ff" points="64.13,-232.33 67.62,-242.33 71.13,-232.33 64.13,-232.33"/>
</a>
</g>
</g>
</g>
</svg>
