<?xml version="1.0" encoding="UTF-8" standalone="no"?>
<!DOCTYPE svg PUBLIC "-//W3C//DTD SVG 1.1//EN"
 "http://www.w3.org/Graphics/SVG/1.1/DTD/svg11.dtd">
<!-- Generated by graphviz version 7.0.2 (20221119.0110)
 -->
<!-- Title: Storm::Feathers::MhdFvBcPT&lt; MhdPhysicsT &gt; Pages: 1 -->
<svg width="477pt" height="134pt"
 viewBox="0.00 0.00 477.00 134.00" xmlns="http://www.w3.org/2000/svg" xmlns:xlink="http://www.w3.org/1999/xlink">
<g id="graph0" class="graph" transform="scale(1 1) rotate(0) translate(4 130)">
<title>Storm::Feathers::MhdFvBcPT&lt; MhdPhysicsT &gt;</title>
<!-- Node1 -->
<g id="node1" class="node">
<title>Node1</title>
<g id="a_node1"><a xlink:title="Abstract boundary condition.">
<polygon fill="#999999" stroke="#666666" points="297,-78 162,-78 162,-48 297,-48 297,-78"/>
<text text-anchor="start" x="170" y="-66" font-family="Helvetica,sans-Serif" font-size="10.00">Storm::Feathers::MhdFvBc</text>
<text text-anchor="middle" x="229.5" y="-55" font-family="Helvetica,sans-Serif" font-size="10.00">PT&lt; MhdPhysicsT &gt;</text>
</a>
</g>
</g>
<!-- Node3 -->
<g id="node3" class="node">
<title>Node3</title>
<g id="a_node3"><a xlink:href="class_storm_1_1_feathers_1_1_mhd_fv_bc_far_field_t.html" target="_top" xlink:title="Far field boundary condition. Sets ghost state values to infinity state.">
<polygon fill="white" stroke="#666666" points="469,-126 333,-126 333,-96 469,-96 469,-126"/>
<text text-anchor="start" x="341" y="-114" font-family="Helvetica,sans-Serif" font-size="10.00">Storm::Feathers::MhdFvBc</text>
<text text-anchor="middle" x="401" y="-103" font-family="Helvetica,sans-Serif" font-size="10.00">FarFieldT&lt; MhdPhysicsT &gt;</text>
</a>
</g>
</g>
<!-- Node1&#45;&gt;Node3 -->
<g id="edge2" class="edge">
<title>Node1&#45;&gt;Node3</title>
<path fill="none" stroke="#63b8ff" d="M295.7,-81.46C312.17,-86.13 329.67,-91.08 345.54,-95.58"/>
<polygon fill="#63b8ff" stroke="#63b8ff" points="297.1,-78.22 286.52,-78.86 295.19,-84.96 297.1,-78.22"/>
</g>
<!-- Node4 -->
<g id="node4" class="node">
<title>Node4</title>
<g id="a_node4"><a xlink:href="class_storm_1_1_feathers_1_1_mhd_fv_bc_no_slip_t.html" target="_top" xlink:title="No&#45;slip wall boundary condition.">
<polygon fill="white" stroke="#666666" points="468.5,-78 333.5,-78 333.5,-48 468.5,-48 468.5,-78"/>
<text text-anchor="start" x="341.5" y="-66" font-family="Helvetica,sans-Serif" font-size="10.00">Storm::Feathers::MhdFvBc</text>
<text text-anchor="middle" x="401" y="-55" font-family="Helvetica,sans-Serif" font-size="10.00">NoSlipT&lt; MhdPhysicsT &gt;</text>
</a>
</g>
</g>
<!-- Node1&#45;&gt;Node4 -->
<g id="edge3" class="edge">
<title>Node1&#45;&gt;Node4</title>
<path fill="none" stroke="#63b8ff" d="M308.9,-63C317.03,-63 325.23,-63 333.22,-63"/>
<polygon fill="#63b8ff" stroke="#63b8ff" points="309,-59.5 299,-63 309,-66.5 309,-59.5"/>
</g>
<!-- Node5 -->
<g id="node5" class="node">
<title>Node5</title>
<g id="a_node5"><a xlink:href="class_storm_1_1_feathers_1_1_mhd_fv_bc_slip_t.html" target="_top" xlink:title="Slip wall boundary condition.">
<polygon fill="white" stroke="#666666" points="468.5,-30 333.5,-30 333.5,0 468.5,0 468.5,-30"/>
<text text-anchor="start" x="341.5" y="-18" font-family="Helvetica,sans-Serif" font-size="10.00">Storm::Feathers::MhdFvBc</text>
<text text-anchor="middle" x="401" y="-7" font-family="Helvetica,sans-Serif" font-size="10.00">SlipT&lt; MhdPhysicsT &gt;</text>
</a>
</g>
</g>
<!-- Node1&#45;&gt;Node5 -->
<g id="edge4" class="edge">
<title>Node1&#45;&gt;Node5</title>
<path fill="none" stroke="#63b8ff" d="M295.7,-44.54C312.17,-39.87 329.67,-34.92 345.54,-30.42"/>
<polygon fill="#63b8ff" stroke="#63b8ff" points="295.19,-41.04 286.52,-47.14 297.1,-47.78 295.19,-41.04"/>
</g>
<!-- Node2 -->
<g id="node2" class="node">
<title>Node2</title>
<g id="a_node2"><a xlink:title=" ">
<polygon fill="white" stroke="#bfbfbf" points="126,-83.5 0,-83.5 0,-42.5 126,-42.5 126,-83.5"/>
<text text-anchor="start" x="8" y="-71.5" font-family="Helvetica,sans-Serif" font-size="10.00">std::enable_shared</text>
<text text-anchor="start" x="8" y="-60.5" font-family="Helvetica,sans-Serif" font-size="10.00">_from_this&lt; MhdFvBcPT</text>
<text text-anchor="middle" x="63" y="-49.5" font-family="Helvetica,sans-Serif" font-size="10.00">&lt; MhdPhysicsT &gt; &gt;</text>
</a>
</g>
</g>
<!-- Node2&#45;&gt;Node1 -->
<g id="edge1" class="edge">
<title>Node2&#45;&gt;Node1</title>
<path fill="none" stroke="#63b8ff" d="M137.43,-63C145.46,-63 153.61,-63 161.55,-63"/>
<polygon fill="#63b8ff" stroke="#63b8ff" points="137.7,-59.5 127.7,-63 137.7,-66.5 137.7,-59.5"/>
</g>
</g>
</svg>
