<?xml version="1.0" encoding="UTF-8" standalone="no"?>
<!DOCTYPE svg PUBLIC "-//W3C//DTD SVG 1.1//EN"
 "http://www.w3.org/Graphics/SVG/1.1/DTD/svg11.dtd">
<!-- Generated by graphviz version 7.0.2 (20221119.0110)
 -->
<!-- Title: Storm::Vulture::gl::Texture Pages: 1 -->
<svg width="409pt" height="146pt"
 viewBox="0.00 0.00 409.00 145.50" xmlns="http://www.w3.org/2000/svg" xmlns:xlink="http://www.w3.org/1999/xlink">
<g id="graph0" class="graph" transform="scale(1 1) rotate(0) translate(4 141.5)">
<title>Storm::Vulture::gl::Texture</title>
<!-- Node1 -->
<g id="node1" class="node">
<title>Node1</title>
<g id="a_node1"><a xlink:title="OpenGL texture.">
<polygon fill="#999999" stroke="#666666" points="240,-78 147,-78 147,-48 240,-48 240,-78"/>
<text text-anchor="start" x="155" y="-66" font-family="Helvetica,sans-Serif" font-size="10.00">Storm::Vulture::gl</text>
<text text-anchor="middle" x="193.5" y="-55" font-family="Helvetica,sans-Serif" font-size="10.00">::Texture</text>
</a>
</g>
</g>
<!-- Node3 -->
<g id="node3" class="node">
<title>Node3</title>
<g id="a_node3"><a xlink:href="class_storm_1_1_vulture_1_1gl_1_1_multisampled_texture2_d.html" target="_top" xlink:title="OpenGL multisampled 2D texture.">
<polygon fill="white" stroke="#666666" points="401,-137.5 276,-137.5 276,-96.5 401,-96.5 401,-137.5"/>
<text text-anchor="start" x="284" y="-125.5" font-family="Helvetica,sans-Serif" font-size="10.00">Storm::Vulture::gl</text>
<text text-anchor="start" x="284" y="-114.5" font-family="Helvetica,sans-Serif" font-size="10.00">::MultisampledTexture2D</text>
<text text-anchor="middle" x="338.5" y="-103.5" font-family="Helvetica,sans-Serif" font-size="10.00">&lt; Pixel &gt;</text>
</a>
</g>
</g>
<!-- Node1&#45;&gt;Node3 -->
<g id="edge2" class="edge">
<title>Node1&#45;&gt;Node3</title>
<path fill="none" stroke="#63b8ff" d="M245.99,-82.44C257.72,-86.87 270.24,-91.6 282.12,-96.09"/>
<polygon fill="#63b8ff" stroke="#63b8ff" points="247.49,-79.27 236.89,-79.01 245.01,-85.82 247.49,-79.27"/>
</g>
<!-- Node4 -->
<g id="node4" class="node">
<title>Node4</title>
<g id="a_node4"><a xlink:href="class_storm_1_1_vulture_1_1gl_1_1_texture2_d.html" target="_top" xlink:title="OpenGL 2D texture.">
<polygon fill="white" stroke="#666666" points="392,-78 285,-78 285,-48 392,-48 392,-78"/>
<text text-anchor="start" x="293" y="-66" font-family="Helvetica,sans-Serif" font-size="10.00">Storm::Vulture::gl</text>
<text text-anchor="middle" x="338.5" y="-55" font-family="Helvetica,sans-Serif" font-size="10.00">::Texture2D&lt; Pixel &gt;</text>
</a>
</g>
</g>
<!-- Node1&#45;&gt;Node4 -->
<g id="edge3" class="edge">
<title>Node1&#45;&gt;Node4</title>
<path fill="none" stroke="#63b8ff" d="M251.34,-63C262.3,-63 273.74,-63 284.57,-63"/>
<polygon fill="#63b8ff" stroke="#63b8ff" points="251.65,-59.5 241.65,-63 251.65,-66.5 251.65,-59.5"/>
</g>
<!-- Node5 -->
<g id="node5" class="node">
<title>Node5</title>
<g id="a_node5"><a xlink:href="class_storm_1_1_vulture_1_1gl_1_1_texture_buffer.html" target="_top" xlink:title="OpenGL texture buffer.">
<polygon fill="white" stroke="#666666" points="385,-30 292,-30 292,0 385,0 385,-30"/>
<text text-anchor="start" x="300" y="-18" font-family="Helvetica,sans-Serif" font-size="10.00">Storm::Vulture::gl</text>
<text text-anchor="middle" x="338.5" y="-7" font-family="Helvetica,sans-Serif" font-size="10.00">::TextureBuffer</text>
</a>
</g>
</g>
<!-- Node1&#45;&gt;Node5 -->
<g id="edge4" class="edge">
<title>Node1&#45;&gt;Node5</title>
<path fill="none" stroke="#63b8ff" d="M250.83,-44.09C264.42,-39.53 278.77,-34.71 291.8,-30.34"/>
<polygon fill="#63b8ff" stroke="#63b8ff" points="249.94,-40.7 241.57,-47.2 252.17,-47.33 249.94,-40.7"/>
</g>
<!-- Node2 -->
<g id="node2" class="node">
<title>Node2</title>
<g id="a_node2"><a xlink:href="class_storm_1_1_non_copyable.html" target="_top" xlink:title="Non copyable object interface.">
<polygon fill="white" stroke="#666666" points="111,-72.5 0,-72.5 0,-53.5 111,-53.5 111,-72.5"/>
<text text-anchor="middle" x="55.5" y="-60.5" font-family="Helvetica,sans-Serif" font-size="10.00">detail_::noncopyable_</text>
</a>
</g>
</g>
<!-- Node2&#45;&gt;Node1 -->
<g id="edge1" class="edge">
<title>Node2&#45;&gt;Node1</title>
<path fill="none" stroke="#8b1a1a" d="M122.73,-63C130.78,-63 138.86,-63 146.53,-63"/>
<polygon fill="#8b1a1a" stroke="#8b1a1a" points="122.94,-59.5 112.94,-63 122.94,-66.5 122.94,-59.5"/>
</g>
</g>
</svg>
