<?xml version="1.0" encoding="UTF-8" standalone="no"?>
<!DOCTYPE svg PUBLIC "-//W3C//DTD SVG 1.1//EN"
 "http://www.w3.org/Graphics/SVG/1.1/DTD/svg11.dtd">
<!-- Generated by graphviz version 8.1.0 (20230707.0739)
 -->
<!-- Title: Storm::Vulture::gl::Texture2D&lt; Pixel &gt; Pages: 1 -->
<svg width="115pt" height="160pt"
 viewBox="0.00 0.00 114.75 160.25" xmlns="http://www.w3.org/2000/svg" xmlns:xlink="http://www.w3.org/1999/xlink">
<g id="graph0" class="graph" transform="scale(1 1) rotate(0) translate(4 156.25)">
<title>Storm::Vulture::gl::Texture2D&lt; Pixel &gt;</title>
<!-- Node1 -->
<g id="Node000001" class="node">
<title>Node1</title>
<g id="a_Node000001"><a xlink:title="OpenGL 2D texture.">
<polygon fill="#999999" stroke="#666666" points="106.75,-30.5 0,-30.5 0,0 106.75,0 106.75,-30.5"/>
<text text-anchor="start" x="8" y="-17" font-family="Helvetica,sans-Serif" font-size="10.00">Storm::Vulture::gl</text>
<text text-anchor="middle" x="53.38" y="-5.75" font-family="Helvetica,sans-Serif" font-size="10.00">::Texture2D&lt; Pixel &gt;</text>
</a>
</g>
</g>
<!-- Node2 -->
<g id="Node000002" class="node">
<title>Node2</title>
<g id="a_Node000002"><a xlink:href="class_storm_1_1_vulture_1_1gl_1_1_texture.html" target="_top" xlink:title="OpenGL texture.">
<polygon fill="white" stroke="#666666" points="99.62,-97 7.12,-97 7.12,-66.5 99.62,-66.5 99.62,-97"/>
<text text-anchor="start" x="15.12" y="-83.5" font-family="Helvetica,sans-Serif" font-size="10.00">Storm::Vulture::gl</text>
<text text-anchor="middle" x="53.38" y="-72.25" font-family="Helvetica,sans-Serif" font-size="10.00">::Texture</text>
</a>
</g>
</g>
<!-- Node2&#45;&gt;Node1 -->
<g id="edge1_Node000001_Node000002" class="edge">
<title>Node2&#45;&gt;Node1</title>
<g id="a_edge1_Node000001_Node000002"><a xlink:title=" ">
<path fill="none" stroke="#63b8ff" d="M53.38,-55.38C53.38,-47.05 53.38,-38.08 53.38,-30.83"/>
<polygon fill="#63b8ff" stroke="#63b8ff" points="49.88,-55.11 53.38,-65.11 56.88,-55.11 49.88,-55.11"/>
</a>
</g>
</g>
<!-- Node3 -->
<g id="Node000003" class="node">
<title>Node3</title>
<g id="a_Node000003"><a xlink:title=" ">
<polygon fill="white" stroke="#bfbfbf" points="91,-152.25 15.75,-152.25 15.75,-133 91,-133 91,-152.25"/>
<text text-anchor="middle" x="53.38" y="-138.75" font-family="Helvetica,sans-Serif" font-size="10.00">NonCopyable</text>
</a>
</g>
</g>
<!-- Node3&#45;&gt;Node2 -->
<g id="edge2_Node000002_Node000003" class="edge">
<title>Node3&#45;&gt;Node2</title>
<g id="a_edge2_Node000002_Node000003"><a xlink:title=" ">
<path fill="none" stroke="#8b1a1a" d="M53.38,-121.7C53.38,-113.7 53.38,-104.65 53.38,-97.28"/>
<polygon fill="#8b1a1a" stroke="#8b1a1a" points="49.88,-121.68 53.38,-131.68 56.88,-121.68 49.88,-121.68"/>
</a>
</g>
</g>
</g>
</svg>
