<?xml version="1.0" encoding="UTF-8" standalone="no"?>
<!DOCTYPE svg PUBLIC "-//W3C//DTD SVG 1.1//EN"
 "http://www.w3.org/Graphics/SVG/1.1/DTD/svg11.dtd">
<!-- Generated by graphviz version 8.1.0 (20230707.0739)
 -->
<!-- Title: Storm::Solver&lt; InVector, OutVector &gt; Pages: 1 -->
<svg width="1082pt" height="554pt"
 viewBox="0.00 0.00 1081.50 553.50" xmlns="http://www.w3.org/2000/svg" xmlns:xlink="http://www.w3.org/1999/xlink">
<g id="graph0" class="graph" transform="scale(1 1) rotate(0) translate(4 549.5)">
<title>Storm::Solver&lt; InVector, OutVector &gt;</title>
<!-- Node1 -->
<g id="Node000001" class="node">
<title>Node1</title>
<g id="a_Node000001"><a xlink:title="Abstract operator equation solver. &#45;=&#45;=&#45;=&#45;=&#45;=&#45;=&#45;=&#45;=&#45;=&#45;=&#45;=&#45;=&#45;=&#45;=&#45;=&#45;=&#45;=&#45;=&#45;=&#45;=&#45;=&#45;=&#45;=&#45;=&#45;=&#45;=&#45;=&#45;=&#45;=&#45;=&#45;=&#45;=&#45; ...">
<polygon fill="#999999" stroke="#666666" points="418.5,-223.5 294.5,-223.5 294.5,-193 418.5,-193 418.5,-223.5"/>
<text text-anchor="start" x="302.5" y="-210" font-family="Helvetica,sans-Serif" font-size="10.00">Storm::Solver&lt; InVector,</text>
<text text-anchor="middle" x="356.5" y="-198.75" font-family="Helvetica,sans-Serif" font-size="10.00"> OutVector &gt;</text>
</a>
</g>
</g>
<!-- Node4 -->
<g id="Node000004" class="node">
<title>Node4</title>
<g id="a_Node000004"><a xlink:href="class_storm_1_1_iterative_solver.html" target="_top" xlink:title=" ">
<polygon fill="white" stroke="#666666" points="570.25,-336.5 459,-336.5 459,-306 570.25,-306 570.25,-336.5"/>
<text text-anchor="start" x="467" y="-323" font-family="Helvetica,sans-Serif" font-size="10.00">Storm::IterativeSolver</text>
<text text-anchor="middle" x="514.62" y="-311.75" font-family="Helvetica,sans-Serif" font-size="10.00">&lt; Vector &gt;</text>
</a>
</g>
</g>
<!-- Node1&#45;&gt;Node4 -->
<g id="edge3_Node000001_Node000004" class="edge">
<title>Node1&#45;&gt;Node4</title>
<g id="a_edge3_Node000001_Node000004"><a xlink:title=" ">
<path fill="none" stroke="#63b8ff" d="M387.78,-230.17C418.43,-252.35 465.04,-286.09 492.1,-305.67"/>
<polygon fill="#63b8ff" stroke="#63b8ff" points="390.36,-226.99 380.21,-223.96 386.26,-232.66 390.36,-226.99"/>
</a>
</g>
</g>
<!-- Node16 -->
<g id="Node000016" class="node">
<title>Node16</title>
<g id="a_Node000016"><a xlink:href="class_storm_1_1_iterative_solver.html" target="_top" xlink:title="Abstract operator equation iterative solver. &#45;=&#45;=&#45;=&#45;=&#45;=&#45;=&#45;=&#45;=&#45;=&#45;=&#45;=&#45;=&#45;=&#45;=&#45;=&#45;=&#45;=&#45;=&#45;=&#45;=&#45;=&#45;=&#45;=&#45;=&#45;=&#45;=&#45;=&#45;=...">
<polygon fill="white" stroke="#666666" points="574.75,-128.5 454.5,-128.5 454.5,-98 574.75,-98 574.75,-128.5"/>
<text text-anchor="start" x="462.5" y="-115" font-family="Helvetica,sans-Serif" font-size="10.00">Storm::IterativeSolver</text>
<text text-anchor="middle" x="514.62" y="-103.75" font-family="Helvetica,sans-Serif" font-size="10.00">&lt; InVector, OutVector &gt;</text>
</a>
</g>
</g>
<!-- Node1&#45;&gt;Node16 -->
<g id="edge15_Node000001_Node000016" class="edge">
<title>Node1&#45;&gt;Node16</title>
<g id="a_edge15_Node000001_Node000016"><a xlink:title=" ">
<path fill="none" stroke="#63b8ff" d="M392.61,-186.89C421.5,-169.31 461.8,-144.78 487.81,-128.96"/>
<polygon fill="#63b8ff" stroke="#63b8ff" points="391,-184.37 384.28,-192.56 394.64,-190.35 391,-184.37"/>
</a>
</g>
</g>
<!-- Node2 -->
<g id="Node000002" class="node">
<title>Node2</title>
<g id="a_Node000002"><a xlink:href="class_storm_1_1_object.html" target="_top" xlink:title="A base object.">
<polygon fill="white" stroke="#666666" points="258.5,-217.88 181.75,-217.88 181.75,-198.62 258.5,-198.62 258.5,-217.88"/>
<text text-anchor="middle" x="220.12" y="-204.38" font-family="Helvetica,sans-Serif" font-size="10.00">Storm::Object</text>
</a>
</g>
</g>
<!-- Node2&#45;&gt;Node1 -->
<g id="edge1_Node000001_Node000002" class="edge">
<title>Node2&#45;&gt;Node1</title>
<g id="a_edge1_Node000001_Node000002"><a xlink:title=" ">
<path fill="none" stroke="#63b8ff" d="M269.78,-208.25C277.68,-208.25 285.94,-208.25 294.1,-208.25"/>
<polygon fill="#63b8ff" stroke="#63b8ff" points="269.91,-204.75 259.91,-208.25 269.91,-211.75 269.91,-204.75"/>
</a>
</g>
</g>
<!-- Node3 -->
<g id="Node000003" class="node">
<title>Node3</title>
<g id="a_Node000003"><a xlink:href="class_storm_1_1_non_copyable_interface.html" target="_top" xlink:title="Non copyable object interface.">
<polygon fill="white" stroke="#666666" points="145.75,-217.88 0,-217.88 0,-198.62 145.75,-198.62 145.75,-217.88"/>
<text text-anchor="middle" x="72.88" y="-204.38" font-family="Helvetica,sans-Serif" font-size="10.00">Storm::NonCopyableInterface</text>
</a>
</g>
</g>
<!-- Node3&#45;&gt;Node2 -->
<g id="edge2_Node000002_Node000003" class="edge">
<title>Node3&#45;&gt;Node2</title>
<g id="a_edge2_Node000002_Node000003"><a xlink:title=" ">
<path fill="none" stroke="#63b8ff" d="M156.95,-208.25C165.48,-208.25 173.81,-208.25 181.47,-208.25"/>
<polygon fill="#63b8ff" stroke="#63b8ff" points="157.07,-204.75 147.07,-208.25 157.07,-211.75 157.07,-204.75"/>
</a>
</g>
</g>
<!-- Node5 -->
<g id="Node000005" class="node">
<title>Node5</title>
<g id="a_Node000005"><a xlink:href="class_storm_1_1_base_tfqmr_solver.html" target="_top" xlink:title=" ">
<polygon fill="white" stroke="#666666" points="746.75,-545.5 622.75,-545.5 622.75,-515 746.75,-515 746.75,-545.5"/>
<text text-anchor="start" x="630.75" y="-532" font-family="Helvetica,sans-Serif" font-size="10.00">Storm::BaseTfqmrSolver</text>
<text text-anchor="middle" x="684.75" y="-520.75" font-family="Helvetica,sans-Serif" font-size="10.00">&lt; Vector, true &gt;</text>
</a>
</g>
</g>
<!-- Node4&#45;&gt;Node5 -->
<g id="edge4_Node000004_Node000005" class="edge">
<title>Node4&#45;&gt;Node5</title>
<g id="a_edge4_Node000004_Node000005"><a xlink:title=" ">
<path fill="none" stroke="#63b8ff" d="M522.29,-347.2C533.76,-386.81 560.95,-462.29 610.75,-505.25 614.91,-508.84 619.61,-511.92 624.57,-514.56"/>
<polygon fill="#63b8ff" stroke="#63b8ff" points="525.45,-346.5 519.4,-337.8 518.7,-348.38 525.45,-346.5"/>
</a>
</g>
</g>
<!-- Node7 -->
<g id="Node000007" class="node">
<title>Node7</title>
<g id="a_Node000007"><a xlink:href="class_storm_1_1_base_tfqmr_solver.html" target="_top" xlink:title=" ">
<polygon fill="white" stroke="#666666" points="746.75,-496.5 622.75,-496.5 622.75,-466 746.75,-466 746.75,-496.5"/>
<text text-anchor="start" x="630.75" y="-483" font-family="Helvetica,sans-Serif" font-size="10.00">Storm::BaseTfqmrSolver</text>
<text text-anchor="middle" x="684.75" y="-471.75" font-family="Helvetica,sans-Serif" font-size="10.00">&lt; Vector, false &gt;</text>
</a>
</g>
</g>
<!-- Node4&#45;&gt;Node7 -->
<g id="edge6_Node000004_Node000007" class="edge">
<title>Node4&#45;&gt;Node7</title>
<g id="a_edge6_Node000004_Node000007"><a xlink:title=" ">
<path fill="none" stroke="#63b8ff" d="M527.19,-346.36C542.31,-376.57 571.56,-426.86 610.75,-456.25 615.57,-459.87 620.96,-462.98 626.55,-465.67"/>
<polygon fill="#63b8ff" stroke="#63b8ff" points="529.95,-345.05 522.44,-337.59 523.66,-348.11 529.95,-345.05"/>
</a>
</g>
</g>
<!-- Node9 -->
<g id="Node000009" class="node">
<title>Node9</title>
<g id="a_Node000009"><a xlink:href="class_storm_1_1_base_tfqmr_solver.html" target="_top" xlink:title="Parametrized TFQMR solver.">
<polygon fill="white" stroke="#666666" points="746.75,-447.5 622.75,-447.5 622.75,-417 746.75,-417 746.75,-447.5"/>
<text text-anchor="start" x="630.75" y="-434" font-family="Helvetica,sans-Serif" font-size="10.00">Storm::BaseTfqmrSolver</text>
<text text-anchor="middle" x="684.75" y="-422.75" font-family="Helvetica,sans-Serif" font-size="10.00">&lt; Vector, L1 &gt;</text>
</a>
</g>
</g>
<!-- Node4&#45;&gt;Node9 -->
<g id="edge8_Node000004_Node000009" class="edge">
<title>Node4&#45;&gt;Node9</title>
<g id="a_edge8_Node000004_Node000009"><a xlink:title=" ">
<path fill="none" stroke="#63b8ff" d="M536.31,-344.62C554.33,-363.74 582.01,-390.31 610.75,-407.25 616.64,-410.72 623.07,-413.8 629.61,-416.5"/>
<polygon fill="#63b8ff" stroke="#63b8ff" points="539.33,-342.65 529.97,-337.67 534.18,-347.39 539.33,-342.65"/>
</a>
</g>
</g>
<!-- Node10 -->
<g id="Node000010" class="node">
<title>Node10</title>
<g id="a_Node000010"><a xlink:href="class_storm_1_1_bi_cg_stab_solver.html" target="_top" xlink:title="The BiCGStab (Biconjugate Gradients Stabilized) linear operator equation solver.">
<polygon fill="white" stroke="#666666" points="743.75,-398.5 625.75,-398.5 625.75,-368 743.75,-368 743.75,-398.5"/>
<text text-anchor="start" x="633.75" y="-385" font-family="Helvetica,sans-Serif" font-size="10.00">Storm::BiCgStabSolver</text>
<text text-anchor="middle" x="684.75" y="-373.75" font-family="Helvetica,sans-Serif" font-size="10.00">&lt; Vector &gt;</text>
</a>
</g>
</g>
<!-- Node4&#45;&gt;Node10 -->
<g id="edge9_Node000004_Node000010" class="edge">
<title>Node4&#45;&gt;Node10</title>
<g id="a_edge9_Node000004_Node000010"><a xlink:title=" ">
<path fill="none" stroke="#63b8ff" d="M563.49,-341.05C578.54,-347.09 595.27,-353.62 610.75,-359.25 618.4,-362.03 626.55,-364.85 634.52,-367.53"/>
<polygon fill="#63b8ff" stroke="#63b8ff" points="564.96,-337.46 554.37,-336.96 562.33,-343.95 564.96,-337.46"/>
</a>
</g>
</g>
<!-- Node11 -->
<g id="Node000011" class="node">
<title>Node11</title>
<g id="a_Node000011"><a xlink:href="class_storm_1_1_cg_solver.html" target="_top" xlink:title="The CG (Conjugate Gradients) linear self&#45;adjoint definite operator equation solver.">
<polygon fill="white" stroke="#666666" points="752.38,-349.88 617.12,-349.88 617.12,-330.62 752.38,-330.62 752.38,-349.88"/>
<text text-anchor="middle" x="684.75" y="-336.38" font-family="Helvetica,sans-Serif" font-size="10.00">Storm::CgSolver&lt; Vector &gt;</text>
</a>
</g>
</g>
<!-- Node4&#45;&gt;Node11 -->
<g id="edge10_Node000004_Node000011" class="edge">
<title>Node4&#45;&gt;Node11</title>
<g id="a_edge10_Node000004_Node000011"><a xlink:title=" ">
<path fill="none" stroke="#63b8ff" d="M581.6,-328.71C593.18,-330.01 605.24,-331.38 616.84,-332.69"/>
<polygon fill="#63b8ff" stroke="#63b8ff" points="582.01,-325.12 571.68,-327.47 581.22,-332.07 582.01,-325.12"/>
</a>
</g>
</g>
<!-- Node12 -->
<g id="Node000012" class="node">
<title>Node12</title>
<g id="a_Node000012"><a xlink:href="class_storm_1_1_cgs_solver.html" target="_top" xlink:title="The CGS (Conjugate Gradients Squared) linear operator equation solver.">
<polygon fill="white" stroke="#666666" points="755,-312.88 614.5,-312.88 614.5,-293.62 755,-293.62 755,-312.88"/>
<text text-anchor="middle" x="684.75" y="-299.38" font-family="Helvetica,sans-Serif" font-size="10.00">Storm::CgsSolver&lt; Vector &gt;</text>
</a>
</g>
</g>
<!-- Node4&#45;&gt;Node12 -->
<g id="edge11_Node000004_Node000012" class="edge">
<title>Node4&#45;&gt;Node12</title>
<g id="a_edge11_Node000004_Node000012"><a xlink:title=" ">
<path fill="none" stroke="#63b8ff" d="M581.29,-314.22C592.07,-313.07 603.28,-311.87 614.15,-310.7"/>
<polygon fill="#63b8ff" stroke="#63b8ff" points="581.25,-310.81 571.68,-315.36 581.99,-317.77 581.25,-310.81"/>
</a>
</g>
</g>
<!-- Node13 -->
<g id="Node000013" class="node">
<title>Node13</title>
<g id="a_Node000013"><a xlink:href="class_storm_1_1_jfnk_solver.html" target="_top" xlink:title="The first&#45;order JFNK (Jacobian free&#45;Newton&#45;Krylov) nonlinear operator equation solver.">
<polygon fill="white" stroke="#666666" points="735.12,-275.5 634.38,-275.5 634.38,-245 735.12,-245 735.12,-275.5"/>
<text text-anchor="start" x="642.38" y="-262" font-family="Helvetica,sans-Serif" font-size="10.00">Storm::JfnkSolver&lt;</text>
<text text-anchor="middle" x="684.75" y="-250.75" font-family="Helvetica,sans-Serif" font-size="10.00"> Vector &gt;</text>
</a>
</g>
</g>
<!-- Node4&#45;&gt;Node13 -->
<g id="edge12_Node000004_Node000013" class="edge">
<title>Node4&#45;&gt;Node13</title>
<g id="a_edge12_Node000004_Node000013"><a xlink:title=" ">
<path fill="none" stroke="#63b8ff" d="M564.32,-301.74C579.16,-295.94 595.57,-289.69 610.75,-284.25 618.54,-281.46 626.83,-278.61 634.94,-275.9"/>
<polygon fill="#63b8ff" stroke="#63b8ff" points="563.36,-298.75 555.33,-305.66 565.91,-305.26 563.36,-298.75"/>
</a>
</g>
</g>
<!-- Node14 -->
<g id="Node000014" class="node">
<title>Node14</title>
<g id="a_Node000014"><a xlink:href="class_storm_1_1_newton_solver.html" target="_top" xlink:title="The Newton method nonlinear operator equation solver.">
<polygon fill="white" stroke="#666666" points="739.62,-226.5 629.88,-226.5 629.88,-196 739.62,-196 739.62,-226.5"/>
<text text-anchor="start" x="637.88" y="-213" font-family="Helvetica,sans-Serif" font-size="10.00">Storm::NewtonSolver</text>
<text text-anchor="middle" x="684.75" y="-201.75" font-family="Helvetica,sans-Serif" font-size="10.00">&lt; Vector &gt;</text>
</a>
</g>
</g>
<!-- Node4&#45;&gt;Node14 -->
<g id="edge13_Node000004_Node000014" class="edge">
<title>Node4&#45;&gt;Node14</title>
<g id="a_edge13_Node000004_Node000014"><a xlink:title=" ">
<path fill="none" stroke="#63b8ff" d="M536.68,-297.84C554.73,-278.97 582.28,-252.92 610.75,-236.25 616.76,-232.73 623.34,-229.61 630.01,-226.87"/>
<polygon fill="#63b8ff" stroke="#63b8ff" points="534.6,-295 530.31,-304.69 539.71,-299.79 534.6,-295"/>
</a>
</g>
</g>
<!-- Node15 -->
<g id="Node000015" class="node">
<title>Node15</title>
<g id="a_Node000015"><a xlink:href="class_storm_1_1_richardson_solver.html" target="_top" xlink:title="The Richardson iteration linear operator equation solver.">
<polygon fill="white" stroke="#666666" points="747.5,-177.5 622,-177.5 622,-147 747.5,-147 747.5,-177.5"/>
<text text-anchor="start" x="630" y="-164" font-family="Helvetica,sans-Serif" font-size="10.00">Storm::RichardsonSolver</text>
<text text-anchor="middle" x="684.75" y="-152.75" font-family="Helvetica,sans-Serif" font-size="10.00">&lt; Vector &gt;</text>
</a>
</g>
</g>
<!-- Node4&#45;&gt;Node15 -->
<g id="edge14_Node000004_Node000015" class="edge">
<title>Node4&#45;&gt;Node15</title>
<g id="a_edge14_Node000004_Node000015"><a xlink:title=" ">
<path fill="none" stroke="#63b8ff" d="M527.47,-295.85C542.71,-265.82 571.91,-216.27 610.75,-187.25 615.58,-183.64 620.97,-180.53 626.57,-177.85"/>
<polygon fill="#63b8ff" stroke="#63b8ff" points="523.95,-294.08 522.67,-304.59 530.23,-297.17 523.95,-294.08"/>
</a>
</g>
</g>
<!-- Node6 -->
<g id="Node000006" class="node">
<title>Node6</title>
<g id="a_Node000006"><a xlink:href="class_storm_1_1_tfqmr1_solver.html" target="_top" xlink:title="The TFQMR1 (Transpose&#45;Free 1&#45;norm Quasi&#45;Minimal Residual) linear operator equation solver.">
<polygon fill="white" stroke="#666666" points="915,-545.5 808.25,-545.5 808.25,-515 915,-515 915,-545.5"/>
<text text-anchor="start" x="816.25" y="-532" font-family="Helvetica,sans-Serif" font-size="10.00">Storm::Tfqmr1Solver</text>
<text text-anchor="middle" x="861.62" y="-520.75" font-family="Helvetica,sans-Serif" font-size="10.00">&lt; Vector &gt;</text>
</a>
</g>
</g>
<!-- Node5&#45;&gt;Node6 -->
<g id="edge5_Node000005_Node000006" class="edge">
<title>Node5&#45;&gt;Node6</title>
<g id="a_edge5_Node000005_Node000006"><a xlink:title=" ">
<path fill="none" stroke="#63b8ff" d="M757.8,-530.25C774.59,-530.25 792.16,-530.25 807.93,-530.25"/>
<polygon fill="#63b8ff" stroke="#63b8ff" points="757.91,-526.75 747.91,-530.25 757.91,-533.75 757.91,-526.75"/>
</a>
</g>
</g>
<!-- Node8 -->
<g id="Node000008" class="node">
<title>Node8</title>
<g id="a_Node000008"><a xlink:href="class_storm_1_1_tfqmr_solver.html" target="_top" xlink:title="The TFQMR (Transpose&#45;Free Quasi&#45;Minimal Residual) linear operator equation solver.">
<polygon fill="white" stroke="#666666" points="912.38,-496.5 810.88,-496.5 810.88,-466 912.38,-466 912.38,-496.5"/>
<text text-anchor="start" x="818.88" y="-483" font-family="Helvetica,sans-Serif" font-size="10.00">Storm::TfqmrSolver</text>
<text text-anchor="middle" x="861.62" y="-471.75" font-family="Helvetica,sans-Serif" font-size="10.00">&lt; Vector &gt;</text>
</a>
</g>
</g>
<!-- Node7&#45;&gt;Node8 -->
<g id="edge7_Node000007_Node000008" class="edge">
<title>Node7&#45;&gt;Node8</title>
<g id="a_edge7_Node000007_Node000008"><a xlink:title=" ">
<path fill="none" stroke="#63b8ff" d="M757.8,-481.25C775.5,-481.25 794.07,-481.25 810.48,-481.25"/>
<polygon fill="#63b8ff" stroke="#63b8ff" points="757.91,-477.75 747.91,-481.25 757.91,-484.75 757.91,-477.75"/>
</a>
</g>
</g>
<!-- Node17 -->
<g id="Node000017" class="node">
<title>Node17</title>
<g id="a_Node000017"><a xlink:href="class_storm_1_1_inner_outer_iterative_solver.html" target="_top" xlink:title=" ">
<polygon fill="white" stroke="#666666" points="749.38,-128.5 620.12,-128.5 620.12,-98 749.38,-98 749.38,-128.5"/>
<text text-anchor="start" x="628.12" y="-115" font-family="Helvetica,sans-Serif" font-size="10.00">Storm::InnerOuterIterative</text>
<text text-anchor="middle" x="684.75" y="-103.75" font-family="Helvetica,sans-Serif" font-size="10.00">Solver&lt; Vector &gt;</text>
</a>
</g>
</g>
<!-- Node16&#45;&gt;Node17 -->
<g id="edge16_Node000016_Node000017" class="edge">
<title>Node16&#45;&gt;Node17</title>
<g id="a_edge16_Node000016_Node000017"><a xlink:title=" ">
<path fill="none" stroke="#63b8ff" d="M585.64,-113.25C596.99,-113.25 608.68,-113.25 619.87,-113.25"/>
<polygon fill="#63b8ff" stroke="#63b8ff" points="585.9,-109.75 575.9,-113.25 585.9,-116.75 585.9,-109.75"/>
</a>
</g>
</g>
<!-- Node25 -->
<g id="Node000025" class="node">
<title>Node25</title>
<g id="a_Node000025"><a xlink:href="class_storm_1_1_inner_outer_iterative_solver.html" target="_top" xlink:title="Abstract inner&#45;outer iterative solver. &#45;=&#45;=&#45;=&#45;=&#45;=&#45;=&#45;=&#45;=&#45;=&#45;=&#45;=&#45;=&#45;=&#45;=&#45;=&#45;=&#45;=&#45;=&#45;=&#45;=&#45;=&#45;=&#45;=&#45;=&#45;=&#45;=&#45;=&#45;=&#45;=&#45;=&#45;=...">
<polygon fill="white" stroke="#666666" points="758.75,-79.5 610.75,-79.5 610.75,-49 758.75,-49 758.75,-79.5"/>
<text text-anchor="start" x="618.75" y="-66" font-family="Helvetica,sans-Serif" font-size="10.00">Storm::InnerOuterIterative</text>
<text text-anchor="middle" x="684.75" y="-54.75" font-family="Helvetica,sans-Serif" font-size="10.00">Solver&lt; InVector, OutVector &gt;</text>
</a>
</g>
</g>
<!-- Node16&#45;&gt;Node25 -->
<g id="edge24_Node000016_Node000025" class="edge">
<title>Node16&#45;&gt;Node25</title>
<g id="a_edge24_Node000016_Node000025"><a xlink:title=" ">
<path fill="none" stroke="#63b8ff" d="M579.44,-94.65C596.02,-89.82 613.72,-84.66 629.74,-79.99"/>
<polygon fill="#63b8ff" stroke="#63b8ff" points="578.9,-91.45 570.28,-97.61 580.86,-98.17 578.9,-91.45"/>
</a>
</g>
</g>
<!-- Node18 -->
<g id="Node000018" class="node">
<title>Node18</title>
<g id="a_Node000018"><a xlink:href="class_storm_1_1_base_gmres_solver.html" target="_top" xlink:title=" ">
<polygon fill="white" stroke="#666666" points="925.5,-226.5 797.75,-226.5 797.75,-196 925.5,-196 925.5,-226.5"/>
<text text-anchor="start" x="805.75" y="-213" font-family="Helvetica,sans-Serif" font-size="10.00">Storm::BaseGmresSolver</text>
<text text-anchor="middle" x="861.62" y="-201.75" font-family="Helvetica,sans-Serif" font-size="10.00">&lt; Vector, true &gt;</text>
</a>
</g>
</g>
<!-- Node17&#45;&gt;Node18 -->
<g id="edge17_Node000017_Node000018" class="edge">
<title>Node17&#45;&gt;Node18</title>
<g id="a_edge17_Node000017_Node000018"><a xlink:title=" ">
<path fill="none" stroke="#63b8ff" d="M752.07,-133.86C754.38,-135.24 756.62,-136.7 758.75,-138.25 780.32,-153.93 773.44,-170.22 794.75,-186.25 799.44,-189.78 804.69,-192.87 810.12,-195.55"/>
<polygon fill="#63b8ff" stroke="#63b8ff" points="754.31,-130.56 743.84,-128.98 751.04,-136.75 754.31,-130.56"/>
</a>
</g>
</g>
<!-- Node20 -->
<g id="Node000020" class="node">
<title>Node20</title>
<g id="a_Node000020"><a xlink:href="class_storm_1_1_base_gmres_solver.html" target="_top" xlink:title=" ">
<polygon fill="white" stroke="#666666" points="925.5,-177.5 797.75,-177.5 797.75,-147 925.5,-147 925.5,-177.5"/>
<text text-anchor="start" x="805.75" y="-164" font-family="Helvetica,sans-Serif" font-size="10.00">Storm::BaseGmresSolver</text>
<text text-anchor="middle" x="861.62" y="-152.75" font-family="Helvetica,sans-Serif" font-size="10.00">&lt; Vector, false &gt;</text>
</a>
</g>
</g>
<!-- Node17&#45;&gt;Node20 -->
<g id="edge19_Node000017_Node000020" class="edge">
<title>Node17&#45;&gt;Node20</title>
<g id="a_edge19_Node000017_Node000020"><a xlink:title=" ">
<path fill="none" stroke="#63b8ff" d="M752.12,-131.85C769.37,-136.68 787.78,-141.84 804.44,-146.51"/>
<polygon fill="#63b8ff" stroke="#63b8ff" points="753.14,-128.22 742.56,-128.89 751.25,-134.96 753.14,-128.22"/>
</a>
</g>
</g>
<!-- Node22 -->
<g id="Node000022" class="node">
<title>Node22</title>
<g id="a_Node000022"><a xlink:href="class_storm_1_1_base_gmres_solver.html" target="_top" xlink:title="Parmetrized GMRES solver.">
<polygon fill="white" stroke="#666666" points="928.5,-128.5 794.75,-128.5 794.75,-98 928.5,-98 928.5,-128.5"/>
<text text-anchor="start" x="802.75" y="-115" font-family="Helvetica,sans-Serif" font-size="10.00">Storm::BaseGmresSolver</text>
<text text-anchor="middle" x="861.62" y="-103.75" font-family="Helvetica,sans-Serif" font-size="10.00">&lt; Vector, Flexible, Loose &gt;</text>
</a>
</g>
</g>
<!-- Node17&#45;&gt;Node22 -->
<g id="edge21_Node000017_Node000022" class="edge">
<title>Node17&#45;&gt;Node22</title>
<g id="a_edge21_Node000017_Node000022"><a xlink:title=" ">
<path fill="none" stroke="#63b8ff" d="M760.56,-113.25C771.83,-113.25 783.39,-113.25 794.46,-113.25"/>
<polygon fill="#63b8ff" stroke="#63b8ff" points="760.87,-109.75 750.87,-113.25 760.87,-116.75 760.87,-109.75"/>
</a>
</g>
</g>
<!-- Node23 -->
<g id="Node000023" class="node">
<title>Node23</title>
<g id="a_Node000023"><a xlink:href="class_storm_1_1_bi_cg_stab_l_solver.html" target="_top" xlink:title="The BiCGStab(l) (Biconjugate Gradients Stabilized) linear operator equation solver.">
<polygon fill="white" stroke="#666666" points="923.25,-79.5 800,-79.5 800,-49 923.25,-49 923.25,-79.5"/>
<text text-anchor="start" x="808" y="-66" font-family="Helvetica,sans-Serif" font-size="10.00">Storm::BiCgStabLSolver</text>
<text text-anchor="middle" x="861.62" y="-54.75" font-family="Helvetica,sans-Serif" font-size="10.00">&lt; Vector &gt;</text>
</a>
</g>
</g>
<!-- Node17&#45;&gt;Node23 -->
<g id="edge22_Node000017_Node000023" class="edge">
<title>Node17&#45;&gt;Node23</title>
<g id="a_edge22_Node000017_Node000023"><a xlink:title=" ">
<path fill="none" stroke="#63b8ff" d="M752.12,-94.65C769.37,-89.82 787.78,-84.66 804.44,-79.99"/>
<polygon fill="#63b8ff" stroke="#63b8ff" points="751.25,-91.54 742.56,-97.61 753.14,-98.28 751.25,-91.54"/>
</a>
</g>
</g>
<!-- Node24 -->
<g id="Node000024" class="node">
<title>Node24</title>
<g id="a_Node000024"><a xlink:href="class_storm_1_1_idrs_solver.html" target="_top" xlink:title="The IDR(s) (Induced Dimension Reduction) linear operator equation solver.">
<polygon fill="white" stroke="#666666" points="910.88,-30.5 812.38,-30.5 812.38,0 910.88,0 910.88,-30.5"/>
<text text-anchor="start" x="820.38" y="-17" font-family="Helvetica,sans-Serif" font-size="10.00">Storm::IdrsSolver&lt;</text>
<text text-anchor="middle" x="861.62" y="-5.75" font-family="Helvetica,sans-Serif" font-size="10.00"> Vector &gt;</text>
</a>
</g>
</g>
<!-- Node17&#45;&gt;Node24 -->
<g id="edge23_Node000017_Node000024" class="edge">
<title>Node17&#45;&gt;Node24</title>
<g id="a_edge23_Node000017_Node000024"><a xlink:title=" ">
<path fill="none" stroke="#63b8ff" d="M752.07,-92.64C754.38,-91.26 756.62,-89.8 758.75,-88.25 780.32,-72.57 773.44,-56.28 794.75,-40.25 800.03,-36.28 806.01,-32.87 812.17,-29.96"/>
<polygon fill="#63b8ff" stroke="#63b8ff" points="751.04,-89.75 743.84,-97.52 754.31,-95.94 751.04,-89.75"/>
</a>
</g>
</g>
<!-- Node19 -->
<g id="Node000019" class="node">
<title>Node19</title>
<g id="a_Node000019"><a xlink:href="class_storm_1_1_fgmres_solver.html" target="_top" xlink:title="The FGMRES (Flexible Generalized Minimal Residual) linear operator equation solver.">
<polygon fill="white" stroke="#666666" points="1073.5,-226.5 964.5,-226.5 964.5,-196 1073.5,-196 1073.5,-226.5"/>
<text text-anchor="start" x="972.5" y="-213" font-family="Helvetica,sans-Serif" font-size="10.00">Storm::FgmresSolver</text>
<text text-anchor="middle" x="1019" y="-201.75" font-family="Helvetica,sans-Serif" font-size="10.00">&lt; Vector &gt;</text>
</a>
</g>
</g>
<!-- Node18&#45;&gt;Node19 -->
<g id="edge18_Node000018_Node000019" class="edge">
<title>Node18&#45;&gt;Node19</title>
<g id="a_edge18_Node000018_Node000019"><a xlink:title=" ">
<path fill="none" stroke="#63b8ff" d="M936.69,-211.25C946.01,-211.25 955.39,-211.25 964.31,-211.25"/>
<polygon fill="#63b8ff" stroke="#63b8ff" points="936.82,-207.75 926.82,-211.25 936.82,-214.75 936.82,-207.75"/>
</a>
</g>
</g>
<!-- Node21 -->
<g id="Node000021" class="node">
<title>Node21</title>
<g id="a_Node000021"><a xlink:href="class_storm_1_1_gmres_solver.html" target="_top" xlink:title="The GMRES (Generalized Minimal Residual) linear operator equation solver.">
<polygon fill="white" stroke="#666666" points="1071.62,-177.5 966.38,-177.5 966.38,-147 1071.62,-147 1071.62,-177.5"/>
<text text-anchor="start" x="974.38" y="-164" font-family="Helvetica,sans-Serif" font-size="10.00">Storm::GmresSolver</text>
<text text-anchor="middle" x="1019" y="-152.75" font-family="Helvetica,sans-Serif" font-size="10.00">&lt; Vector &gt;</text>
</a>
</g>
</g>
<!-- Node20&#45;&gt;Node21 -->
<g id="edge20_Node000020_Node000021" class="edge">
<title>Node20&#45;&gt;Node21</title>
<g id="a_edge20_Node000020_Node000021"><a xlink:title=" ">
<path fill="none" stroke="#63b8ff" d="M936.63,-162.25C946.65,-162.25 956.75,-162.25 966.26,-162.25"/>
<polygon fill="#63b8ff" stroke="#63b8ff" points="936.82,-158.75 926.82,-162.25 936.82,-165.75 936.82,-158.75"/>
</a>
</g>
</g>
</g>
</svg>
