<?xml version="1.0" encoding="UTF-8" standalone="no"?>
<!DOCTYPE svg PUBLIC "-//W3C//DTD SVG 1.1//EN"
 "http://www.w3.org/Graphics/SVG/1.1/DTD/svg11.dtd">
<!-- Generated by graphviz version 8.0.5 (20230430.1635)
 -->
<!-- Title: Storm::Vulture::gl::Texture2D&lt; Pixel &gt; Pages: 1 -->
<svg width="119pt" height="160pt"
 viewBox="0.00 0.00 118.50 160.25" xmlns="http://www.w3.org/2000/svg" xmlns:xlink="http://www.w3.org/1999/xlink">
<g id="graph0" class="graph" transform="scale(1 1) rotate(0) translate(4 156.25)">
<title>Storm::Vulture::gl::Texture2D&lt; Pixel &gt;</title>
<!-- Node1 -->
<g id="node1" class="node">
<title>Node1</title>
<g id="a_node1"><a xlink:title="OpenGL 2D texture.">
<polygon fill="#999999" stroke="#666666" points="108.62,-30.5 1.88,-30.5 1.88,0 108.62,0 108.62,-30.5"/>
<text text-anchor="start" x="9.88" y="-17" font-family="Helvetica,sans-Serif" font-size="10.00">Storm::Vulture::gl</text>
<text text-anchor="middle" x="55.25" y="-5.75" font-family="Helvetica,sans-Serif" font-size="10.00">::Texture2D&lt; Pixel &gt;</text>
</a>
</g>
</g>
<!-- Node2 -->
<g id="node2" class="node">
<title>Node2</title>
<g id="a_node2"><a xlink:href="class_storm_1_1_vulture_1_1gl_1_1_texture.html" target="_top" xlink:title="OpenGL texture.">
<polygon fill="white" stroke="#666666" points="101.5,-97 9,-97 9,-66.5 101.5,-66.5 101.5,-97"/>
<text text-anchor="start" x="17" y="-83.5" font-family="Helvetica,sans-Serif" font-size="10.00">Storm::Vulture::gl</text>
<text text-anchor="middle" x="55.25" y="-72.25" font-family="Helvetica,sans-Serif" font-size="10.00">::Texture</text>
</a>
</g>
</g>
<!-- Node2&#45;&gt;Node1 -->
<g id="edge1" class="edge">
<title>Node2&#45;&gt;Node1</title>
<path fill="none" stroke="#63b8ff" d="M55.25,-55.38C55.25,-47.05 55.25,-38.08 55.25,-30.83"/>
<polygon fill="#63b8ff" stroke="#63b8ff" points="51.75,-55.11 55.25,-65.11 58.75,-55.11 51.75,-55.11"/>
</g>
<!-- Node3 -->
<g id="node3" class="node">
<title>Node3</title>
<g id="a_node3"><a xlink:href="class_storm_1_1_non_copyable.html" target="_top" xlink:title="Non copyable object interface.">
<polygon fill="white" stroke="#666666" points="110.5,-152.25 0,-152.25 0,-133 110.5,-133 110.5,-152.25"/>
<text text-anchor="middle" x="55.25" y="-138.75" font-family="Helvetica,sans-Serif" font-size="10.00">detail_::noncopyable_</text>
</a>
</g>
</g>
<!-- Node3&#45;&gt;Node2 -->
<g id="edge2" class="edge">
<title>Node3&#45;&gt;Node2</title>
<path fill="none" stroke="#8b1a1a" d="M55.25,-121.7C55.25,-113.7 55.25,-104.65 55.25,-97.28"/>
<polygon fill="#8b1a1a" stroke="#8b1a1a" points="51.75,-121.68 55.25,-131.68 58.75,-121.68 51.75,-121.68"/>
</g>
</g>
</svg>
