<?xml version="1.0" encoding="UTF-8" standalone="no"?>
<!DOCTYPE svg PUBLIC "-//W3C//DTD SVG 1.1//EN"
 "http://www.w3.org/Graphics/SVG/1.1/DTD/svg11.dtd">
<!-- Generated by graphviz version 7.0.6 (20230106.0513)
 -->
<!-- Title: Storm::RichardsonSolver&lt; Vector &gt; Pages: 1 -->
<svg width="134pt" height="280pt"
 viewBox="0.00 0.00 134.00 280.00" xmlns="http://www.w3.org/2000/svg" xmlns:xlink="http://www.w3.org/1999/xlink">
<g id="graph0" class="graph" transform="scale(1 1) rotate(0) translate(4 276)">
<title>Storm::RichardsonSolver&lt; Vector &gt;</title>
<!-- Node1 -->
<g id="node1" class="node">
<title>Node1</title>
<g id="a_node1"><a xlink:title="The Richardson iteration linear operator equation solver.">
<polygon fill="#999999" stroke="#666666" points="126,-30 0,-30 0,0 126,0 126,-30"/>
<text text-anchor="start" x="8" y="-18" font-family="Helvetica,sans-Serif" font-size="10.00">Storm::RichardsonSolver</text>
<text text-anchor="middle" x="63" y="-7" font-family="Helvetica,sans-Serif" font-size="10.00">&lt; Vector &gt;</text>
</a>
</g>
</g>
<!-- Node2 -->
<g id="node2" class="node">
<title>Node2</title>
<g id="a_node2"><a xlink:href="class_storm_1_1_iterative_solver.html" target="_top" xlink:title=" ">
<polygon fill="white" stroke="#666666" points="119,-96 7,-96 7,-66 119,-66 119,-96"/>
<text text-anchor="start" x="15" y="-84" font-family="Helvetica,sans-Serif" font-size="10.00">Storm::IterativeSolver</text>
<text text-anchor="middle" x="63" y="-73" font-family="Helvetica,sans-Serif" font-size="10.00">&lt; Vector &gt;</text>
</a>
</g>
</g>
<!-- Node2&#45;&gt;Node1 -->
<g id="edge1" class="edge">
<title>Node2&#45;&gt;Node1</title>
<path fill="none" stroke="#63b8ff" d="M63,-54.39C63,-46.13 63,-37.28 63,-30.16"/>
<polygon fill="#63b8ff" stroke="#63b8ff" points="59.5,-54.28 63,-64.28 66.5,-54.28 59.5,-54.28"/>
</g>
<!-- Node3 -->
<g id="node3" class="node">
<title>Node3</title>
<g id="a_node3"><a xlink:href="class_storm_1_1_solver.html" target="_top" xlink:title="Abstract operator equation solver. &#45;=&#45;=&#45;=&#45;=&#45;=&#45;=&#45;=&#45;=&#45;=&#45;=&#45;=&#45;=&#45;=&#45;=&#45;=&#45;=&#45;=&#45;=&#45;=&#45;=&#45;=&#45;=&#45;=&#45;=&#45;=&#45;=&#45;=&#45;=&#45;=&#45;=&#45;=&#45;=&#45; ...">
<polygon fill="white" stroke="#666666" points="125.5,-162 0.5,-162 0.5,-132 125.5,-132 125.5,-162"/>
<text text-anchor="start" x="8.5" y="-150" font-family="Helvetica,sans-Serif" font-size="10.00">Storm::Solver&lt; InVector,</text>
<text text-anchor="middle" x="63" y="-139" font-family="Helvetica,sans-Serif" font-size="10.00"> OutVector &gt;</text>
</a>
</g>
</g>
<!-- Node3&#45;&gt;Node2 -->
<g id="edge2" class="edge">
<title>Node3&#45;&gt;Node2</title>
<path fill="none" stroke="#63b8ff" d="M63,-120.39C63,-112.13 63,-103.28 63,-96.16"/>
<polygon fill="#63b8ff" stroke="#63b8ff" points="59.5,-120.28 63,-130.28 66.5,-120.28 59.5,-120.28"/>
</g>
<!-- Node4 -->
<g id="node4" class="node">
<title>Node4</title>
<g id="a_node4"><a xlink:href="class_storm_1_1_object.html" target="_top" xlink:title="A base object.">
<polygon fill="white" stroke="#666666" points="101.5,-217 24.5,-217 24.5,-198 101.5,-198 101.5,-217"/>
<text text-anchor="middle" x="63" y="-205" font-family="Helvetica,sans-Serif" font-size="10.00">Storm::Object</text>
</a>
</g>
</g>
<!-- Node4&#45;&gt;Node3 -->
<g id="edge3" class="edge">
<title>Node4&#45;&gt;Node3</title>
<path fill="none" stroke="#63b8ff" d="M63,-186.51C63,-178.49 63,-169.43 63,-162.11"/>
<polygon fill="#63b8ff" stroke="#63b8ff" points="59.5,-186.35 63,-196.35 66.5,-186.35 59.5,-186.35"/>
</g>
<!-- Node5 -->
<g id="node5" class="node">
<title>Node5</title>
<g id="a_node5"><a xlink:href="class_storm_1_1_non_copyable.html" target="_top" xlink:title="Non copyable object interface.">
<polygon fill="white" stroke="#666666" points="118.5,-272 7.5,-272 7.5,-253 118.5,-253 118.5,-272"/>
<text text-anchor="middle" x="63" y="-260" font-family="Helvetica,sans-Serif" font-size="10.00">detail_::noncopyable_</text>
</a>
</g>
</g>
<!-- Node5&#45;&gt;Node4 -->
<g id="edge4" class="edge">
<title>Node5&#45;&gt;Node4</title>
<path fill="none" stroke="#63b8ff" d="M63,-241.35C63,-233.1 63,-223.97 63,-217.44"/>
<polygon fill="#63b8ff" stroke="#63b8ff" points="59.5,-241.23 63,-251.23 66.5,-241.23 59.5,-241.23"/>
</g>
</g>
</svg>
