<?xml version="1.0" encoding="UTF-8" standalone="no"?>
<!DOCTYPE svg PUBLIC "-//W3C//DTD SVG 1.1//EN"
 "http://www.w3.org/Graphics/SVG/1.1/DTD/svg11.dtd">
<!-- Generated by graphviz version 7.1.0 (20230121.1956)
 -->
<!-- Title: Storm::Feathers::MhdFvBcFarFieldT&lt; MhdPhysicsT &gt; Pages: 1 -->
<svg width="144pt" height="181pt"
 viewBox="0.00 0.00 144.00 181.00" xmlns="http://www.w3.org/2000/svg" xmlns:xlink="http://www.w3.org/1999/xlink">
<g id="graph0" class="graph" transform="scale(1 1) rotate(0) translate(4 177)">
<title>Storm::Feathers::MhdFvBcFarFieldT&lt; MhdPhysicsT &gt;</title>
<!-- Node1 -->
<g id="node1" class="node">
<title>Node1</title>
<g id="a_node1"><a xlink:title="Far field boundary condition. Sets ghost state values to infinity state.">
<polygon fill="#999999" stroke="#666666" points="136,-30 0,-30 0,0 136,0 136,-30"/>
<text text-anchor="start" x="8" y="-18" font-family="Helvetica,sans-Serif" font-size="10.00">Storm::Feathers::MhdFvBc</text>
<text text-anchor="middle" x="68" y="-7" font-family="Helvetica,sans-Serif" font-size="10.00">FarFieldT&lt; MhdPhysicsT &gt;</text>
</a>
</g>
</g>
<!-- Node2 -->
<g id="node2" class="node">
<title>Node2</title>
<g id="a_node2"><a xlink:href="class_storm_1_1_feathers_1_1_mhd_fv_bc_p_t.html" target="_top" xlink:title="Abstract boundary condition.">
<polygon fill="white" stroke="#666666" points="135.5,-96 0.5,-96 0.5,-66 135.5,-66 135.5,-96"/>
<text text-anchor="start" x="8.5" y="-84" font-family="Helvetica,sans-Serif" font-size="10.00">Storm::Feathers::MhdFvBc</text>
<text text-anchor="middle" x="68" y="-73" font-family="Helvetica,sans-Serif" font-size="10.00">PT&lt; MhdPhysicsT &gt;</text>
</a>
</g>
</g>
<!-- Node2&#45;&gt;Node1 -->
<g id="edge1" class="edge">
<title>Node2&#45;&gt;Node1</title>
<path fill="none" stroke="#63b8ff" d="M68,-54.39C68,-46.13 68,-37.28 68,-30.16"/>
<polygon fill="#63b8ff" stroke="#63b8ff" points="64.5,-54.28 68,-64.28 71.5,-54.28 64.5,-54.28"/>
</g>
<!-- Node3 -->
<g id="node3" class="node">
<title>Node3</title>
<g id="a_node3"><a xlink:title=" ">
<polygon fill="white" stroke="#bfbfbf" points="131,-173 5,-173 5,-132 131,-132 131,-173"/>
<text text-anchor="start" x="13" y="-161" font-family="Helvetica,sans-Serif" font-size="10.00">std::enable_shared</text>
<text text-anchor="start" x="13" y="-150" font-family="Helvetica,sans-Serif" font-size="10.00">_from_this&lt; MhdFvBcPT</text>
<text text-anchor="middle" x="68" y="-139" font-family="Helvetica,sans-Serif" font-size="10.00">&lt; MhdPhysicsT &gt; &gt;</text>
</a>
</g>
</g>
<!-- Node3&#45;&gt;Node2 -->
<g id="edge2" class="edge">
<title>Node3&#45;&gt;Node2</title>
<path fill="none" stroke="#63b8ff" d="M68,-120.38C68,-112.04 68,-103.43 68,-96.47"/>
<polygon fill="#63b8ff" stroke="#63b8ff" points="64.5,-120.26 68,-130.26 71.5,-120.26 64.5,-120.26"/>
</g>
</g>
</svg>
