<?xml version="1.0" encoding="UTF-8" standalone="no"?>
<!DOCTYPE svg PUBLIC "-//W3C//DTD SVG 1.1//EN"
 "http://www.w3.org/Graphics/SVG/1.1/DTD/svg11.dtd">
<!-- Generated by graphviz version 8.0.5 (20230430.1635)
 -->
<!-- Title: Storm::IterativeSolver&lt; InVector, OutVector &gt; Pages: 1 -->
<svg width="1046pt" height="235pt"
 viewBox="0.00 0.00 1046.25 234.50" xmlns="http://www.w3.org/2000/svg" xmlns:xlink="http://www.w3.org/1999/xlink">
<g id="graph0" class="graph" transform="scale(1 1) rotate(0) translate(4 230.5)">
<title>Storm::IterativeSolver&lt; InVector, OutVector &gt;</title>
<!-- Node1 -->
<g id="node1" class="node">
<title>Node1</title>
<g id="a_node1"><a xlink:title="Abstract operator equation iterative solver. &#45;=&#45;=&#45;=&#45;=&#45;=&#45;=&#45;=&#45;=&#45;=&#45;=&#45;=&#45;=&#45;=&#45;=&#45;=&#45;=&#45;=&#45;=&#45;=&#45;=&#45;=&#45;=&#45;=&#45;=&#45;=&#45;=&#45;=&#45;=...">
<polygon fill="#999999" stroke="#666666" points="539.5,-103.5 419.25,-103.5 419.25,-73 539.5,-73 539.5,-103.5"/>
<text text-anchor="start" x="427.25" y="-90" font-family="Helvetica,sans-Serif" font-size="10.00">Storm::IterativeSolver</text>
<text text-anchor="middle" x="479.38" y="-78.75" font-family="Helvetica,sans-Serif" font-size="10.00">&lt; InVector, OutVector &gt;</text>
</a>
</g>
</g>
<!-- Node5 -->
<g id="node5" class="node">
<title>Node5</title>
<g id="a_node5"><a xlink:href="class_storm_1_1_inner_outer_iterative_solver.html" target="_top" xlink:title=" ">
<polygon fill="white" stroke="#666666" points="714.12,-128.5 584.88,-128.5 584.88,-98 714.12,-98 714.12,-128.5"/>
<text text-anchor="start" x="592.88" y="-115" font-family="Helvetica,sans-Serif" font-size="10.00">Storm::InnerOuterIterative</text>
<text text-anchor="middle" x="649.5" y="-103.75" font-family="Helvetica,sans-Serif" font-size="10.00">Solver&lt; Vector &gt;</text>
</a>
</g>
</g>
<!-- Node1&#45;&gt;Node5 -->
<g id="edge4" class="edge">
<title>Node1&#45;&gt;Node5</title>
<path fill="none" stroke="#63b8ff" d="M550.39,-98.66C561.74,-100.35 573.43,-102.09 584.62,-103.75"/>
<polygon fill="#63b8ff" stroke="#63b8ff" points="551.06,-95.07 540.65,-97.06 550.03,-102 551.06,-95.07"/>
</g>
<!-- Node13 -->
<g id="node13" class="node">
<title>Node13</title>
<g id="a_node13"><a xlink:href="class_storm_1_1_inner_outer_iterative_solver.html" target="_top" xlink:title="Abstract inner&#45;outer iterative solver. &#45;=&#45;=&#45;=&#45;=&#45;=&#45;=&#45;=&#45;=&#45;=&#45;=&#45;=&#45;=&#45;=&#45;=&#45;=&#45;=&#45;=&#45;=&#45;=&#45;=&#45;=&#45;=&#45;=&#45;=&#45;=&#45;=&#45;=&#45;=&#45;=&#45;=&#45;=...">
<polygon fill="white" stroke="#666666" points="723.5,-79.5 575.5,-79.5 575.5,-49 723.5,-49 723.5,-79.5"/>
<text text-anchor="start" x="583.5" y="-66" font-family="Helvetica,sans-Serif" font-size="10.00">Storm::InnerOuterIterative</text>
<text text-anchor="middle" x="649.5" y="-54.75" font-family="Helvetica,sans-Serif" font-size="10.00">Solver&lt; InVector, OutVector &gt;</text>
</a>
</g>
</g>
<!-- Node1&#45;&gt;Node13 -->
<g id="edge12" class="edge">
<title>Node1&#45;&gt;Node13</title>
<path fill="none" stroke="#63b8ff" d="M550.27,-78.27C558.44,-77.11 566.8,-75.91 575.03,-74.74"/>
<polygon fill="#63b8ff" stroke="#63b8ff" points="550.05,-74.91 540.65,-79.79 551.04,-81.84 550.05,-74.91"/>
</g>
<!-- Node2 -->
<g id="node2" class="node">
<title>Node2</title>
<g id="a_node2"><a xlink:href="class_storm_1_1_solver.html" target="_top" xlink:title="Abstract operator equation solver. &#45;=&#45;=&#45;=&#45;=&#45;=&#45;=&#45;=&#45;=&#45;=&#45;=&#45;=&#45;=&#45;=&#45;=&#45;=&#45;=&#45;=&#45;=&#45;=&#45;=&#45;=&#45;=&#45;=&#45;=&#45;=&#45;=&#45;=&#45;=&#45;=&#45;=&#45;=&#45;=&#45; ...">
<polygon fill="white" stroke="#666666" points="383.25,-103.5 259.25,-103.5 259.25,-73 383.25,-73 383.25,-103.5"/>
<text text-anchor="start" x="267.25" y="-90" font-family="Helvetica,sans-Serif" font-size="10.00">Storm::Solver&lt; InVector,</text>
<text text-anchor="middle" x="321.25" y="-78.75" font-family="Helvetica,sans-Serif" font-size="10.00"> OutVector &gt;</text>
</a>
</g>
</g>
<!-- Node2&#45;&gt;Node1 -->
<g id="edge1" class="edge">
<title>Node2&#45;&gt;Node1</title>
<path fill="none" stroke="#63b8ff" d="M394.24,-88.25C402.47,-88.25 410.79,-88.25 418.83,-88.25"/>
<polygon fill="#63b8ff" stroke="#63b8ff" points="394.51,-84.75 384.51,-88.25 394.51,-91.75 394.51,-84.75"/>
</g>
<!-- Node3 -->
<g id="node3" class="node">
<title>Node3</title>
<g id="a_node3"><a xlink:href="class_storm_1_1_object.html" target="_top" xlink:title="A base object.">
<polygon fill="white" stroke="#666666" points="223.25,-97.88 146.5,-97.88 146.5,-78.62 223.25,-78.62 223.25,-97.88"/>
<text text-anchor="middle" x="184.88" y="-84.38" font-family="Helvetica,sans-Serif" font-size="10.00">Storm::Object</text>
</a>
</g>
</g>
<!-- Node3&#45;&gt;Node2 -->
<g id="edge2" class="edge">
<title>Node3&#45;&gt;Node2</title>
<path fill="none" stroke="#63b8ff" d="M234.53,-88.25C242.43,-88.25 250.69,-88.25 258.85,-88.25"/>
<polygon fill="#63b8ff" stroke="#63b8ff" points="234.66,-84.75 224.66,-88.25 234.66,-91.75 234.66,-84.75"/>
</g>
<!-- Node4 -->
<g id="node4" class="node">
<title>Node4</title>
<g id="a_node4"><a xlink:href="class_storm_1_1_non_copyable.html" target="_top" xlink:title="Non copyable object interface.">
<polygon fill="white" stroke="#666666" points="110.5,-97.88 0,-97.88 0,-78.62 110.5,-78.62 110.5,-97.88"/>
<text text-anchor="middle" x="55.25" y="-84.38" font-family="Helvetica,sans-Serif" font-size="10.00">detail_::noncopyable_</text>
</a>
</g>
</g>
<!-- Node4&#45;&gt;Node3 -->
<g id="edge3" class="edge">
<title>Node4&#45;&gt;Node3</title>
<path fill="none" stroke="#63b8ff" d="M121.72,-88.25C130.09,-88.25 138.42,-88.25 146.13,-88.25"/>
<polygon fill="#63b8ff" stroke="#63b8ff" points="121.74,-84.75 111.74,-88.25 121.74,-91.75 121.74,-84.75"/>
</g>
<!-- Node6 -->
<g id="node6" class="node">
<title>Node6</title>
<g id="a_node6"><a xlink:href="class_storm_1_1_base_gmres_solver.html" target="_top" xlink:title=" ">
<polygon fill="white" stroke="#666666" points="890.25,-226.5 762.5,-226.5 762.5,-196 890.25,-196 890.25,-226.5"/>
<text text-anchor="start" x="770.5" y="-213" font-family="Helvetica,sans-Serif" font-size="10.00">Storm::BaseGmresSolver</text>
<text text-anchor="middle" x="826.38" y="-201.75" font-family="Helvetica,sans-Serif" font-size="10.00">&lt; Vector, true &gt;</text>
</a>
</g>
</g>
<!-- Node5&#45;&gt;Node6 -->
<g id="edge5" class="edge">
<title>Node5&#45;&gt;Node6</title>
<path fill="none" stroke="#63b8ff" d="M679.11,-135.04C700.47,-150.65 730.81,-171.44 759.5,-186.25 765.91,-189.56 772.87,-192.67 779.78,-195.5"/>
<polygon fill="#63b8ff" stroke="#63b8ff" points="681.66,-131.84 671.53,-128.71 677.49,-137.46 681.66,-131.84"/>
</g>
<!-- Node8 -->
<g id="node8" class="node">
<title>Node8</title>
<g id="a_node8"><a xlink:href="class_storm_1_1_base_gmres_solver.html" target="_top" xlink:title=" ">
<polygon fill="white" stroke="#666666" points="890.25,-177.5 762.5,-177.5 762.5,-147 890.25,-147 890.25,-177.5"/>
<text text-anchor="start" x="770.5" y="-164" font-family="Helvetica,sans-Serif" font-size="10.00">Storm::BaseGmresSolver</text>
<text text-anchor="middle" x="826.38" y="-152.75" font-family="Helvetica,sans-Serif" font-size="10.00">&lt; Vector, false &gt;</text>
</a>
</g>
</g>
<!-- Node5&#45;&gt;Node8 -->
<g id="edge7" class="edge">
<title>Node5&#45;&gt;Node8</title>
<path fill="none" stroke="#63b8ff" d="M716.87,-131.85C734.12,-136.68 752.53,-141.84 769.19,-146.51"/>
<polygon fill="#63b8ff" stroke="#63b8ff" points="717.89,-128.22 707.31,-128.89 716,-134.96 717.89,-128.22"/>
</g>
<!-- Node10 -->
<g id="node10" class="node">
<title>Node10</title>
<g id="a_node10"><a xlink:href="class_storm_1_1_base_gmres_solver.html" target="_top" xlink:title="Parmetrized GMRES solver.">
<polygon fill="white" stroke="#666666" points="893.25,-128.5 759.5,-128.5 759.5,-98 893.25,-98 893.25,-128.5"/>
<text text-anchor="start" x="767.5" y="-115" font-family="Helvetica,sans-Serif" font-size="10.00">Storm::BaseGmresSolver</text>
<text text-anchor="middle" x="826.38" y="-103.75" font-family="Helvetica,sans-Serif" font-size="10.00">&lt; Vector, Flexible, Loose &gt;</text>
</a>
</g>
</g>
<!-- Node5&#45;&gt;Node10 -->
<g id="edge9" class="edge">
<title>Node5&#45;&gt;Node10</title>
<path fill="none" stroke="#63b8ff" d="M725.31,-113.25C736.58,-113.25 748.14,-113.25 759.21,-113.25"/>
<polygon fill="#63b8ff" stroke="#63b8ff" points="725.62,-109.75 715.62,-113.25 725.62,-116.75 725.62,-109.75"/>
</g>
<!-- Node11 -->
<g id="node11" class="node">
<title>Node11</title>
<g id="a_node11"><a xlink:href="class_storm_1_1_bi_cg_stab_l_solver.html" target="_top" xlink:title="The BiCGStab(l) (Biconjugate Gradients Stabilized) linear operator equation solver.">
<polygon fill="white" stroke="#666666" points="888,-79.5 764.75,-79.5 764.75,-49 888,-49 888,-79.5"/>
<text text-anchor="start" x="772.75" y="-66" font-family="Helvetica,sans-Serif" font-size="10.00">Storm::BiCgStabLSolver</text>
<text text-anchor="middle" x="826.38" y="-54.75" font-family="Helvetica,sans-Serif" font-size="10.00">&lt; Vector &gt;</text>
</a>
</g>
</g>
<!-- Node5&#45;&gt;Node11 -->
<g id="edge10" class="edge">
<title>Node5&#45;&gt;Node11</title>
<path fill="none" stroke="#63b8ff" d="M716.87,-94.65C734.12,-89.82 752.53,-84.66 769.19,-79.99"/>
<polygon fill="#63b8ff" stroke="#63b8ff" points="716,-91.54 707.31,-97.61 717.89,-98.28 716,-91.54"/>
</g>
<!-- Node12 -->
<g id="node12" class="node">
<title>Node12</title>
<g id="a_node12"><a xlink:href="class_storm_1_1_idrs_solver.html" target="_top" xlink:title="The IDR(s) (Induced Dimension Reduction) linear operator equation solver.">
<polygon fill="white" stroke="#666666" points="875.62,-30.5 777.12,-30.5 777.12,0 875.62,0 875.62,-30.5"/>
<text text-anchor="start" x="785.12" y="-17" font-family="Helvetica,sans-Serif" font-size="10.00">Storm::IdrsSolver&lt;</text>
<text text-anchor="middle" x="826.38" y="-5.75" font-family="Helvetica,sans-Serif" font-size="10.00"> Vector &gt;</text>
</a>
</g>
</g>
<!-- Node5&#45;&gt;Node12 -->
<g id="edge11" class="edge">
<title>Node5&#45;&gt;Node12</title>
<path fill="none" stroke="#63b8ff" d="M716.82,-92.64C719.13,-91.26 721.37,-89.8 723.5,-88.25 745.07,-72.57 738.19,-56.28 759.5,-40.25 764.78,-36.28 770.76,-32.87 776.92,-29.96"/>
<polygon fill="#63b8ff" stroke="#63b8ff" points="715.79,-89.75 708.59,-97.52 719.06,-95.94 715.79,-89.75"/>
</g>
<!-- Node7 -->
<g id="node7" class="node">
<title>Node7</title>
<g id="a_node7"><a xlink:href="class_storm_1_1_fgmres_solver.html" target="_top" xlink:title="The FGMRES (Flexible Generalized Minimal Residual) linear operator equation solver.">
<polygon fill="white" stroke="#666666" points="1038.25,-226.5 929.25,-226.5 929.25,-196 1038.25,-196 1038.25,-226.5"/>
<text text-anchor="start" x="937.25" y="-213" font-family="Helvetica,sans-Serif" font-size="10.00">Storm::FgmresSolver</text>
<text text-anchor="middle" x="983.75" y="-201.75" font-family="Helvetica,sans-Serif" font-size="10.00">&lt; Vector &gt;</text>
</a>
</g>
</g>
<!-- Node6&#45;&gt;Node7 -->
<g id="edge6" class="edge">
<title>Node6&#45;&gt;Node7</title>
<path fill="none" stroke="#63b8ff" d="M901.44,-211.25C910.76,-211.25 920.14,-211.25 929.06,-211.25"/>
<polygon fill="#63b8ff" stroke="#63b8ff" points="901.57,-207.75 891.57,-211.25 901.57,-214.75 901.57,-207.75"/>
</g>
<!-- Node9 -->
<g id="node9" class="node">
<title>Node9</title>
<g id="a_node9"><a xlink:href="class_storm_1_1_gmres_solver.html" target="_top" xlink:title="The GMRES (Generalized Minimal Residual) linear operator equation solver.">
<polygon fill="white" stroke="#666666" points="1036.38,-177.5 931.12,-177.5 931.12,-147 1036.38,-147 1036.38,-177.5"/>
<text text-anchor="start" x="939.12" y="-164" font-family="Helvetica,sans-Serif" font-size="10.00">Storm::GmresSolver</text>
<text text-anchor="middle" x="983.75" y="-152.75" font-family="Helvetica,sans-Serif" font-size="10.00">&lt; Vector &gt;</text>
</a>
</g>
</g>
<!-- Node8&#45;&gt;Node9 -->
<g id="edge8" class="edge">
<title>Node8&#45;&gt;Node9</title>
<path fill="none" stroke="#63b8ff" d="M901.38,-162.25C911.4,-162.25 921.5,-162.25 931.01,-162.25"/>
<polygon fill="#63b8ff" stroke="#63b8ff" points="901.57,-158.75 891.57,-162.25 901.57,-165.75 901.57,-158.75"/>
</g>
</g>
</svg>
