<?xml version="1.0" encoding="UTF-8" standalone="no"?>
<!DOCTYPE svg PUBLIC "-//W3C//DTD SVG 1.1//EN"
 "http://www.w3.org/Graphics/SVG/1.1/DTD/svg11.dtd">
<!-- Generated by graphviz version 8.1.0 (20230707.0739)
 -->
<!-- Title: Storm::MatrixOwningView&lt; Matrix &gt; Pages: 1 -->
<svg width="294pt" height="105pt"
 viewBox="0.00 0.00 294.12 105.00" xmlns="http://www.w3.org/2000/svg" xmlns:xlink="http://www.w3.org/1999/xlink">
<g id="graph0" class="graph" transform="scale(1 1) rotate(0) translate(4 101)">
<title>Storm::MatrixOwningView&lt; Matrix &gt;</title>
<!-- Node1 -->
<g id="Node000001" class="node">
<title>Node1</title>
<g id="a_Node000001"><a xlink:title="Matrix owning view. Matrix should be noexcept&#45;movable.">
<polygon fill="#999999" stroke="#666666" points="221.38,-30.5 91.38,-30.5 91.38,0 221.38,0 221.38,-30.5"/>
<text text-anchor="start" x="99.38" y="-17" font-family="Helvetica,sans-Serif" font-size="10.00">Storm::MatrixOwningView</text>
<text text-anchor="middle" x="156.38" y="-5.75" font-family="Helvetica,sans-Serif" font-size="10.00">&lt; Matrix &gt;</text>
</a>
</g>
</g>
<!-- Node2 -->
<g id="Node000002" class="node">
<title>Node2</title>
<g id="a_Node000002"><a xlink:href="class_storm_1_1_matrix_view_interface.html" target="_top" xlink:title=" ">
<polygon fill="white" stroke="#666666" points="160.75,-97 0,-97 0,-66.5 160.75,-66.5 160.75,-97"/>
<text text-anchor="start" x="8" y="-83.5" font-family="Helvetica,sans-Serif" font-size="10.00">Storm::MatrixViewInterface</text>
<text text-anchor="middle" x="80.38" y="-72.25" font-family="Helvetica,sans-Serif" font-size="10.00">&lt; MatrixOwningView&lt; Matrix &gt; &gt;</text>
</a>
</g>
</g>
<!-- Node2&#45;&gt;Node1 -->
<g id="edge1_Node000001_Node000002" class="edge">
<title>Node2&#45;&gt;Node1</title>
<g id="a_edge1_Node000001_Node000002"><a xlink:title=" ">
<path fill="none" stroke="#63b8ff" d="M105.98,-59.02C116.92,-49.73 129.4,-39.15 139.2,-30.83"/>
<polygon fill="#63b8ff" stroke="#63b8ff" points="103.98,-56.97 98.62,-66.11 108.51,-62.31 103.98,-56.97"/>
</a>
</g>
</g>
<!-- Node3 -->
<g id="Node000003" class="node">
<title>Node3</title>
<g id="a_Node000003"><a xlink:href="class_storm_1_1_non_copyable.html" target="_top" xlink:title="Non copyable object interface.">
<polygon fill="white" stroke="#666666" points="286.12,-91.38 178.62,-91.38 178.62,-72.12 286.12,-72.12 286.12,-91.38"/>
<text text-anchor="middle" x="232.38" y="-77.88" font-family="Helvetica,sans-Serif" font-size="10.00">Storm::NonCopyable</text>
</a>
</g>
</g>
<!-- Node3&#45;&gt;Node1 -->
<g id="edge2_Node000001_Node000003" class="edge">
<title>Node3&#45;&gt;Node1</title>
<g id="a_edge2_Node000001_Node000003"><a xlink:title=" ">
<path fill="none" stroke="#63b8ff" d="M213.64,-64.85C201.38,-54.45 185.5,-40.97 173.57,-30.84"/>
<polygon fill="#63b8ff" stroke="#63b8ff" points="210.92,-67.98 220.81,-71.78 215.45,-62.64 210.92,-67.98"/>
</a>
</g>
</g>
</g>
</svg>
