<?xml version="1.0" encoding="UTF-8" standalone="no"?>
<!DOCTYPE svg PUBLIC "-//W3C//DTD SVG 1.1//EN"
 "http://www.w3.org/Graphics/SVG/1.1/DTD/svg11.dtd">
<!-- Generated by graphviz version 8.0.5 (20230430.1635)
 -->
<!-- Title: Storm::TargetMatrixInterface&lt; TargetMatrix &gt; Pages: 1 -->
<svg width="325pt" height="158pt"
 viewBox="0.00 0.00 325.00 158.12" xmlns="http://www.w3.org/2000/svg" xmlns:xlink="http://www.w3.org/1999/xlink">
<g id="graph0" class="graph" transform="scale(1 1) rotate(0) translate(4 154.12)">
<title>Storm::TargetMatrixInterface&lt; TargetMatrix &gt;</title>
<!-- Node1 -->
<g id="node1" class="node">
<title>Node1</title>
<g id="a_node1"><a xlink:title="CRTP interface to a target matrix.">
<polygon fill="#999999" stroke="#666666" points="140.5,-96.12 0,-96.12 0,-65.62 140.5,-65.62 140.5,-96.12"/>
<text text-anchor="start" x="8" y="-82.62" font-family="Helvetica,sans-Serif" font-size="10.00">Storm::TargetMatrixInterface</text>
<text text-anchor="middle" x="70.25" y="-71.38" font-family="Helvetica,sans-Serif" font-size="10.00">&lt; TargetMatrix &gt;</text>
</a>
</g>
</g>
<!-- Node2 -->
<g id="node2" class="node">
<title>Node2</title>
<g id="a_node2"><a xlink:href="class_storm_1_1_feathers_1_1_field.html" target="_top" xlink:title=" ">
<polygon fill="white" stroke="#666666" points="303.5,-150.12 190,-150.12 190,-119.62 303.5,-119.62 303.5,-150.12"/>
<text text-anchor="start" x="198" y="-136.62" font-family="Helvetica,sans-Serif" font-size="10.00">Storm::Feathers::Field</text>
<text text-anchor="middle" x="246.75" y="-125.38" font-family="Helvetica,sans-Serif" font-size="10.00">&lt; Mesh, real_t &gt;</text>
</a>
</g>
</g>
<!-- Node1&#45;&gt;Node2 -->
<g id="edge1" class="edge">
<title>Node1&#45;&gt;Node2</title>
<path fill="none" stroke="#63b8ff" d="M131.95,-99.66C152.56,-106.04 175.35,-113.09 195.09,-119.2"/>
<polygon fill="#63b8ff" stroke="#63b8ff" points="133.31,-96.11 122.72,-96.49 131.24,-102.79 133.31,-96.11"/>
</g>
<!-- Node3 -->
<g id="node3" class="node">
<title>Node3</title>
<g id="a_node3"><a xlink:href="class_storm_1_1_feathers_1_1_field.html" target="_top" xlink:title=" ">
<polygon fill="white" stroke="#666666" points="317,-101.75 176.5,-101.75 176.5,-60 317,-60 317,-101.75"/>
<text text-anchor="start" x="184.5" y="-88.25" font-family="Helvetica,sans-Serif" font-size="10.00">Storm::Feathers::Field</text>
<text text-anchor="start" x="184.5" y="-77" font-family="Helvetica,sans-Serif" font-size="10.00">&lt; Storm::UnstructuredMesh,</text>
<text text-anchor="middle" x="246.75" y="-65.75" font-family="Helvetica,sans-Serif" font-size="10.00"> real_t, 5 &gt;</text>
</a>
</g>
</g>
<!-- Node1&#45;&gt;Node3 -->
<g id="edge2" class="edge">
<title>Node1&#45;&gt;Node3</title>
<path fill="none" stroke="#63b8ff" d="M151.93,-80.88C160.02,-80.88 168.18,-80.88 176.14,-80.88"/>
<polygon fill="#63b8ff" stroke="#63b8ff" points="151.97,-77.38 141.97,-80.88 151.97,-84.38 151.97,-77.38"/>
</g>
<!-- Node4 -->
<g id="node4" class="node">
<title>Node4</title>
<g id="a_node4"><a xlink:href="class_storm_1_1_feathers_1_1_field.html" target="_top" xlink:title="Generic mesh field.">
<polygon fill="white" stroke="#666666" points="303.5,-41.75 190,-41.75 190,0 303.5,0 303.5,-41.75"/>
<text text-anchor="start" x="198" y="-28.25" font-family="Helvetica,sans-Serif" font-size="10.00">Storm::Feathers::Field</text>
<text text-anchor="start" x="198" y="-17" font-family="Helvetica,sans-Serif" font-size="10.00">&lt; Mesh, Index, Value,</text>
<text text-anchor="middle" x="246.75" y="-5.75" font-family="Helvetica,sans-Serif" font-size="10.00"> NumVars &gt;</text>
</a>
</g>
</g>
<!-- Node1&#45;&gt;Node4 -->
<g id="edge3" class="edge">
<title>Node1&#45;&gt;Node4</title>
<path fill="none" stroke="#63b8ff" d="M126.87,-61.75C146.93,-54.85 169.57,-47.07 189.67,-40.16"/>
<polygon fill="#63b8ff" stroke="#63b8ff" points="125.96,-58.71 117.64,-65.27 128.24,-65.33 125.96,-58.71"/>
</g>
</g>
</svg>
