<?xml version="1.0" encoding="UTF-8" standalone="no"?>
<!DOCTYPE svg PUBLIC "-//W3C//DTD SVG 1.1//EN"
 "http://www.w3.org/Graphics/SVG/1.1/DTD/svg11.dtd">
<!-- Generated by graphviz version 8.1.0 (20230707.0739)
 -->
<!-- Title: Storm::Solver&lt; InVector, OutVector &gt; Pages: 1 -->
<svg width="1046pt" height="554pt"
 viewBox="0.00 0.00 1046.25 553.50" xmlns="http://www.w3.org/2000/svg" xmlns:xlink="http://www.w3.org/1999/xlink">
<g id="graph0" class="graph" transform="scale(1 1) rotate(0) translate(4 549.5)">
<title>Storm::Solver&lt; InVector, OutVector &gt;</title>
<!-- Node1 -->
<g id="Node000001" class="node">
<title>Node1</title>
<g id="a_Node000001"><a xlink:title="Abstract operator equation solver. &#45;=&#45;=&#45;=&#45;=&#45;=&#45;=&#45;=&#45;=&#45;=&#45;=&#45;=&#45;=&#45;=&#45;=&#45;=&#45;=&#45;=&#45;=&#45;=&#45;=&#45;=&#45;=&#45;=&#45;=&#45;=&#45;=&#45;=&#45;=&#45;=&#45;=&#45;=&#45;=&#45; ...">
<polygon fill="#999999" stroke="#666666" points="383.25,-223.5 259.25,-223.5 259.25,-193 383.25,-193 383.25,-223.5"/>
<text text-anchor="start" x="267.25" y="-210" font-family="Helvetica,sans-Serif" font-size="10.00">Storm::Solver&lt; InVector,</text>
<text text-anchor="middle" x="321.25" y="-198.75" font-family="Helvetica,sans-Serif" font-size="10.00"> OutVector &gt;</text>
</a>
</g>
</g>
<!-- Node4 -->
<g id="Node000004" class="node">
<title>Node4</title>
<g id="a_Node000004"><a xlink:href="class_storm_1_1_iterative_solver.html" target="_top" xlink:title=" ">
<polygon fill="white" stroke="#666666" points="535,-336.5 423.75,-336.5 423.75,-306 535,-306 535,-336.5"/>
<text text-anchor="start" x="431.75" y="-323" font-family="Helvetica,sans-Serif" font-size="10.00">Storm::IterativeSolver</text>
<text text-anchor="middle" x="479.38" y="-311.75" font-family="Helvetica,sans-Serif" font-size="10.00">&lt; Vector &gt;</text>
</a>
</g>
</g>
<!-- Node1&#45;&gt;Node4 -->
<g id="edge3_Node000001_Node000004" class="edge">
<title>Node1&#45;&gt;Node4</title>
<g id="a_edge3_Node000001_Node000004"><a xlink:title=" ">
<path fill="none" stroke="#63b8ff" d="M352.53,-230.17C383.18,-252.35 429.79,-286.09 456.85,-305.67"/>
<polygon fill="#63b8ff" stroke="#63b8ff" points="355.11,-226.99 344.96,-223.96 351.01,-232.66 355.11,-226.99"/>
</a>
</g>
</g>
<!-- Node16 -->
<g id="Node000016" class="node">
<title>Node16</title>
<g id="a_Node000016"><a xlink:href="class_storm_1_1_iterative_solver.html" target="_top" xlink:title="Abstract operator equation iterative solver. &#45;=&#45;=&#45;=&#45;=&#45;=&#45;=&#45;=&#45;=&#45;=&#45;=&#45;=&#45;=&#45;=&#45;=&#45;=&#45;=&#45;=&#45;=&#45;=&#45;=&#45;=&#45;=&#45;=&#45;=&#45;=&#45;=&#45;=&#45;=...">
<polygon fill="white" stroke="#666666" points="539.5,-128.5 419.25,-128.5 419.25,-98 539.5,-98 539.5,-128.5"/>
<text text-anchor="start" x="427.25" y="-115" font-family="Helvetica,sans-Serif" font-size="10.00">Storm::IterativeSolver</text>
<text text-anchor="middle" x="479.38" y="-103.75" font-family="Helvetica,sans-Serif" font-size="10.00">&lt; InVector, OutVector &gt;</text>
</a>
</g>
</g>
<!-- Node1&#45;&gt;Node16 -->
<g id="edge15_Node000001_Node000016" class="edge">
<title>Node1&#45;&gt;Node16</title>
<g id="a_edge15_Node000001_Node000016"><a xlink:title=" ">
<path fill="none" stroke="#63b8ff" d="M357.36,-186.89C386.25,-169.31 426.55,-144.78 452.56,-128.96"/>
<polygon fill="#63b8ff" stroke="#63b8ff" points="355.75,-184.37 349.03,-192.56 359.39,-190.35 355.75,-184.37"/>
</a>
</g>
</g>
<!-- Node2 -->
<g id="Node000002" class="node">
<title>Node2</title>
<g id="a_Node000002"><a xlink:href="class_storm_1_1_object.html" target="_top" xlink:title="A base object.">
<polygon fill="white" stroke="#666666" points="223.25,-217.88 146.5,-217.88 146.5,-198.62 223.25,-198.62 223.25,-217.88"/>
<text text-anchor="middle" x="184.88" y="-204.38" font-family="Helvetica,sans-Serif" font-size="10.00">Storm::Object</text>
</a>
</g>
</g>
<!-- Node2&#45;&gt;Node1 -->
<g id="edge1_Node000001_Node000002" class="edge">
<title>Node2&#45;&gt;Node1</title>
<g id="a_edge1_Node000001_Node000002"><a xlink:title=" ">
<path fill="none" stroke="#63b8ff" d="M234.53,-208.25C242.43,-208.25 250.69,-208.25 258.85,-208.25"/>
<polygon fill="#63b8ff" stroke="#63b8ff" points="234.66,-204.75 224.66,-208.25 234.66,-211.75 234.66,-204.75"/>
</a>
</g>
</g>
<!-- Node3 -->
<g id="Node000003" class="node">
<title>Node3</title>
<g id="a_Node000003"><a xlink:href="class_storm_1_1_non_copyable.html" target="_top" xlink:title="Non copyable object interface.">
<polygon fill="white" stroke="#666666" points="110.5,-217.88 0,-217.88 0,-198.62 110.5,-198.62 110.5,-217.88"/>
<text text-anchor="middle" x="55.25" y="-204.38" font-family="Helvetica,sans-Serif" font-size="10.00">detail_::noncopyable_</text>
</a>
</g>
</g>
<!-- Node3&#45;&gt;Node2 -->
<g id="edge2_Node000002_Node000003" class="edge">
<title>Node3&#45;&gt;Node2</title>
<g id="a_edge2_Node000002_Node000003"><a xlink:title=" ">
<path fill="none" stroke="#63b8ff" d="M121.72,-208.25C130.09,-208.25 138.42,-208.25 146.13,-208.25"/>
<polygon fill="#63b8ff" stroke="#63b8ff" points="121.74,-204.75 111.74,-208.25 121.74,-211.75 121.74,-204.75"/>
</a>
</g>
</g>
<!-- Node5 -->
<g id="Node000005" class="node">
<title>Node5</title>
<g id="a_Node000005"><a xlink:href="class_storm_1_1_base_tfqmr_solver.html" target="_top" xlink:title=" ">
<polygon fill="white" stroke="#666666" points="711.5,-545.5 587.5,-545.5 587.5,-515 711.5,-515 711.5,-545.5"/>
<text text-anchor="start" x="595.5" y="-532" font-family="Helvetica,sans-Serif" font-size="10.00">Storm::BaseTfqmrSolver</text>
<text text-anchor="middle" x="649.5" y="-520.75" font-family="Helvetica,sans-Serif" font-size="10.00">&lt; Vector, true &gt;</text>
</a>
</g>
</g>
<!-- Node4&#45;&gt;Node5 -->
<g id="edge4_Node000004_Node000005" class="edge">
<title>Node4&#45;&gt;Node5</title>
<g id="a_edge4_Node000004_Node000005"><a xlink:title=" ">
<path fill="none" stroke="#63b8ff" d="M487.04,-347.2C498.51,-386.81 525.7,-462.29 575.5,-505.25 579.66,-508.84 584.36,-511.92 589.32,-514.56"/>
<polygon fill="#63b8ff" stroke="#63b8ff" points="490.2,-346.5 484.15,-337.8 483.45,-348.38 490.2,-346.5"/>
</a>
</g>
</g>
<!-- Node7 -->
<g id="Node000007" class="node">
<title>Node7</title>
<g id="a_Node000007"><a xlink:href="class_storm_1_1_base_tfqmr_solver.html" target="_top" xlink:title=" ">
<polygon fill="white" stroke="#666666" points="711.5,-496.5 587.5,-496.5 587.5,-466 711.5,-466 711.5,-496.5"/>
<text text-anchor="start" x="595.5" y="-483" font-family="Helvetica,sans-Serif" font-size="10.00">Storm::BaseTfqmrSolver</text>
<text text-anchor="middle" x="649.5" y="-471.75" font-family="Helvetica,sans-Serif" font-size="10.00">&lt; Vector, false &gt;</text>
</a>
</g>
</g>
<!-- Node4&#45;&gt;Node7 -->
<g id="edge6_Node000004_Node000007" class="edge">
<title>Node4&#45;&gt;Node7</title>
<g id="a_edge6_Node000004_Node000007"><a xlink:title=" ">
<path fill="none" stroke="#63b8ff" d="M491.94,-346.36C507.06,-376.57 536.31,-426.86 575.5,-456.25 580.32,-459.87 585.71,-462.98 591.3,-465.67"/>
<polygon fill="#63b8ff" stroke="#63b8ff" points="494.7,-345.05 487.19,-337.59 488.41,-348.11 494.7,-345.05"/>
</a>
</g>
</g>
<!-- Node9 -->
<g id="Node000009" class="node">
<title>Node9</title>
<g id="a_Node000009"><a xlink:href="class_storm_1_1_base_tfqmr_solver.html" target="_top" xlink:title="Parametrized TFQMR solver.">
<polygon fill="white" stroke="#666666" points="711.5,-447.5 587.5,-447.5 587.5,-417 711.5,-417 711.5,-447.5"/>
<text text-anchor="start" x="595.5" y="-434" font-family="Helvetica,sans-Serif" font-size="10.00">Storm::BaseTfqmrSolver</text>
<text text-anchor="middle" x="649.5" y="-422.75" font-family="Helvetica,sans-Serif" font-size="10.00">&lt; Vector, L1 &gt;</text>
</a>
</g>
</g>
<!-- Node4&#45;&gt;Node9 -->
<g id="edge8_Node000004_Node000009" class="edge">
<title>Node4&#45;&gt;Node9</title>
<g id="a_edge8_Node000004_Node000009"><a xlink:title=" ">
<path fill="none" stroke="#63b8ff" d="M501.06,-344.62C519.08,-363.74 546.76,-390.31 575.5,-407.25 581.39,-410.72 587.82,-413.8 594.36,-416.5"/>
<polygon fill="#63b8ff" stroke="#63b8ff" points="504.08,-342.65 494.72,-337.67 498.93,-347.39 504.08,-342.65"/>
</a>
</g>
</g>
<!-- Node10 -->
<g id="Node000010" class="node">
<title>Node10</title>
<g id="a_Node000010"><a xlink:href="class_storm_1_1_bi_cg_stab_solver.html" target="_top" xlink:title="The BiCGStab (Biconjugate Gradients Stabilized) linear operator equation solver.">
<polygon fill="white" stroke="#666666" points="708.5,-398.5 590.5,-398.5 590.5,-368 708.5,-368 708.5,-398.5"/>
<text text-anchor="start" x="598.5" y="-385" font-family="Helvetica,sans-Serif" font-size="10.00">Storm::BiCgStabSolver</text>
<text text-anchor="middle" x="649.5" y="-373.75" font-family="Helvetica,sans-Serif" font-size="10.00">&lt; Vector &gt;</text>
</a>
</g>
</g>
<!-- Node4&#45;&gt;Node10 -->
<g id="edge9_Node000004_Node000010" class="edge">
<title>Node4&#45;&gt;Node10</title>
<g id="a_edge9_Node000004_Node000010"><a xlink:title=" ">
<path fill="none" stroke="#63b8ff" d="M528.24,-341.05C543.29,-347.09 560.02,-353.62 575.5,-359.25 583.15,-362.03 591.3,-364.85 599.27,-367.53"/>
<polygon fill="#63b8ff" stroke="#63b8ff" points="529.71,-337.46 519.12,-336.96 527.08,-343.95 529.71,-337.46"/>
</a>
</g>
</g>
<!-- Node11 -->
<g id="Node000011" class="node">
<title>Node11</title>
<g id="a_Node000011"><a xlink:href="class_storm_1_1_cg_solver.html" target="_top" xlink:title="The CG (Conjugate Gradients) linear self&#45;adjoint definite operator equation solver.">
<polygon fill="white" stroke="#666666" points="717.12,-349.88 581.88,-349.88 581.88,-330.62 717.12,-330.62 717.12,-349.88"/>
<text text-anchor="middle" x="649.5" y="-336.38" font-family="Helvetica,sans-Serif" font-size="10.00">Storm::CgSolver&lt; Vector &gt;</text>
</a>
</g>
</g>
<!-- Node4&#45;&gt;Node11 -->
<g id="edge10_Node000004_Node000011" class="edge">
<title>Node4&#45;&gt;Node11</title>
<g id="a_edge10_Node000004_Node000011"><a xlink:title=" ">
<path fill="none" stroke="#63b8ff" d="M546.35,-328.71C557.93,-330.01 569.99,-331.38 581.59,-332.69"/>
<polygon fill="#63b8ff" stroke="#63b8ff" points="546.76,-325.12 536.43,-327.47 545.97,-332.07 546.76,-325.12"/>
</a>
</g>
</g>
<!-- Node12 -->
<g id="Node000012" class="node">
<title>Node12</title>
<g id="a_Node000012"><a xlink:href="class_storm_1_1_cgs_solver.html" target="_top" xlink:title="The CGS (Conjugate Gradients Squared) linear operator equation solver.">
<polygon fill="white" stroke="#666666" points="719.75,-312.88 579.25,-312.88 579.25,-293.62 719.75,-293.62 719.75,-312.88"/>
<text text-anchor="middle" x="649.5" y="-299.38" font-family="Helvetica,sans-Serif" font-size="10.00">Storm::CgsSolver&lt; Vector &gt;</text>
</a>
</g>
</g>
<!-- Node4&#45;&gt;Node12 -->
<g id="edge11_Node000004_Node000012" class="edge">
<title>Node4&#45;&gt;Node12</title>
<g id="a_edge11_Node000004_Node000012"><a xlink:title=" ">
<path fill="none" stroke="#63b8ff" d="M546.04,-314.22C556.82,-313.07 568.03,-311.87 578.9,-310.7"/>
<polygon fill="#63b8ff" stroke="#63b8ff" points="546,-310.81 536.43,-315.36 546.74,-317.77 546,-310.81"/>
</a>
</g>
</g>
<!-- Node13 -->
<g id="Node000013" class="node">
<title>Node13</title>
<g id="a_Node000013"><a xlink:href="class_storm_1_1_jfnk_solver.html" target="_top" xlink:title="The first&#45;order JFNK (Jacobian free&#45;Newton&#45;Krylov) nonlinear operator equation solver.">
<polygon fill="white" stroke="#666666" points="699.88,-275.5 599.12,-275.5 599.12,-245 699.88,-245 699.88,-275.5"/>
<text text-anchor="start" x="607.12" y="-262" font-family="Helvetica,sans-Serif" font-size="10.00">Storm::JfnkSolver&lt;</text>
<text text-anchor="middle" x="649.5" y="-250.75" font-family="Helvetica,sans-Serif" font-size="10.00"> Vector &gt;</text>
</a>
</g>
</g>
<!-- Node4&#45;&gt;Node13 -->
<g id="edge12_Node000004_Node000013" class="edge">
<title>Node4&#45;&gt;Node13</title>
<g id="a_edge12_Node000004_Node000013"><a xlink:title=" ">
<path fill="none" stroke="#63b8ff" d="M529.07,-301.74C543.91,-295.94 560.32,-289.69 575.5,-284.25 583.29,-281.46 591.58,-278.61 599.69,-275.9"/>
<polygon fill="#63b8ff" stroke="#63b8ff" points="528.11,-298.75 520.08,-305.66 530.66,-305.26 528.11,-298.75"/>
</a>
</g>
</g>
<!-- Node14 -->
<g id="Node000014" class="node">
<title>Node14</title>
<g id="a_Node000014"><a xlink:href="class_storm_1_1_newton_solver.html" target="_top" xlink:title="The Newton method nonlinear operator equation solver.">
<polygon fill="white" stroke="#666666" points="704.38,-226.5 594.62,-226.5 594.62,-196 704.38,-196 704.38,-226.5"/>
<text text-anchor="start" x="602.62" y="-213" font-family="Helvetica,sans-Serif" font-size="10.00">Storm::NewtonSolver</text>
<text text-anchor="middle" x="649.5" y="-201.75" font-family="Helvetica,sans-Serif" font-size="10.00">&lt; Vector &gt;</text>
</a>
</g>
</g>
<!-- Node4&#45;&gt;Node14 -->
<g id="edge13_Node000004_Node000014" class="edge">
<title>Node4&#45;&gt;Node14</title>
<g id="a_edge13_Node000004_Node000014"><a xlink:title=" ">
<path fill="none" stroke="#63b8ff" d="M501.43,-297.84C519.48,-278.97 547.03,-252.92 575.5,-236.25 581.51,-232.73 588.09,-229.61 594.76,-226.87"/>
<polygon fill="#63b8ff" stroke="#63b8ff" points="499.35,-295 495.06,-304.69 504.46,-299.79 499.35,-295"/>
</a>
</g>
</g>
<!-- Node15 -->
<g id="Node000015" class="node">
<title>Node15</title>
<g id="a_Node000015"><a xlink:href="class_storm_1_1_richardson_solver.html" target="_top" xlink:title="The Richardson iteration linear operator equation solver.">
<polygon fill="white" stroke="#666666" points="712.25,-177.5 586.75,-177.5 586.75,-147 712.25,-147 712.25,-177.5"/>
<text text-anchor="start" x="594.75" y="-164" font-family="Helvetica,sans-Serif" font-size="10.00">Storm::RichardsonSolver</text>
<text text-anchor="middle" x="649.5" y="-152.75" font-family="Helvetica,sans-Serif" font-size="10.00">&lt; Vector &gt;</text>
</a>
</g>
</g>
<!-- Node4&#45;&gt;Node15 -->
<g id="edge14_Node000004_Node000015" class="edge">
<title>Node4&#45;&gt;Node15</title>
<g id="a_edge14_Node000004_Node000015"><a xlink:title=" ">
<path fill="none" stroke="#63b8ff" d="M492.22,-295.85C507.46,-265.82 536.66,-216.27 575.5,-187.25 580.33,-183.64 585.72,-180.53 591.32,-177.85"/>
<polygon fill="#63b8ff" stroke="#63b8ff" points="488.7,-294.08 487.42,-304.59 494.98,-297.17 488.7,-294.08"/>
</a>
</g>
</g>
<!-- Node6 -->
<g id="Node000006" class="node">
<title>Node6</title>
<g id="a_Node000006"><a xlink:href="class_storm_1_1_tfqmr1_solver.html" target="_top" xlink:title="The TFQMR1 (Transpose&#45;Free 1&#45;norm Quasi&#45;Minimal Residual) linear operator equation solver.">
<polygon fill="white" stroke="#666666" points="879.75,-545.5 773,-545.5 773,-515 879.75,-515 879.75,-545.5"/>
<text text-anchor="start" x="781" y="-532" font-family="Helvetica,sans-Serif" font-size="10.00">Storm::Tfqmr1Solver</text>
<text text-anchor="middle" x="826.38" y="-520.75" font-family="Helvetica,sans-Serif" font-size="10.00">&lt; Vector &gt;</text>
</a>
</g>
</g>
<!-- Node5&#45;&gt;Node6 -->
<g id="edge5_Node000005_Node000006" class="edge">
<title>Node5&#45;&gt;Node6</title>
<g id="a_edge5_Node000005_Node000006"><a xlink:title=" ">
<path fill="none" stroke="#63b8ff" d="M722.55,-530.25C739.34,-530.25 756.91,-530.25 772.68,-530.25"/>
<polygon fill="#63b8ff" stroke="#63b8ff" points="722.66,-526.75 712.66,-530.25 722.66,-533.75 722.66,-526.75"/>
</a>
</g>
</g>
<!-- Node8 -->
<g id="Node000008" class="node">
<title>Node8</title>
<g id="a_Node000008"><a xlink:href="class_storm_1_1_tfqmr_solver.html" target="_top" xlink:title="The TFQMR (Transpose&#45;Free Quasi&#45;Minimal Residual) linear operator equation solver.">
<polygon fill="white" stroke="#666666" points="877.12,-496.5 775.62,-496.5 775.62,-466 877.12,-466 877.12,-496.5"/>
<text text-anchor="start" x="783.62" y="-483" font-family="Helvetica,sans-Serif" font-size="10.00">Storm::TfqmrSolver</text>
<text text-anchor="middle" x="826.38" y="-471.75" font-family="Helvetica,sans-Serif" font-size="10.00">&lt; Vector &gt;</text>
</a>
</g>
</g>
<!-- Node7&#45;&gt;Node8 -->
<g id="edge7_Node000007_Node000008" class="edge">
<title>Node7&#45;&gt;Node8</title>
<g id="a_edge7_Node000007_Node000008"><a xlink:title=" ">
<path fill="none" stroke="#63b8ff" d="M722.55,-481.25C740.25,-481.25 758.82,-481.25 775.23,-481.25"/>
<polygon fill="#63b8ff" stroke="#63b8ff" points="722.66,-477.75 712.66,-481.25 722.66,-484.75 722.66,-477.75"/>
</a>
</g>
</g>
<!-- Node17 -->
<g id="Node000017" class="node">
<title>Node17</title>
<g id="a_Node000017"><a xlink:href="class_storm_1_1_inner_outer_iterative_solver.html" target="_top" xlink:title=" ">
<polygon fill="white" stroke="#666666" points="714.12,-128.5 584.88,-128.5 584.88,-98 714.12,-98 714.12,-128.5"/>
<text text-anchor="start" x="592.88" y="-115" font-family="Helvetica,sans-Serif" font-size="10.00">Storm::InnerOuterIterative</text>
<text text-anchor="middle" x="649.5" y="-103.75" font-family="Helvetica,sans-Serif" font-size="10.00">Solver&lt; Vector &gt;</text>
</a>
</g>
</g>
<!-- Node16&#45;&gt;Node17 -->
<g id="edge16_Node000016_Node000017" class="edge">
<title>Node16&#45;&gt;Node17</title>
<g id="a_edge16_Node000016_Node000017"><a xlink:title=" ">
<path fill="none" stroke="#63b8ff" d="M550.39,-113.25C561.74,-113.25 573.43,-113.25 584.62,-113.25"/>
<polygon fill="#63b8ff" stroke="#63b8ff" points="550.65,-109.75 540.65,-113.25 550.65,-116.75 550.65,-109.75"/>
</a>
</g>
</g>
<!-- Node25 -->
<g id="Node000025" class="node">
<title>Node25</title>
<g id="a_Node000025"><a xlink:href="class_storm_1_1_inner_outer_iterative_solver.html" target="_top" xlink:title="Abstract inner&#45;outer iterative solver. &#45;=&#45;=&#45;=&#45;=&#45;=&#45;=&#45;=&#45;=&#45;=&#45;=&#45;=&#45;=&#45;=&#45;=&#45;=&#45;=&#45;=&#45;=&#45;=&#45;=&#45;=&#45;=&#45;=&#45;=&#45;=&#45;=&#45;=&#45;=&#45;=&#45;=&#45;=...">
<polygon fill="white" stroke="#666666" points="723.5,-79.5 575.5,-79.5 575.5,-49 723.5,-49 723.5,-79.5"/>
<text text-anchor="start" x="583.5" y="-66" font-family="Helvetica,sans-Serif" font-size="10.00">Storm::InnerOuterIterative</text>
<text text-anchor="middle" x="649.5" y="-54.75" font-family="Helvetica,sans-Serif" font-size="10.00">Solver&lt; InVector, OutVector &gt;</text>
</a>
</g>
</g>
<!-- Node16&#45;&gt;Node25 -->
<g id="edge24_Node000016_Node000025" class="edge">
<title>Node16&#45;&gt;Node25</title>
<g id="a_edge24_Node000016_Node000025"><a xlink:title=" ">
<path fill="none" stroke="#63b8ff" d="M544.19,-94.65C560.77,-89.82 578.47,-84.66 594.49,-79.99"/>
<polygon fill="#63b8ff" stroke="#63b8ff" points="543.65,-91.45 535.03,-97.61 545.61,-98.17 543.65,-91.45"/>
</a>
</g>
</g>
<!-- Node18 -->
<g id="Node000018" class="node">
<title>Node18</title>
<g id="a_Node000018"><a xlink:href="class_storm_1_1_base_gmres_solver.html" target="_top" xlink:title=" ">
<polygon fill="white" stroke="#666666" points="890.25,-226.5 762.5,-226.5 762.5,-196 890.25,-196 890.25,-226.5"/>
<text text-anchor="start" x="770.5" y="-213" font-family="Helvetica,sans-Serif" font-size="10.00">Storm::BaseGmresSolver</text>
<text text-anchor="middle" x="826.38" y="-201.75" font-family="Helvetica,sans-Serif" font-size="10.00">&lt; Vector, true &gt;</text>
</a>
</g>
</g>
<!-- Node17&#45;&gt;Node18 -->
<g id="edge17_Node000017_Node000018" class="edge">
<title>Node17&#45;&gt;Node18</title>
<g id="a_edge17_Node000017_Node000018"><a xlink:title=" ">
<path fill="none" stroke="#63b8ff" d="M716.82,-133.86C719.13,-135.24 721.37,-136.7 723.5,-138.25 745.07,-153.93 738.19,-170.22 759.5,-186.25 764.19,-189.78 769.44,-192.87 774.87,-195.55"/>
<polygon fill="#63b8ff" stroke="#63b8ff" points="719.06,-130.56 708.59,-128.98 715.79,-136.75 719.06,-130.56"/>
</a>
</g>
</g>
<!-- Node20 -->
<g id="Node000020" class="node">
<title>Node20</title>
<g id="a_Node000020"><a xlink:href="class_storm_1_1_base_gmres_solver.html" target="_top" xlink:title=" ">
<polygon fill="white" stroke="#666666" points="890.25,-177.5 762.5,-177.5 762.5,-147 890.25,-147 890.25,-177.5"/>
<text text-anchor="start" x="770.5" y="-164" font-family="Helvetica,sans-Serif" font-size="10.00">Storm::BaseGmresSolver</text>
<text text-anchor="middle" x="826.38" y="-152.75" font-family="Helvetica,sans-Serif" font-size="10.00">&lt; Vector, false &gt;</text>
</a>
</g>
</g>
<!-- Node17&#45;&gt;Node20 -->
<g id="edge19_Node000017_Node000020" class="edge">
<title>Node17&#45;&gt;Node20</title>
<g id="a_edge19_Node000017_Node000020"><a xlink:title=" ">
<path fill="none" stroke="#63b8ff" d="M716.87,-131.85C734.12,-136.68 752.53,-141.84 769.19,-146.51"/>
<polygon fill="#63b8ff" stroke="#63b8ff" points="717.89,-128.22 707.31,-128.89 716,-134.96 717.89,-128.22"/>
</a>
</g>
</g>
<!-- Node22 -->
<g id="Node000022" class="node">
<title>Node22</title>
<g id="a_Node000022"><a xlink:href="class_storm_1_1_base_gmres_solver.html" target="_top" xlink:title="Parmetrized GMRES solver.">
<polygon fill="white" stroke="#666666" points="893.25,-128.5 759.5,-128.5 759.5,-98 893.25,-98 893.25,-128.5"/>
<text text-anchor="start" x="767.5" y="-115" font-family="Helvetica,sans-Serif" font-size="10.00">Storm::BaseGmresSolver</text>
<text text-anchor="middle" x="826.38" y="-103.75" font-family="Helvetica,sans-Serif" font-size="10.00">&lt; Vector, Flexible, Loose &gt;</text>
</a>
</g>
</g>
<!-- Node17&#45;&gt;Node22 -->
<g id="edge21_Node000017_Node000022" class="edge">
<title>Node17&#45;&gt;Node22</title>
<g id="a_edge21_Node000017_Node000022"><a xlink:title=" ">
<path fill="none" stroke="#63b8ff" d="M725.31,-113.25C736.58,-113.25 748.14,-113.25 759.21,-113.25"/>
<polygon fill="#63b8ff" stroke="#63b8ff" points="725.62,-109.75 715.62,-113.25 725.62,-116.75 725.62,-109.75"/>
</a>
</g>
</g>
<!-- Node23 -->
<g id="Node000023" class="node">
<title>Node23</title>
<g id="a_Node000023"><a xlink:href="class_storm_1_1_bi_cg_stab_l_solver.html" target="_top" xlink:title="The BiCGStab(l) (Biconjugate Gradients Stabilized) linear operator equation solver.">
<polygon fill="white" stroke="#666666" points="888,-79.5 764.75,-79.5 764.75,-49 888,-49 888,-79.5"/>
<text text-anchor="start" x="772.75" y="-66" font-family="Helvetica,sans-Serif" font-size="10.00">Storm::BiCgStabLSolver</text>
<text text-anchor="middle" x="826.38" y="-54.75" font-family="Helvetica,sans-Serif" font-size="10.00">&lt; Vector &gt;</text>
</a>
</g>
</g>
<!-- Node17&#45;&gt;Node23 -->
<g id="edge22_Node000017_Node000023" class="edge">
<title>Node17&#45;&gt;Node23</title>
<g id="a_edge22_Node000017_Node000023"><a xlink:title=" ">
<path fill="none" stroke="#63b8ff" d="M716.87,-94.65C734.12,-89.82 752.53,-84.66 769.19,-79.99"/>
<polygon fill="#63b8ff" stroke="#63b8ff" points="716,-91.54 707.31,-97.61 717.89,-98.28 716,-91.54"/>
</a>
</g>
</g>
<!-- Node24 -->
<g id="Node000024" class="node">
<title>Node24</title>
<g id="a_Node000024"><a xlink:href="class_storm_1_1_idrs_solver.html" target="_top" xlink:title="The IDR(s) (Induced Dimension Reduction) linear operator equation solver.">
<polygon fill="white" stroke="#666666" points="875.62,-30.5 777.12,-30.5 777.12,0 875.62,0 875.62,-30.5"/>
<text text-anchor="start" x="785.12" y="-17" font-family="Helvetica,sans-Serif" font-size="10.00">Storm::IdrsSolver&lt;</text>
<text text-anchor="middle" x="826.38" y="-5.75" font-family="Helvetica,sans-Serif" font-size="10.00"> Vector &gt;</text>
</a>
</g>
</g>
<!-- Node17&#45;&gt;Node24 -->
<g id="edge23_Node000017_Node000024" class="edge">
<title>Node17&#45;&gt;Node24</title>
<g id="a_edge23_Node000017_Node000024"><a xlink:title=" ">
<path fill="none" stroke="#63b8ff" d="M716.82,-92.64C719.13,-91.26 721.37,-89.8 723.5,-88.25 745.07,-72.57 738.19,-56.28 759.5,-40.25 764.78,-36.28 770.76,-32.87 776.92,-29.96"/>
<polygon fill="#63b8ff" stroke="#63b8ff" points="715.79,-89.75 708.59,-97.52 719.06,-95.94 715.79,-89.75"/>
</a>
</g>
</g>
<!-- Node19 -->
<g id="Node000019" class="node">
<title>Node19</title>
<g id="a_Node000019"><a xlink:href="class_storm_1_1_fgmres_solver.html" target="_top" xlink:title="The FGMRES (Flexible Generalized Minimal Residual) linear operator equation solver.">
<polygon fill="white" stroke="#666666" points="1038.25,-226.5 929.25,-226.5 929.25,-196 1038.25,-196 1038.25,-226.5"/>
<text text-anchor="start" x="937.25" y="-213" font-family="Helvetica,sans-Serif" font-size="10.00">Storm::FgmresSolver</text>
<text text-anchor="middle" x="983.75" y="-201.75" font-family="Helvetica,sans-Serif" font-size="10.00">&lt; Vector &gt;</text>
</a>
</g>
</g>
<!-- Node18&#45;&gt;Node19 -->
<g id="edge18_Node000018_Node000019" class="edge">
<title>Node18&#45;&gt;Node19</title>
<g id="a_edge18_Node000018_Node000019"><a xlink:title=" ">
<path fill="none" stroke="#63b8ff" d="M901.44,-211.25C910.76,-211.25 920.14,-211.25 929.06,-211.25"/>
<polygon fill="#63b8ff" stroke="#63b8ff" points="901.57,-207.75 891.57,-211.25 901.57,-214.75 901.57,-207.75"/>
</a>
</g>
</g>
<!-- Node21 -->
<g id="Node000021" class="node">
<title>Node21</title>
<g id="a_Node000021"><a xlink:href="class_storm_1_1_gmres_solver.html" target="_top" xlink:title="The GMRES (Generalized Minimal Residual) linear operator equation solver.">
<polygon fill="white" stroke="#666666" points="1036.38,-177.5 931.12,-177.5 931.12,-147 1036.38,-147 1036.38,-177.5"/>
<text text-anchor="start" x="939.12" y="-164" font-family="Helvetica,sans-Serif" font-size="10.00">Storm::GmresSolver</text>
<text text-anchor="middle" x="983.75" y="-152.75" font-family="Helvetica,sans-Serif" font-size="10.00">&lt; Vector &gt;</text>
</a>
</g>
</g>
<!-- Node20&#45;&gt;Node21 -->
<g id="edge20_Node000020_Node000021" class="edge">
<title>Node20&#45;&gt;Node21</title>
<g id="a_edge20_Node000020_Node000021"><a xlink:title=" ">
<path fill="none" stroke="#63b8ff" d="M901.38,-162.25C911.4,-162.25 921.5,-162.25 931.01,-162.25"/>
<polygon fill="#63b8ff" stroke="#63b8ff" points="901.57,-158.75 891.57,-162.25 901.57,-165.75 901.57,-158.75"/>
</a>
</g>
</g>
</g>
</svg>
