<?xml version="1.0" encoding="UTF-8" standalone="no"?>
<!DOCTYPE svg PUBLIC "-//W3C//DTD SVG 1.1//EN"
 "http://www.w3.org/Graphics/SVG/1.1/DTD/svg11.dtd">
<!-- Generated by graphviz version 7.1.0 (20230121.1956)
 -->
<!-- Title: Storm::IterativeSolver&lt; InVector, OutVector &gt; Pages: 1 -->
<svg width="1051pt" height="230pt"
 viewBox="0.00 0.00 1051.00 230.00" xmlns="http://www.w3.org/2000/svg" xmlns:xlink="http://www.w3.org/1999/xlink">
<g id="graph0" class="graph" transform="scale(1 1) rotate(0) translate(4 226)">
<title>Storm::IterativeSolver&lt; InVector, OutVector &gt;</title>
<!-- Node1 -->
<g id="node1" class="node">
<title>Node1</title>
<g id="a_node1"><a xlink:title="Abstract operator equation iterative solver. &#45;=&#45;=&#45;=&#45;=&#45;=&#45;=&#45;=&#45;=&#45;=&#45;=&#45;=&#45;=&#45;=&#45;=&#45;=&#45;=&#45;=&#45;=&#45;=&#45;=&#45;=&#45;=&#45;=&#45;=&#45;=&#45;=&#45;=&#45;=...">
<polygon fill="#999999" stroke="#666666" points="542,-102 421,-102 421,-72 542,-72 542,-102"/>
<text text-anchor="start" x="429" y="-90" font-family="Helvetica,sans-Serif" font-size="10.00">Storm::IterativeSolver</text>
<text text-anchor="middle" x="481.5" y="-79" font-family="Helvetica,sans-Serif" font-size="10.00">&lt; InVector, OutVector &gt;</text>
</a>
</g>
</g>
<!-- Node5 -->
<g id="node5" class="node">
<title>Node5</title>
<g id="a_node5"><a xlink:href="class_storm_1_1_inner_outer_iterative_solver.html" target="_top" xlink:title=" ">
<polygon fill="white" stroke="#666666" points="717.5,-126 587.5,-126 587.5,-96 717.5,-96 717.5,-126"/>
<text text-anchor="start" x="595.5" y="-114" font-family="Helvetica,sans-Serif" font-size="10.00">Storm::InnerOuterIterative</text>
<text text-anchor="middle" x="652.5" y="-103" font-family="Helvetica,sans-Serif" font-size="10.00">Solver&lt; Vector &gt;</text>
</a>
</g>
</g>
<!-- Node1&#45;&gt;Node5 -->
<g id="edge4" class="edge">
<title>Node1&#45;&gt;Node5</title>
<path fill="none" stroke="#63b8ff" d="M553.16,-97.03C564.38,-98.63 575.93,-100.27 587,-101.84"/>
<polygon fill="#63b8ff" stroke="#63b8ff" points="553.97,-93.62 543.58,-95.67 552.99,-100.55 553.97,-93.62"/>
</g>
<!-- Node13 -->
<g id="node13" class="node">
<title>Node13</title>
<g id="a_node13"><a xlink:href="class_storm_1_1_inner_outer_iterative_solver.html" target="_top" xlink:title="Abstract inner&#45;outer iterative solver. &#45;=&#45;=&#45;=&#45;=&#45;=&#45;=&#45;=&#45;=&#45;=&#45;=&#45;=&#45;=&#45;=&#45;=&#45;=&#45;=&#45;=&#45;=&#45;=&#45;=&#45;=&#45;=&#45;=&#45;=&#45;=&#45;=&#45;=&#45;=&#45;=&#45;=&#45;=...">
<polygon fill="white" stroke="#666666" points="727,-78 578,-78 578,-48 727,-48 727,-78"/>
<text text-anchor="start" x="586" y="-66" font-family="Helvetica,sans-Serif" font-size="10.00">Storm::InnerOuterIterative</text>
<text text-anchor="middle" x="652.5" y="-55" font-family="Helvetica,sans-Serif" font-size="10.00">Solver&lt; InVector, OutVector &gt;</text>
</a>
</g>
</g>
<!-- Node1&#45;&gt;Node13 -->
<g id="edge12" class="edge">
<title>Node1&#45;&gt;Node13</title>
<path fill="none" stroke="#63b8ff" d="M553.31,-76.94C561.35,-75.8 569.57,-74.64 577.65,-73.49"/>
<polygon fill="#63b8ff" stroke="#63b8ff" points="552.99,-73.45 543.58,-78.33 553.97,-80.38 552.99,-73.45"/>
</g>
<!-- Node2 -->
<g id="node2" class="node">
<title>Node2</title>
<g id="a_node2"><a xlink:href="class_storm_1_1_solver.html" target="_top" xlink:title="Abstract operator equation solver. &#45;=&#45;=&#45;=&#45;=&#45;=&#45;=&#45;=&#45;=&#45;=&#45;=&#45;=&#45;=&#45;=&#45;=&#45;=&#45;=&#45;=&#45;=&#45;=&#45;=&#45;=&#45;=&#45;=&#45;=&#45;=&#45;=&#45;=&#45;=&#45;=&#45;=&#45;=&#45;=&#45; ...">
<polygon fill="white" stroke="#666666" points="385,-102 260,-102 260,-72 385,-72 385,-102"/>
<text text-anchor="start" x="268" y="-90" font-family="Helvetica,sans-Serif" font-size="10.00">Storm::Solver&lt; InVector,</text>
<text text-anchor="middle" x="322.5" y="-79" font-family="Helvetica,sans-Serif" font-size="10.00"> OutVector &gt;</text>
</a>
</g>
</g>
<!-- Node2&#45;&gt;Node1 -->
<g id="edge1" class="edge">
<title>Node2&#45;&gt;Node1</title>
<path fill="none" stroke="#63b8ff" d="M396.45,-87C404.54,-87 412.72,-87 420.62,-87"/>
<polygon fill="#63b8ff" stroke="#63b8ff" points="396.61,-83.5 386.61,-87 396.61,-90.5 396.61,-83.5"/>
</g>
<!-- Node3 -->
<g id="node3" class="node">
<title>Node3</title>
<g id="a_node3"><a xlink:href="class_storm_1_1_object.html" target="_top" xlink:title="A base object.">
<polygon fill="white" stroke="#666666" points="224,-96.5 147,-96.5 147,-77.5 224,-77.5 224,-96.5"/>
<text text-anchor="middle" x="185.5" y="-84.5" font-family="Helvetica,sans-Serif" font-size="10.00">Storm::Object</text>
</a>
</g>
</g>
<!-- Node3&#45;&gt;Node2 -->
<g id="edge2" class="edge">
<title>Node3&#45;&gt;Node2</title>
<path fill="none" stroke="#63b8ff" d="M235.85,-87C243.55,-87 251.61,-87 259.55,-87"/>
<polygon fill="#63b8ff" stroke="#63b8ff" points="235.98,-83.5 225.98,-87 235.98,-90.5 235.98,-83.5"/>
</g>
<!-- Node4 -->
<g id="node4" class="node">
<title>Node4</title>
<g id="a_node4"><a xlink:href="class_storm_1_1_non_copyable.html" target="_top" xlink:title="Non copyable object interface.">
<polygon fill="white" stroke="#666666" points="111,-96.5 0,-96.5 0,-77.5 111,-77.5 111,-96.5"/>
<text text-anchor="middle" x="55.5" y="-84.5" font-family="Helvetica,sans-Serif" font-size="10.00">detail_::noncopyable_</text>
</a>
</g>
</g>
<!-- Node4&#45;&gt;Node3 -->
<g id="edge3" class="edge">
<title>Node4&#45;&gt;Node3</title>
<path fill="none" stroke="#63b8ff" d="M122.44,-87C130.74,-87 139,-87 146.65,-87"/>
<polygon fill="#63b8ff" stroke="#63b8ff" points="122.67,-83.5 112.67,-87 122.67,-90.5 122.67,-83.5"/>
</g>
<!-- Node6 -->
<g id="node6" class="node">
<title>Node6</title>
<g id="a_node6"><a xlink:href="class_storm_1_1_base_gmres_solver.html" target="_top" xlink:title=" ">
<polygon fill="white" stroke="#666666" points="894,-222 766,-222 766,-192 894,-192 894,-222"/>
<text text-anchor="start" x="774" y="-210" font-family="Helvetica,sans-Serif" font-size="10.00">Storm::BaseGmresSolver</text>
<text text-anchor="middle" x="830" y="-199" font-family="Helvetica,sans-Serif" font-size="10.00">&lt; Vector, true &gt;</text>
</a>
</g>
</g>
<!-- Node5&#45;&gt;Node6 -->
<g id="edge5" class="edge">
<title>Node5&#45;&gt;Node6</title>
<path fill="none" stroke="#63b8ff" d="M682.82,-132.99C704.24,-148.38 734.43,-168.66 763,-183 769.1,-186.06 775.69,-188.93 782.27,-191.55"/>
<polygon fill="#63b8ff" stroke="#63b8ff" points="684.99,-130.25 674.85,-127.2 680.88,-135.91 684.99,-130.25"/>
</g>
<!-- Node8 -->
<g id="node8" class="node">
<title>Node8</title>
<g id="a_node8"><a xlink:href="class_storm_1_1_base_gmres_solver.html" target="_top" xlink:title=" ">
<polygon fill="white" stroke="#666666" points="894,-174 766,-174 766,-144 894,-144 894,-174"/>
<text text-anchor="start" x="774" y="-162" font-family="Helvetica,sans-Serif" font-size="10.00">Storm::BaseGmresSolver</text>
<text text-anchor="middle" x="830" y="-151" font-family="Helvetica,sans-Serif" font-size="10.00">&lt; Vector, false &gt;</text>
</a>
</g>
</g>
<!-- Node5&#45;&gt;Node8 -->
<g id="edge7" class="edge">
<title>Node5&#45;&gt;Node8</title>
<path fill="none" stroke="#63b8ff" d="M721.01,-129.46C738.06,-134.13 756.18,-139.08 772.61,-143.58"/>
<polygon fill="#63b8ff" stroke="#63b8ff" points="722.02,-126.11 711.46,-126.85 720.18,-132.87 722.02,-126.11"/>
</g>
<!-- Node10 -->
<g id="node10" class="node">
<title>Node10</title>
<g id="a_node10"><a xlink:href="class_storm_1_1_base_gmres_solver.html" target="_top" xlink:title="Parmetrized GMRES solver.">
<polygon fill="white" stroke="#666666" points="897,-126 763,-126 763,-96 897,-96 897,-126"/>
<text text-anchor="start" x="771" y="-114" font-family="Helvetica,sans-Serif" font-size="10.00">Storm::BaseGmresSolver</text>
<text text-anchor="middle" x="830" y="-103" font-family="Helvetica,sans-Serif" font-size="10.00">&lt; Vector, Flexible, Loose &gt;</text>
</a>
</g>
</g>
<!-- Node5&#45;&gt;Node10 -->
<g id="edge9" class="edge">
<title>Node5&#45;&gt;Node10</title>
<path fill="none" stroke="#63b8ff" d="M729.28,-111C740.37,-111 751.71,-111 762.59,-111"/>
<polygon fill="#63b8ff" stroke="#63b8ff" points="729.37,-107.5 719.37,-111 729.37,-114.5 729.37,-107.5"/>
</g>
<!-- Node11 -->
<g id="node11" class="node">
<title>Node11</title>
<g id="a_node11"><a xlink:href="class_storm_1_1_bi_cg_stab_l_solver.html" target="_top" xlink:title="The BiCGStab(l) (Biconjugate Gradients Stabilized) linear operator equation solver.">
<polygon fill="white" stroke="#666666" points="892,-78 768,-78 768,-48 892,-48 892,-78"/>
<text text-anchor="start" x="776" y="-66" font-family="Helvetica,sans-Serif" font-size="10.00">Storm::BiCgStabLSolver</text>
<text text-anchor="middle" x="830" y="-55" font-family="Helvetica,sans-Serif" font-size="10.00">&lt; Vector &gt;</text>
</a>
</g>
</g>
<!-- Node5&#45;&gt;Node11 -->
<g id="edge10" class="edge">
<title>Node5&#45;&gt;Node11</title>
<path fill="none" stroke="#63b8ff" d="M721.01,-92.54C738.06,-87.87 756.18,-82.92 772.61,-78.42"/>
<polygon fill="#63b8ff" stroke="#63b8ff" points="720.18,-89.13 711.46,-95.15 722.02,-95.89 720.18,-89.13"/>
</g>
<!-- Node12 -->
<g id="node12" class="node">
<title>Node12</title>
<g id="a_node12"><a xlink:href="class_storm_1_1_idrs_solver.html" target="_top" xlink:title="The IDR(s) (Induced Dimension Reduction) linear operator equation solver.">
<polygon fill="white" stroke="#666666" points="879.5,-30 780.5,-30 780.5,0 879.5,0 879.5,-30"/>
<text text-anchor="start" x="788.5" y="-18" font-family="Helvetica,sans-Serif" font-size="10.00">Storm::IdrsSolver&lt;</text>
<text text-anchor="middle" x="830" y="-7" font-family="Helvetica,sans-Serif" font-size="10.00"> Vector &gt;</text>
</a>
</g>
</g>
<!-- Node5&#45;&gt;Node12 -->
<g id="edge11" class="edge">
<title>Node5&#45;&gt;Node12</title>
<path fill="none" stroke="#63b8ff" d="M722.12,-90.23C723.79,-89.21 725.42,-88.13 727,-87 748.68,-71.47 741.58,-54.88 763,-39 768.19,-35.15 774.06,-31.87 780.11,-29.08"/>
<polygon fill="#63b8ff" stroke="#63b8ff" points="720.59,-87.08 713.44,-94.89 723.9,-93.25 720.59,-87.08"/>
</g>
<!-- Node7 -->
<g id="node7" class="node">
<title>Node7</title>
<g id="a_node7"><a xlink:href="class_storm_1_1_fgmres_solver.html" target="_top" xlink:title="The FGMRES (Flexible Generalized Minimal Residual) linear operator equation solver.">
<polygon fill="white" stroke="#666666" points="1043,-222 933,-222 933,-192 1043,-192 1043,-222"/>
<text text-anchor="start" x="941" y="-210" font-family="Helvetica,sans-Serif" font-size="10.00">Storm::FgmresSolver</text>
<text text-anchor="middle" x="988" y="-199" font-family="Helvetica,sans-Serif" font-size="10.00">&lt; Vector &gt;</text>
</a>
</g>
</g>
<!-- Node6&#45;&gt;Node7 -->
<g id="edge6" class="edge">
<title>Node6&#45;&gt;Node7</title>
<path fill="none" stroke="#63b8ff" d="M905.82,-207C914.86,-207 923.94,-207 932.6,-207"/>
<polygon fill="#63b8ff" stroke="#63b8ff" points="905.96,-203.5 895.96,-207 905.96,-210.5 905.96,-203.5"/>
</g>
<!-- Node9 -->
<g id="node9" class="node">
<title>Node9</title>
<g id="a_node9"><a xlink:href="class_storm_1_1_gmres_solver.html" target="_top" xlink:title="The GMRES (Generalized Minimal Residual) linear operator equation solver.">
<polygon fill="white" stroke="#666666" points="1041,-174 935,-174 935,-144 1041,-144 1041,-174"/>
<text text-anchor="start" x="943" y="-162" font-family="Helvetica,sans-Serif" font-size="10.00">Storm::GmresSolver</text>
<text text-anchor="middle" x="988" y="-151" font-family="Helvetica,sans-Serif" font-size="10.00">&lt; Vector &gt;</text>
</a>
</g>
</g>
<!-- Node8&#45;&gt;Node9 -->
<g id="edge8" class="edge">
<title>Node8&#45;&gt;Node9</title>
<path fill="none" stroke="#63b8ff" d="M905.8,-159C915.52,-159 925.31,-159 934.57,-159"/>
<polygon fill="#63b8ff" stroke="#63b8ff" points="905.96,-155.5 895.96,-159 905.96,-162.5 905.96,-155.5"/>
</g>
</g>
</svg>
