<?xml version="1.0" encoding="UTF-8" standalone="no"?>
<!DOCTYPE svg PUBLIC "-//W3C//DTD SVG 1.1//EN"
 "http://www.w3.org/Graphics/SVG/1.1/DTD/svg11.dtd">
<!-- Generated by graphviz version 7.0.4 (20221203.1631)
 -->
<!-- Title: Storm::FilteringStreambuf&lt; Char, BeginFilter, EndFilter &gt; Pages: 1 -->
<svg width="242pt" height="104pt"
 viewBox="0.00 0.00 242.00 104.00" xmlns="http://www.w3.org/2000/svg" xmlns:xlink="http://www.w3.org/1999/xlink">
<g id="graph0" class="graph" transform="scale(1 1) rotate(0) translate(4 100)">
<title>Storm::FilteringStreambuf&lt; Char, BeginFilter, EndFilter &gt;</title>
<!-- Node1 -->
<g id="node1" class="node">
<title>Node1</title>
<g id="a_node1"><a xlink:title="Filtering stream buffer.">
<polygon fill="#999999" stroke="#666666" points="193,-30 41,-30 41,0 193,0 193,-30"/>
<text text-anchor="start" x="49" y="-18" font-family="Helvetica,sans-Serif" font-size="10.00">Storm::FilteringStreambuf</text>
<text text-anchor="middle" x="117" y="-7" font-family="Helvetica,sans-Serif" font-size="10.00">&lt; Char, BeginFilter, EndFilter &gt;</text>
</a>
</g>
</g>
<!-- Node2 -->
<g id="node2" class="node">
<title>Node2</title>
<g id="a_node2"><a xlink:title=" ">
<polygon fill="white" stroke="#bfbfbf" points="108,-96 0,-96 0,-66 108,-66 108,-96"/>
<text text-anchor="start" x="8" y="-84" font-family="Helvetica,sans-Serif" font-size="10.00">std::basic_streambuf</text>
<text text-anchor="middle" x="54" y="-73" font-family="Helvetica,sans-Serif" font-size="10.00">&lt; Char &gt;</text>
</a>
</g>
</g>
<!-- Node2&#45;&gt;Node1 -->
<g id="edge1" class="edge">
<title>Node2&#45;&gt;Node1</title>
<path fill="none" stroke="#63b8ff" d="M75.85,-57.81C84.87,-48.64 95.07,-38.28 103.06,-30.16"/>
<polygon fill="#63b8ff" stroke="#63b8ff" points="73.56,-55.14 69.04,-64.72 78.55,-60.05 73.56,-55.14"/>
</g>
<!-- Node3 -->
<g id="node3" class="node">
<title>Node3</title>
<g id="a_node3"><a xlink:href="class_storm_1_1_non_copyable.html" target="_top" xlink:title="Non copyable object interface.">
<polygon fill="white" stroke="#666666" points="234,-90.5 126,-90.5 126,-71.5 234,-71.5 234,-90.5"/>
<text text-anchor="middle" x="180" y="-78.5" font-family="Helvetica,sans-Serif" font-size="10.00">Storm::NonCopyable</text>
</a>
</g>
</g>
<!-- Node3&#45;&gt;Node1 -->
<g id="edge2" class="edge">
<title>Node3&#45;&gt;Node1</title>
<path fill="none" stroke="#63b8ff" d="M163.21,-62.95C153.16,-52.73 140.53,-39.9 131.01,-30.23"/>
<polygon fill="#63b8ff" stroke="#63b8ff" points="160.67,-65.35 170.18,-70.02 165.66,-60.44 160.67,-65.35"/>
</g>
</g>
</svg>
