<?xml version="1.0" encoding="UTF-8" standalone="no"?>
<!DOCTYPE svg PUBLIC "-//W3C//DTD SVG 1.1//EN"
 "http://www.w3.org/Graphics/SVG/1.1/DTD/svg11.dtd">
<!-- Generated by graphviz version 8.0.5 (20230430.1635)
 -->
<!-- Title: Storm::RichardsonSolver&lt; Vector &gt; Pages: 1 -->
<svg width="134pt" height="282pt"
 viewBox="0.00 0.00 133.50 282.00" xmlns="http://www.w3.org/2000/svg" xmlns:xlink="http://www.w3.org/1999/xlink">
<g id="graph0" class="graph" transform="scale(1 1) rotate(0) translate(4 278)">
<title>Storm::RichardsonSolver&lt; Vector &gt;</title>
<!-- Node1 -->
<g id="node1" class="node">
<title>Node1</title>
<g id="a_node1"><a xlink:title="The Richardson iteration linear operator equation solver.">
<polygon fill="#999999" stroke="#666666" points="125.5,-30.5 0,-30.5 0,0 125.5,0 125.5,-30.5"/>
<text text-anchor="start" x="8" y="-17" font-family="Helvetica,sans-Serif" font-size="10.00">Storm::RichardsonSolver</text>
<text text-anchor="middle" x="62.75" y="-5.75" font-family="Helvetica,sans-Serif" font-size="10.00">&lt; Vector &gt;</text>
</a>
</g>
</g>
<!-- Node2 -->
<g id="node2" class="node">
<title>Node2</title>
<g id="a_node2"><a xlink:href="class_storm_1_1_iterative_solver.html" target="_top" xlink:title=" ">
<polygon fill="white" stroke="#666666" points="118.38,-97 7.12,-97 7.12,-66.5 118.38,-66.5 118.38,-97"/>
<text text-anchor="start" x="15.12" y="-83.5" font-family="Helvetica,sans-Serif" font-size="10.00">Storm::IterativeSolver</text>
<text text-anchor="middle" x="62.75" y="-72.25" font-family="Helvetica,sans-Serif" font-size="10.00">&lt; Vector &gt;</text>
</a>
</g>
</g>
<!-- Node2&#45;&gt;Node1 -->
<g id="edge1" class="edge">
<title>Node2&#45;&gt;Node1</title>
<path fill="none" stroke="#63b8ff" d="M62.75,-55.38C62.75,-47.05 62.75,-38.08 62.75,-30.83"/>
<polygon fill="#63b8ff" stroke="#63b8ff" points="59.25,-55.11 62.75,-65.11 66.25,-55.11 59.25,-55.11"/>
</g>
<!-- Node3 -->
<g id="node3" class="node">
<title>Node3</title>
<g id="a_node3"><a xlink:href="class_storm_1_1_solver.html" target="_top" xlink:title="Abstract operator equation solver. &#45;=&#45;=&#45;=&#45;=&#45;=&#45;=&#45;=&#45;=&#45;=&#45;=&#45;=&#45;=&#45;=&#45;=&#45;=&#45;=&#45;=&#45;=&#45;=&#45;=&#45;=&#45;=&#45;=&#45;=&#45;=&#45;=&#45;=&#45;=&#45;=&#45;=&#45;=&#45;=&#45; ...">
<polygon fill="white" stroke="#666666" points="124.75,-163.5 0.75,-163.5 0.75,-133 124.75,-133 124.75,-163.5"/>
<text text-anchor="start" x="8.75" y="-150" font-family="Helvetica,sans-Serif" font-size="10.00">Storm::Solver&lt; InVector,</text>
<text text-anchor="middle" x="62.75" y="-138.75" font-family="Helvetica,sans-Serif" font-size="10.00"> OutVector &gt;</text>
</a>
</g>
</g>
<!-- Node3&#45;&gt;Node2 -->
<g id="edge2" class="edge">
<title>Node3&#45;&gt;Node2</title>
<path fill="none" stroke="#63b8ff" d="M62.75,-121.88C62.75,-113.55 62.75,-104.58 62.75,-97.33"/>
<polygon fill="#63b8ff" stroke="#63b8ff" points="59.25,-121.61 62.75,-131.61 66.25,-121.61 59.25,-121.61"/>
</g>
<!-- Node4 -->
<g id="node4" class="node">
<title>Node4</title>
<g id="a_node4"><a xlink:href="class_storm_1_1_object.html" target="_top" xlink:title="A base object.">
<polygon fill="white" stroke="#666666" points="101.12,-218.75 24.38,-218.75 24.38,-199.5 101.12,-199.5 101.12,-218.75"/>
<text text-anchor="middle" x="62.75" y="-205.25" font-family="Helvetica,sans-Serif" font-size="10.00">Storm::Object</text>
</a>
</g>
</g>
<!-- Node4&#45;&gt;Node3 -->
<g id="edge3" class="edge">
<title>Node4&#45;&gt;Node3</title>
<path fill="none" stroke="#63b8ff" d="M62.75,-188.2C62.75,-180.2 62.75,-171.15 62.75,-163.78"/>
<polygon fill="#63b8ff" stroke="#63b8ff" points="59.25,-188.18 62.75,-198.18 66.25,-188.18 59.25,-188.18"/>
</g>
<!-- Node5 -->
<g id="node5" class="node">
<title>Node5</title>
<g id="a_node5"><a xlink:href="class_storm_1_1_non_copyable.html" target="_top" xlink:title="Non copyable object interface.">
<polygon fill="white" stroke="#666666" points="118,-274 7.5,-274 7.5,-254.75 118,-254.75 118,-274"/>
<text text-anchor="middle" x="62.75" y="-260.5" font-family="Helvetica,sans-Serif" font-size="10.00">detail_::noncopyable_</text>
</a>
</g>
</g>
<!-- Node5&#45;&gt;Node4 -->
<g id="edge4" class="edge">
<title>Node5&#45;&gt;Node4</title>
<path fill="none" stroke="#63b8ff" d="M62.75,-243.71C62.75,-235.27 62.75,-225.83 62.75,-219.11"/>
<polygon fill="#63b8ff" stroke="#63b8ff" points="59.25,-243.58 62.75,-253.58 66.25,-243.58 59.25,-243.58"/>
</g>
</g>
</svg>
