<?xml version="1.0" encoding="UTF-8" standalone="no"?>
<!DOCTYPE svg PUBLIC "-//W3C//DTD SVG 1.1//EN"
 "http://www.w3.org/Graphics/SVG/1.1/DTD/svg11.dtd">
<!-- Generated by graphviz version 8.1.0 (20230707.0739)
 -->
<!-- Title: Storm::Vulture::gl::Texture Pages: 1 -->
<svg width="373pt" height="147pt"
 viewBox="0.00 0.00 372.50 147.12" xmlns="http://www.w3.org/2000/svg" xmlns:xlink="http://www.w3.org/1999/xlink">
<g id="graph0" class="graph" transform="scale(1 1) rotate(0) translate(4 143.12)">
<title>Storm::Vulture::gl::Texture</title>
<!-- Node1 -->
<g id="Node000001" class="node">
<title>Node1</title>
<g id="a_Node000001"><a xlink:title="OpenGL texture.">
<polygon fill="#999999" stroke="#666666" points="203.75,-79.5 111.25,-79.5 111.25,-49 203.75,-49 203.75,-79.5"/>
<text text-anchor="start" x="119.25" y="-66" font-family="Helvetica,sans-Serif" font-size="10.00">Storm::Vulture::gl</text>
<text text-anchor="middle" x="157.5" y="-54.75" font-family="Helvetica,sans-Serif" font-size="10.00">::Texture</text>
</a>
</g>
</g>
<!-- Node3 -->
<g id="Node000003" class="node">
<title>Node3</title>
<g id="a_Node000003"><a xlink:href="class_storm_1_1_vulture_1_1gl_1_1_multisampled_texture2_d.html" target="_top" xlink:title="OpenGL multisampled 2D texture.">
<polygon fill="white" stroke="#666666" points="364.5,-139.12 239.75,-139.12 239.75,-97.38 364.5,-97.38 364.5,-139.12"/>
<text text-anchor="start" x="247.75" y="-125.62" font-family="Helvetica,sans-Serif" font-size="10.00">Storm::Vulture::gl</text>
<text text-anchor="start" x="247.75" y="-114.38" font-family="Helvetica,sans-Serif" font-size="10.00">::MultisampledTexture2D</text>
<text text-anchor="middle" x="302.12" y="-103.12" font-family="Helvetica,sans-Serif" font-size="10.00">&lt; Pixel &gt;</text>
</a>
</g>
</g>
<!-- Node1&#45;&gt;Node3 -->
<g id="edge2_Node000001_Node000003" class="edge">
<title>Node1&#45;&gt;Node3</title>
<g id="a_edge2_Node000001_Node000003"><a xlink:title=" ">
<path fill="none" stroke="#63b8ff" d="M209.92,-83.72C221.26,-88.01 233.33,-92.58 244.84,-96.94"/>
<polygon fill="#63b8ff" stroke="#63b8ff" points="211.34,-80.14 200.75,-79.87 208.87,-86.68 211.34,-80.14"/>
</a>
</g>
</g>
<!-- Node4 -->
<g id="Node000004" class="node">
<title>Node4</title>
<g id="a_Node000004"><a xlink:href="class_storm_1_1_vulture_1_1gl_1_1_texture2_d.html" target="_top" xlink:title="OpenGL 2D texture.">
<polygon fill="white" stroke="#666666" points="355.5,-79.5 248.75,-79.5 248.75,-49 355.5,-49 355.5,-79.5"/>
<text text-anchor="start" x="256.75" y="-66" font-family="Helvetica,sans-Serif" font-size="10.00">Storm::Vulture::gl</text>
<text text-anchor="middle" x="302.12" y="-54.75" font-family="Helvetica,sans-Serif" font-size="10.00">::Texture2D&lt; Pixel &gt;</text>
</a>
</g>
</g>
<!-- Node1&#45;&gt;Node4 -->
<g id="edge3_Node000001_Node000004" class="edge">
<title>Node1&#45;&gt;Node4</title>
<g id="a_edge3_Node000001_Node000004"><a xlink:title=" ">
<path fill="none" stroke="#63b8ff" d="M214.85,-64.25C225.88,-64.25 237.42,-64.25 248.34,-64.25"/>
<polygon fill="#63b8ff" stroke="#63b8ff" points="215.02,-60.75 205.02,-64.25 215.02,-67.75 215.02,-60.75"/>
</a>
</g>
</g>
<!-- Node5 -->
<g id="Node000005" class="node">
<title>Node5</title>
<g id="a_Node000005"><a xlink:href="class_storm_1_1_vulture_1_1gl_1_1_texture_buffer.html" target="_top" xlink:title="OpenGL texture buffer.">
<polygon fill="white" stroke="#666666" points="348.38,-30.5 255.88,-30.5 255.88,0 348.38,0 348.38,-30.5"/>
<text text-anchor="start" x="263.88" y="-17" font-family="Helvetica,sans-Serif" font-size="10.00">Storm::Vulture::gl</text>
<text text-anchor="middle" x="302.12" y="-5.75" font-family="Helvetica,sans-Serif" font-size="10.00">::TextureBuffer</text>
</a>
</g>
</g>
<!-- Node1&#45;&gt;Node5 -->
<g id="edge4_Node000001_Node000005" class="edge">
<title>Node1&#45;&gt;Node5</title>
<g id="a_edge4_Node000001_Node000005"><a xlink:title=" ">
<path fill="none" stroke="#63b8ff" d="M214.28,-45.09C227.95,-40.39 242.42,-35.42 255.55,-30.91"/>
<polygon fill="#63b8ff" stroke="#63b8ff" points="213.34,-42.05 205.02,-48.61 215.61,-48.67 213.34,-42.05"/>
</a>
</g>
</g>
<!-- Node2 -->
<g id="Node000002" class="node">
<title>Node2</title>
<g id="a_Node000002"><a xlink:title=" ">
<polygon fill="white" stroke="#bfbfbf" points="75.25,-73.88 0,-73.88 0,-54.62 75.25,-54.62 75.25,-73.88"/>
<text text-anchor="middle" x="37.62" y="-60.38" font-family="Helvetica,sans-Serif" font-size="10.00">NonCopyable</text>
</a>
</g>
</g>
<!-- Node2&#45;&gt;Node1 -->
<g id="edge1_Node000001_Node000002" class="edge">
<title>Node2&#45;&gt;Node1</title>
<g id="a_edge1_Node000001_Node000002"><a xlink:title=" ">
<path fill="none" stroke="#8b1a1a" d="M86.41,-64.25C94.51,-64.25 102.91,-64.25 110.95,-64.25"/>
<polygon fill="#8b1a1a" stroke="#8b1a1a" points="86.6,-60.75 76.6,-64.25 86.6,-67.75 86.6,-60.75"/>
</a>
</g>
</g>
</g>
</svg>
