<?xml version="1.0" encoding="UTF-8" standalone="no"?>
<!DOCTYPE svg PUBLIC "-//W3C//DTD SVG 1.1//EN"
 "http://www.w3.org/Graphics/SVG/1.1/DTD/svg11.dtd">
<!-- Generated by graphviz version 7.0.2 (20221119.0110)
 -->
<!-- Title: Storm::Feathers::iConvectionScheme Pages: 1 -->
<svg width="588pt" height="98pt"
 viewBox="0.00 0.00 588.00 97.50" xmlns="http://www.w3.org/2000/svg" xmlns:xlink="http://www.w3.org/1999/xlink">
<g id="graph0" class="graph" transform="scale(1 1) rotate(0) translate(4 93.5)">
<title>Storm::Feathers::iConvectionScheme</title>
<!-- Node1 -->
<g id="node1" class="node">
<title>Node1</title>
<g id="a_node1"><a xlink:title=" ">
<polygon fill="#999999" stroke="#666666" points="335,-57 190,-57 190,-27 335,-27 335,-57"/>
<text text-anchor="start" x="198" y="-45" font-family="Helvetica,sans-Serif" font-size="10.00">Storm::Feathers::iConvection</text>
<text text-anchor="middle" x="262.5" y="-34" font-family="Helvetica,sans-Serif" font-size="10.00">Scheme</text>
</a>
</g>
</g>
<!-- Node3 -->
<g id="node3" class="node">
<title>Node3</title>
<g id="a_node3"><a xlink:href="class_storm_1_1_feathers_1_1_linear_upwind_convection_scheme.html" target="_top" xlink:title="Piecewise&#45;linear upwind convection scheme.">
<polygon fill="white" stroke="#666666" points="580,-89.5 371,-89.5 371,-48.5 580,-48.5 580,-89.5"/>
<text text-anchor="start" x="379" y="-77.5" font-family="Helvetica,sans-Serif" font-size="10.00">Storm::Feathers::LinearUpwind</text>
<text text-anchor="start" x="379" y="-66.5" font-family="Helvetica,sans-Serif" font-size="10.00">ConvectionScheme&lt; Mesh, FluxScheme,</text>
<text text-anchor="middle" x="475.5" y="-55.5" font-family="Helvetica,sans-Serif" font-size="10.00"> GradientScheme, GradientLimiterScheme &gt;</text>
</a>
</g>
</g>
<!-- Node1&#45;&gt;Node3 -->
<g id="edge2" class="edge">
<title>Node1&#45;&gt;Node3</title>
<path fill="none" stroke="#63b8ff" d="M346.41,-52.61C354.42,-53.63 362.62,-54.68 370.8,-55.73"/>
<polygon fill="#63b8ff" stroke="#63b8ff" points="347.09,-49.17 336.73,-51.37 346.21,-56.11 347.09,-49.17"/>
</g>
<!-- Node4 -->
<g id="node4" class="node">
<title>Node4</title>
<g id="a_node4"><a xlink:href="class_storm_1_1_feathers_1_1_upwind_convection_scheme.html" target="_top" xlink:title="Piecewise&#45;constant upwind convection scheme.">
<polygon fill="white" stroke="#666666" points="563.5,-30 387.5,-30 387.5,0 563.5,0 563.5,-30"/>
<text text-anchor="start" x="395.5" y="-18" font-family="Helvetica,sans-Serif" font-size="10.00">Storm::Feathers::UpwindConvection</text>
<text text-anchor="middle" x="475.5" y="-7" font-family="Helvetica,sans-Serif" font-size="10.00">Scheme&lt; Mesh, FluxScheme &gt;</text>
</a>
</g>
</g>
<!-- Node1&#45;&gt;Node4 -->
<g id="edge3" class="edge">
<title>Node1&#45;&gt;Node4</title>
<path fill="none" stroke="#63b8ff" d="M346.37,-31.4C359.79,-29.68 373.73,-27.89 387.26,-26.16"/>
<polygon fill="#63b8ff" stroke="#63b8ff" points="346.21,-27.89 336.73,-32.63 347.09,-34.83 346.21,-27.89"/>
</g>
<!-- Node2 -->
<g id="node2" class="node">
<title>Node2</title>
<g id="a_node2"><a xlink:title=" ">
<polygon fill="white" stroke="#bfbfbf" points="154,-51.5 0,-51.5 0,-32.5 154,-32.5 154,-51.5"/>
<text text-anchor="middle" x="77" y="-39.5" font-family="Helvetica,sans-Serif" font-size="10.00">tObject&lt; iConvectionScheme &gt;</text>
</a>
</g>
</g>
<!-- Node2&#45;&gt;Node1 -->
<g id="edge1" class="edge">
<title>Node2&#45;&gt;Node1</title>
<path fill="none" stroke="#63b8ff" d="M166,-42C173.88,-42 181.81,-42 189.54,-42"/>
<polygon fill="#63b8ff" stroke="#63b8ff" points="166.01,-38.5 156.01,-42 166.01,-45.5 166.01,-38.5"/>
</g>
</g>
</svg>
