<?xml version="1.0" encoding="UTF-8" standalone="no"?>
<!DOCTYPE svg PUBLIC "-//W3C//DTD SVG 1.1//EN"
 "http://www.w3.org/Graphics/SVG/1.1/DTD/svg11.dtd">
<!-- Generated by graphviz version 8.1.0 (20230707.0739)
 -->
<!-- Title: Storm::CgsSolver&lt; Vector &gt; Pages: 1 -->
<svg width="154pt" height="271pt"
 viewBox="0.00 0.00 153.75 270.75" xmlns="http://www.w3.org/2000/svg" xmlns:xlink="http://www.w3.org/1999/xlink">
<g id="graph0" class="graph" transform="scale(1 1) rotate(0) translate(4 266.75)">
<title>Storm::CgsSolver&lt; Vector &gt;</title>
<!-- Node1 -->
<g id="Node000001" class="node">
<title>Node1</title>
<g id="a_Node000001"><a xlink:title="The CGS (Conjugate Gradients Squared) linear operator equation solver.">
<polygon fill="#999999" stroke="#666666" points="143.12,-19.25 2.62,-19.25 2.62,0 143.12,0 143.12,-19.25"/>
<text text-anchor="middle" x="72.88" y="-5.75" font-family="Helvetica,sans-Serif" font-size="10.00">Storm::CgsSolver&lt; Vector &gt;</text>
</a>
</g>
</g>
<!-- Node2 -->
<g id="Node000002" class="node">
<title>Node2</title>
<g id="a_Node000002"><a xlink:href="class_storm_1_1_iterative_solver.html" target="_top" xlink:title=" ">
<polygon fill="white" stroke="#666666" points="128.5,-85.75 17.25,-85.75 17.25,-55.25 128.5,-55.25 128.5,-85.75"/>
<text text-anchor="start" x="25.25" y="-72.25" font-family="Helvetica,sans-Serif" font-size="10.00">Storm::IterativeSolver</text>
<text text-anchor="middle" x="72.88" y="-61" font-family="Helvetica,sans-Serif" font-size="10.00">&lt; Vector &gt;</text>
</a>
</g>
</g>
<!-- Node2&#45;&gt;Node1 -->
<g id="edge1_Node000001_Node000002" class="edge">
<title>Node2&#45;&gt;Node1</title>
<g id="a_edge1_Node000001_Node000002"><a xlink:title=" ">
<path fill="none" stroke="#63b8ff" d="M72.88,-44.07C72.88,-35.39 72.88,-26.23 72.88,-19.7"/>
<polygon fill="#63b8ff" stroke="#63b8ff" points="69.38,-43.95 72.88,-53.95 76.38,-43.95 69.38,-43.95"/>
</a>
</g>
</g>
<!-- Node3 -->
<g id="Node000003" class="node">
<title>Node3</title>
<g id="a_Node000003"><a xlink:href="class_storm_1_1_solver.html" target="_top" xlink:title="Abstract operator equation solver. &#45;=&#45;=&#45;=&#45;=&#45;=&#45;=&#45;=&#45;=&#45;=&#45;=&#45;=&#45;=&#45;=&#45;=&#45;=&#45;=&#45;=&#45;=&#45;=&#45;=&#45;=&#45;=&#45;=&#45;=&#45;=&#45;=&#45;=&#45;=&#45;=&#45;=&#45;=&#45;=&#45; ...">
<polygon fill="white" stroke="#666666" points="134.88,-152.25 10.88,-152.25 10.88,-121.75 134.88,-121.75 134.88,-152.25"/>
<text text-anchor="start" x="18.88" y="-138.75" font-family="Helvetica,sans-Serif" font-size="10.00">Storm::Solver&lt; InVector,</text>
<text text-anchor="middle" x="72.88" y="-127.5" font-family="Helvetica,sans-Serif" font-size="10.00"> OutVector &gt;</text>
</a>
</g>
</g>
<!-- Node3&#45;&gt;Node2 -->
<g id="edge2_Node000002_Node000003" class="edge">
<title>Node3&#45;&gt;Node2</title>
<g id="a_edge2_Node000002_Node000003"><a xlink:title=" ">
<path fill="none" stroke="#63b8ff" d="M72.88,-110.63C72.88,-102.3 72.88,-93.33 72.88,-86.08"/>
<polygon fill="#63b8ff" stroke="#63b8ff" points="69.38,-110.36 72.88,-120.36 76.38,-110.36 69.38,-110.36"/>
</a>
</g>
</g>
<!-- Node4 -->
<g id="Node000004" class="node">
<title>Node4</title>
<g id="a_Node000004"><a xlink:href="class_storm_1_1_object.html" target="_top" xlink:title="A base object.">
<polygon fill="white" stroke="#666666" points="111.25,-207.5 34.5,-207.5 34.5,-188.25 111.25,-188.25 111.25,-207.5"/>
<text text-anchor="middle" x="72.88" y="-194" font-family="Helvetica,sans-Serif" font-size="10.00">Storm::Object</text>
</a>
</g>
</g>
<!-- Node4&#45;&gt;Node3 -->
<g id="edge3_Node000003_Node000004" class="edge">
<title>Node4&#45;&gt;Node3</title>
<g id="a_edge3_Node000003_Node000004"><a xlink:title=" ">
<path fill="none" stroke="#63b8ff" d="M72.88,-176.95C72.88,-168.95 72.88,-159.9 72.88,-152.53"/>
<polygon fill="#63b8ff" stroke="#63b8ff" points="69.38,-176.93 72.88,-186.93 76.38,-176.93 69.38,-176.93"/>
</a>
</g>
</g>
<!-- Node5 -->
<g id="Node000005" class="node">
<title>Node5</title>
<g id="a_Node000005"><a xlink:href="class_storm_1_1_non_copyable_interface.html" target="_top" xlink:title="Non copyable object interface.">
<polygon fill="white" stroke="#666666" points="145.75,-262.75 0,-262.75 0,-243.5 145.75,-243.5 145.75,-262.75"/>
<text text-anchor="middle" x="72.88" y="-249.25" font-family="Helvetica,sans-Serif" font-size="10.00">Storm::NonCopyableInterface</text>
</a>
</g>
</g>
<!-- Node5&#45;&gt;Node4 -->
<g id="edge4_Node000004_Node000005" class="edge">
<title>Node5&#45;&gt;Node4</title>
<g id="a_edge4_Node000004_Node000005"><a xlink:title=" ">
<path fill="none" stroke="#63b8ff" d="M72.88,-232.46C72.88,-224.02 72.88,-214.58 72.88,-207.86"/>
<polygon fill="#63b8ff" stroke="#63b8ff" points="69.38,-232.33 72.88,-242.33 76.38,-232.33 69.38,-232.33"/>
</a>
</g>
</g>
</g>
</svg>
