<?xml version="1.0" encoding="UTF-8" standalone="no"?>
<!DOCTYPE svg PUBLIC "-//W3C//DTD SVG 1.1//EN"
 "http://www.w3.org/Graphics/SVG/1.1/DTD/svg11.dtd">
<!-- Generated by graphviz version 7.0.6 (20230106.0513)
 -->
<!-- Title: Storm::MatrixOwningView&lt; Matrix &gt; Pages: 1 -->
<svg width="296pt" height="104pt"
 viewBox="0.00 0.00 295.50 104.00" xmlns="http://www.w3.org/2000/svg" xmlns:xlink="http://www.w3.org/1999/xlink">
<g id="graph0" class="graph" transform="scale(1 1) rotate(0) translate(4 100)">
<title>Storm::MatrixOwningView&lt; Matrix &gt;</title>
<!-- Node1 -->
<g id="node1" class="node">
<title>Node1</title>
<g id="a_node1"><a xlink:title="Matrix owning view. Matrix should be noexcept&#45;movable.">
<polygon fill="#999999" stroke="#666666" points="222,-30 91,-30 91,0 222,0 222,-30"/>
<text text-anchor="start" x="99" y="-18" font-family="Helvetica,sans-Serif" font-size="10.00">Storm::MatrixOwningView</text>
<text text-anchor="middle" x="156.5" y="-7" font-family="Helvetica,sans-Serif" font-size="10.00">&lt; Matrix &gt;</text>
</a>
</g>
</g>
<!-- Node2 -->
<g id="node2" class="node">
<title>Node2</title>
<g id="a_node2"><a xlink:href="class_storm_1_1_matrix_view_interface.html" target="_top" xlink:title=" ">
<polygon fill="white" stroke="#666666" points="161,-96 0,-96 0,-66 161,-66 161,-96"/>
<text text-anchor="start" x="8" y="-84" font-family="Helvetica,sans-Serif" font-size="10.00">Storm::MatrixViewInterface</text>
<text text-anchor="middle" x="80.5" y="-73" font-family="Helvetica,sans-Serif" font-size="10.00">&lt; MatrixOwningView&lt; Matrix &gt; &gt;</text>
</a>
</g>
</g>
<!-- Node2&#45;&gt;Node1 -->
<g id="edge1" class="edge">
<title>Node2&#45;&gt;Node1</title>
<path fill="none" stroke="#63b8ff" d="M106.12,-58.42C117.09,-49.18 129.61,-38.65 139.42,-30.39"/>
<polygon fill="#63b8ff" stroke="#63b8ff" points="103.92,-55.7 98.52,-64.82 108.43,-61.06 103.92,-55.7"/>
</g>
<!-- Node3 -->
<g id="node3" class="node">
<title>Node3</title>
<g id="a_node3"><a xlink:href="class_storm_1_1_non_copyable.html" target="_top" xlink:title="Non copyable object interface.">
<polygon fill="white" stroke="#666666" points="287.5,-90.5 179.5,-90.5 179.5,-71.5 287.5,-71.5 287.5,-90.5"/>
<text text-anchor="middle" x="233.5" y="-78.5" font-family="Helvetica,sans-Serif" font-size="10.00">Storm::NonCopyable</text>
</a>
</g>
</g>
<!-- Node3&#45;&gt;Node1 -->
<g id="edge2" class="edge">
<title>Node3&#45;&gt;Node1</title>
<path fill="none" stroke="#63b8ff" d="M214.15,-63.92C201.79,-53.64 185.89,-40.43 173.92,-30.48"/>
<polygon fill="#63b8ff" stroke="#63b8ff" points="211.7,-66.43 221.63,-70.13 216.18,-61.05 211.7,-66.43"/>
</g>
</g>
</svg>
