<?xml version="1.0" encoding="UTF-8" standalone="no"?>
<!DOCTYPE svg PUBLIC "-//W3C//DTD SVG 1.1//EN"
 "http://www.w3.org/Graphics/SVG/1.1/DTD/svg11.dtd">
<!-- Generated by graphviz version 8.1.0 (20230707.0739)
 -->
<!-- Title: Storm::Feathers::MhdFvBcPT&lt; MhdPhysicsT &gt; Pages: 1 -->
<svg width="475pt" height="137pt"
 viewBox="0.00 0.00 475.25 136.50" xmlns="http://www.w3.org/2000/svg" xmlns:xlink="http://www.w3.org/1999/xlink">
<g id="graph0" class="graph" transform="scale(1 1) rotate(0) translate(4 132.5)">
<title>Storm::Feathers::MhdFvBcPT&lt; MhdPhysicsT &gt;</title>
<!-- Node1 -->
<g id="Node000001" class="node">
<title>Node1</title>
<g id="a_Node000001"><a xlink:title="Abstract boundary condition.">
<polygon fill="#999999" stroke="#666666" points="296,-79.5 161.5,-79.5 161.5,-49 296,-49 296,-79.5"/>
<text text-anchor="start" x="169.5" y="-66" font-family="Helvetica,sans-Serif" font-size="10.00">Storm::Feathers::MhdFvBc</text>
<text text-anchor="middle" x="228.75" y="-54.75" font-family="Helvetica,sans-Serif" font-size="10.00">PT&lt; MhdPhysicsT &gt;</text>
</a>
</g>
</g>
<!-- Node3 -->
<g id="Node000003" class="node">
<title>Node3</title>
<g id="a_Node000003"><a xlink:href="class_storm_1_1_feathers_1_1_mhd_fv_bc_far_field_t.html" target="_top" xlink:title="Far field boundary condition. Sets ghost state values to infinity state.">
<polygon fill="white" stroke="#666666" points="467.25,-128.5 332,-128.5 332,-98 467.25,-98 467.25,-128.5"/>
<text text-anchor="start" x="340" y="-115" font-family="Helvetica,sans-Serif" font-size="10.00">Storm::Feathers::MhdFvBc</text>
<text text-anchor="middle" x="399.62" y="-103.75" font-family="Helvetica,sans-Serif" font-size="10.00">FarFieldT&lt; MhdPhysicsT &gt;</text>
</a>
</g>
</g>
<!-- Node1&#45;&gt;Node3 -->
<g id="edge2_Node000001_Node000003" class="edge">
<title>Node1&#45;&gt;Node3</title>
<g id="a_edge2_Node000001_Node000003"><a xlink:title=" ">
<path fill="none" stroke="#63b8ff" d="M293.85,-82.85C310.5,-87.68 328.28,-92.84 344.37,-97.51"/>
<polygon fill="#63b8ff" stroke="#63b8ff" points="295.23,-79.31 284.65,-79.89 293.28,-86.04 295.23,-79.31"/>
</a>
</g>
</g>
<!-- Node4 -->
<g id="Node000004" class="node">
<title>Node4</title>
<g id="a_Node000004"><a xlink:href="class_storm_1_1_feathers_1_1_mhd_fv_bc_no_slip_t.html" target="_top" xlink:title="No&#45;slip wall boundary condition.">
<polygon fill="white" stroke="#666666" points="466.88,-79.5 332.38,-79.5 332.38,-49 466.88,-49 466.88,-79.5"/>
<text text-anchor="start" x="340.38" y="-66" font-family="Helvetica,sans-Serif" font-size="10.00">Storm::Feathers::MhdFvBc</text>
<text text-anchor="middle" x="399.62" y="-54.75" font-family="Helvetica,sans-Serif" font-size="10.00">NoSlipT&lt; MhdPhysicsT &gt;</text>
</a>
</g>
</g>
<!-- Node1&#45;&gt;Node4 -->
<g id="edge3_Node000001_Node000004" class="edge">
<title>Node1&#45;&gt;Node4</title>
<g id="a_edge3_Node000001_Node000004"><a xlink:title=" ">
<path fill="none" stroke="#63b8ff" d="M307.3,-64.25C315.58,-64.25 323.95,-64.25 332.09,-64.25"/>
<polygon fill="#63b8ff" stroke="#63b8ff" points="307.49,-60.75 297.49,-64.25 307.49,-67.75 307.49,-60.75"/>
</a>
</g>
</g>
<!-- Node5 -->
<g id="Node000005" class="node">
<title>Node5</title>
<g id="a_Node000005"><a xlink:href="class_storm_1_1_feathers_1_1_mhd_fv_bc_slip_t.html" target="_top" xlink:title="Slip wall boundary condition.">
<polygon fill="white" stroke="#666666" points="466.88,-30.5 332.38,-30.5 332.38,0 466.88,0 466.88,-30.5"/>
<text text-anchor="start" x="340.38" y="-17" font-family="Helvetica,sans-Serif" font-size="10.00">Storm::Feathers::MhdFvBc</text>
<text text-anchor="middle" x="399.62" y="-5.75" font-family="Helvetica,sans-Serif" font-size="10.00">SlipT&lt; MhdPhysicsT &gt;</text>
</a>
</g>
</g>
<!-- Node1&#45;&gt;Node5 -->
<g id="edge4_Node000001_Node000005" class="edge">
<title>Node1&#45;&gt;Node5</title>
<g id="a_edge4_Node000001_Node000005"><a xlink:title=" ">
<path fill="none" stroke="#63b8ff" d="M293.85,-45.65C310.5,-40.82 328.28,-35.66 344.37,-30.99"/>
<polygon fill="#63b8ff" stroke="#63b8ff" points="293.28,-42.46 284.65,-48.61 295.23,-49.19 293.28,-42.46"/>
</a>
</g>
</g>
<!-- Node2 -->
<g id="Node000002" class="node">
<title>Node2</title>
<g id="a_Node000002"><a xlink:title=" ">
<polygon fill="white" stroke="#bfbfbf" points="125.5,-85.12 0,-85.12 0,-43.38 125.5,-43.38 125.5,-85.12"/>
<text text-anchor="start" x="8" y="-71.62" font-family="Helvetica,sans-Serif" font-size="10.00">std::enable_shared</text>
<text text-anchor="start" x="8" y="-60.38" font-family="Helvetica,sans-Serif" font-size="10.00">_from_this&lt; MhdFvBcPT</text>
<text text-anchor="middle" x="62.75" y="-49.12" font-family="Helvetica,sans-Serif" font-size="10.00">&lt; MhdPhysicsT &gt; &gt;</text>
</a>
</g>
</g>
<!-- Node2&#45;&gt;Node1 -->
<g id="edge1_Node000001_Node000002" class="edge">
<title>Node2&#45;&gt;Node1</title>
<g id="a_edge1_Node000001_Node000002"><a xlink:title=" ">
<path fill="none" stroke="#63b8ff" d="M136.69,-64.25C144.78,-64.25 152.99,-64.25 161.01,-64.25"/>
<polygon fill="#63b8ff" stroke="#63b8ff" points="136.75,-60.75 126.75,-64.25 136.75,-67.75 136.75,-60.75"/>
</a>
</g>
</g>
</g>
</svg>
