<?xml version="1.0" encoding="UTF-8" standalone="no"?>
<!DOCTYPE svg PUBLIC "-//W3C//DTD SVG 1.1//EN"
 "http://www.w3.org/Graphics/SVG/1.1/DTD/svg11.dtd">
<!-- Generated by graphviz version 7.1.0 (20230121.1956)
 -->
<!-- Title: Storm::FgmresSolver&lt; Vector &gt; Pages: 1 -->
<svg width="138pt" height="412pt"
 viewBox="0.00 0.00 138.00 412.00" xmlns="http://www.w3.org/2000/svg" xmlns:xlink="http://www.w3.org/1999/xlink">
<g id="graph0" class="graph" transform="scale(1 1) rotate(0) translate(4 408)">
<title>Storm::FgmresSolver&lt; Vector &gt;</title>
<!-- Node1 -->
<g id="node1" class="node">
<title>Node1</title>
<g id="a_node1"><a xlink:title="The FGMRES (Flexible Generalized Minimal Residual) linear operator equation solver.">
<polygon fill="#999999" stroke="#666666" points="120,-30 10,-30 10,0 120,0 120,-30"/>
<text text-anchor="start" x="18" y="-18" font-family="Helvetica,sans-Serif" font-size="10.00">Storm::FgmresSolver</text>
<text text-anchor="middle" x="65" y="-7" font-family="Helvetica,sans-Serif" font-size="10.00">&lt; Vector &gt;</text>
</a>
</g>
</g>
<!-- Node2 -->
<g id="node2" class="node">
<title>Node2</title>
<g id="a_node2"><a xlink:href="class_storm_1_1_base_gmres_solver.html" target="_top" xlink:title=" ">
<polygon fill="white" stroke="#666666" points="129,-96 1,-96 1,-66 129,-66 129,-96"/>
<text text-anchor="start" x="9" y="-84" font-family="Helvetica,sans-Serif" font-size="10.00">Storm::BaseGmresSolver</text>
<text text-anchor="middle" x="65" y="-73" font-family="Helvetica,sans-Serif" font-size="10.00">&lt; Vector, true &gt;</text>
</a>
</g>
</g>
<!-- Node2&#45;&gt;Node1 -->
<g id="edge1" class="edge">
<title>Node2&#45;&gt;Node1</title>
<path fill="none" stroke="#63b8ff" d="M65,-54.39C65,-46.13 65,-37.28 65,-30.16"/>
<polygon fill="#63b8ff" stroke="#63b8ff" points="61.5,-54.28 65,-64.28 68.5,-54.28 61.5,-54.28"/>
</g>
<!-- Node3 -->
<g id="node3" class="node">
<title>Node3</title>
<g id="a_node3"><a xlink:href="class_storm_1_1_inner_outer_iterative_solver.html" target="_top" xlink:title=" ">
<polygon fill="white" stroke="#666666" points="130,-162 0,-162 0,-132 130,-132 130,-162"/>
<text text-anchor="start" x="8" y="-150" font-family="Helvetica,sans-Serif" font-size="10.00">Storm::InnerOuterIterative</text>
<text text-anchor="middle" x="65" y="-139" font-family="Helvetica,sans-Serif" font-size="10.00">Solver&lt; Vector &gt;</text>
</a>
</g>
</g>
<!-- Node3&#45;&gt;Node2 -->
<g id="edge2" class="edge">
<title>Node3&#45;&gt;Node2</title>
<path fill="none" stroke="#63b8ff" d="M65,-120.39C65,-112.13 65,-103.28 65,-96.16"/>
<polygon fill="#63b8ff" stroke="#63b8ff" points="61.5,-120.28 65,-130.28 68.5,-120.28 61.5,-120.28"/>
</g>
<!-- Node4 -->
<g id="node4" class="node">
<title>Node4</title>
<g id="a_node4"><a xlink:href="class_storm_1_1_iterative_solver.html" target="_top" xlink:title="Abstract operator equation iterative solver. &#45;=&#45;=&#45;=&#45;=&#45;=&#45;=&#45;=&#45;=&#45;=&#45;=&#45;=&#45;=&#45;=&#45;=&#45;=&#45;=&#45;=&#45;=&#45;=&#45;=&#45;=&#45;=&#45;=&#45;=&#45;=&#45;=&#45;=&#45;=...">
<polygon fill="white" stroke="#666666" points="125.5,-228 4.5,-228 4.5,-198 125.5,-198 125.5,-228"/>
<text text-anchor="start" x="12.5" y="-216" font-family="Helvetica,sans-Serif" font-size="10.00">Storm::IterativeSolver</text>
<text text-anchor="middle" x="65" y="-205" font-family="Helvetica,sans-Serif" font-size="10.00">&lt; InVector, OutVector &gt;</text>
</a>
</g>
</g>
<!-- Node4&#45;&gt;Node3 -->
<g id="edge3" class="edge">
<title>Node4&#45;&gt;Node3</title>
<path fill="none" stroke="#63b8ff" d="M65,-186.39C65,-178.13 65,-169.28 65,-162.16"/>
<polygon fill="#63b8ff" stroke="#63b8ff" points="61.5,-186.28 65,-196.28 68.5,-186.28 61.5,-186.28"/>
</g>
<!-- Node5 -->
<g id="node5" class="node">
<title>Node5</title>
<g id="a_node5"><a xlink:href="class_storm_1_1_solver.html" target="_top" xlink:title="Abstract operator equation solver. &#45;=&#45;=&#45;=&#45;=&#45;=&#45;=&#45;=&#45;=&#45;=&#45;=&#45;=&#45;=&#45;=&#45;=&#45;=&#45;=&#45;=&#45;=&#45;=&#45;=&#45;=&#45;=&#45;=&#45;=&#45;=&#45;=&#45;=&#45;=&#45;=&#45;=&#45;=&#45;=&#45; ...">
<polygon fill="white" stroke="#666666" points="127.5,-294 2.5,-294 2.5,-264 127.5,-264 127.5,-294"/>
<text text-anchor="start" x="10.5" y="-282" font-family="Helvetica,sans-Serif" font-size="10.00">Storm::Solver&lt; InVector,</text>
<text text-anchor="middle" x="65" y="-271" font-family="Helvetica,sans-Serif" font-size="10.00"> OutVector &gt;</text>
</a>
</g>
</g>
<!-- Node5&#45;&gt;Node4 -->
<g id="edge4" class="edge">
<title>Node5&#45;&gt;Node4</title>
<path fill="none" stroke="#63b8ff" d="M65,-252.39C65,-244.13 65,-235.28 65,-228.16"/>
<polygon fill="#63b8ff" stroke="#63b8ff" points="61.5,-252.28 65,-262.28 68.5,-252.28 61.5,-252.28"/>
</g>
<!-- Node6 -->
<g id="node6" class="node">
<title>Node6</title>
<g id="a_node6"><a xlink:href="class_storm_1_1_object.html" target="_top" xlink:title="A base object.">
<polygon fill="white" stroke="#666666" points="103.5,-349 26.5,-349 26.5,-330 103.5,-330 103.5,-349"/>
<text text-anchor="middle" x="65" y="-337" font-family="Helvetica,sans-Serif" font-size="10.00">Storm::Object</text>
</a>
</g>
</g>
<!-- Node6&#45;&gt;Node5 -->
<g id="edge5" class="edge">
<title>Node6&#45;&gt;Node5</title>
<path fill="none" stroke="#63b8ff" d="M65,-318.51C65,-310.49 65,-301.43 65,-294.11"/>
<polygon fill="#63b8ff" stroke="#63b8ff" points="61.5,-318.35 65,-328.35 68.5,-318.35 61.5,-318.35"/>
</g>
<!-- Node7 -->
<g id="node7" class="node">
<title>Node7</title>
<g id="a_node7"><a xlink:href="class_storm_1_1_non_copyable.html" target="_top" xlink:title="Non copyable object interface.">
<polygon fill="white" stroke="#666666" points="120.5,-404 9.5,-404 9.5,-385 120.5,-385 120.5,-404"/>
<text text-anchor="middle" x="65" y="-392" font-family="Helvetica,sans-Serif" font-size="10.00">detail_::noncopyable_</text>
</a>
</g>
</g>
<!-- Node7&#45;&gt;Node6 -->
<g id="edge6" class="edge">
<title>Node7&#45;&gt;Node6</title>
<path fill="none" stroke="#63b8ff" d="M65,-373.35C65,-365.1 65,-355.97 65,-349.44"/>
<polygon fill="#63b8ff" stroke="#63b8ff" points="61.5,-373.23 65,-383.23 68.5,-373.23 61.5,-373.23"/>
</g>
</g>
</svg>
