<?xml version="1.0" encoding="UTF-8" standalone="no"?>
<!DOCTYPE svg PUBLIC "-//W3C//DTD SVG 1.1//EN"
 "http://www.w3.org/Graphics/SVG/1.1/DTD/svg11.dtd">
<!-- Generated by graphviz version 7.0.6 (20230106.0513)
 -->
<!-- Title: Storm::Vulture::gl::MultisampledTexture2D&lt; Pixel &gt; Pages: 1 -->
<svg width="133pt" height="170pt"
 viewBox="0.00 0.00 133.00 170.00" xmlns="http://www.w3.org/2000/svg" xmlns:xlink="http://www.w3.org/1999/xlink">
<g id="graph0" class="graph" transform="scale(1 1) rotate(0) translate(4 166)">
<title>Storm::Vulture::gl::MultisampledTexture2D&lt; Pixel &gt;</title>
<!-- Node1 -->
<g id="node1" class="node">
<title>Node1</title>
<g id="a_node1"><a xlink:title="OpenGL multisampled 2D texture.">
<polygon fill="#999999" stroke="#666666" points="125,-41 0,-41 0,0 125,0 125,-41"/>
<text text-anchor="start" x="8" y="-29" font-family="Helvetica,sans-Serif" font-size="10.00">Storm::Vulture::gl</text>
<text text-anchor="start" x="8" y="-18" font-family="Helvetica,sans-Serif" font-size="10.00">::MultisampledTexture2D</text>
<text text-anchor="middle" x="62.5" y="-7" font-family="Helvetica,sans-Serif" font-size="10.00">&lt; Pixel &gt;</text>
</a>
</g>
</g>
<!-- Node2 -->
<g id="node2" class="node">
<title>Node2</title>
<g id="a_node2"><a xlink:href="class_storm_1_1_vulture_1_1gl_1_1_texture.html" target="_top" xlink:title="OpenGL texture.">
<polygon fill="white" stroke="#666666" points="109,-107 16,-107 16,-77 109,-77 109,-107"/>
<text text-anchor="start" x="24" y="-95" font-family="Helvetica,sans-Serif" font-size="10.00">Storm::Vulture::gl</text>
<text text-anchor="middle" x="62.5" y="-84" font-family="Helvetica,sans-Serif" font-size="10.00">::Texture</text>
</a>
</g>
</g>
<!-- Node2&#45;&gt;Node1 -->
<g id="edge1" class="edge">
<title>Node2&#45;&gt;Node1</title>
<path fill="none" stroke="#63b8ff" d="M62.5,-65.36C62.5,-57.45 62.5,-48.87 62.5,-41.42"/>
<polygon fill="#63b8ff" stroke="#63b8ff" points="59,-65.09 62.5,-75.09 66,-65.09 59,-65.09"/>
</g>
<!-- Node3 -->
<g id="node3" class="node">
<title>Node3</title>
<g id="a_node3"><a xlink:href="class_storm_1_1_non_copyable.html" target="_top" xlink:title="Non copyable object interface.">
<polygon fill="white" stroke="#666666" points="118,-162 7,-162 7,-143 118,-143 118,-162"/>
<text text-anchor="middle" x="62.5" y="-150" font-family="Helvetica,sans-Serif" font-size="10.00">detail_::noncopyable_</text>
</a>
</g>
</g>
<!-- Node3&#45;&gt;Node2 -->
<g id="edge2" class="edge">
<title>Node3&#45;&gt;Node2</title>
<path fill="none" stroke="#8b1a1a" d="M62.5,-131.51C62.5,-123.49 62.5,-114.43 62.5,-107.11"/>
<polygon fill="#8b1a1a" stroke="#8b1a1a" points="59,-131.35 62.5,-141.35 66,-131.35 59,-131.35"/>
</g>
</g>
</svg>
