<?xml version="1.0" encoding="UTF-8" standalone="no"?>
<!DOCTYPE svg PUBLIC "-//W3C//DTD SVG 1.1//EN"
 "http://www.w3.org/Graphics/SVG/1.1/DTD/svg11.dtd">
<!-- Generated by graphviz version 8.1.0 (20230707.0739)
 -->
<!-- Title: Storm::Object Pages: 1 -->
<svg width="1067pt" height="618pt"
 viewBox="0.00 0.00 1066.50 617.50" xmlns="http://www.w3.org/2000/svg" xmlns:xlink="http://www.w3.org/1999/xlink">
<g id="graph0" class="graph" transform="scale(1 1) rotate(0) translate(4 613.5)">
<title>Storm::Object</title>
<!-- Node1 -->
<g id="Node000001" class="node">
<title>Node1</title>
<g id="a_Node000001"><a xlink:title="A base object.">
<polygon fill="#999999" stroke="#666666" points="223.25,-492.88 146.5,-492.88 146.5,-473.62 223.25,-473.62 223.25,-492.88"/>
<text text-anchor="middle" x="184.88" y="-479.38" font-family="Helvetica,sans-Serif" font-size="10.00">Storm::Object</text>
</a>
</g>
</g>
<!-- Node3 -->
<g id="Node000003" class="node">
<title>Node3</title>
<g id="a_Node000003"><a xlink:href="class_storm_1_1_operator.html" target="_top" xlink:title=" ">
<polygon fill="white" stroke="#666666" points="393,-609.5 259.25,-609.5 259.25,-579 393,-579 393,-609.5"/>
<text text-anchor="start" x="267.25" y="-596" font-family="Helvetica,sans-Serif" font-size="10.00">Storm::Operator&lt; InVector,</text>
<text text-anchor="middle" x="326.12" y="-584.75" font-family="Helvetica,sans-Serif" font-size="10.00"> InVector &gt;</text>
</a>
</g>
</g>
<!-- Node1&#45;&gt;Node3 -->
<g id="edge2_Node000001_Node000003" class="edge">
<title>Node1&#45;&gt;Node3</title>
<g id="a_edge2_Node000001_Node000003"><a xlink:title=" ">
<path fill="none" stroke="#63b8ff" d="M197.72,-502.48C210.65,-522.02 233.04,-551.94 259.25,-570.25 263.74,-573.39 268.69,-576.16 273.79,-578.61"/>
<polygon fill="#63b8ff" stroke="#63b8ff" points="200.2,-500.86 191.85,-494.33 194.3,-504.64 200.2,-500.86"/>
</a>
</g>
</g>
<!-- Node4 -->
<g id="Node000004" class="node">
<title>Node4</title>
<g id="a_Node000004"><a xlink:href="class_storm_1_1_operator.html" target="_top" xlink:title=" ">
<polygon fill="white" stroke="#666666" points="392.25,-560.88 260,-560.88 260,-541.62 392.25,-541.62 392.25,-560.88"/>
<text text-anchor="middle" x="326.12" y="-547.38" font-family="Helvetica,sans-Serif" font-size="10.00">Storm::Operator&lt; Vector &gt;</text>
</a>
</g>
</g>
<!-- Node1&#45;&gt;Node4 -->
<g id="edge3_Node000001_Node000004" class="edge">
<title>Node1&#45;&gt;Node4</title>
<g id="a_edge3_Node000001_Node000004"><a xlink:title=" ">
<path fill="none" stroke="#63b8ff" d="M206.62,-499.63C220.78,-510.16 240.33,-523.46 259.25,-532.25 266.7,-535.71 274.92,-538.68 282.95,-541.18"/>
<polygon fill="#63b8ff" stroke="#63b8ff" points="209.23,-496.46 199.15,-493.19 204.99,-502.03 209.23,-496.46"/>
</a>
</g>
</g>
<!-- Node7 -->
<g id="Node000007" class="node">
<title>Node7</title>
<g id="a_Node000007"><a xlink:href="class_storm_1_1_solver.html" target="_top" xlink:title=" ">
<polygon fill="white" stroke="#666666" points="388.12,-523.5 264.12,-523.5 264.12,-493 388.12,-493 388.12,-523.5"/>
<text text-anchor="start" x="272.12" y="-510" font-family="Helvetica,sans-Serif" font-size="10.00">Storm::Solver&lt; InVector,</text>
<text text-anchor="middle" x="326.12" y="-498.75" font-family="Helvetica,sans-Serif" font-size="10.00"> OutVector &gt;</text>
</a>
</g>
</g>
<!-- Node1&#45;&gt;Node7 -->
<g id="edge6_Node000001_Node000007" class="edge">
<title>Node1&#45;&gt;Node7</title>
<g id="a_edge6_Node000001_Node000007"><a xlink:title=" ">
<path fill="none" stroke="#63b8ff" d="M234.08,-491.9C243.66,-493.62 253.84,-495.45 263.79,-497.24"/>
<polygon fill="#63b8ff" stroke="#63b8ff" points="235.02,-488.34 224.56,-490.02 233.78,-495.23 235.02,-488.34"/>
</a>
</g>
</g>
<!-- Node9 -->
<g id="Node000009" class="node">
<title>Node9</title>
<g id="a_Node000009"><a xlink:href="class_storm_1_1_solver.html" target="_top" xlink:title=" ">
<polygon fill="white" stroke="#666666" points="388.12,-474.5 264.12,-474.5 264.12,-444 388.12,-444 388.12,-474.5"/>
<text text-anchor="start" x="272.12" y="-461" font-family="Helvetica,sans-Serif" font-size="10.00">Storm::Solver&lt; InVector,</text>
<text text-anchor="middle" x="326.12" y="-449.75" font-family="Helvetica,sans-Serif" font-size="10.00"> InVector &gt;</text>
</a>
</g>
</g>
<!-- Node1&#45;&gt;Node9 -->
<g id="edge8_Node000001_Node000009" class="edge">
<title>Node1&#45;&gt;Node9</title>
<g id="a_edge8_Node000001_Node000009"><a xlink:title=" ">
<path fill="none" stroke="#63b8ff" d="M234.39,-474.89C243.88,-473.25 253.95,-471.52 263.79,-469.82"/>
<polygon fill="#63b8ff" stroke="#63b8ff" points="233.82,-471.61 224.56,-476.76 235.01,-478.51 233.82,-471.61"/>
</a>
</g>
</g>
<!-- Node10 -->
<g id="Node000010" class="node">
<title>Node10</title>
<g id="a_Node000010"><a xlink:href="class_storm_1_1_operator.html" target="_top" xlink:title="Abstract operator ð’š â† ð“(ð’™). &#45;=&#45;=&#45;=&#45;=&#45;=&#45;=&#45;=&#45;=&#45;=&#45;=&#45;=&#45;=&#45;=&#45;=&#45;=&#45;=&#45;=&#45;=&#45;=&#45;=&#45;=&#45;=&#45;=&#45;=&#45;=&#45;=&#45;=&#45;=&#45;=&#45;=&#45;=&#45;=&#45; ///.">
<polygon fill="white" stroke="#666666" points="393,-425.5 259.25,-425.5 259.25,-395 393,-395 393,-425.5"/>
<text text-anchor="start" x="267.25" y="-412" font-family="Helvetica,sans-Serif" font-size="10.00">Storm::Operator&lt; InVector,</text>
<text text-anchor="middle" x="326.12" y="-400.75" font-family="Helvetica,sans-Serif" font-size="10.00"> OutVector &gt;</text>
</a>
</g>
</g>
<!-- Node1&#45;&gt;Node10 -->
<g id="edge9_Node000001_Node000010" class="edge">
<title>Node1&#45;&gt;Node10</title>
<g id="a_edge9_Node000001_Node000010"><a xlink:title=" ">
<path fill="none" stroke="#63b8ff" d="M207.69,-467.18C221.9,-457.17 241.11,-444.49 259.25,-435.25 265.79,-431.92 272.88,-428.78 279.91,-425.92"/>
<polygon fill="#63b8ff" stroke="#63b8ff" points="206.23,-464.64 200.14,-473.31 210.3,-470.33 206.23,-464.64"/>
</a>
</g>
</g>
<!-- Node12 -->
<g id="Node000012" class="node">
<title>Node12</title>
<g id="a_Node000012"><a xlink:href="class_storm_1_1_solver.html" target="_top" xlink:title="Abstract operator equation solver. &#45;=&#45;=&#45;=&#45;=&#45;=&#45;=&#45;=&#45;=&#45;=&#45;=&#45;=&#45;=&#45;=&#45;=&#45;=&#45;=&#45;=&#45;=&#45;=&#45;=&#45;=&#45;=&#45;=&#45;=&#45;=&#45;=&#45;=&#45;=&#45;=&#45;=&#45;=&#45;=&#45; ...">
<polygon fill="white" stroke="#666666" points="388.12,-355.5 264.12,-355.5 264.12,-325 388.12,-325 388.12,-355.5"/>
<text text-anchor="start" x="272.12" y="-342" font-family="Helvetica,sans-Serif" font-size="10.00">Storm::Solver&lt; InVector,</text>
<text text-anchor="middle" x="326.12" y="-330.75" font-family="Helvetica,sans-Serif" font-size="10.00"> OutVector &gt;</text>
</a>
</g>
</g>
<!-- Node1&#45;&gt;Node12 -->
<g id="edge11_Node000001_Node000012" class="edge">
<title>Node1&#45;&gt;Node12</title>
<g id="a_edge11_Node000001_Node000012"><a xlink:title=" ">
<path fill="none" stroke="#63b8ff" d="M197.58,-464.35C210.92,-443.72 234.15,-410.41 259.25,-386.25 271.11,-374.83 286.03,-364.17 298.67,-355.99"/>
<polygon fill="#63b8ff" stroke="#63b8ff" points="194.27,-462.05 191.86,-472.37 200.18,-465.8 194.27,-462.05"/>
</a>
</g>
</g>
<!-- Node2 -->
<g id="Node000002" class="node">
<title>Node2</title>
<g id="a_Node000002"><a xlink:href="class_storm_1_1_non_copyable.html" target="_top" xlink:title="Non copyable object interface.">
<polygon fill="white" stroke="#666666" points="110.5,-492.88 0,-492.88 0,-473.62 110.5,-473.62 110.5,-492.88"/>
<text text-anchor="middle" x="55.25" y="-479.38" font-family="Helvetica,sans-Serif" font-size="10.00">detail_::noncopyable_</text>
</a>
</g>
</g>
<!-- Node2&#45;&gt;Node1 -->
<g id="edge1_Node000001_Node000002" class="edge">
<title>Node2&#45;&gt;Node1</title>
<g id="a_edge1_Node000001_Node000002"><a xlink:title=" ">
<path fill="none" stroke="#63b8ff" d="M121.72,-483.25C130.09,-483.25 138.42,-483.25 146.13,-483.25"/>
<polygon fill="#63b8ff" stroke="#63b8ff" points="121.74,-479.75 111.74,-483.25 121.74,-486.75 121.74,-479.75"/>
</a>
</g>
</g>
<!-- Node5 -->
<g id="Node000005" class="node">
<title>Node5</title>
<g id="a_Node000005"><a xlink:href="class_storm_1_1_preconditioner.html" target="_top" xlink:title="Abstract preconditioner operator. &#45;=&#45;=&#45;=&#45;=&#45;=&#45;=&#45;=&#45;=&#45;=&#45;=&#45;=&#45;=&#45;=&#45;=&#45;=&#45;=&#45;=&#45;=&#45;=&#45;=&#45;=&#45;=&#45;=&#45;=&#45;=&#45;=&#45;=&#45;=&#45;=&#45;=&#45;=&#45;=&#45; /...">
<polygon fill="white" stroke="#666666" points="549.62,-583.5 439.12,-583.5 439.12,-553 549.62,-553 549.62,-583.5"/>
<text text-anchor="start" x="447.12" y="-570" font-family="Helvetica,sans-Serif" font-size="10.00">Storm::Preconditioner</text>
<text text-anchor="middle" x="494.38" y="-558.75" font-family="Helvetica,sans-Serif" font-size="10.00">&lt; Vector &gt;</text>
</a>
</g>
</g>
<!-- Node4&#45;&gt;Node5 -->
<g id="edge4_Node000004_Node000005" class="edge">
<title>Node4&#45;&gt;Node5</title>
<g id="a_edge4_Node000004_Node000005"><a xlink:title=" ">
<path fill="none" stroke="#63b8ff" d="M403.28,-559.04C415.26,-560.26 427.44,-561.51 438.81,-562.67"/>
<polygon fill="#63b8ff" stroke="#63b8ff" points="403.66,-555.46 393.35,-557.92 402.95,-562.42 403.66,-555.46"/>
</a>
</g>
</g>
<!-- Node6 -->
<g id="Node000006" class="node">
<title>Node6</title>
<g id="a_Node000006"><a xlink:href="class_storm_1_1_identity_preconditioner.html" target="_top" xlink:title="Identity preconditioner, intended to be used for debugging only. &#45;=&#45;=&#45;=&#45;=&#45;=&#45;=&#45;=&#45;=&#45;=&#45;=&#45;=&#45;=&#45;=&#45;=&#45;=&#45;=&#45;=&#45;=...">
<polygon fill="white" stroke="#666666" points="741.12,-594.5 598.38,-594.5 598.38,-564 741.12,-564 741.12,-594.5"/>
<text text-anchor="start" x="606.38" y="-581" font-family="Helvetica,sans-Serif" font-size="10.00">Storm::IdentityPreconditioner</text>
<text text-anchor="middle" x="669.75" y="-569.75" font-family="Helvetica,sans-Serif" font-size="10.00">&lt; Vector &gt;</text>
</a>
</g>
</g>
<!-- Node5&#45;&gt;Node6 -->
<g id="edge5_Node000005_Node000006" class="edge">
<title>Node5&#45;&gt;Node6</title>
<g id="a_edge5_Node000005_Node000006"><a xlink:title=" ">
<path fill="none" stroke="#63b8ff" d="M560.36,-572.37C572.65,-573.15 585.56,-573.97 598.01,-574.76"/>
<polygon fill="#63b8ff" stroke="#63b8ff" points="560.96,-568.84 550.76,-571.7 560.51,-575.83 560.96,-568.84"/>
</a>
</g>
</g>
<!-- Node8 -->
<g id="Node000008" class="node">
<title>Node8</title>
<g id="a_Node000008"><a xlink:href="class_storm_1_1_iterative_solver.html" target="_top" xlink:title=" ">
<polygon fill="white" stroke="#666666" points="550.75,-523.5 438,-523.5 438,-493 550.75,-493 550.75,-523.5"/>
<text text-anchor="start" x="446" y="-510" font-family="Helvetica,sans-Serif" font-size="10.00">Storm::IterativeSolver</text>
<text text-anchor="middle" x="494.38" y="-498.75" font-family="Helvetica,sans-Serif" font-size="10.00">&lt; InVector, InVector &gt;</text>
</a>
</g>
</g>
<!-- Node7&#45;&gt;Node8 -->
<g id="edge7_Node000007_Node000008" class="edge">
<title>Node7&#45;&gt;Node8</title>
<g id="a_edge7_Node000007_Node000008"><a xlink:title=" ">
<path fill="none" stroke="#63b8ff" d="M399.26,-508.25C412.13,-508.25 425.36,-508.25 437.69,-508.25"/>
<polygon fill="#63b8ff" stroke="#63b8ff" points="399.56,-504.75 389.56,-508.25 399.56,-511.75 399.56,-504.75"/>
</a>
</g>
</g>
<!-- Node11 -->
<g id="Node000011" class="node">
<title>Node11</title>
<g id="a_Node000011"><a xlink:href="class_storm_1_1_functional_operator.html" target="_top" xlink:title="Operator implementation with external function pointers. &#45;=&#45;=&#45;=&#45;=&#45;=&#45;=&#45;=&#45;=&#45;=&#45;=&#45;=&#45;=&#45;=&#45;=&#45;=&#45;=&#45;=&#45;=&#45;=&#45;=&#45;=&#45;=...">
<polygon fill="white" stroke="#666666" points="559.75,-425.5 429,-425.5 429,-395 559.75,-395 559.75,-425.5"/>
<text text-anchor="start" x="437" y="-412" font-family="Helvetica,sans-Serif" font-size="10.00">Storm::FunctionalOperator</text>
<text text-anchor="middle" x="494.38" y="-400.75" font-family="Helvetica,sans-Serif" font-size="10.00">&lt; InVector, OutVector &gt;</text>
</a>
</g>
</g>
<!-- Node10&#45;&gt;Node11 -->
<g id="edge10_Node000010_Node000011" class="edge">
<title>Node10&#45;&gt;Node11</title>
<g id="a_edge10_Node000010_Node000011"><a xlink:title=" ">
<path fill="none" stroke="#63b8ff" d="M404.28,-410.25C412.38,-410.25 420.56,-410.25 428.5,-410.25"/>
<polygon fill="#63b8ff" stroke="#63b8ff" points="404.31,-406.75 394.31,-410.25 404.31,-413.75 404.31,-406.75"/>
</a>
</g>
</g>
<!-- Node13 -->
<g id="Node000013" class="node">
<title>Node13</title>
<g id="a_Node000013"><a xlink:href="class_storm_1_1_iterative_solver.html" target="_top" xlink:title=" ">
<polygon fill="white" stroke="#666666" points="550,-355.5 438.75,-355.5 438.75,-325 550,-325 550,-355.5"/>
<text text-anchor="start" x="446.75" y="-342" font-family="Helvetica,sans-Serif" font-size="10.00">Storm::IterativeSolver</text>
<text text-anchor="middle" x="494.38" y="-330.75" font-family="Helvetica,sans-Serif" font-size="10.00">&lt; Vector &gt;</text>
</a>
</g>
</g>
<!-- Node12&#45;&gt;Node13 -->
<g id="edge12_Node000012_Node000013" class="edge">
<title>Node12&#45;&gt;Node13</title>
<g id="a_edge12_Node000012_Node000013"><a xlink:title=" ">
<path fill="none" stroke="#63b8ff" d="M399.45,-340.25C412.54,-340.25 426.01,-340.25 438.5,-340.25"/>
<polygon fill="#63b8ff" stroke="#63b8ff" points="399.56,-336.75 389.56,-340.25 399.56,-343.75 399.56,-336.75"/>
</a>
</g>
</g>
<!-- Node25 -->
<g id="Node000025" class="node">
<title>Node25</title>
<g id="a_Node000025"><a xlink:href="class_storm_1_1_iterative_solver.html" target="_top" xlink:title="Abstract operator equation iterative solver. &#45;=&#45;=&#45;=&#45;=&#45;=&#45;=&#45;=&#45;=&#45;=&#45;=&#45;=&#45;=&#45;=&#45;=&#45;=&#45;=&#45;=&#45;=&#45;=&#45;=&#45;=&#45;=&#45;=&#45;=&#45;=&#45;=&#45;=&#45;=...">
<polygon fill="white" stroke="#666666" points="554.5,-128.5 434.25,-128.5 434.25,-98 554.5,-98 554.5,-128.5"/>
<text text-anchor="start" x="442.25" y="-115" font-family="Helvetica,sans-Serif" font-size="10.00">Storm::IterativeSolver</text>
<text text-anchor="middle" x="494.38" y="-103.75" font-family="Helvetica,sans-Serif" font-size="10.00">&lt; InVector, OutVector &gt;</text>
</a>
</g>
</g>
<!-- Node12&#45;&gt;Node25 -->
<g id="edge24_Node000012_Node000025" class="edge">
<title>Node12&#45;&gt;Node25</title>
<g id="a_edge24_Node000012_Node000025"><a xlink:title=" ">
<path fill="none" stroke="#63b8ff" d="M345.05,-315.78C379.34,-268.96 453.37,-167.87 481.87,-128.96"/>
<polygon fill="#63b8ff" stroke="#63b8ff" points="341.64,-313.51 338.55,-323.65 347.28,-317.65 341.64,-313.51"/>
</a>
</g>
</g>
<!-- Node14 -->
<g id="Node000014" class="node">
<title>Node14</title>
<g id="a_Node000014"><a xlink:href="class_storm_1_1_base_tfqmr_solver.html" target="_top" xlink:title=" ">
<polygon fill="white" stroke="#666666" points="731.75,-545.5 607.75,-545.5 607.75,-515 731.75,-515 731.75,-545.5"/>
<text text-anchor="start" x="615.75" y="-532" font-family="Helvetica,sans-Serif" font-size="10.00">Storm::BaseTfqmrSolver</text>
<text text-anchor="middle" x="669.75" y="-520.75" font-family="Helvetica,sans-Serif" font-size="10.00">&lt; Vector, true &gt;</text>
</a>
</g>
</g>
<!-- Node13&#45;&gt;Node14 -->
<g id="edge13_Node000013_Node000014" class="edge">
<title>Node13&#45;&gt;Node14</title>
<g id="a_edge13_Node000013_Node000014"><a xlink:title=" ">
<path fill="none" stroke="#63b8ff" d="M534.36,-361.92C543.76,-368.67 553.02,-376.86 559.75,-386.25 591.95,-431.16 557.39,-465.48 595.75,-505.25 599.28,-508.91 603.38,-512.04 607.79,-514.71"/>
<polygon fill="#63b8ff" stroke="#63b8ff" points="536.64,-358.56 526.39,-355.88 532.73,-364.36 536.64,-358.56"/>
</a>
</g>
</g>
<!-- Node16 -->
<g id="Node000016" class="node">
<title>Node16</title>
<g id="a_Node000016"><a xlink:href="class_storm_1_1_base_tfqmr_solver.html" target="_top" xlink:title=" ">
<polygon fill="white" stroke="#666666" points="731.75,-496.5 607.75,-496.5 607.75,-466 731.75,-466 731.75,-496.5"/>
<text text-anchor="start" x="615.75" y="-483" font-family="Helvetica,sans-Serif" font-size="10.00">Storm::BaseTfqmrSolver</text>
<text text-anchor="middle" x="669.75" y="-471.75" font-family="Helvetica,sans-Serif" font-size="10.00">&lt; Vector, false &gt;</text>
</a>
</g>
</g>
<!-- Node13&#45;&gt;Node16 -->
<g id="edge15_Node000013_Node000016" class="edge">
<title>Node13&#45;&gt;Node16</title>
<g id="a_edge15_Node000013_Node000016"><a xlink:title=" ">
<path fill="none" stroke="#63b8ff" d="M531.93,-361.85C541.76,-368.8 551.84,-377.1 559.75,-386.25 582.63,-412.72 569.28,-433.37 595.75,-456.25 599.9,-459.84 604.6,-462.92 609.56,-465.57"/>
<polygon fill="#63b8ff" stroke="#63b8ff" points="534.3,-358.55 524.05,-355.86 530.38,-364.36 534.3,-358.55"/>
</a>
</g>
</g>
<!-- Node18 -->
<g id="Node000018" class="node">
<title>Node18</title>
<g id="a_Node000018"><a xlink:href="class_storm_1_1_base_tfqmr_solver.html" target="_top" xlink:title="Parametrized TFQMR solver.">
<polygon fill="white" stroke="#666666" points="731.75,-447.5 607.75,-447.5 607.75,-417 731.75,-417 731.75,-447.5"/>
<text text-anchor="start" x="615.75" y="-434" font-family="Helvetica,sans-Serif" font-size="10.00">Storm::BaseTfqmrSolver</text>
<text text-anchor="middle" x="669.75" y="-422.75" font-family="Helvetica,sans-Serif" font-size="10.00">&lt; Vector, L1 &gt;</text>
</a>
</g>
</g>
<!-- Node13&#45;&gt;Node18 -->
<g id="edge17_Node000013_Node000018" class="edge">
<title>Node13&#45;&gt;Node18</title>
<g id="a_edge17_Node000013_Node000018"><a xlink:title=" ">
<path fill="none" stroke="#63b8ff" d="M526,-361.96C550.06,-378.78 581.76,-400.33 595.75,-407.25 602.59,-410.63 610.01,-413.75 617.4,-416.55"/>
<polygon fill="#63b8ff" stroke="#63b8ff" points="528.41,-358.67 518.21,-355.79 524.39,-364.4 528.41,-358.67"/>
</a>
</g>
</g>
<!-- Node19 -->
<g id="Node000019" class="node">
<title>Node19</title>
<g id="a_Node000019"><a xlink:href="class_storm_1_1_bi_cg_stab_solver.html" target="_top" xlink:title="The BiCGStab (Biconjugate Gradients Stabilized) linear operator equation solver.">
<polygon fill="white" stroke="#666666" points="728.75,-398.5 610.75,-398.5 610.75,-368 728.75,-368 728.75,-398.5"/>
<text text-anchor="start" x="618.75" y="-385" font-family="Helvetica,sans-Serif" font-size="10.00">Storm::BiCgStabSolver</text>
<text text-anchor="middle" x="669.75" y="-373.75" font-family="Helvetica,sans-Serif" font-size="10.00">&lt; Vector &gt;</text>
</a>
</g>
</g>
<!-- Node13&#45;&gt;Node19 -->
<g id="edge18_Node000013_Node000019" class="edge">
<title>Node13&#45;&gt;Node19</title>
<g id="a_edge18_Node000013_Node000019"><a xlink:title=" ">
<path fill="none" stroke="#63b8ff" d="M560.76,-356.47C577.06,-360.51 594.42,-364.82 610.36,-368.77"/>
<polygon fill="#63b8ff" stroke="#63b8ff" points="561.78,-352.87 551.23,-353.86 560.1,-359.66 561.78,-352.87"/>
</a>
</g>
</g>
<!-- Node20 -->
<g id="Node000020" class="node">
<title>Node20</title>
<g id="a_Node000020"><a xlink:href="class_storm_1_1_cg_solver.html" target="_top" xlink:title="The CG (Conjugate Gradients) linear self&#45;adjoint definite operator equation solver.">
<polygon fill="white" stroke="#666666" points="737.38,-349.88 602.12,-349.88 602.12,-330.62 737.38,-330.62 737.38,-349.88"/>
<text text-anchor="middle" x="669.75" y="-336.38" font-family="Helvetica,sans-Serif" font-size="10.00">Storm::CgSolver&lt; Vector &gt;</text>
</a>
</g>
</g>
<!-- Node13&#45;&gt;Node20 -->
<g id="edge19_Node000013_Node000020" class="edge">
<title>Node13&#45;&gt;Node20</title>
<g id="a_edge19_Node000013_Node000020"><a xlink:title=" ">
<path fill="none" stroke="#63b8ff" d="M561.2,-340.25C574.48,-340.25 588.46,-340.25 601.78,-340.25"/>
<polygon fill="#63b8ff" stroke="#63b8ff" points="561.23,-336.75 551.23,-340.25 561.23,-343.75 561.23,-336.75"/>
</a>
</g>
</g>
<!-- Node21 -->
<g id="Node000021" class="node">
<title>Node21</title>
<g id="a_Node000021"><a xlink:href="class_storm_1_1_cgs_solver.html" target="_top" xlink:title="The CGS (Conjugate Gradients Squared) linear operator equation solver.">
<polygon fill="white" stroke="#666666" points="740,-312.88 599.5,-312.88 599.5,-293.62 740,-293.62 740,-312.88"/>
<text text-anchor="middle" x="669.75" y="-299.38" font-family="Helvetica,sans-Serif" font-size="10.00">Storm::CgsSolver&lt; Vector &gt;</text>
</a>
</g>
</g>
<!-- Node13&#45;&gt;Node21 -->
<g id="edge20_Node000013_Node000021" class="edge">
<title>Node13&#45;&gt;Node21</title>
<g id="a_edge20_Node000013_Node000021"><a xlink:title=" ">
<path fill="none" stroke="#63b8ff" d="M560.92,-326.26C581.08,-321.96 602.87,-317.31 621.55,-313.32"/>
<polygon fill="#63b8ff" stroke="#63b8ff" points="560.28,-323.03 551.23,-328.54 561.74,-329.88 560.28,-323.03"/>
</a>
</g>
</g>
<!-- Node22 -->
<g id="Node000022" class="node">
<title>Node22</title>
<g id="a_Node000022"><a xlink:href="class_storm_1_1_jfnk_solver.html" target="_top" xlink:title="The first&#45;order JFNK (Jacobian free&#45;Newton&#45;Krylov) nonlinear operator equation solver.">
<polygon fill="white" stroke="#666666" points="720.12,-275.5 619.38,-275.5 619.38,-245 720.12,-245 720.12,-275.5"/>
<text text-anchor="start" x="627.38" y="-262" font-family="Helvetica,sans-Serif" font-size="10.00">Storm::JfnkSolver&lt;</text>
<text text-anchor="middle" x="669.75" y="-250.75" font-family="Helvetica,sans-Serif" font-size="10.00"> Vector &gt;</text>
</a>
</g>
</g>
<!-- Node13&#45;&gt;Node22 -->
<g id="edge21_Node000013_Node000022" class="edge">
<title>Node13&#45;&gt;Node22</title>
<g id="a_edge21_Node000013_Node000022"><a xlink:title=" ">
<path fill="none" stroke="#63b8ff" d="M529.69,-318.95C548.7,-307.71 573.03,-294.21 595.75,-284.25 603.2,-280.98 611.25,-277.91 619.18,-275.12"/>
<polygon fill="#63b8ff" stroke="#63b8ff" points="528.05,-316.46 521.27,-324.6 531.64,-322.46 528.05,-316.46"/>
</a>
</g>
</g>
<!-- Node23 -->
<g id="Node000023" class="node">
<title>Node23</title>
<g id="a_Node000023"><a xlink:href="class_storm_1_1_newton_solver.html" target="_top" xlink:title="The Newton method nonlinear operator equation solver.">
<polygon fill="white" stroke="#666666" points="724.62,-226.5 614.88,-226.5 614.88,-196 724.62,-196 724.62,-226.5"/>
<text text-anchor="start" x="622.88" y="-213" font-family="Helvetica,sans-Serif" font-size="10.00">Storm::NewtonSolver</text>
<text text-anchor="middle" x="669.75" y="-201.75" font-family="Helvetica,sans-Serif" font-size="10.00">&lt; Vector &gt;</text>
</a>
</g>
</g>
<!-- Node13&#45;&gt;Node23 -->
<g id="edge22_Node000013_Node000023" class="edge">
<title>Node13&#45;&gt;Node23</title>
<g id="a_edge22_Node000013_Node000023"><a xlink:title=" ">
<path fill="none" stroke="#63b8ff" d="M513.22,-315.95C531.55,-292.56 562.11,-257.65 595.75,-236.25 601.51,-232.58 607.88,-229.39 614.38,-226.61"/>
<polygon fill="#63b8ff" stroke="#63b8ff" points="509.89,-313.54 506.59,-323.6 515.45,-317.8 509.89,-313.54"/>
</a>
</g>
</g>
<!-- Node24 -->
<g id="Node000024" class="node">
<title>Node24</title>
<g id="a_Node000024"><a xlink:href="class_storm_1_1_richardson_solver.html" target="_top" xlink:title="The Richardson iteration linear operator equation solver.">
<polygon fill="white" stroke="#666666" points="732.5,-177.5 607,-177.5 607,-147 732.5,-147 732.5,-177.5"/>
<text text-anchor="start" x="615" y="-164" font-family="Helvetica,sans-Serif" font-size="10.00">Storm::RichardsonSolver</text>
<text text-anchor="middle" x="669.75" y="-152.75" font-family="Helvetica,sans-Serif" font-size="10.00">&lt; Vector &gt;</text>
</a>
</g>
</g>
<!-- Node13&#45;&gt;Node24 -->
<g id="edge23_Node000013_Node000024" class="edge">
<title>Node13&#45;&gt;Node24</title>
<g id="a_edge23_Node000013_Node000024"><a xlink:title=" ">
<path fill="none" stroke="#63b8ff" d="M505.73,-314.78C520.72,-280.96 551.59,-221.53 595.75,-187.25 600.41,-183.64 605.62,-180.53 611.06,-177.85"/>
<polygon fill="#63b8ff" stroke="#63b8ff" points="502.15,-313.23 501.42,-323.8 508.59,-315.99 502.15,-313.23"/>
</a>
</g>
</g>
<!-- Node15 -->
<g id="Node000015" class="node">
<title>Node15</title>
<g id="a_Node000015"><a xlink:href="class_storm_1_1_tfqmr1_solver.html" target="_top" xlink:title="The TFQMR1 (Transpose&#45;Free 1&#45;norm Quasi&#45;Minimal Residual) linear operator equation solver.">
<polygon fill="white" stroke="#666666" points="900,-545.5 793.25,-545.5 793.25,-515 900,-515 900,-545.5"/>
<text text-anchor="start" x="801.25" y="-532" font-family="Helvetica,sans-Serif" font-size="10.00">Storm::Tfqmr1Solver</text>
<text text-anchor="middle" x="846.62" y="-520.75" font-family="Helvetica,sans-Serif" font-size="10.00">&lt; Vector &gt;</text>
</a>
</g>
</g>
<!-- Node14&#45;&gt;Node15 -->
<g id="edge14_Node000014_Node000015" class="edge">
<title>Node14&#45;&gt;Node15</title>
<g id="a_edge14_Node000014_Node000015"><a xlink:title=" ">
<path fill="none" stroke="#63b8ff" d="M742.8,-530.25C759.59,-530.25 777.16,-530.25 792.93,-530.25"/>
<polygon fill="#63b8ff" stroke="#63b8ff" points="742.91,-526.75 732.91,-530.25 742.91,-533.75 742.91,-526.75"/>
</a>
</g>
</g>
<!-- Node17 -->
<g id="Node000017" class="node">
<title>Node17</title>
<g id="a_Node000017"><a xlink:href="class_storm_1_1_tfqmr_solver.html" target="_top" xlink:title="The TFQMR (Transpose&#45;Free Quasi&#45;Minimal Residual) linear operator equation solver.">
<polygon fill="white" stroke="#666666" points="897.38,-496.5 795.88,-496.5 795.88,-466 897.38,-466 897.38,-496.5"/>
<text text-anchor="start" x="803.88" y="-483" font-family="Helvetica,sans-Serif" font-size="10.00">Storm::TfqmrSolver</text>
<text text-anchor="middle" x="846.62" y="-471.75" font-family="Helvetica,sans-Serif" font-size="10.00">&lt; Vector &gt;</text>
</a>
</g>
</g>
<!-- Node16&#45;&gt;Node17 -->
<g id="edge16_Node000016_Node000017" class="edge">
<title>Node16&#45;&gt;Node17</title>
<g id="a_edge16_Node000016_Node000017"><a xlink:title=" ">
<path fill="none" stroke="#63b8ff" d="M742.8,-481.25C760.5,-481.25 779.07,-481.25 795.48,-481.25"/>
<polygon fill="#63b8ff" stroke="#63b8ff" points="742.91,-477.75 732.91,-481.25 742.91,-484.75 742.91,-477.75"/>
</a>
</g>
</g>
<!-- Node26 -->
<g id="Node000026" class="node">
<title>Node26</title>
<g id="a_Node000026"><a xlink:href="class_storm_1_1_inner_outer_iterative_solver.html" target="_top" xlink:title=" ">
<polygon fill="white" stroke="#666666" points="734.38,-128.5 605.12,-128.5 605.12,-98 734.38,-98 734.38,-128.5"/>
<text text-anchor="start" x="613.12" y="-115" font-family="Helvetica,sans-Serif" font-size="10.00">Storm::InnerOuterIterative</text>
<text text-anchor="middle" x="669.75" y="-103.75" font-family="Helvetica,sans-Serif" font-size="10.00">Solver&lt; Vector &gt;</text>
</a>
</g>
</g>
<!-- Node25&#45;&gt;Node26 -->
<g id="edge25_Node000025_Node000026" class="edge">
<title>Node25&#45;&gt;Node26</title>
<g id="a_edge25_Node000025_Node000026"><a xlink:title=" ">
<path fill="none" stroke="#63b8ff" d="M565.36,-113.25C578.39,-113.25 591.95,-113.25 604.79,-113.25"/>
<polygon fill="#63b8ff" stroke="#63b8ff" points="565.56,-109.75 555.56,-113.25 565.56,-116.75 565.56,-109.75"/>
</a>
</g>
</g>
<!-- Node34 -->
<g id="Node000034" class="node">
<title>Node34</title>
<g id="a_Node000034"><a xlink:href="class_storm_1_1_inner_outer_iterative_solver.html" target="_top" xlink:title="Abstract inner&#45;outer iterative solver. &#45;=&#45;=&#45;=&#45;=&#45;=&#45;=&#45;=&#45;=&#45;=&#45;=&#45;=&#45;=&#45;=&#45;=&#45;=&#45;=&#45;=&#45;=&#45;=&#45;=&#45;=&#45;=&#45;=&#45;=&#45;=&#45;=&#45;=&#45;=&#45;=&#45;=&#45;=...">
<polygon fill="white" stroke="#666666" points="743.75,-79.5 595.75,-79.5 595.75,-49 743.75,-49 743.75,-79.5"/>
<text text-anchor="start" x="603.75" y="-66" font-family="Helvetica,sans-Serif" font-size="10.00">Storm::InnerOuterIterative</text>
<text text-anchor="middle" x="669.75" y="-54.75" font-family="Helvetica,sans-Serif" font-size="10.00">Solver&lt; InVector, OutVector &gt;</text>
</a>
</g>
</g>
<!-- Node25&#45;&gt;Node34 -->
<g id="edge33_Node000025_Node000034" class="edge">
<title>Node25&#45;&gt;Node34</title>
<g id="a_edge33_Node000025_Node000034"><a xlink:title=" ">
<path fill="none" stroke="#63b8ff" d="M561.18,-94.65C578.28,-89.82 596.53,-84.66 613.05,-79.99"/>
<polygon fill="#63b8ff" stroke="#63b8ff" points="560.38,-91.52 551.71,-97.61 562.28,-98.26 560.38,-91.52"/>
</a>
</g>
</g>
<!-- Node27 -->
<g id="Node000027" class="node">
<title>Node27</title>
<g id="a_Node000027"><a xlink:href="class_storm_1_1_base_gmres_solver.html" target="_top" xlink:title=" ">
<polygon fill="white" stroke="#666666" points="910.5,-226.5 782.75,-226.5 782.75,-196 910.5,-196 910.5,-226.5"/>
<text text-anchor="start" x="790.75" y="-213" font-family="Helvetica,sans-Serif" font-size="10.00">Storm::BaseGmresSolver</text>
<text text-anchor="middle" x="846.62" y="-201.75" font-family="Helvetica,sans-Serif" font-size="10.00">&lt; Vector, true &gt;</text>
</a>
</g>
</g>
<!-- Node26&#45;&gt;Node27 -->
<g id="edge26_Node000026_Node000027" class="edge">
<title>Node26&#45;&gt;Node27</title>
<g id="a_edge26_Node000026_Node000027"><a xlink:title=" ">
<path fill="none" stroke="#63b8ff" d="M737.07,-133.86C739.38,-135.24 741.62,-136.7 743.75,-138.25 765.32,-153.93 758.44,-170.22 779.75,-186.25 784.44,-189.78 789.69,-192.87 795.12,-195.55"/>
<polygon fill="#63b8ff" stroke="#63b8ff" points="739.31,-130.56 728.84,-128.98 736.04,-136.75 739.31,-130.56"/>
</a>
</g>
</g>
<!-- Node29 -->
<g id="Node000029" class="node">
<title>Node29</title>
<g id="a_Node000029"><a xlink:href="class_storm_1_1_base_gmres_solver.html" target="_top" xlink:title=" ">
<polygon fill="white" stroke="#666666" points="910.5,-177.5 782.75,-177.5 782.75,-147 910.5,-147 910.5,-177.5"/>
<text text-anchor="start" x="790.75" y="-164" font-family="Helvetica,sans-Serif" font-size="10.00">Storm::BaseGmresSolver</text>
<text text-anchor="middle" x="846.62" y="-152.75" font-family="Helvetica,sans-Serif" font-size="10.00">&lt; Vector, false &gt;</text>
</a>
</g>
</g>
<!-- Node26&#45;&gt;Node29 -->
<g id="edge28_Node000026_Node000029" class="edge">
<title>Node26&#45;&gt;Node29</title>
<g id="a_edge28_Node000026_Node000029"><a xlink:title=" ">
<path fill="none" stroke="#63b8ff" d="M737.12,-131.85C754.37,-136.68 772.78,-141.84 789.44,-146.51"/>
<polygon fill="#63b8ff" stroke="#63b8ff" points="738.14,-128.22 727.56,-128.89 736.25,-134.96 738.14,-128.22"/>
</a>
</g>
</g>
<!-- Node31 -->
<g id="Node000031" class="node">
<title>Node31</title>
<g id="a_Node000031"><a xlink:href="class_storm_1_1_base_gmres_solver.html" target="_top" xlink:title="Parmetrized GMRES solver.">
<polygon fill="white" stroke="#666666" points="913.5,-128.5 779.75,-128.5 779.75,-98 913.5,-98 913.5,-128.5"/>
<text text-anchor="start" x="787.75" y="-115" font-family="Helvetica,sans-Serif" font-size="10.00">Storm::BaseGmresSolver</text>
<text text-anchor="middle" x="846.62" y="-103.75" font-family="Helvetica,sans-Serif" font-size="10.00">&lt; Vector, Flexible, Loose &gt;</text>
</a>
</g>
</g>
<!-- Node26&#45;&gt;Node31 -->
<g id="edge30_Node000026_Node000031" class="edge">
<title>Node26&#45;&gt;Node31</title>
<g id="a_edge30_Node000026_Node000031"><a xlink:title=" ">
<path fill="none" stroke="#63b8ff" d="M745.56,-113.25C756.83,-113.25 768.39,-113.25 779.46,-113.25"/>
<polygon fill="#63b8ff" stroke="#63b8ff" points="745.87,-109.75 735.87,-113.25 745.87,-116.75 745.87,-109.75"/>
</a>
</g>
</g>
<!-- Node32 -->
<g id="Node000032" class="node">
<title>Node32</title>
<g id="a_Node000032"><a xlink:href="class_storm_1_1_bi_cg_stab_l_solver.html" target="_top" xlink:title="The BiCGStab(l) (Biconjugate Gradients Stabilized) linear operator equation solver.">
<polygon fill="white" stroke="#666666" points="908.25,-79.5 785,-79.5 785,-49 908.25,-49 908.25,-79.5"/>
<text text-anchor="start" x="793" y="-66" font-family="Helvetica,sans-Serif" font-size="10.00">Storm::BiCgStabLSolver</text>
<text text-anchor="middle" x="846.62" y="-54.75" font-family="Helvetica,sans-Serif" font-size="10.00">&lt; Vector &gt;</text>
</a>
</g>
</g>
<!-- Node26&#45;&gt;Node32 -->
<g id="edge31_Node000026_Node000032" class="edge">
<title>Node26&#45;&gt;Node32</title>
<g id="a_edge31_Node000026_Node000032"><a xlink:title=" ">
<path fill="none" stroke="#63b8ff" d="M737.12,-94.65C754.37,-89.82 772.78,-84.66 789.44,-79.99"/>
<polygon fill="#63b8ff" stroke="#63b8ff" points="736.25,-91.54 727.56,-97.61 738.14,-98.28 736.25,-91.54"/>
</a>
</g>
</g>
<!-- Node33 -->
<g id="Node000033" class="node">
<title>Node33</title>
<g id="a_Node000033"><a xlink:href="class_storm_1_1_idrs_solver.html" target="_top" xlink:title="The IDR(s) (Induced Dimension Reduction) linear operator equation solver.">
<polygon fill="white" stroke="#666666" points="895.88,-30.5 797.38,-30.5 797.38,0 895.88,0 895.88,-30.5"/>
<text text-anchor="start" x="805.38" y="-17" font-family="Helvetica,sans-Serif" font-size="10.00">Storm::IdrsSolver&lt;</text>
<text text-anchor="middle" x="846.62" y="-5.75" font-family="Helvetica,sans-Serif" font-size="10.00"> Vector &gt;</text>
</a>
</g>
</g>
<!-- Node26&#45;&gt;Node33 -->
<g id="edge32_Node000026_Node000033" class="edge">
<title>Node26&#45;&gt;Node33</title>
<g id="a_edge32_Node000026_Node000033"><a xlink:title=" ">
<path fill="none" stroke="#63b8ff" d="M737.07,-92.64C739.38,-91.26 741.62,-89.8 743.75,-88.25 765.32,-72.57 758.44,-56.28 779.75,-40.25 785.03,-36.28 791.01,-32.87 797.17,-29.96"/>
<polygon fill="#63b8ff" stroke="#63b8ff" points="736.04,-89.75 728.84,-97.52 739.31,-95.94 736.04,-89.75"/>
</a>
</g>
</g>
<!-- Node28 -->
<g id="Node000028" class="node">
<title>Node28</title>
<g id="a_Node000028"><a xlink:href="class_storm_1_1_fgmres_solver.html" target="_top" xlink:title="The FGMRES (Flexible Generalized Minimal Residual) linear operator equation solver.">
<polygon fill="white" stroke="#666666" points="1058.5,-226.5 949.5,-226.5 949.5,-196 1058.5,-196 1058.5,-226.5"/>
<text text-anchor="start" x="957.5" y="-213" font-family="Helvetica,sans-Serif" font-size="10.00">Storm::FgmresSolver</text>
<text text-anchor="middle" x="1004" y="-201.75" font-family="Helvetica,sans-Serif" font-size="10.00">&lt; Vector &gt;</text>
</a>
</g>
</g>
<!-- Node27&#45;&gt;Node28 -->
<g id="edge27_Node000027_Node000028" class="edge">
<title>Node27&#45;&gt;Node28</title>
<g id="a_edge27_Node000027_Node000028"><a xlink:title=" ">
<path fill="none" stroke="#63b8ff" d="M921.69,-211.25C931.01,-211.25 940.39,-211.25 949.31,-211.25"/>
<polygon fill="#63b8ff" stroke="#63b8ff" points="921.82,-207.75 911.82,-211.25 921.82,-214.75 921.82,-207.75"/>
</a>
</g>
</g>
<!-- Node30 -->
<g id="Node000030" class="node">
<title>Node30</title>
<g id="a_Node000030"><a xlink:href="class_storm_1_1_gmres_solver.html" target="_top" xlink:title="The GMRES (Generalized Minimal Residual) linear operator equation solver.">
<polygon fill="white" stroke="#666666" points="1056.62,-177.5 951.38,-177.5 951.38,-147 1056.62,-147 1056.62,-177.5"/>
<text text-anchor="start" x="959.38" y="-164" font-family="Helvetica,sans-Serif" font-size="10.00">Storm::GmresSolver</text>
<text text-anchor="middle" x="1004" y="-152.75" font-family="Helvetica,sans-Serif" font-size="10.00">&lt; Vector &gt;</text>
</a>
</g>
</g>
<!-- Node29&#45;&gt;Node30 -->
<g id="edge29_Node000029_Node000030" class="edge">
<title>Node29&#45;&gt;Node30</title>
<g id="a_edge29_Node000029_Node000030"><a xlink:title=" ">
<path fill="none" stroke="#63b8ff" d="M921.63,-162.25C931.65,-162.25 941.75,-162.25 951.26,-162.25"/>
<polygon fill="#63b8ff" stroke="#63b8ff" points="921.82,-158.75 911.82,-162.25 921.82,-165.75 921.82,-158.75"/>
</a>
</g>
</g>
</g>
</svg>
