<?xml version="1.0" encoding="UTF-8" standalone="no"?>
<!DOCTYPE svg PUBLIC "-//W3C//DTD SVG 1.1//EN"
 "http://www.w3.org/Graphics/SVG/1.1/DTD/svg11.dtd">
<!-- Generated by graphviz version 7.1.0 (20230121.1956)
 -->
<!-- Title: Storm::TargetMatrixView&lt; Matrix &gt; Pages: 1 -->
<svg width="324pt" height="124pt"
 viewBox="0.00 0.00 324.00 123.50" xmlns="http://www.w3.org/2000/svg" xmlns:xlink="http://www.w3.org/1999/xlink">
<g id="graph0" class="graph" transform="scale(1 1) rotate(0) translate(4 119.5)">
<title>Storm::TargetMatrixView&lt; Matrix &gt;</title>
<!-- Node1 -->
<g id="node1" class="node">
<title>Node1</title>
<g id="a_node1"><a xlink:title="Output matrix as target wrapper.">
<polygon fill="#999999" stroke="#666666" points="316,-67.5 191,-67.5 191,-37.5 316,-37.5 316,-67.5"/>
<text text-anchor="start" x="199" y="-55.5" font-family="Helvetica,sans-Serif" font-size="10.00">Storm::TargetMatrixView</text>
<text text-anchor="middle" x="253.5" y="-44.5" font-family="Helvetica,sans-Serif" font-size="10.00">&lt; Matrix &gt;</text>
</a>
</g>
</g>
<!-- Node2 -->
<g id="node2" class="node">
<title>Node2</title>
<g id="a_node2"><a xlink:href="class_storm_1_1_matrix_view_interface.html" target="_top" xlink:title=" ">
<polygon fill="white" stroke="#666666" points="155,-115.5 0,-115.5 0,-85.5 155,-85.5 155,-115.5"/>
<text text-anchor="start" x="8" y="-103.5" font-family="Helvetica,sans-Serif" font-size="10.00">Storm::MatrixViewInterface</text>
<text text-anchor="middle" x="77.5" y="-92.5" font-family="Helvetica,sans-Serif" font-size="10.00">&lt; TargetMatrixView&lt; Matrix &gt; &gt;</text>
</a>
</g>
</g>
<!-- Node2&#45;&gt;Node1 -->
<g id="edge1" class="edge">
<title>Node2&#45;&gt;Node1</title>
<path fill="none" stroke="#63b8ff" d="M145.43,-82.04C162.33,-77.37 180.3,-72.42 196.59,-67.92"/>
<polygon fill="#63b8ff" stroke="#63b8ff" points="144.68,-78.61 135.97,-84.65 146.54,-85.36 144.68,-78.61"/>
</g>
<!-- Node3 -->
<g id="node3" class="node">
<title>Node3</title>
<g id="a_node3"><a xlink:href="class_storm_1_1_target_matrix_interface.html" target="_top" xlink:title=" ">
<polygon fill="white" stroke="#666666" points="155,-67.5 0,-67.5 0,-37.5 155,-37.5 155,-67.5"/>
<text text-anchor="start" x="8" y="-55.5" font-family="Helvetica,sans-Serif" font-size="10.00">Storm::TargetMatrixInterface</text>
<text text-anchor="middle" x="77.5" y="-44.5" font-family="Helvetica,sans-Serif" font-size="10.00">&lt; TargetMatrixView&lt; Matrix &gt; &gt;</text>
</a>
</g>
</g>
<!-- Node3&#45;&gt;Node1 -->
<g id="edge2" class="edge">
<title>Node3&#45;&gt;Node1</title>
<path fill="none" stroke="#63b8ff" d="M166.75,-52.5C174.84,-52.5 182.92,-52.5 190.7,-52.5"/>
<polygon fill="#63b8ff" stroke="#63b8ff" points="166.84,-49 156.84,-52.5 166.84,-56 166.84,-49"/>
</g>
<!-- Node4 -->
<g id="node4" class="node">
<title>Node4</title>
<g id="a_node4"><a xlink:href="class_storm_1_1_non_movable.html" target="_top" xlink:title="Non movable (and non copyable) object interface.">
<polygon fill="white" stroke="#666666" points="129.5,-19 25.5,-19 25.5,0 129.5,0 129.5,-19"/>
<text text-anchor="middle" x="77.5" y="-7" font-family="Helvetica,sans-Serif" font-size="10.00">Storm::NonMovable</text>
</a>
</g>
</g>
<!-- Node4&#45;&gt;Node1 -->
<g id="edge3" class="edge">
<title>Node4&#45;&gt;Node1</title>
<path fill="none" stroke="#63b8ff" d="M129.99,-22.22C148.99,-26.92 170.71,-32.29 190.54,-37.19"/>
<polygon fill="#63b8ff" stroke="#63b8ff" points="130.87,-18.84 120.33,-19.84 129.19,-25.63 130.87,-18.84"/>
</g>
</g>
</svg>
