<?xml version="1.0" encoding="UTF-8" standalone="no"?>
<!DOCTYPE svg PUBLIC "-//W3C//DTD SVG 1.1//EN"
 "http://www.w3.org/Graphics/SVG/1.1/DTD/svg11.dtd">
<!-- Generated by graphviz version 7.0.4 (20221203.1631)
 -->
<!-- Title: Storm::TargetMatrixInterface&lt; TargetMatrix &gt; Pages: 1 -->
<svg width="477pt" height="157pt"
 viewBox="0.00 0.00 477.00 156.50" xmlns="http://www.w3.org/2000/svg" xmlns:xlink="http://www.w3.org/1999/xlink">
<g id="graph0" class="graph" transform="scale(1 1) rotate(0) translate(4 152.5)">
<title>Storm::TargetMatrixInterface&lt; TargetMatrix &gt;</title>
<!-- Node1 -->
<g id="node1" class="node">
<title>Node1</title>
<g id="a_node1"><a xlink:title="CRTP interface to a target matrix.">
<polygon fill="#999999" stroke="#666666" points="292,-94.5 151,-94.5 151,-64.5 292,-64.5 292,-94.5"/>
<text text-anchor="start" x="159" y="-82.5" font-family="Helvetica,sans-Serif" font-size="10.00">Storm::TargetMatrixInterface</text>
<text text-anchor="middle" x="221.5" y="-71.5" font-family="Helvetica,sans-Serif" font-size="10.00">&lt; TargetMatrix &gt;</text>
</a>
</g>
</g>
<!-- Node3 -->
<g id="node3" class="node">
<title>Node3</title>
<g id="a_node3"><a xlink:href="class_storm_1_1_feathers_1_1_field.html" target="_top" xlink:title=" ">
<polygon fill="white" stroke="#666666" points="455.5,-148.5 341.5,-148.5 341.5,-118.5 455.5,-118.5 455.5,-148.5"/>
<text text-anchor="start" x="349.5" y="-136.5" font-family="Helvetica,sans-Serif" font-size="10.00">Storm::Feathers::Field</text>
<text text-anchor="middle" x="398.5" y="-125.5" font-family="Helvetica,sans-Serif" font-size="10.00">&lt; Mesh, real_t &gt;</text>
</a>
</g>
</g>
<!-- Node1&#45;&gt;Node3 -->
<g id="edge2" class="edge">
<title>Node1&#45;&gt;Node3</title>
<path fill="none" stroke="#63b8ff" d="M283.63,-98.36C304.46,-104.79 327.48,-111.89 347.34,-118.02"/>
<polygon fill="#63b8ff" stroke="#63b8ff" points="284.68,-95.02 274.09,-95.42 282.62,-101.71 284.68,-95.02"/>
</g>
<!-- Node4 -->
<g id="node4" class="node">
<title>Node4</title>
<g id="a_node4"><a xlink:href="class_storm_1_1_feathers_1_1_field.html" target="_top" xlink:title=" ">
<polygon fill="white" stroke="#666666" points="469,-100 328,-100 328,-59 469,-59 469,-100"/>
<text text-anchor="start" x="336" y="-88" font-family="Helvetica,sans-Serif" font-size="10.00">Storm::Feathers::Field</text>
<text text-anchor="start" x="336" y="-77" font-family="Helvetica,sans-Serif" font-size="10.00">&lt; Storm::UnstructuredMesh,</text>
<text text-anchor="middle" x="398.5" y="-66" font-family="Helvetica,sans-Serif" font-size="10.00"> real_t, 5 &gt;</text>
</a>
</g>
</g>
<!-- Node1&#45;&gt;Node4 -->
<g id="edge3" class="edge">
<title>Node1&#45;&gt;Node4</title>
<path fill="none" stroke="#63b8ff" d="M303.68,-79.5C311.71,-79.5 319.8,-79.5 327.69,-79.5"/>
<polygon fill="#63b8ff" stroke="#63b8ff" points="303.93,-76 293.93,-79.5 303.93,-83 303.93,-76"/>
</g>
<!-- Node5 -->
<g id="node5" class="node">
<title>Node5</title>
<g id="a_node5"><a xlink:href="class_storm_1_1_feathers_1_1_field.html" target="_top" xlink:title="Generic mesh field.">
<polygon fill="white" stroke="#666666" points="455.5,-41 341.5,-41 341.5,0 455.5,0 455.5,-41"/>
<text text-anchor="start" x="349.5" y="-29" font-family="Helvetica,sans-Serif" font-size="10.00">Storm::Feathers::Field</text>
<text text-anchor="start" x="349.5" y="-18" font-family="Helvetica,sans-Serif" font-size="10.00">&lt; Mesh, Index, Value,</text>
<text text-anchor="middle" x="398.5" y="-7" font-family="Helvetica,sans-Serif" font-size="10.00"> NumVars &gt;</text>
</a>
</g>
</g>
<!-- Node1&#45;&gt;Node5 -->
<g id="edge4" class="edge">
<title>Node1&#45;&gt;Node5</title>
<path fill="none" stroke="#63b8ff" d="M278.83,-60.51C298.81,-53.77 321.29,-46.2 341.26,-39.46"/>
<polygon fill="#63b8ff" stroke="#63b8ff" points="277.81,-57.16 269.46,-63.67 280.05,-63.79 277.81,-57.16"/>
</g>
<!-- Node2 -->
<g id="node2" class="node">
<title>Node2</title>
<g id="a_node2"><a xlink:href="class_storm_1_1_non_assignable.html" target="_top" xlink:title="Non assignable object interface.">
<polygon fill="white" stroke="#666666" points="115,-89 0,-89 0,-70 115,-70 115,-89"/>
<text text-anchor="middle" x="57.5" y="-77" font-family="Helvetica,sans-Serif" font-size="10.00">Storm::NonAssignable</text>
</a>
</g>
</g>
<!-- Node2&#45;&gt;Node1 -->
<g id="edge1" class="edge">
<title>Node2&#45;&gt;Node1</title>
<path fill="none" stroke="#63b8ff" d="M126.67,-79.5C134.64,-79.5 142.77,-79.5 150.76,-79.5"/>
<polygon fill="#63b8ff" stroke="#63b8ff" points="126.67,-76 116.67,-79.5 126.67,-83 126.67,-76"/>
</g>
</g>
</svg>
