<?xml version="1.0" encoding="UTF-8" standalone="no"?>
<!DOCTYPE svg PUBLIC "-//W3C//DTD SVG 1.1//EN"
 "http://www.w3.org/Graphics/SVG/1.1/DTD/svg11.dtd">
<!-- Generated by graphviz version 8.1.0 (20230707.0739)
 -->
<!-- Title: Storm::Vulture::gl::MultisampledTexture2D&lt; Pixel &gt; Pages: 1 -->
<svg width="133pt" height="172pt"
 viewBox="0.00 0.00 132.75 171.50" xmlns="http://www.w3.org/2000/svg" xmlns:xlink="http://www.w3.org/1999/xlink">
<g id="graph0" class="graph" transform="scale(1 1) rotate(0) translate(4 167.5)">
<title>Storm::Vulture::gl::MultisampledTexture2D&lt; Pixel &gt;</title>
<!-- Node1 -->
<g id="Node000001" class="node">
<title>Node1</title>
<g id="a_Node000001"><a xlink:title="OpenGL multisampled 2D texture.">
<polygon fill="#999999" stroke="#666666" points="124.75,-41.75 0,-41.75 0,0 124.75,0 124.75,-41.75"/>
<text text-anchor="start" x="8" y="-28.25" font-family="Helvetica,sans-Serif" font-size="10.00">Storm::Vulture::gl</text>
<text text-anchor="start" x="8" y="-17" font-family="Helvetica,sans-Serif" font-size="10.00">::MultisampledTexture2D</text>
<text text-anchor="middle" x="62.38" y="-5.75" font-family="Helvetica,sans-Serif" font-size="10.00">&lt; Pixel &gt;</text>
</a>
</g>
</g>
<!-- Node2 -->
<g id="Node000002" class="node">
<title>Node2</title>
<g id="a_Node000002"><a xlink:href="class_storm_1_1_vulture_1_1gl_1_1_texture.html" target="_top" xlink:title="OpenGL texture.">
<polygon fill="white" stroke="#666666" points="108.62,-108.25 16.12,-108.25 16.12,-77.75 108.62,-77.75 108.62,-108.25"/>
<text text-anchor="start" x="24.12" y="-94.75" font-family="Helvetica,sans-Serif" font-size="10.00">Storm::Vulture::gl</text>
<text text-anchor="middle" x="62.38" y="-83.5" font-family="Helvetica,sans-Serif" font-size="10.00">::Texture</text>
</a>
</g>
</g>
<!-- Node2&#45;&gt;Node1 -->
<g id="edge1_Node000001_Node000002" class="edge">
<title>Node2&#45;&gt;Node1</title>
<g id="a_edge1_Node000001_Node000002"><a xlink:title=" ">
<path fill="none" stroke="#63b8ff" d="M62.38,-66.5C62.38,-58.52 62.38,-49.82 62.38,-42.24"/>
<polygon fill="#63b8ff" stroke="#63b8ff" points="58.88,-66.47 62.38,-76.47 65.88,-66.47 58.88,-66.47"/>
</a>
</g>
</g>
<!-- Node3 -->
<g id="Node000003" class="node">
<title>Node3</title>
<g id="a_Node000003"><a xlink:href="class_storm_1_1_non_copyable.html" target="_top" xlink:title="Non copyable object interface.">
<polygon fill="white" stroke="#666666" points="117.62,-163.5 7.12,-163.5 7.12,-144.25 117.62,-144.25 117.62,-163.5"/>
<text text-anchor="middle" x="62.38" y="-150" font-family="Helvetica,sans-Serif" font-size="10.00">detail_::noncopyable_</text>
</a>
</g>
</g>
<!-- Node3&#45;&gt;Node2 -->
<g id="edge2_Node000002_Node000003" class="edge">
<title>Node3&#45;&gt;Node2</title>
<g id="a_edge2_Node000002_Node000003"><a xlink:title=" ">
<path fill="none" stroke="#8b1a1a" d="M62.38,-132.95C62.38,-124.95 62.38,-115.9 62.38,-108.53"/>
<polygon fill="#8b1a1a" stroke="#8b1a1a" points="58.88,-132.93 62.38,-142.93 65.88,-132.93 58.88,-132.93"/>
</a>
</g>
</g>
</g>
</svg>
