<?xml version="1.0" encoding="UTF-8" standalone="no"?>
<!DOCTYPE svg PUBLIC "-//W3C//DTD SVG 1.1//EN"
 "http://www.w3.org/Graphics/SVG/1.1/DTD/svg11.dtd">
<!-- Generated by graphviz version 7.0.4 (20221203.1631)
 -->
<!-- Title: Storm::Feathers::LinearUpwindConvectionScheme&lt; Mesh, FluxScheme, GradientScheme, GradientLimiterScheme &gt; Pages: 1 -->
<svg width="217pt" height="170pt"
 viewBox="0.00 0.00 217.00 170.00" xmlns="http://www.w3.org/2000/svg" xmlns:xlink="http://www.w3.org/1999/xlink">
<g id="graph0" class="graph" transform="scale(1 1) rotate(0) translate(4 166)">
<title>Storm::Feathers::LinearUpwindConvectionScheme&lt; Mesh, FluxScheme, GradientScheme, GradientLimiterScheme &gt;</title>
<!-- Node1 -->
<g id="node1" class="node">
<title>Node1</title>
<g id="a_node1"><a xlink:title="Piecewise&#45;linear upwind convection scheme.">
<polygon fill="#999999" stroke="#666666" points="209,-41 0,-41 0,0 209,0 209,-41"/>
<text text-anchor="start" x="8" y="-29" font-family="Helvetica,sans-Serif" font-size="10.00">Storm::Feathers::LinearUpwind</text>
<text text-anchor="start" x="8" y="-18" font-family="Helvetica,sans-Serif" font-size="10.00">ConvectionScheme&lt; Mesh, FluxScheme,</text>
<text text-anchor="middle" x="104.5" y="-7" font-family="Helvetica,sans-Serif" font-size="10.00"> GradientScheme, GradientLimiterScheme &gt;</text>
</a>
</g>
</g>
<!-- Node2 -->
<g id="node2" class="node">
<title>Node2</title>
<g id="a_node2"><a xlink:href="class_storm_1_1_feathers_1_1i_convection_scheme.html" target="_top" xlink:title=" ">
<polygon fill="white" stroke="#666666" points="177,-107 32,-107 32,-77 177,-77 177,-107"/>
<text text-anchor="start" x="40" y="-95" font-family="Helvetica,sans-Serif" font-size="10.00">Storm::Feathers::iConvection</text>
<text text-anchor="middle" x="104.5" y="-84" font-family="Helvetica,sans-Serif" font-size="10.00">Scheme</text>
</a>
</g>
</g>
<!-- Node2&#45;&gt;Node1 -->
<g id="edge1" class="edge">
<title>Node2&#45;&gt;Node1</title>
<path fill="none" stroke="#63b8ff" d="M104.5,-65.36C104.5,-57.45 104.5,-48.87 104.5,-41.42"/>
<polygon fill="#63b8ff" stroke="#63b8ff" points="101,-65.09 104.5,-75.09 108,-65.09 101,-65.09"/>
</g>
<!-- Node3 -->
<g id="node3" class="node">
<title>Node3</title>
<g id="a_node3"><a xlink:title=" ">
<polygon fill="white" stroke="#bfbfbf" points="181.5,-162 27.5,-162 27.5,-143 181.5,-143 181.5,-162"/>
<text text-anchor="middle" x="104.5" y="-150" font-family="Helvetica,sans-Serif" font-size="10.00">tObject&lt; iConvectionScheme &gt;</text>
</a>
</g>
</g>
<!-- Node3&#45;&gt;Node2 -->
<g id="edge2" class="edge">
<title>Node3&#45;&gt;Node2</title>
<path fill="none" stroke="#63b8ff" d="M104.5,-131.51C104.5,-123.49 104.5,-114.43 104.5,-107.11"/>
<polygon fill="#63b8ff" stroke="#63b8ff" points="101,-131.35 104.5,-141.35 108,-131.35 101,-131.35"/>
</g>
</g>
</svg>
