<?xml version="1.0" encoding="UTF-8" standalone="no"?>
<!DOCTYPE svg PUBLIC "-//W3C//DTD SVG 1.1//EN"
 "http://www.w3.org/Graphics/SVG/1.1/DTD/svg11.dtd">
<!-- Generated by graphviz version 7.0.4 (20221203.1631)
 -->
<!-- Title: Storm::StaticMatrix&lt; Elem, NumRows, NumCols &gt; Pages: 1 -->
<svg width="173pt" height="170pt"
 viewBox="0.00 0.00 173.00 170.00" xmlns="http://www.w3.org/2000/svg" xmlns:xlink="http://www.w3.org/1999/xlink">
<g id="graph0" class="graph" transform="scale(1 1) rotate(0) translate(4 166)">
<title>Storm::StaticMatrix&lt; Elem, NumRows, NumCols &gt;</title>
<!-- Node1 -->
<g id="node1" class="node">
<title>Node1</title>
<g id="a_node1"><a xlink:title="Statically&#45;sized matrix.">
<polygon fill="#999999" stroke="#666666" points="161,-30 4,-30 4,0 161,0 161,-30"/>
<text text-anchor="start" x="12" y="-18" font-family="Helvetica,sans-Serif" font-size="10.00">Storm::StaticMatrix</text>
<text text-anchor="middle" x="82.5" y="-7" font-family="Helvetica,sans-Serif" font-size="10.00">&lt; Elem, NumRows, NumCols &gt;</text>
</a>
</g>
</g>
<!-- Node2 -->
<g id="node2" class="node">
<title>Node2</title>
<g id="a_node2"><a xlink:href="class_storm_1_1_target_matrix_interface.html" target="_top" xlink:title=" ">
<polygon fill="white" stroke="#666666" points="165,-107 0,-107 0,-66 165,-66 165,-107"/>
<text text-anchor="start" x="8" y="-95" font-family="Helvetica,sans-Serif" font-size="10.00">Storm::TargetMatrixInterface</text>
<text text-anchor="start" x="8" y="-84" font-family="Helvetica,sans-Serif" font-size="10.00">&lt; StaticMatrix&lt; Elem, NumRows,</text>
<text text-anchor="middle" x="82.5" y="-73" font-family="Helvetica,sans-Serif" font-size="10.00"> NumCols &gt; &gt;</text>
</a>
</g>
</g>
<!-- Node2&#45;&gt;Node1 -->
<g id="edge1" class="edge">
<title>Node2&#45;&gt;Node1</title>
<path fill="none" stroke="#63b8ff" d="M82.5,-54.38C82.5,-46.04 82.5,-37.43 82.5,-30.47"/>
<polygon fill="#63b8ff" stroke="#63b8ff" points="79,-54.26 82.5,-64.26 86,-54.26 79,-54.26"/>
</g>
<!-- Node3 -->
<g id="node3" class="node">
<title>Node3</title>
<g id="a_node3"><a xlink:href="class_storm_1_1_non_assignable.html" target="_top" xlink:title="Non assignable object interface.">
<polygon fill="white" stroke="#666666" points="140,-162 25,-162 25,-143 140,-143 140,-162"/>
<text text-anchor="middle" x="82.5" y="-150" font-family="Helvetica,sans-Serif" font-size="10.00">Storm::NonAssignable</text>
</a>
</g>
</g>
<!-- Node3&#45;&gt;Node2 -->
<g id="edge2" class="edge">
<title>Node3&#45;&gt;Node2</title>
<path fill="none" stroke="#63b8ff" d="M82.5,-131.14C82.5,-123.54 82.5,-114.93 82.5,-107.38"/>
<polygon fill="#63b8ff" stroke="#63b8ff" points="79,-131.09 82.5,-141.09 86,-131.09 79,-131.09"/>
</g>
</g>
</svg>
