<?xml version="1.0" encoding="UTF-8" standalone="no"?>
<!DOCTYPE svg PUBLIC "-//W3C//DTD SVG 1.1//EN"
 "http://www.w3.org/Graphics/SVG/1.1/DTD/svg11.dtd">
<!-- Generated by graphviz version 8.1.0 (20230707.0739)
 -->
<!-- Title: Storm::Feathers::LinearUpwindConvectionScheme&lt; Mesh, FluxScheme, GradientScheme, GradientLimiterScheme &gt; Pages: 1 -->
<svg width="217pt" height="172pt"
 viewBox="0.00 0.00 216.75 171.50" xmlns="http://www.w3.org/2000/svg" xmlns:xlink="http://www.w3.org/1999/xlink">
<g id="graph0" class="graph" transform="scale(1 1) rotate(0) translate(4 167.5)">
<title>Storm::Feathers::LinearUpwindConvectionScheme&lt; Mesh, FluxScheme, GradientScheme, GradientLimiterScheme &gt;</title>
<!-- Node1 -->
<g id="Node000001" class="node">
<title>Node1</title>
<g id="a_Node000001"><a xlink:title="Piecewise&#45;linear upwind convection scheme.">
<polygon fill="#999999" stroke="#666666" points="208.75,-41.75 0,-41.75 0,0 208.75,0 208.75,-41.75"/>
<text text-anchor="start" x="8" y="-28.25" font-family="Helvetica,sans-Serif" font-size="10.00">Storm::Feathers::LinearUpwind</text>
<text text-anchor="start" x="8" y="-17" font-family="Helvetica,sans-Serif" font-size="10.00">ConvectionScheme&lt; Mesh, FluxScheme,</text>
<text text-anchor="middle" x="104.38" y="-5.75" font-family="Helvetica,sans-Serif" font-size="10.00"> GradientScheme, GradientLimiterScheme &gt;</text>
</a>
</g>
</g>
<!-- Node2 -->
<g id="Node000002" class="node">
<title>Node2</title>
<g id="a_Node000002"><a xlink:href="class_storm_1_1_feathers_1_1i_convection_scheme.html" target="_top" xlink:title=" ">
<polygon fill="white" stroke="#666666" points="176.5,-108.25 32.25,-108.25 32.25,-77.75 176.5,-77.75 176.5,-108.25"/>
<text text-anchor="start" x="40.25" y="-94.75" font-family="Helvetica,sans-Serif" font-size="10.00">Storm::Feathers::iConvection</text>
<text text-anchor="middle" x="104.38" y="-83.5" font-family="Helvetica,sans-Serif" font-size="10.00">Scheme</text>
</a>
</g>
</g>
<!-- Node2&#45;&gt;Node1 -->
<g id="edge1_Node000001_Node000002" class="edge">
<title>Node2&#45;&gt;Node1</title>
<g id="a_edge1_Node000001_Node000002"><a xlink:title=" ">
<path fill="none" stroke="#63b8ff" d="M104.38,-66.5C104.38,-58.52 104.38,-49.82 104.38,-42.24"/>
<polygon fill="#63b8ff" stroke="#63b8ff" points="100.88,-66.47 104.38,-76.47 107.88,-66.47 100.88,-66.47"/>
</a>
</g>
</g>
<!-- Node3 -->
<g id="Node000003" class="node">
<title>Node3</title>
<g id="a_Node000003"><a xlink:title=" ">
<polygon fill="white" stroke="#bfbfbf" points="181,-163.5 27.75,-163.5 27.75,-144.25 181,-144.25 181,-163.5"/>
<text text-anchor="middle" x="104.38" y="-150" font-family="Helvetica,sans-Serif" font-size="10.00">tObject&lt; iConvectionScheme &gt;</text>
</a>
</g>
</g>
<!-- Node3&#45;&gt;Node2 -->
<g id="edge2_Node000002_Node000003" class="edge">
<title>Node3&#45;&gt;Node2</title>
<g id="a_edge2_Node000002_Node000003"><a xlink:title=" ">
<path fill="none" stroke="#63b8ff" d="M104.38,-132.95C104.38,-124.95 104.38,-115.9 104.38,-108.53"/>
<polygon fill="#63b8ff" stroke="#63b8ff" points="100.88,-132.93 104.38,-142.93 107.88,-132.93 100.88,-132.93"/>
</a>
</g>
</g>
</g>
</svg>
