<?xml version="1.0" encoding="UTF-8" standalone="no"?>
<!DOCTYPE svg PUBLIC "-//W3C//DTD SVG 1.1//EN"
 "http://www.w3.org/Graphics/SVG/1.1/DTD/svg11.dtd">
<!-- Generated by graphviz version 8.1.0 (20230707.0739)
 -->
<!-- Title: Storm::FilteringStreambuf&lt; Char, BeginFilter, EndFilter &gt; Pages: 1 -->
<svg width="280pt" height="105pt"
 viewBox="0.00 0.00 279.62 105.00" xmlns="http://www.w3.org/2000/svg" xmlns:xlink="http://www.w3.org/1999/xlink">
<g id="graph0" class="graph" transform="scale(1 1) rotate(0) translate(4 101)">
<title>Storm::FilteringStreambuf&lt; Char, BeginFilter, EndFilter &gt;</title>
<!-- Node1 -->
<g id="Node000001" class="node">
<title>Node1</title>
<g id="a_Node000001"><a xlink:title="Filtering stream buffer.">
<polygon fill="#999999" stroke="#666666" points="201.25,-30.5 50.25,-30.5 50.25,0 201.25,0 201.25,-30.5"/>
<text text-anchor="start" x="58.25" y="-17" font-family="Helvetica,sans-Serif" font-size="10.00">Storm::FilteringStreambuf</text>
<text text-anchor="middle" x="125.75" y="-5.75" font-family="Helvetica,sans-Serif" font-size="10.00">&lt; Char, BeginFilter, EndFilter &gt;</text>
</a>
</g>
</g>
<!-- Node2 -->
<g id="Node000002" class="node">
<title>Node2</title>
<g id="a_Node000002"><a xlink:title=" ">
<polygon fill="white" stroke="#bfbfbf" points="107.5,-97 0,-97 0,-66.5 107.5,-66.5 107.5,-97"/>
<text text-anchor="start" x="8" y="-83.5" font-family="Helvetica,sans-Serif" font-size="10.00">std::basic_streambuf</text>
<text text-anchor="middle" x="53.75" y="-72.25" font-family="Helvetica,sans-Serif" font-size="10.00">&lt; Char &gt;</text>
</a>
</g>
</g>
<!-- Node2&#45;&gt;Node1 -->
<g id="edge1_Node000001_Node000002" class="edge">
<title>Node2&#45;&gt;Node1</title>
<g id="a_edge1_Node000001_Node000002"><a xlink:title=" ">
<path fill="none" stroke="#63b8ff" d="M78.01,-59.02C88.37,-49.73 100.19,-39.15 109.48,-30.83"/>
<polygon fill="#63b8ff" stroke="#63b8ff" points="76.2,-55.83 71.09,-65.11 80.87,-61.05 76.2,-55.83"/>
</a>
</g>
</g>
<!-- Node3 -->
<g id="Node000003" class="node">
<title>Node3</title>
<g id="a_Node000003"><a xlink:href="class_storm_1_1_non_copyable_interface.html" target="_top" xlink:title="Non copyable object interface.">
<polygon fill="white" stroke="#666666" points="271.62,-91.38 125.88,-91.38 125.88,-72.12 271.62,-72.12 271.62,-91.38"/>
<text text-anchor="middle" x="198.75" y="-77.88" font-family="Helvetica,sans-Serif" font-size="10.00">Storm::NonCopyableInterface</text>
</a>
</g>
</g>
<!-- Node3&#45;&gt;Node1 -->
<g id="edge2_Node000001_Node000003" class="edge">
<title>Node3&#45;&gt;Node1</title>
<g id="a_edge2_Node000001_Node000003"><a xlink:title=" ">
<path fill="none" stroke="#63b8ff" d="M180.41,-64.54C168.68,-54.19 153.61,-40.87 142.26,-30.84"/>
<polygon fill="#63b8ff" stroke="#63b8ff" points="177.79,-66.78 187.6,-70.78 182.42,-61.54 177.79,-66.78"/>
</a>
</g>
</g>
</g>
</svg>
