<?xml version="1.0" encoding="UTF-8" standalone="no"?>
<!DOCTYPE svg PUBLIC "-//W3C//DTD SVG 1.1//EN"
 "http://www.w3.org/Graphics/SVG/1.1/DTD/svg11.dtd">
<!-- Generated by graphviz version 8.0.5 (20230430.1635)
 -->
<!-- Title: Storm::Feathers::UpwindConvectionScheme&lt; Mesh, FluxScheme &gt; Pages: 1 -->
<svg width="183pt" height="160pt"
 viewBox="0.00 0.00 183.00 160.25" xmlns="http://www.w3.org/2000/svg" xmlns:xlink="http://www.w3.org/1999/xlink">
<g id="graph0" class="graph" transform="scale(1 1) rotate(0) translate(4 156.25)">
<title>Storm::Feathers::UpwindConvectionScheme&lt; Mesh, FluxScheme &gt;</title>
<!-- Node1 -->
<g id="node1" class="node">
<title>Node1</title>
<g id="a_node1"><a xlink:title="Piecewise&#45;constant upwind convection scheme.">
<polygon fill="#999999" stroke="#666666" points="175,-30.5 0,-30.5 0,0 175,0 175,-30.5"/>
<text text-anchor="start" x="8" y="-17" font-family="Helvetica,sans-Serif" font-size="10.00">Storm::Feathers::UpwindConvection</text>
<text text-anchor="middle" x="87.5" y="-5.75" font-family="Helvetica,sans-Serif" font-size="10.00">Scheme&lt; Mesh, FluxScheme &gt;</text>
</a>
</g>
</g>
<!-- Node2 -->
<g id="node2" class="node">
<title>Node2</title>
<g id="a_node2"><a xlink:href="class_storm_1_1_feathers_1_1i_convection_scheme.html" target="_top" xlink:title=" ">
<polygon fill="white" stroke="#666666" points="159.62,-97 15.38,-97 15.38,-66.5 159.62,-66.5 159.62,-97"/>
<text text-anchor="start" x="23.38" y="-83.5" font-family="Helvetica,sans-Serif" font-size="10.00">Storm::Feathers::iConvection</text>
<text text-anchor="middle" x="87.5" y="-72.25" font-family="Helvetica,sans-Serif" font-size="10.00">Scheme</text>
</a>
</g>
</g>
<!-- Node2&#45;&gt;Node1 -->
<g id="edge1" class="edge">
<title>Node2&#45;&gt;Node1</title>
<path fill="none" stroke="#63b8ff" d="M87.5,-55.38C87.5,-47.05 87.5,-38.08 87.5,-30.83"/>
<polygon fill="#63b8ff" stroke="#63b8ff" points="84,-55.11 87.5,-65.11 91,-55.11 84,-55.11"/>
</g>
<!-- Node3 -->
<g id="node3" class="node">
<title>Node3</title>
<g id="a_node3"><a xlink:title=" ">
<polygon fill="white" stroke="#bfbfbf" points="164.12,-152.25 10.88,-152.25 10.88,-133 164.12,-133 164.12,-152.25"/>
<text text-anchor="middle" x="87.5" y="-138.75" font-family="Helvetica,sans-Serif" font-size="10.00">tObject&lt; iConvectionScheme &gt;</text>
</a>
</g>
</g>
<!-- Node3&#45;&gt;Node2 -->
<g id="edge2" class="edge">
<title>Node3&#45;&gt;Node2</title>
<path fill="none" stroke="#63b8ff" d="M87.5,-121.7C87.5,-113.7 87.5,-104.65 87.5,-97.28"/>
<polygon fill="#63b8ff" stroke="#63b8ff" points="84,-121.68 87.5,-131.68 91,-121.68 84,-121.68"/>
</g>
</g>
</svg>
