<?xml version="1.0" encoding="UTF-8" standalone="no"?>
<!DOCTYPE svg PUBLIC "-//W3C//DTD SVG 1.1//EN"
 "http://www.w3.org/Graphics/SVG/1.1/DTD/svg11.dtd">
<!-- Generated by graphviz version 7.1.0 (20230121.1956)
 -->
<!-- Title: Storm::Feathers::UpwindConvectionScheme&lt; Mesh, FluxScheme &gt; Pages: 1 -->
<svg width="184pt" height="159pt"
 viewBox="0.00 0.00 184.00 159.00" xmlns="http://www.w3.org/2000/svg" xmlns:xlink="http://www.w3.org/1999/xlink">
<g id="graph0" class="graph" transform="scale(1 1) rotate(0) translate(4 155)">
<title>Storm::Feathers::UpwindConvectionScheme&lt; Mesh, FluxScheme &gt;</title>
<!-- Node1 -->
<g id="node1" class="node">
<title>Node1</title>
<g id="a_node1"><a xlink:title="Piecewise&#45;constant upwind convection scheme.">
<polygon fill="#999999" stroke="#666666" points="176,-30 0,-30 0,0 176,0 176,-30"/>
<text text-anchor="start" x="8" y="-18" font-family="Helvetica,sans-Serif" font-size="10.00">Storm::Feathers::UpwindConvection</text>
<text text-anchor="middle" x="88" y="-7" font-family="Helvetica,sans-Serif" font-size="10.00">Scheme&lt; Mesh, FluxScheme &gt;</text>
</a>
</g>
</g>
<!-- Node2 -->
<g id="node2" class="node">
<title>Node2</title>
<g id="a_node2"><a xlink:href="class_storm_1_1_feathers_1_1i_convection_scheme.html" target="_top" xlink:title=" ">
<polygon fill="white" stroke="#666666" points="160.5,-96 15.5,-96 15.5,-66 160.5,-66 160.5,-96"/>
<text text-anchor="start" x="23.5" y="-84" font-family="Helvetica,sans-Serif" font-size="10.00">Storm::Feathers::iConvection</text>
<text text-anchor="middle" x="88" y="-73" font-family="Helvetica,sans-Serif" font-size="10.00">Scheme</text>
</a>
</g>
</g>
<!-- Node2&#45;&gt;Node1 -->
<g id="edge1" class="edge">
<title>Node2&#45;&gt;Node1</title>
<path fill="none" stroke="#63b8ff" d="M88,-54.39C88,-46.13 88,-37.28 88,-30.16"/>
<polygon fill="#63b8ff" stroke="#63b8ff" points="84.5,-54.28 88,-64.28 91.5,-54.28 84.5,-54.28"/>
</g>
<!-- Node3 -->
<g id="node3" class="node">
<title>Node3</title>
<g id="a_node3"><a xlink:title=" ">
<polygon fill="white" stroke="#bfbfbf" points="165,-151 11,-151 11,-132 165,-132 165,-151"/>
<text text-anchor="middle" x="88" y="-139" font-family="Helvetica,sans-Serif" font-size="10.00">tObject&lt; iConvectionScheme &gt;</text>
</a>
</g>
</g>
<!-- Node3&#45;&gt;Node2 -->
<g id="edge2" class="edge">
<title>Node3&#45;&gt;Node2</title>
<path fill="none" stroke="#63b8ff" d="M88,-120.51C88,-112.49 88,-103.43 88,-96.11"/>
<polygon fill="#63b8ff" stroke="#63b8ff" points="84.5,-120.35 88,-130.35 91.5,-120.35 84.5,-120.35"/>
</g>
</g>
</svg>
