<?xml version="1.0" encoding="UTF-8" standalone="no"?>
<!DOCTYPE svg PUBLIC "-//W3C//DTD SVG 1.1//EN"
 "http://www.w3.org/Graphics/SVG/1.1/DTD/svg11.dtd">
<!-- Generated by graphviz version 8.1.0 (20230707.0739)
 -->
<!-- Title: Storm::FilteringStreambuf&lt; Char, BeginFilter, EndFilter &gt; Pages: 1 -->
<svg width="242pt" height="105pt"
 viewBox="0.00 0.00 241.50 105.00" xmlns="http://www.w3.org/2000/svg" xmlns:xlink="http://www.w3.org/1999/xlink">
<g id="graph0" class="graph" transform="scale(1 1) rotate(0) translate(4 101)">
<title>Storm::FilteringStreambuf&lt; Char, BeginFilter, EndFilter &gt;</title>
<!-- Node1 -->
<g id="Node000001" class="node">
<title>Node1</title>
<g id="a_Node000001"><a xlink:title="Filtering stream buffer.">
<polygon fill="#999999" stroke="#666666" points="192.25,-30.5 41.25,-30.5 41.25,0 192.25,0 192.25,-30.5"/>
<text text-anchor="start" x="49.25" y="-17" font-family="Helvetica,sans-Serif" font-size="10.00">Storm::FilteringStreambuf</text>
<text text-anchor="middle" x="116.75" y="-5.75" font-family="Helvetica,sans-Serif" font-size="10.00">&lt; Char, BeginFilter, EndFilter &gt;</text>
</a>
</g>
</g>
<!-- Node2 -->
<g id="Node000002" class="node">
<title>Node2</title>
<g id="a_Node000002"><a xlink:title=" ">
<polygon fill="white" stroke="#bfbfbf" points="107.5,-97 0,-97 0,-66.5 107.5,-66.5 107.5,-97"/>
<text text-anchor="start" x="8" y="-83.5" font-family="Helvetica,sans-Serif" font-size="10.00">std::basic_streambuf</text>
<text text-anchor="middle" x="53.75" y="-72.25" font-family="Helvetica,sans-Serif" font-size="10.00">&lt; Char &gt;</text>
</a>
</g>
</g>
<!-- Node2&#45;&gt;Node1 -->
<g id="edge1_Node000001_Node000002" class="edge">
<title>Node2&#45;&gt;Node1</title>
<g id="a_edge1_Node000001_Node000002"><a xlink:title=" ">
<path fill="none" stroke="#63b8ff" d="M75.52,-58.46C84.45,-49.32 94.55,-38.98 102.51,-30.83"/>
<polygon fill="#63b8ff" stroke="#63b8ff" points="73.53,-55.51 69.05,-65.11 78.54,-60.41 73.53,-55.51"/>
</a>
</g>
</g>
<!-- Node3 -->
<g id="Node000003" class="node">
<title>Node3</title>
<g id="a_Node000003"><a xlink:href="class_storm_1_1_non_copyable.html" target="_top" xlink:title="Non copyable object interface.">
<polygon fill="white" stroke="#666666" points="233.5,-91.38 126,-91.38 126,-72.12 233.5,-72.12 233.5,-91.38"/>
<text text-anchor="middle" x="179.75" y="-77.88" font-family="Helvetica,sans-Serif" font-size="10.00">Storm::NonCopyable</text>
</a>
</g>
</g>
<!-- Node3&#45;&gt;Node1 -->
<g id="edge2_Node000001_Node000003" class="edge">
<title>Node3&#45;&gt;Node1</title>
<g id="a_edge2_Node000001_Node000003"><a xlink:title=" ">
<path fill="none" stroke="#63b8ff" d="M163.57,-64.18C153.42,-53.79 140.47,-40.53 130.76,-30.59"/>
<polygon fill="#63b8ff" stroke="#63b8ff" points="160.5,-66.07 169.99,-70.78 165.51,-61.18 160.5,-66.07"/>
</a>
</g>
</g>
</g>
</svg>
