<?xml version="1.0" encoding="UTF-8" standalone="no"?>
<!DOCTYPE svg PUBLIC "-//W3C//DTD SVG 1.1//EN"
 "http://www.w3.org/Graphics/SVG/1.1/DTD/svg11.dtd">
<!-- Generated by graphviz version 7.0.2 (20221119.0110)
 -->
<!-- Title: Storm::NonAssignable Pages: 1 -->
<svg width="517pt" height="321pt"
 viewBox="0.00 0.00 517.00 321.00" xmlns="http://www.w3.org/2000/svg" xmlns:xlink="http://www.w3.org/1999/xlink">
<g id="graph0" class="graph" transform="scale(1 1) rotate(0) translate(4 317)">
<title>Storm::NonAssignable</title>
<!-- Node1 -->
<g id="node1" class="node">
<title>Node1</title>
<g id="a_node1"><a xlink:title="Non assignable object interface.">
<polygon fill="#999999" stroke="#666666" points="115,-189 0,-189 0,-170 115,-170 115,-189"/>
<text text-anchor="middle" x="57.5" y="-177" font-family="Helvetica,sans-Serif" font-size="10.00">Storm::NonAssignable</text>
</a>
</g>
</g>
<!-- Node2 -->
<g id="node2" class="node">
<title>Node2</title>
<g id="a_node2"><a xlink:href="class_storm_1_1_target_matrix_interface.html" target="_top" xlink:title=" ">
<polygon fill="white" stroke="#666666" points="304,-313 163,-313 163,-272 304,-272 304,-313"/>
<text text-anchor="start" x="171" y="-301" font-family="Helvetica,sans-Serif" font-size="10.00">Storm::TargetMatrixInterface</text>
<text text-anchor="start" x="171" y="-290" font-family="Helvetica,sans-Serif" font-size="10.00">&lt; Field&lt; Mesh, Index, real</text>
<text text-anchor="middle" x="233.5" y="-279" font-family="Helvetica,sans-Serif" font-size="10.00">_t, 1 &gt; &gt;</text>
</a>
</g>
</g>
<!-- Node1&#45;&gt;Node2 -->
<g id="edge1" class="edge">
<title>Node1&#45;&gt;Node2</title>
<path fill="none" stroke="#63b8ff" d="M74.66,-197.97C91.93,-216.72 120.91,-245.48 151,-263.5 155.9,-266.43 161.13,-269.13 166.51,-271.61"/>
<polygon fill="#63b8ff" stroke="#63b8ff" points="77.27,-195.63 67.98,-190.55 72.07,-200.32 77.27,-195.63"/>
</g>
<!-- Node3 -->
<g id="node3" class="node">
<title>Node3</title>
<g id="a_node3"><a xlink:href="class_storm_1_1_target_matrix_interface.html" target="_top" xlink:title=" ">
<polygon fill="white" stroke="#666666" points="316,-254 151,-254 151,-213 316,-213 316,-254"/>
<text text-anchor="start" x="159" y="-242" font-family="Helvetica,sans-Serif" font-size="10.00">Storm::TargetMatrixInterface</text>
<text text-anchor="start" x="159" y="-231" font-family="Helvetica,sans-Serif" font-size="10.00">&lt; StaticMatrix&lt; Elem, NumRows,</text>
<text text-anchor="middle" x="233.5" y="-220" font-family="Helvetica,sans-Serif" font-size="10.00"> NumCols &gt; &gt;</text>
</a>
</g>
</g>
<!-- Node1&#45;&gt;Node3 -->
<g id="edge2" class="edge">
<title>Node1&#45;&gt;Node3</title>
<path fill="none" stroke="#63b8ff" d="M101.24,-192.76C120.47,-198.73 143.63,-205.92 165.11,-212.58"/>
<polygon fill="#63b8ff" stroke="#63b8ff" points="102.45,-189.47 91.86,-189.85 100.37,-196.16 102.45,-189.47"/>
</g>
<!-- Node6 -->
<g id="node6" class="node">
<title>Node6</title>
<g id="a_node6"><a xlink:href="class_storm_1_1_target_matrix_interface.html" target="_top" xlink:title=" ">
<polygon fill="white" stroke="#666666" points="311,-194.5 156,-194.5 156,-164.5 311,-164.5 311,-194.5"/>
<text text-anchor="start" x="164" y="-182.5" font-family="Helvetica,sans-Serif" font-size="10.00">Storm::TargetMatrixInterface</text>
<text text-anchor="middle" x="233.5" y="-171.5" font-family="Helvetica,sans-Serif" font-size="10.00">&lt; TargetMatrixView&lt; Matrix &gt; &gt;</text>
</a>
</g>
</g>
<!-- Node1&#45;&gt;Node6 -->
<g id="edge5" class="edge">
<title>Node1&#45;&gt;Node6</title>
<path fill="none" stroke="#63b8ff" d="M126.87,-179.5C136.36,-179.5 146.16,-179.5 155.79,-179.5"/>
<polygon fill="#63b8ff" stroke="#63b8ff" points="126.99,-176 116.99,-179.5 126.99,-183 126.99,-176"/>
</g>
<!-- Node8 -->
<g id="node8" class="node">
<title>Node8</title>
<g id="a_node8"><a xlink:href="class_storm_1_1_target_matrix_interface.html" target="_top" xlink:title=" ">
<polygon fill="white" stroke="#666666" points="308.5,-146.5 158.5,-146.5 158.5,-116.5 308.5,-116.5 308.5,-146.5"/>
<text text-anchor="start" x="166.5" y="-134.5" font-family="Helvetica,sans-Serif" font-size="10.00">Storm::TargetMatrixInterface</text>
<text text-anchor="middle" x="233.5" y="-123.5" font-family="Helvetica,sans-Serif" font-size="10.00">&lt; Field&lt; Mesh, Index, 5, 1 &gt; &gt;</text>
</a>
</g>
</g>
<!-- Node1&#45;&gt;Node8 -->
<g id="edge7" class="edge">
<title>Node1&#45;&gt;Node8</title>
<path fill="none" stroke="#63b8ff" d="M105.58,-166.51C127.49,-160.47 153.71,-153.24 176.62,-146.92"/>
<polygon fill="#63b8ff" stroke="#63b8ff" points="104.72,-163.12 96.01,-169.15 106.58,-169.87 104.72,-163.12"/>
</g>
<!-- Node9 -->
<g id="node9" class="node">
<title>Node9</title>
<g id="a_node9"><a xlink:href="class_storm_1_1_target_matrix_interface.html" target="_top" xlink:title="CRTP interface to a target matrix.">
<polygon fill="white" stroke="#666666" points="304,-97.5 163,-97.5 163,-67.5 304,-67.5 304,-97.5"/>
<text text-anchor="start" x="171" y="-85.5" font-family="Helvetica,sans-Serif" font-size="10.00">Storm::TargetMatrixInterface</text>
<text text-anchor="middle" x="233.5" y="-74.5" font-family="Helvetica,sans-Serif" font-size="10.00">&lt; TargetMatrix &gt;</text>
</a>
</g>
</g>
<!-- Node1&#45;&gt;Node9 -->
<g id="edge8" class="edge">
<title>Node1&#45;&gt;Node9</title>
<path fill="none" stroke="#63b8ff" d="M76.69,-162.04C94.4,-145.89 122.71,-122.21 151,-107.5 157.96,-103.88 165.53,-100.69 173.16,-97.9"/>
<polygon fill="#63b8ff" stroke="#63b8ff" points="74.49,-159.31 69.56,-168.69 79.26,-164.43 74.49,-159.31"/>
</g>
<!-- Node4 -->
<g id="node4" class="node">
<title>Node4</title>
<g id="a_node4"><a xlink:href="class_storm_1_1_static_matrix.html" target="_top" xlink:title=" ">
<polygon fill="white" stroke="#666666" points="491,-294.5 370,-294.5 370,-264.5 491,-264.5 491,-294.5"/>
<text text-anchor="start" x="378" y="-282.5" font-family="Helvetica,sans-Serif" font-size="10.00">Storm::StaticMatrix</text>
<text text-anchor="middle" x="430.5" y="-271.5" font-family="Helvetica,sans-Serif" font-size="10.00">&lt; Elem, NumRows, 1 &gt;</text>
</a>
</g>
</g>
<!-- Node3&#45;&gt;Node4 -->
<g id="edge3" class="edge">
<title>Node3&#45;&gt;Node4</title>
<path fill="none" stroke="#63b8ff" d="M327.28,-255.39C341.63,-258.77 356.12,-262.19 369.5,-265.35"/>
<polygon fill="#63b8ff" stroke="#63b8ff" points="328.36,-252.05 317.82,-253.16 326.75,-258.86 328.36,-252.05"/>
</g>
<!-- Node5 -->
<g id="node5" class="node">
<title>Node5</title>
<g id="a_node5"><a xlink:href="class_storm_1_1_static_matrix.html" target="_top" xlink:title="Statically&#45;sized matrix.">
<polygon fill="white" stroke="#666666" points="509,-246.5 352,-246.5 352,-216.5 509,-216.5 509,-246.5"/>
<text text-anchor="start" x="360" y="-234.5" font-family="Helvetica,sans-Serif" font-size="10.00">Storm::StaticMatrix</text>
<text text-anchor="middle" x="430.5" y="-223.5" font-family="Helvetica,sans-Serif" font-size="10.00">&lt; Elem, NumRows, NumCols &gt;</text>
</a>
</g>
</g>
<!-- Node3&#45;&gt;Node5 -->
<g id="edge4" class="edge">
<title>Node3&#45;&gt;Node5</title>
<path fill="none" stroke="#63b8ff" d="M327.64,-232.54C335.66,-232.46 343.72,-232.38 351.6,-232.3"/>
<polygon fill="#63b8ff" stroke="#63b8ff" points="327.83,-229.04 317.86,-232.64 327.9,-236.04 327.83,-229.04"/>
</g>
<!-- Node7 -->
<g id="node7" class="node">
<title>Node7</title>
<g id="a_node7"><a xlink:href="class_storm_1_1_target_matrix_view.html" target="_top" xlink:title="Output matrix as target wrapper.">
<polygon fill="white" stroke="#666666" points="493,-196.5 368,-196.5 368,-166.5 493,-166.5 493,-196.5"/>
<text text-anchor="start" x="376" y="-184.5" font-family="Helvetica,sans-Serif" font-size="10.00">Storm::TargetMatrixView</text>
<text text-anchor="middle" x="430.5" y="-173.5" font-family="Helvetica,sans-Serif" font-size="10.00">&lt; Matrix &gt;</text>
</a>
</g>
</g>
<!-- Node6&#45;&gt;Node7 -->
<g id="edge6" class="edge">
<title>Node6&#45;&gt;Node7</title>
<path fill="none" stroke="#63b8ff" d="M322.76,-180.41C337.87,-180.56 353.28,-180.72 367.52,-180.86"/>
<polygon fill="#63b8ff" stroke="#63b8ff" points="322.84,-176.91 312.8,-180.3 322.77,-183.91 322.84,-176.91"/>
</g>
<!-- Node10 -->
<g id="node10" class="node">
<title>Node10</title>
<g id="a_node10"><a xlink:href="class_storm_1_1_feathers_1_1_field.html" target="_top" xlink:title=" ">
<polygon fill="white" stroke="#666666" points="487.5,-148.5 373.5,-148.5 373.5,-118.5 487.5,-118.5 487.5,-148.5"/>
<text text-anchor="start" x="381.5" y="-136.5" font-family="Helvetica,sans-Serif" font-size="10.00">Storm::Feathers::Field</text>
<text text-anchor="middle" x="430.5" y="-125.5" font-family="Helvetica,sans-Serif" font-size="10.00">&lt; Mesh, real_t &gt;</text>
</a>
</g>
</g>
<!-- Node9&#45;&gt;Node10 -->
<g id="edge9" class="edge">
<title>Node9&#45;&gt;Node10</title>
<path fill="none" stroke="#63b8ff" d="M304.4,-100.78C326.91,-106.67 351.58,-113.12 373,-118.72"/>
<polygon fill="#63b8ff" stroke="#63b8ff" points="305.56,-97.47 295,-98.32 303.79,-104.24 305.56,-97.47"/>
</g>
<!-- Node11 -->
<g id="node11" class="node">
<title>Node11</title>
<g id="a_node11"><a xlink:href="class_storm_1_1_feathers_1_1_field.html" target="_top" xlink:title=" ">
<polygon fill="white" stroke="#666666" points="501,-100 360,-100 360,-59 501,-59 501,-100"/>
<text text-anchor="start" x="368" y="-88" font-family="Helvetica,sans-Serif" font-size="10.00">Storm::Feathers::Field</text>
<text text-anchor="start" x="368" y="-77" font-family="Helvetica,sans-Serif" font-size="10.00">&lt; Storm::UnstructuredMesh,</text>
<text text-anchor="middle" x="430.5" y="-66" font-family="Helvetica,sans-Serif" font-size="10.00"> real_t, 5 &gt;</text>
</a>
</g>
</g>
<!-- Node9&#45;&gt;Node11 -->
<g id="edge10" class="edge">
<title>Node9&#45;&gt;Node11</title>
<path fill="none" stroke="#63b8ff" d="M315.48,-81.25C330.21,-81.03 345.45,-80.79 359.81,-80.57"/>
<polygon fill="#63b8ff" stroke="#63b8ff" points="315.81,-77.75 305.86,-81.4 315.91,-84.75 315.81,-77.75"/>
</g>
<!-- Node12 -->
<g id="node12" class="node">
<title>Node12</title>
<g id="a_node12"><a xlink:href="class_storm_1_1_feathers_1_1_field.html" target="_top" xlink:title="Generic mesh field.">
<polygon fill="white" stroke="#666666" points="487.5,-41 373.5,-41 373.5,0 487.5,0 487.5,-41"/>
<text text-anchor="start" x="381.5" y="-29" font-family="Helvetica,sans-Serif" font-size="10.00">Storm::Feathers::Field</text>
<text text-anchor="start" x="381.5" y="-18" font-family="Helvetica,sans-Serif" font-size="10.00">&lt; Mesh, Index, Value,</text>
<text text-anchor="middle" x="430.5" y="-7" font-family="Helvetica,sans-Serif" font-size="10.00"> NumVars &gt;</text>
</a>
</g>
</g>
<!-- Node9&#45;&gt;Node12 -->
<g id="edge11" class="edge">
<title>Node9&#45;&gt;Node12</title>
<path fill="none" stroke="#63b8ff" d="M294.08,-63.56C319.22,-55.56 348.35,-46.3 373.13,-38.42"/>
<polygon fill="#63b8ff" stroke="#63b8ff" points="293.12,-60.19 284.65,-66.56 295.24,-66.86 293.12,-60.19"/>
</g>
</g>
</svg>
