<?xml version="1.0" encoding="UTF-8" standalone="no"?>
<!DOCTYPE svg PUBLIC "-//W3C//DTD SVG 1.1//EN"
 "http://www.w3.org/Graphics/SVG/1.1/DTD/svg11.dtd">
<!-- Generated by graphviz version 8.1.0 (20230707.0739)
 -->
<!-- Title: Storm::TargetMatrixView&lt; Matrix &gt; Pages: 1 -->
<svg width="323pt" height="125pt"
 viewBox="0.00 0.00 322.75 124.88" xmlns="http://www.w3.org/2000/svg" xmlns:xlink="http://www.w3.org/1999/xlink">
<g id="graph0" class="graph" transform="scale(1 1) rotate(0) translate(4 120.88)">
<title>Storm::TargetMatrixView&lt; Matrix &gt;</title>
<!-- Node1 -->
<g id="Node000001" class="node">
<title>Node1</title>
<g id="a_Node000001"><a xlink:title="Output matrix as target wrapper.">
<polygon fill="#999999" stroke="#666666" points="314.75,-67.88 190.75,-67.88 190.75,-37.38 314.75,-37.38 314.75,-67.88"/>
<text text-anchor="start" x="198.75" y="-54.38" font-family="Helvetica,sans-Serif" font-size="10.00">Storm::TargetMatrixView</text>
<text text-anchor="middle" x="252.75" y="-43.12" font-family="Helvetica,sans-Serif" font-size="10.00">&lt; Matrix &gt;</text>
</a>
</g>
</g>
<!-- Node2 -->
<g id="Node000002" class="node">
<title>Node2</title>
<g id="a_Node000002"><a xlink:href="class_storm_1_1_matrix_view_interface.html" target="_top" xlink:title=" ">
<polygon fill="white" stroke="#666666" points="154.75,-116.88 0,-116.88 0,-86.38 154.75,-86.38 154.75,-116.88"/>
<text text-anchor="start" x="8" y="-103.38" font-family="Helvetica,sans-Serif" font-size="10.00">Storm::MatrixViewInterface</text>
<text text-anchor="middle" x="77.38" y="-92.12" font-family="Helvetica,sans-Serif" font-size="10.00">&lt; TargetMatrixView&lt; Matrix &gt; &gt;</text>
</a>
</g>
</g>
<!-- Node2&#45;&gt;Node1 -->
<g id="edge1_Node000001_Node000002" class="edge">
<title>Node2&#45;&gt;Node1</title>
<g id="a_edge1_Node000001_Node000002"><a xlink:title=" ">
<path fill="none" stroke="#63b8ff" d="M144.18,-83.03C161.28,-78.19 179.53,-73.04 196.05,-68.37"/>
<polygon fill="#63b8ff" stroke="#63b8ff" points="143.38,-79.9 134.71,-85.99 145.28,-86.63 143.38,-79.9"/>
</a>
</g>
</g>
<!-- Node3 -->
<g id="Node000003" class="node">
<title>Node3</title>
<g id="a_Node000003"><a xlink:href="class_storm_1_1_target_matrix_interface.html" target="_top" xlink:title=" ">
<polygon fill="white" stroke="#666666" points="154.75,-67.88 0,-67.88 0,-37.38 154.75,-37.38 154.75,-67.88"/>
<text text-anchor="start" x="8" y="-54.38" font-family="Helvetica,sans-Serif" font-size="10.00">Storm::TargetMatrixInterface</text>
<text text-anchor="middle" x="77.38" y="-43.12" font-family="Helvetica,sans-Serif" font-size="10.00">&lt; TargetMatrixView&lt; Matrix &gt; &gt;</text>
</a>
</g>
</g>
<!-- Node3&#45;&gt;Node1 -->
<g id="edge2_Node000001_Node000003" class="edge">
<title>Node3&#45;&gt;Node1</title>
<g id="a_edge2_Node000001_Node000003"><a xlink:title=" ">
<path fill="none" stroke="#63b8ff" d="M165.98,-52.62C174.22,-52.62 182.44,-52.62 190.36,-52.62"/>
<polygon fill="#63b8ff" stroke="#63b8ff" points="166.18,-49.13 156.18,-52.62 166.18,-56.13 166.18,-49.13"/>
</a>
</g>
</g>
<!-- Node4 -->
<g id="Node000004" class="node">
<title>Node4</title>
<g id="a_Node000004"><a xlink:href="class_storm_1_1_non_movable_interface.html" target="_top" xlink:title="Non movable (and non copyable) object interface.">
<polygon fill="white" stroke="#666666" points="148,-19.25 6.75,-19.25 6.75,0 148,0 148,-19.25"/>
<text text-anchor="middle" x="77.38" y="-5.75" font-family="Helvetica,sans-Serif" font-size="10.00">Storm::NonMovableInterface</text>
</a>
</g>
</g>
<!-- Node4&#45;&gt;Node1 -->
<g id="edge3_Node000001_Node000004" class="edge">
<title>Node4&#45;&gt;Node1</title>
<g id="a_edge3_Node000001_Node000004"><a xlink:title=" ">
<path fill="none" stroke="#63b8ff" d="M129.58,-22.33C148.63,-27.05 170.43,-32.46 190.3,-37.38"/>
<polygon fill="#63b8ff" stroke="#63b8ff" points="130.57,-18.72 120.02,-19.71 128.89,-25.51 130.57,-18.72"/>
</a>
</g>
</g>
</g>
</svg>
