<?xml version="1.0" encoding="UTF-8" standalone="no"?>
<!DOCTYPE svg PUBLIC "-//W3C//DTD SVG 1.1//EN"
 "http://www.w3.org/Graphics/SVG/1.1/DTD/svg11.dtd">
<!-- Generated by graphviz version 8.0.5 (20230430.1635)
 -->
<!-- Title: Storm::NonCopyable Pages: 1 -->
<svg width="1138pt" height="613pt"
 viewBox="0.00 0.00 1137.75 612.50" xmlns="http://www.w3.org/2000/svg" xmlns:xlink="http://www.w3.org/1999/xlink">
<g id="graph0" class="graph" transform="scale(1 1) rotate(0) translate(4 608.5)">
<title>Storm::NonCopyable</title>
<!-- Node1 -->
<g id="node1" class="node">
<title>Node1</title>
<g id="a_node1"><a xlink:title="Non copyable object interface.">
<polygon fill="#999999" stroke="#666666" points="107.5,-379.88 0,-379.88 0,-360.62 107.5,-360.62 107.5,-379.88"/>
<text text-anchor="middle" x="53.75" y="-366.38" font-family="Helvetica,sans-Serif" font-size="10.00">Storm::NonCopyable</text>
</a>
</g>
</g>
<!-- Node2 -->
<g id="node2" class="node">
<title>Node2</title>
<g id="a_node2"><a xlink:href="class_storm_1_1_filtering_streambuf.html" target="_top" xlink:title="Filtering stream buffer.">
<polygon fill="white" stroke="#666666" points="294.5,-569.5 143.5,-569.5 143.5,-539 294.5,-539 294.5,-569.5"/>
<text text-anchor="start" x="151.5" y="-556" font-family="Helvetica,sans-Serif" font-size="10.00">Storm::FilteringStreambuf</text>
<text text-anchor="middle" x="219" y="-544.75" font-family="Helvetica,sans-Serif" font-size="10.00">&lt; Char, BeginFilter, EndFilter &gt;</text>
</a>
</g>
</g>
<!-- Node1&#45;&gt;Node2 -->
<g id="edge1" class="edge">
<title>Node1&#45;&gt;Node2</title>
<path fill="none" stroke="#63b8ff" d="M60.71,-390.47C71.63,-424.09 98.02,-491.5 143.5,-529.25 147.8,-532.82 152.64,-535.89 157.73,-538.53"/>
<polygon fill="#63b8ff" stroke="#63b8ff" points="63.79,-389.6 57.48,-381.09 57.11,-391.68 63.79,-389.6"/>
</g>
<!-- Node3 -->
<g id="node3" class="node">
<title>Node3</title>
<g id="a_node3"><a xlink:href="class_storm_1_1_matrix_owning_view.html" target="_top" xlink:title="Matrix owning view. Matrix should be noexcept&#45;movable.">
<polygon fill="white" stroke="#666666" points="284,-520.5 154,-520.5 154,-490 284,-490 284,-520.5"/>
<text text-anchor="start" x="162" y="-507" font-family="Helvetica,sans-Serif" font-size="10.00">Storm::MatrixOwningView</text>
<text text-anchor="middle" x="219" y="-495.75" font-family="Helvetica,sans-Serif" font-size="10.00">&lt; Matrix &gt;</text>
</a>
</g>
</g>
<!-- Node1&#45;&gt;Node3 -->
<g id="edge2" class="edge">
<title>Node1&#45;&gt;Node3</title>
<path fill="none" stroke="#63b8ff" d="M65.33,-389.56C79.82,-414.29 108.14,-456.85 143.5,-481.25 148.09,-484.41 153.11,-487.18 158.32,-489.59"/>
<polygon fill="#63b8ff" stroke="#63b8ff" points="67.97,-388.12 59.98,-381.16 61.88,-391.58 67.97,-388.12"/>
</g>
<!-- Node4 -->
<g id="node4" class="node">
<title>Node4</title>
<g id="a_node4"><a xlink:href="class_storm_1_1_object.html" target="_top" xlink:title="A base object.">
<polygon fill="white" stroke="#666666" points="257.38,-471.88 180.62,-471.88 180.62,-452.62 257.38,-452.62 257.38,-471.88"/>
<text text-anchor="middle" x="219" y="-458.38" font-family="Helvetica,sans-Serif" font-size="10.00">Storm::Object</text>
</a>
</g>
</g>
<!-- Node1&#45;&gt;Node4 -->
<g id="edge3" class="edge">
<title>Node1&#45;&gt;Node4</title>
<path fill="none" stroke="#63b8ff" d="M70.87,-387.31C87.53,-403.96 115.05,-428.84 143.5,-443.25 154.93,-449.04 168.26,-453.16 180.47,-456.05"/>
<polygon fill="#63b8ff" stroke="#63b8ff" points="74.1,-385.58 64.6,-380.88 69.09,-390.47 74.1,-385.58"/>
</g>
<!-- Node37 -->
<g id="node37" class="node">
<title>Node37</title>
<g id="a_node37"><a xlink:href="class_storm_1_1_vulture_1_1gl_1_1_buffer.html" target="_top" xlink:title="OpenGL buffer.">
<polygon fill="white" stroke="#666666" points="265.25,-434.5 172.75,-434.5 172.75,-404 265.25,-404 265.25,-434.5"/>
<text text-anchor="start" x="180.75" y="-421" font-family="Helvetica,sans-Serif" font-size="10.00">Storm::Vulture::gl</text>
<text text-anchor="middle" x="219" y="-409.75" font-family="Helvetica,sans-Serif" font-size="10.00">::Buffer&lt; Type &gt;</text>
</a>
</g>
</g>
<!-- Node1&#45;&gt;Node37 -->
<g id="edge36" class="edge">
<title>Node1&#45;&gt;Node37</title>
<path fill="none" stroke="#8b1a1a" d="M98.63,-383.42C121.5,-390.29 149.44,-398.67 172.55,-405.61"/>
<polygon fill="#8b1a1a" stroke="#8b1a1a" points="99.76,-379.81 89.18,-380.28 97.75,-386.51 99.76,-379.81"/>
</g>
<!-- Node38 -->
<g id="node38" class="node">
<title>Node38</title>
<g id="a_node38"><a xlink:href="class_storm_1_1_vulture_1_1gl_1_1_framebuffer.html" target="_top" xlink:title="OpenGL framebuffer.">
<polygon fill="white" stroke="#666666" points="265.25,-385.5 172.75,-385.5 172.75,-355 265.25,-355 265.25,-385.5"/>
<text text-anchor="start" x="180.75" y="-372" font-family="Helvetica,sans-Serif" font-size="10.00">Storm::Vulture::gl</text>
<text text-anchor="middle" x="219" y="-360.75" font-family="Helvetica,sans-Serif" font-size="10.00">::Framebuffer</text>
</a>
</g>
</g>
<!-- Node1&#45;&gt;Node38 -->
<g id="edge37" class="edge">
<title>Node1&#45;&gt;Node38</title>
<path fill="none" stroke="#8b1a1a" d="M118.73,-370.25C136.65,-370.25 155.77,-370.25 172.39,-370.25"/>
<polygon fill="#8b1a1a" stroke="#8b1a1a" points="118.75,-366.75 108.75,-370.25 118.75,-373.75 118.75,-366.75"/>
</g>
<!-- Node39 -->
<g id="node39" class="node">
<title>Node39</title>
<g id="a_node39"><a xlink:href="class_storm_1_1_vulture_1_1gl_1_1_program.html" target="_top" xlink:title="OpenGL shader program.">
<polygon fill="white" stroke="#666666" points="265.25,-336.5 172.75,-336.5 172.75,-306 265.25,-306 265.25,-336.5"/>
<text text-anchor="start" x="180.75" y="-323" font-family="Helvetica,sans-Serif" font-size="10.00">Storm::Vulture::gl</text>
<text text-anchor="middle" x="219" y="-311.75" font-family="Helvetica,sans-Serif" font-size="10.00">::Program</text>
</a>
</g>
</g>
<!-- Node1&#45;&gt;Node39 -->
<g id="edge38" class="edge">
<title>Node1&#45;&gt;Node39</title>
<path fill="none" stroke="#8b1a1a" d="M98.63,-357.08C121.5,-350.21 149.44,-341.83 172.55,-334.89"/>
<polygon fill="#8b1a1a" stroke="#8b1a1a" points="97.75,-353.99 89.18,-360.22 99.76,-360.69 97.75,-353.99"/>
</g>
<!-- Node40 -->
<g id="node40" class="node">
<title>Node40</title>
<g id="a_node40"><a xlink:href="class_storm_1_1_vulture_1_1gl_1_1_shader.html" target="_top" xlink:title="OpenGL shader.">
<polygon fill="white" stroke="#666666" points="265.25,-287.5 172.75,-287.5 172.75,-257 265.25,-257 265.25,-287.5"/>
<text text-anchor="start" x="180.75" y="-274" font-family="Helvetica,sans-Serif" font-size="10.00">Storm::Vulture::gl</text>
<text text-anchor="middle" x="219" y="-262.75" font-family="Helvetica,sans-Serif" font-size="10.00">::Shader</text>
</a>
</g>
</g>
<!-- Node1&#45;&gt;Node40 -->
<g id="edge39" class="edge">
<title>Node1&#45;&gt;Node40</title>
<path fill="none" stroke="#8b1a1a" d="M71.93,-352.84C88.84,-336.53 116.06,-312.46 143.5,-297.25 152.45,-292.29 162.55,-288.09 172.36,-284.63"/>
<polygon fill="#8b1a1a" stroke="#8b1a1a" points="70.17,-349.64 65.49,-359.14 75.08,-354.63 70.17,-349.64"/>
</g>
<!-- Node41 -->
<g id="node41" class="node">
<title>Node41</title>
<g id="a_node41"><a xlink:href="class_storm_1_1_vulture_1_1gl_1_1_texture.html" target="_top" xlink:title="OpenGL texture.">
<polygon fill="white" stroke="#666666" points="265.25,-238.5 172.75,-238.5 172.75,-208 265.25,-208 265.25,-238.5"/>
<text text-anchor="start" x="180.75" y="-225" font-family="Helvetica,sans-Serif" font-size="10.00">Storm::Vulture::gl</text>
<text text-anchor="middle" x="219" y="-213.75" font-family="Helvetica,sans-Serif" font-size="10.00">::Texture</text>
</a>
</g>
</g>
<!-- Node1&#45;&gt;Node41 -->
<g id="edge40" class="edge">
<title>Node1&#45;&gt;Node41</title>
<path fill="none" stroke="#8b1a1a" d="M64.08,-350.64C77.83,-323.78 106,-275.75 143.5,-248.25 152.08,-241.96 162.35,-237.18 172.48,-233.57"/>
<polygon fill="#8b1a1a" stroke="#8b1a1a" points="60.54,-348.92 59.24,-359.43 66.81,-352.02 60.54,-348.92"/>
</g>
<!-- Node45 -->
<g id="node45" class="node">
<title>Node45</title>
<g id="a_node45"><a xlink:href="class_storm_1_1_vulture_1_1gl_1_1_vertex_array.html" target="_top" xlink:title="OpenGL vertex array.">
<polygon fill="white" stroke="#666666" points="265.25,-189.5 172.75,-189.5 172.75,-159 265.25,-159 265.25,-189.5"/>
<text text-anchor="start" x="180.75" y="-176" font-family="Helvetica,sans-Serif" font-size="10.00">Storm::Vulture::gl</text>
<text text-anchor="middle" x="219" y="-164.75" font-family="Helvetica,sans-Serif" font-size="10.00">::VertexArray</text>
</a>
</g>
</g>
<!-- Node1&#45;&gt;Node45 -->
<g id="edge44" class="edge">
<title>Node1&#45;&gt;Node45</title>
<path fill="none" stroke="#8b1a1a" d="M59.85,-350.01C69.83,-314.42 95.33,-240.48 143.5,-199.25 151.79,-192.15 162.18,-187.05 172.54,-183.39"/>
<polygon fill="#8b1a1a" stroke="#8b1a1a" points="56.24,-348.95 57.04,-359.51 63,-350.75 56.24,-348.95"/>
</g>
<!-- Node5 -->
<g id="node5" class="node">
<title>Node5</title>
<g id="a_node5"><a xlink:href="class_storm_1_1_operator.html" target="_top" xlink:title=" ">
<polygon fill="white" stroke="#666666" points="464.25,-604.5 330.5,-604.5 330.5,-574 464.25,-574 464.25,-604.5"/>
<text text-anchor="start" x="338.5" y="-591" font-family="Helvetica,sans-Serif" font-size="10.00">Storm::Operator&lt; InVector,</text>
<text text-anchor="middle" x="397.38" y="-579.75" font-family="Helvetica,sans-Serif" font-size="10.00"> InVector &gt;</text>
</a>
</g>
</g>
<!-- Node4&#45;&gt;Node5 -->
<g id="edge4" class="edge">
<title>Node4&#45;&gt;Node5</title>
<path fill="none" stroke="#63b8ff" d="M267.98,-467.65C277.56,-470.51 286.98,-474.81 294.5,-481.25 325.36,-507.66 300.99,-537.34 330.5,-565.25 333.86,-568.43 337.67,-571.19 341.73,-573.59"/>
<polygon fill="#63b8ff" stroke="#63b8ff" points="269.14,-464.08 258.6,-465.07 267.46,-470.88 269.14,-464.08"/>
</g>
<!-- Node6 -->
<g id="node6" class="node">
<title>Node6</title>
<g id="a_node6"><a xlink:href="class_storm_1_1_operator.html" target="_top" xlink:title=" ">
<polygon fill="white" stroke="#666666" points="463.5,-555.88 331.25,-555.88 331.25,-536.62 463.5,-536.62 463.5,-555.88"/>
<text text-anchor="middle" x="397.38" y="-542.38" font-family="Helvetica,sans-Serif" font-size="10.00">Storm::Operator&lt; Vector &gt;</text>
</a>
</g>
</g>
<!-- Node4&#45;&gt;Node6 -->
<g id="edge5" class="edge">
<title>Node4&#45;&gt;Node6</title>
<path fill="none" stroke="#63b8ff" d="M267.97,-469.54C277.25,-472.28 286.54,-476.06 294.5,-481.25 316.24,-495.44 308.98,-512.72 330.5,-527.25 335.83,-530.85 341.84,-533.77 348.01,-536.15"/>
<polygon fill="#63b8ff" stroke="#63b8ff" points="269.14,-465.97 258.59,-466.86 267.4,-472.75 269.14,-465.97"/>
</g>
<!-- Node9 -->
<g id="node9" class="node">
<title>Node9</title>
<g id="a_node9"><a xlink:href="class_storm_1_1_solver.html" target="_top" xlink:title=" ">
<polygon fill="white" stroke="#666666" points="459.38,-518.5 335.38,-518.5 335.38,-488 459.38,-488 459.38,-518.5"/>
<text text-anchor="start" x="343.38" y="-505" font-family="Helvetica,sans-Serif" font-size="10.00">Storm::Solver&lt; InVector,</text>
<text text-anchor="middle" x="397.38" y="-493.75" font-family="Helvetica,sans-Serif" font-size="10.00"> OutVector &gt;</text>
</a>
</g>
</g>
<!-- Node4&#45;&gt;Node9 -->
<g id="edge8" class="edge">
<title>Node4&#45;&gt;Node9</title>
<path fill="none" stroke="#63b8ff" d="M268.53,-473.53C289.08,-478.31 313.25,-483.93 335.01,-488.99"/>
<polygon fill="#63b8ff" stroke="#63b8ff" points="269.37,-469.9 258.84,-471.05 267.78,-476.72 269.37,-469.9"/>
</g>
<!-- Node11 -->
<g id="node11" class="node">
<title>Node11</title>
<g id="a_node11"><a xlink:href="class_storm_1_1_solver.html" target="_top" xlink:title=" ">
<polygon fill="white" stroke="#666666" points="459.38,-469.5 335.38,-469.5 335.38,-439 459.38,-439 459.38,-469.5"/>
<text text-anchor="start" x="343.38" y="-456" font-family="Helvetica,sans-Serif" font-size="10.00">Storm::Solver&lt; InVector,</text>
<text text-anchor="middle" x="397.38" y="-444.75" font-family="Helvetica,sans-Serif" font-size="10.00"> InVector &gt;</text>
</a>
</g>
</g>
<!-- Node4&#45;&gt;Node11 -->
<g id="edge10" class="edge">
<title>Node4&#45;&gt;Node11</title>
<path fill="none" stroke="#63b8ff" d="M268.81,-460.04C289.3,-459.11 313.35,-458.02 335.01,-457.03"/>
<polygon fill="#63b8ff" stroke="#63b8ff" points="268.67,-456.58 258.84,-460.53 268.99,-463.58 268.67,-456.58"/>
</g>
<!-- Node12 -->
<g id="node12" class="node">
<title>Node12</title>
<g id="a_node12"><a xlink:href="class_storm_1_1_operator.html" target="_top" xlink:title="Abstract operator ð’š â† ð“(ð’™). &#45;=&#45;=&#45;=&#45;=&#45;=&#45;=&#45;=&#45;=&#45;=&#45;=&#45;=&#45;=&#45;=&#45;=&#45;=&#45;=&#45;=&#45;=&#45;=&#45;=&#45;=&#45;=&#45;=&#45;=&#45;=&#45;=&#45;=&#45;=&#45;=&#45;=&#45;=&#45;=&#45; ///.">
<polygon fill="white" stroke="#666666" points="464.25,-420.5 330.5,-420.5 330.5,-390 464.25,-390 464.25,-420.5"/>
<text text-anchor="start" x="338.5" y="-407" font-family="Helvetica,sans-Serif" font-size="10.00">Storm::Operator&lt; InVector,</text>
<text text-anchor="middle" x="397.38" y="-395.75" font-family="Helvetica,sans-Serif" font-size="10.00"> OutVector &gt;</text>
</a>
</g>
</g>
<!-- Node4&#45;&gt;Node12 -->
<g id="edge11" class="edge">
<title>Node4&#45;&gt;Node12</title>
<path fill="none" stroke="#63b8ff" d="M268.26,-450.75C277.04,-448.43 286.08,-445.89 294.5,-443.25 300.67,-441.32 329.41,-430.57 354.8,-421"/>
<polygon fill="#63b8ff" stroke="#63b8ff" points="267.55,-447.57 258.74,-453.46 269.3,-454.35 267.55,-447.57"/>
</g>
<!-- Node14 -->
<g id="node14" class="node">
<title>Node14</title>
<g id="a_node14"><a xlink:href="class_storm_1_1_solver.html" target="_top" xlink:title="Abstract operator equation solver. &#45;=&#45;=&#45;=&#45;=&#45;=&#45;=&#45;=&#45;=&#45;=&#45;=&#45;=&#45;=&#45;=&#45;=&#45;=&#45;=&#45;=&#45;=&#45;=&#45;=&#45;=&#45;=&#45;=&#45;=&#45;=&#45;=&#45;=&#45;=&#45;=&#45;=&#45;=&#45;=&#45; ...">
<polygon fill="white" stroke="#666666" points="459.38,-355.5 335.38,-355.5 335.38,-325 459.38,-325 459.38,-355.5"/>
<text text-anchor="start" x="343.38" y="-342" font-family="Helvetica,sans-Serif" font-size="10.00">Storm::Solver&lt; InVector,</text>
<text text-anchor="middle" x="397.38" y="-330.75" font-family="Helvetica,sans-Serif" font-size="10.00"> OutVector &gt;</text>
</a>
</g>
</g>
<!-- Node4&#45;&gt;Node14 -->
<g id="edge13" class="edge">
<title>Node4&#45;&gt;Node14</title>
<path fill="none" stroke="#63b8ff" d="M268.28,-455.89C277.6,-453.08 286.84,-449.04 294.5,-443.25 319.92,-424.04 308.32,-404.12 330.5,-381.25 340.25,-371.19 352.95,-362.54 364.6,-355.81"/>
<polygon fill="#63b8ff" stroke="#63b8ff" points="267.62,-452.7 258.8,-458.57 269.35,-459.48 267.62,-452.7"/>
</g>
<!-- Node7 -->
<g id="node7" class="node">
<title>Node7</title>
<g id="a_node7"><a xlink:href="class_storm_1_1_preconditioner.html" target="_top" xlink:title="Abstract preconditioner operator. &#45;=&#45;=&#45;=&#45;=&#45;=&#45;=&#45;=&#45;=&#45;=&#45;=&#45;=&#45;=&#45;=&#45;=&#45;=&#45;=&#45;=&#45;=&#45;=&#45;=&#45;=&#45;=&#45;=&#45;=&#45;=&#45;=&#45;=&#45;=&#45;=&#45;=&#45;=&#45;=&#45; /...">
<polygon fill="white" stroke="#666666" points="620.88,-580.5 510.38,-580.5 510.38,-550 620.88,-550 620.88,-580.5"/>
<text text-anchor="start" x="518.38" y="-567" font-family="Helvetica,sans-Serif" font-size="10.00">Storm::Preconditioner</text>
<text text-anchor="middle" x="565.62" y="-555.75" font-family="Helvetica,sans-Serif" font-size="10.00">&lt; Vector &gt;</text>
</a>
</g>
</g>
<!-- Node6&#45;&gt;Node7 -->
<g id="edge6" class="edge">
<title>Node6&#45;&gt;Node7</title>
<path fill="none" stroke="#63b8ff" d="M474.53,-554.95C486.51,-556.32 498.69,-557.71 510.06,-559.01"/>
<polygon fill="#63b8ff" stroke="#63b8ff" points="474.94,-551.36 464.6,-553.7 474.14,-558.32 474.94,-551.36"/>
</g>
<!-- Node8 -->
<g id="node8" class="node">
<title>Node8</title>
<g id="a_node8"><a xlink:href="class_storm_1_1_identity_preconditioner.html" target="_top" xlink:title="Identity preconditioner, intended to be used for debugging only. &#45;=&#45;=&#45;=&#45;=&#45;=&#45;=&#45;=&#45;=&#45;=&#45;=&#45;=&#45;=&#45;=&#45;=&#45;=&#45;=&#45;=&#45;=...">
<polygon fill="white" stroke="#666666" points="812.38,-594.5 669.62,-594.5 669.62,-564 812.38,-564 812.38,-594.5"/>
<text text-anchor="start" x="677.62" y="-581" font-family="Helvetica,sans-Serif" font-size="10.00">Storm::IdentityPreconditioner</text>
<text text-anchor="middle" x="741" y="-569.75" font-family="Helvetica,sans-Serif" font-size="10.00">&lt; Vector &gt;</text>
</a>
</g>
</g>
<!-- Node7&#45;&gt;Node8 -->
<g id="edge7" class="edge">
<title>Node7&#45;&gt;Node8</title>
<path fill="none" stroke="#63b8ff" d="M631.61,-570.5C643.9,-571.49 656.81,-572.53 669.26,-573.54"/>
<polygon fill="#63b8ff" stroke="#63b8ff" points="632.26,-566.96 622.01,-569.64 631.69,-573.93 632.26,-566.96"/>
</g>
<!-- Node10 -->
<g id="node10" class="node">
<title>Node10</title>
<g id="a_node10"><a xlink:href="class_storm_1_1_iterative_solver.html" target="_top" xlink:title=" ">
<polygon fill="white" stroke="#666666" points="622,-518.5 509.25,-518.5 509.25,-488 622,-488 622,-518.5"/>
<text text-anchor="start" x="517.25" y="-505" font-family="Helvetica,sans-Serif" font-size="10.00">Storm::IterativeSolver</text>
<text text-anchor="middle" x="565.62" y="-493.75" font-family="Helvetica,sans-Serif" font-size="10.00">&lt; InVector, InVector &gt;</text>
</a>
</g>
</g>
<!-- Node9&#45;&gt;Node10 -->
<g id="edge9" class="edge">
<title>Node9&#45;&gt;Node10</title>
<path fill="none" stroke="#63b8ff" d="M470.51,-503.25C483.38,-503.25 496.61,-503.25 508.94,-503.25"/>
<polygon fill="#63b8ff" stroke="#63b8ff" points="470.81,-499.75 460.81,-503.25 470.81,-506.75 470.81,-499.75"/>
</g>
<!-- Node13 -->
<g id="node13" class="node">
<title>Node13</title>
<g id="a_node13"><a xlink:href="class_storm_1_1_functional_operator.html" target="_top" xlink:title="Operator implementation with external function pointers. &#45;=&#45;=&#45;=&#45;=&#45;=&#45;=&#45;=&#45;=&#45;=&#45;=&#45;=&#45;=&#45;=&#45;=&#45;=&#45;=&#45;=&#45;=&#45;=&#45;=&#45;=&#45;=...">
<polygon fill="white" stroke="#666666" points="631,-420.5 500.25,-420.5 500.25,-390 631,-390 631,-420.5"/>
<text text-anchor="start" x="508.25" y="-407" font-family="Helvetica,sans-Serif" font-size="10.00">Storm::FunctionalOperator</text>
<text text-anchor="middle" x="565.62" y="-395.75" font-family="Helvetica,sans-Serif" font-size="10.00">&lt; InVector, OutVector &gt;</text>
</a>
</g>
</g>
<!-- Node12&#45;&gt;Node13 -->
<g id="edge12" class="edge">
<title>Node12&#45;&gt;Node13</title>
<path fill="none" stroke="#63b8ff" d="M475.53,-405.25C483.63,-405.25 491.81,-405.25 499.75,-405.25"/>
<polygon fill="#63b8ff" stroke="#63b8ff" points="475.56,-401.75 465.56,-405.25 475.56,-408.75 475.56,-401.75"/>
</g>
<!-- Node15 -->
<g id="node15" class="node">
<title>Node15</title>
<g id="a_node15"><a xlink:href="class_storm_1_1_iterative_solver.html" target="_top" xlink:title=" ">
<polygon fill="white" stroke="#666666" points="621.25,-355.5 510,-355.5 510,-325 621.25,-325 621.25,-355.5"/>
<text text-anchor="start" x="518" y="-342" font-family="Helvetica,sans-Serif" font-size="10.00">Storm::IterativeSolver</text>
<text text-anchor="middle" x="565.62" y="-330.75" font-family="Helvetica,sans-Serif" font-size="10.00">&lt; Vector &gt;</text>
</a>
</g>
</g>
<!-- Node14&#45;&gt;Node15 -->
<g id="edge14" class="edge">
<title>Node14&#45;&gt;Node15</title>
<path fill="none" stroke="#63b8ff" d="M470.7,-340.25C483.79,-340.25 497.26,-340.25 509.75,-340.25"/>
<polygon fill="#63b8ff" stroke="#63b8ff" points="470.81,-336.75 460.81,-340.25 470.81,-343.75 470.81,-336.75"/>
</g>
<!-- Node27 -->
<g id="node27" class="node">
<title>Node27</title>
<g id="a_node27"><a xlink:href="class_storm_1_1_iterative_solver.html" target="_top" xlink:title="Abstract operator equation iterative solver. &#45;=&#45;=&#45;=&#45;=&#45;=&#45;=&#45;=&#45;=&#45;=&#45;=&#45;=&#45;=&#45;=&#45;=&#45;=&#45;=&#45;=&#45;=&#45;=&#45;=&#45;=&#45;=&#45;=&#45;=&#45;=&#45;=&#45;=&#45;=...">
<polygon fill="white" stroke="#666666" points="625.75,-128.5 505.5,-128.5 505.5,-98 625.75,-98 625.75,-128.5"/>
<text text-anchor="start" x="513.5" y="-115" font-family="Helvetica,sans-Serif" font-size="10.00">Storm::IterativeSolver</text>
<text text-anchor="middle" x="565.62" y="-103.75" font-family="Helvetica,sans-Serif" font-size="10.00">&lt; InVector, OutVector &gt;</text>
</a>
</g>
</g>
<!-- Node14&#45;&gt;Node27 -->
<g id="edge26" class="edge">
<title>Node14&#45;&gt;Node27</title>
<path fill="none" stroke="#63b8ff" d="M449.07,-319.12C454.55,-315.63 459.76,-311.68 464.25,-307.25 518.5,-253.71 549.44,-164.65 560.23,-128.85"/>
<polygon fill="#63b8ff" stroke="#63b8ff" points="447.58,-316.52 440.67,-324.56 451.08,-322.58 447.58,-316.52"/>
</g>
<!-- Node16 -->
<g id="node16" class="node">
<title>Node16</title>
<g id="a_node16"><a xlink:href="class_storm_1_1_base_tfqmr_solver.html" target="_top" xlink:title=" ">
<polygon fill="white" stroke="#666666" points="803,-545.5 679,-545.5 679,-515 803,-515 803,-545.5"/>
<text text-anchor="start" x="687" y="-532" font-family="Helvetica,sans-Serif" font-size="10.00">Storm::BaseTfqmrSolver</text>
<text text-anchor="middle" x="741" y="-520.75" font-family="Helvetica,sans-Serif" font-size="10.00">&lt; Vector, true &gt;</text>
</a>
</g>
</g>
<!-- Node15&#45;&gt;Node16 -->
<g id="edge15" class="edge">
<title>Node15&#45;&gt;Node16</title>
<path fill="none" stroke="#63b8ff" d="M610.24,-361.87C618.01,-367.32 625.4,-373.78 631,-381.25 665.41,-427.17 627.39,-463.72 667,-505.25 670.42,-508.84 674.38,-511.91 678.64,-514.54"/>
<polygon fill="#63b8ff" stroke="#63b8ff" points="612.33,-358.41 602.02,-355.95 608.54,-364.3 612.33,-358.41"/>
</g>
<!-- Node18 -->
<g id="node18" class="node">
<title>Node18</title>
<g id="a_node18"><a xlink:href="class_storm_1_1_base_tfqmr_solver.html" target="_top" xlink:title=" ">
<polygon fill="white" stroke="#666666" points="803,-496.5 679,-496.5 679,-466 803,-466 803,-496.5"/>
<text text-anchor="start" x="687" y="-483" font-family="Helvetica,sans-Serif" font-size="10.00">Storm::BaseTfqmrSolver</text>
<text text-anchor="middle" x="741" y="-471.75" font-family="Helvetica,sans-Serif" font-size="10.00">&lt; Vector, false &gt;</text>
</a>
</g>
</g>
<!-- Node15&#45;&gt;Node18 -->
<g id="edge17" class="edge">
<title>Node15&#45;&gt;Node18</title>
<path fill="none" stroke="#63b8ff" d="M607.8,-361.63C616.17,-367.23 624.41,-373.82 631,-381.25 655.54,-408.91 639.36,-431.69 667,-456.25 671.11,-459.9 675.77,-463.02 680.7,-465.69"/>
<polygon fill="#63b8ff" stroke="#63b8ff" points="610.08,-358.29 599.75,-355.93 606.35,-364.22 610.08,-358.29"/>
</g>
<!-- Node20 -->
<g id="node20" class="node">
<title>Node20</title>
<g id="a_node20"><a xlink:href="class_storm_1_1_base_tfqmr_solver.html" target="_top" xlink:title="Parametrized TFQMR solver.">
<polygon fill="white" stroke="#666666" points="803,-447.5 679,-447.5 679,-417 803,-417 803,-447.5"/>
<text text-anchor="start" x="687" y="-434" font-family="Helvetica,sans-Serif" font-size="10.00">Storm::BaseTfqmrSolver</text>
<text text-anchor="middle" x="741" y="-422.75" font-family="Helvetica,sans-Serif" font-size="10.00">&lt; Vector, L1 &gt;</text>
</a>
</g>
</g>
<!-- Node15&#45;&gt;Node20 -->
<g id="edge19" class="edge">
<title>Node15&#45;&gt;Node20</title>
<path fill="none" stroke="#63b8ff" d="M600.98,-361.61C610.75,-367.83 621.36,-374.71 631,-381.25 647.33,-392.33 649.47,-398.18 667,-407.25 673.66,-410.7 680.9,-413.84 688.15,-416.63"/>
<polygon fill="#63b8ff" stroke="#63b8ff" points="603.24,-358.26 592.91,-355.88 599.5,-364.18 603.24,-358.26"/>
</g>
<!-- Node21 -->
<g id="node21" class="node">
<title>Node21</title>
<g id="a_node21"><a xlink:href="class_storm_1_1_bi_cg_stab_solver.html" target="_top" xlink:title="The BiCGStab (Biconjugate Gradients Stabilized) linear operator equation solver.">
<polygon fill="white" stroke="#666666" points="800,-398.5 682,-398.5 682,-368 800,-368 800,-398.5"/>
<text text-anchor="start" x="690" y="-385" font-family="Helvetica,sans-Serif" font-size="10.00">Storm::BiCgStabSolver</text>
<text text-anchor="middle" x="741" y="-373.75" font-family="Helvetica,sans-Serif" font-size="10.00">&lt; Vector &gt;</text>
</a>
</g>
</g>
<!-- Node15&#45;&gt;Node21 -->
<g id="edge20" class="edge">
<title>Node15&#45;&gt;Node21</title>
<path fill="none" stroke="#63b8ff" d="M632.01,-356.47C648.31,-360.51 665.67,-364.82 681.61,-368.77"/>
<polygon fill="#63b8ff" stroke="#63b8ff" points="633.03,-352.87 622.48,-353.86 631.35,-359.66 633.03,-352.87"/>
</g>
<!-- Node22 -->
<g id="node22" class="node">
<title>Node22</title>
<g id="a_node22"><a xlink:href="class_storm_1_1_cg_solver.html" target="_top" xlink:title="The CG (Conjugate Gradients) linear self&#45;adjoint definite operator equation solver.">
<polygon fill="white" stroke="#666666" points="808.62,-349.88 673.38,-349.88 673.38,-330.62 808.62,-330.62 808.62,-349.88"/>
<text text-anchor="middle" x="741" y="-336.38" font-family="Helvetica,sans-Serif" font-size="10.00">Storm::CgSolver&lt; Vector &gt;</text>
</a>
</g>
</g>
<!-- Node15&#45;&gt;Node22 -->
<g id="edge21" class="edge">
<title>Node15&#45;&gt;Node22</title>
<path fill="none" stroke="#63b8ff" d="M632.45,-340.25C645.73,-340.25 659.71,-340.25 673.03,-340.25"/>
<polygon fill="#63b8ff" stroke="#63b8ff" points="632.48,-336.75 622.48,-340.25 632.48,-343.75 632.48,-336.75"/>
</g>
<!-- Node23 -->
<g id="node23" class="node">
<title>Node23</title>
<g id="a_node23"><a xlink:href="class_storm_1_1_cgs_solver.html" target="_top" xlink:title="The CGS (Conjugate Gradients Squared) linear operator equation solver.">
<polygon fill="white" stroke="#666666" points="811.25,-312.88 670.75,-312.88 670.75,-293.62 811.25,-293.62 811.25,-312.88"/>
<text text-anchor="middle" x="741" y="-299.38" font-family="Helvetica,sans-Serif" font-size="10.00">Storm::CgsSolver&lt; Vector &gt;</text>
</a>
</g>
</g>
<!-- Node15&#45;&gt;Node23 -->
<g id="edge22" class="edge">
<title>Node15&#45;&gt;Node23</title>
<path fill="none" stroke="#63b8ff" d="M632.17,-326.26C652.33,-321.96 674.12,-317.31 692.8,-313.32"/>
<polygon fill="#63b8ff" stroke="#63b8ff" points="631.53,-323.03 622.48,-328.54 632.99,-329.88 631.53,-323.03"/>
</g>
<!-- Node24 -->
<g id="node24" class="node">
<title>Node24</title>
<g id="a_node24"><a xlink:href="class_storm_1_1_jfnk_solver.html" target="_top" xlink:title="The first&#45;order JFNK (Jacobian free&#45;Newton&#45;Krylov) nonlinear operator equation solver.">
<polygon fill="white" stroke="#666666" points="791.38,-275.5 690.62,-275.5 690.62,-245 791.38,-245 791.38,-275.5"/>
<text text-anchor="start" x="698.62" y="-262" font-family="Helvetica,sans-Serif" font-size="10.00">Storm::JfnkSolver&lt;</text>
<text text-anchor="middle" x="741" y="-250.75" font-family="Helvetica,sans-Serif" font-size="10.00"> Vector &gt;</text>
</a>
</g>
</g>
<!-- Node15&#45;&gt;Node24 -->
<g id="edge23" class="edge">
<title>Node15&#45;&gt;Node24</title>
<path fill="none" stroke="#63b8ff" d="M600.94,-318.95C619.95,-307.71 644.28,-294.21 667,-284.25 674.45,-280.98 682.5,-277.91 690.43,-275.12"/>
<polygon fill="#63b8ff" stroke="#63b8ff" points="599.3,-316.46 592.52,-324.6 602.89,-322.46 599.3,-316.46"/>
</g>
<!-- Node25 -->
<g id="node25" class="node">
<title>Node25</title>
<g id="a_node25"><a xlink:href="class_storm_1_1_newton_solver.html" target="_top" xlink:title="The Newton method nonlinear operator equation solver.">
<polygon fill="white" stroke="#666666" points="795.88,-226.5 686.12,-226.5 686.12,-196 795.88,-196 795.88,-226.5"/>
<text text-anchor="start" x="694.12" y="-213" font-family="Helvetica,sans-Serif" font-size="10.00">Storm::NewtonSolver</text>
<text text-anchor="middle" x="741" y="-201.75" font-family="Helvetica,sans-Serif" font-size="10.00">&lt; Vector &gt;</text>
</a>
</g>
</g>
<!-- Node15&#45;&gt;Node25 -->
<g id="edge24" class="edge">
<title>Node15&#45;&gt;Node25</title>
<path fill="none" stroke="#63b8ff" d="M584.47,-315.95C602.8,-292.56 633.36,-257.65 667,-236.25 672.76,-232.58 679.13,-229.39 685.63,-226.61"/>
<polygon fill="#63b8ff" stroke="#63b8ff" points="581.14,-313.54 577.84,-323.6 586.7,-317.8 581.14,-313.54"/>
</g>
<!-- Node26 -->
<g id="node26" class="node">
<title>Node26</title>
<g id="a_node26"><a xlink:href="class_storm_1_1_richardson_solver.html" target="_top" xlink:title="The Richardson iteration linear operator equation solver.">
<polygon fill="white" stroke="#666666" points="803.75,-177.5 678.25,-177.5 678.25,-147 803.75,-147 803.75,-177.5"/>
<text text-anchor="start" x="686.25" y="-164" font-family="Helvetica,sans-Serif" font-size="10.00">Storm::RichardsonSolver</text>
<text text-anchor="middle" x="741" y="-152.75" font-family="Helvetica,sans-Serif" font-size="10.00">&lt; Vector &gt;</text>
</a>
</g>
</g>
<!-- Node15&#45;&gt;Node26 -->
<g id="edge25" class="edge">
<title>Node15&#45;&gt;Node26</title>
<path fill="none" stroke="#63b8ff" d="M576.98,-314.78C591.97,-280.96 622.84,-221.53 667,-187.25 671.66,-183.64 676.87,-180.53 682.31,-177.85"/>
<polygon fill="#63b8ff" stroke="#63b8ff" points="573.4,-313.23 572.67,-323.8 579.84,-315.99 573.4,-313.23"/>
</g>
<!-- Node17 -->
<g id="node17" class="node">
<title>Node17</title>
<g id="a_node17"><a xlink:href="class_storm_1_1_tfqmr1_solver.html" target="_top" xlink:title="The TFQMR1 (Transpose&#45;Free 1&#45;norm Quasi&#45;Minimal Residual) linear operator equation solver.">
<polygon fill="white" stroke="#666666" points="971.25,-545.5 864.5,-545.5 864.5,-515 971.25,-515 971.25,-545.5"/>
<text text-anchor="start" x="872.5" y="-532" font-family="Helvetica,sans-Serif" font-size="10.00">Storm::Tfqmr1Solver</text>
<text text-anchor="middle" x="917.88" y="-520.75" font-family="Helvetica,sans-Serif" font-size="10.00">&lt; Vector &gt;</text>
</a>
</g>
</g>
<!-- Node16&#45;&gt;Node17 -->
<g id="edge16" class="edge">
<title>Node16&#45;&gt;Node17</title>
<path fill="none" stroke="#63b8ff" d="M814.05,-530.25C830.84,-530.25 848.41,-530.25 864.18,-530.25"/>
<polygon fill="#63b8ff" stroke="#63b8ff" points="814.16,-526.75 804.16,-530.25 814.16,-533.75 814.16,-526.75"/>
</g>
<!-- Node19 -->
<g id="node19" class="node">
<title>Node19</title>
<g id="a_node19"><a xlink:href="class_storm_1_1_tfqmr_solver.html" target="_top" xlink:title="The TFQMR (Transpose&#45;Free Quasi&#45;Minimal Residual) linear operator equation solver.">
<polygon fill="white" stroke="#666666" points="968.62,-496.5 867.12,-496.5 867.12,-466 968.62,-466 968.62,-496.5"/>
<text text-anchor="start" x="875.12" y="-483" font-family="Helvetica,sans-Serif" font-size="10.00">Storm::TfqmrSolver</text>
<text text-anchor="middle" x="917.88" y="-471.75" font-family="Helvetica,sans-Serif" font-size="10.00">&lt; Vector &gt;</text>
</a>
</g>
</g>
<!-- Node18&#45;&gt;Node19 -->
<g id="edge18" class="edge">
<title>Node18&#45;&gt;Node19</title>
<path fill="none" stroke="#63b8ff" d="M814.05,-481.25C831.75,-481.25 850.32,-481.25 866.73,-481.25"/>
<polygon fill="#63b8ff" stroke="#63b8ff" points="814.16,-477.75 804.16,-481.25 814.16,-484.75 814.16,-477.75"/>
</g>
<!-- Node28 -->
<g id="node28" class="node">
<title>Node28</title>
<g id="a_node28"><a xlink:href="class_storm_1_1_inner_outer_iterative_solver.html" target="_top" xlink:title=" ">
<polygon fill="white" stroke="#666666" points="805.62,-128.5 676.38,-128.5 676.38,-98 805.62,-98 805.62,-128.5"/>
<text text-anchor="start" x="684.38" y="-115" font-family="Helvetica,sans-Serif" font-size="10.00">Storm::InnerOuterIterative</text>
<text text-anchor="middle" x="741" y="-103.75" font-family="Helvetica,sans-Serif" font-size="10.00">Solver&lt; Vector &gt;</text>
</a>
</g>
</g>
<!-- Node27&#45;&gt;Node28 -->
<g id="edge27" class="edge">
<title>Node27&#45;&gt;Node28</title>
<path fill="none" stroke="#63b8ff" d="M636.61,-113.25C649.64,-113.25 663.2,-113.25 676.04,-113.25"/>
<polygon fill="#63b8ff" stroke="#63b8ff" points="636.81,-109.75 626.81,-113.25 636.81,-116.75 636.81,-109.75"/>
</g>
<!-- Node36 -->
<g id="node36" class="node">
<title>Node36</title>
<g id="a_node36"><a xlink:href="class_storm_1_1_inner_outer_iterative_solver.html" target="_top" xlink:title="Abstract inner&#45;outer iterative solver. &#45;=&#45;=&#45;=&#45;=&#45;=&#45;=&#45;=&#45;=&#45;=&#45;=&#45;=&#45;=&#45;=&#45;=&#45;=&#45;=&#45;=&#45;=&#45;=&#45;=&#45;=&#45;=&#45;=&#45;=&#45;=&#45;=&#45;=&#45;=&#45;=&#45;=&#45;=...">
<polygon fill="white" stroke="#666666" points="815,-79.5 667,-79.5 667,-49 815,-49 815,-79.5"/>
<text text-anchor="start" x="675" y="-66" font-family="Helvetica,sans-Serif" font-size="10.00">Storm::InnerOuterIterative</text>
<text text-anchor="middle" x="741" y="-54.75" font-family="Helvetica,sans-Serif" font-size="10.00">Solver&lt; InVector, OutVector &gt;</text>
</a>
</g>
</g>
<!-- Node27&#45;&gt;Node36 -->
<g id="edge35" class="edge">
<title>Node27&#45;&gt;Node36</title>
<path fill="none" stroke="#63b8ff" d="M632.43,-94.65C649.53,-89.82 667.78,-84.66 684.3,-79.99"/>
<polygon fill="#63b8ff" stroke="#63b8ff" points="631.63,-91.52 622.96,-97.61 633.53,-98.26 631.63,-91.52"/>
</g>
<!-- Node29 -->
<g id="node29" class="node">
<title>Node29</title>
<g id="a_node29"><a xlink:href="class_storm_1_1_base_gmres_solver.html" target="_top" xlink:title=" ">
<polygon fill="white" stroke="#666666" points="981.75,-226.5 854,-226.5 854,-196 981.75,-196 981.75,-226.5"/>
<text text-anchor="start" x="862" y="-213" font-family="Helvetica,sans-Serif" font-size="10.00">Storm::BaseGmresSolver</text>
<text text-anchor="middle" x="917.88" y="-201.75" font-family="Helvetica,sans-Serif" font-size="10.00">&lt; Vector, true &gt;</text>
</a>
</g>
</g>
<!-- Node28&#45;&gt;Node29 -->
<g id="edge28" class="edge">
<title>Node28&#45;&gt;Node29</title>
<path fill="none" stroke="#63b8ff" d="M808.32,-133.86C810.63,-135.24 812.87,-136.7 815,-138.25 836.57,-153.93 829.69,-170.22 851,-186.25 855.69,-189.78 860.94,-192.87 866.37,-195.55"/>
<polygon fill="#63b8ff" stroke="#63b8ff" points="810.56,-130.56 800.09,-128.98 807.29,-136.75 810.56,-130.56"/>
</g>
<!-- Node31 -->
<g id="node31" class="node">
<title>Node31</title>
<g id="a_node31"><a xlink:href="class_storm_1_1_base_gmres_solver.html" target="_top" xlink:title=" ">
<polygon fill="white" stroke="#666666" points="981.75,-177.5 854,-177.5 854,-147 981.75,-147 981.75,-177.5"/>
<text text-anchor="start" x="862" y="-164" font-family="Helvetica,sans-Serif" font-size="10.00">Storm::BaseGmresSolver</text>
<text text-anchor="middle" x="917.88" y="-152.75" font-family="Helvetica,sans-Serif" font-size="10.00">&lt; Vector, false &gt;</text>
</a>
</g>
</g>
<!-- Node28&#45;&gt;Node31 -->
<g id="edge30" class="edge">
<title>Node28&#45;&gt;Node31</title>
<path fill="none" stroke="#63b8ff" d="M808.37,-131.85C825.62,-136.68 844.03,-141.84 860.69,-146.51"/>
<polygon fill="#63b8ff" stroke="#63b8ff" points="809.39,-128.22 798.81,-128.89 807.5,-134.96 809.39,-128.22"/>
</g>
<!-- Node33 -->
<g id="node33" class="node">
<title>Node33</title>
<g id="a_node33"><a xlink:href="class_storm_1_1_base_gmres_solver.html" target="_top" xlink:title="Parmetrized GMRES solver.">
<polygon fill="white" stroke="#666666" points="984.75,-128.5 851,-128.5 851,-98 984.75,-98 984.75,-128.5"/>
<text text-anchor="start" x="859" y="-115" font-family="Helvetica,sans-Serif" font-size="10.00">Storm::BaseGmresSolver</text>
<text text-anchor="middle" x="917.88" y="-103.75" font-family="Helvetica,sans-Serif" font-size="10.00">&lt; Vector, Flexible, Loose &gt;</text>
</a>
</g>
</g>
<!-- Node28&#45;&gt;Node33 -->
<g id="edge32" class="edge">
<title>Node28&#45;&gt;Node33</title>
<path fill="none" stroke="#63b8ff" d="M816.81,-113.25C828.08,-113.25 839.64,-113.25 850.71,-113.25"/>
<polygon fill="#63b8ff" stroke="#63b8ff" points="817.12,-109.75 807.12,-113.25 817.12,-116.75 817.12,-109.75"/>
</g>
<!-- Node34 -->
<g id="node34" class="node">
<title>Node34</title>
<g id="a_node34"><a xlink:href="class_storm_1_1_bi_cg_stab_l_solver.html" target="_top" xlink:title="The BiCGStab(l) (Biconjugate Gradients Stabilized) linear operator equation solver.">
<polygon fill="white" stroke="#666666" points="979.5,-79.5 856.25,-79.5 856.25,-49 979.5,-49 979.5,-79.5"/>
<text text-anchor="start" x="864.25" y="-66" font-family="Helvetica,sans-Serif" font-size="10.00">Storm::BiCgStabLSolver</text>
<text text-anchor="middle" x="917.88" y="-54.75" font-family="Helvetica,sans-Serif" font-size="10.00">&lt; Vector &gt;</text>
</a>
</g>
</g>
<!-- Node28&#45;&gt;Node34 -->
<g id="edge33" class="edge">
<title>Node28&#45;&gt;Node34</title>
<path fill="none" stroke="#63b8ff" d="M808.37,-94.65C825.62,-89.82 844.03,-84.66 860.69,-79.99"/>
<polygon fill="#63b8ff" stroke="#63b8ff" points="807.5,-91.54 798.81,-97.61 809.39,-98.28 807.5,-91.54"/>
</g>
<!-- Node35 -->
<g id="node35" class="node">
<title>Node35</title>
<g id="a_node35"><a xlink:href="class_storm_1_1_idrs_solver.html" target="_top" xlink:title="The IDR(s) (Induced Dimension Reduction) linear operator equation solver.">
<polygon fill="white" stroke="#666666" points="967.12,-30.5 868.62,-30.5 868.62,0 967.12,0 967.12,-30.5"/>
<text text-anchor="start" x="876.62" y="-17" font-family="Helvetica,sans-Serif" font-size="10.00">Storm::IdrsSolver&lt;</text>
<text text-anchor="middle" x="917.88" y="-5.75" font-family="Helvetica,sans-Serif" font-size="10.00"> Vector &gt;</text>
</a>
</g>
</g>
<!-- Node28&#45;&gt;Node35 -->
<g id="edge34" class="edge">
<title>Node28&#45;&gt;Node35</title>
<path fill="none" stroke="#63b8ff" d="M808.32,-92.64C810.63,-91.26 812.87,-89.8 815,-88.25 836.57,-72.57 829.69,-56.28 851,-40.25 856.28,-36.28 862.26,-32.87 868.42,-29.96"/>
<polygon fill="#63b8ff" stroke="#63b8ff" points="807.29,-89.75 800.09,-97.52 810.56,-95.94 807.29,-89.75"/>
</g>
<!-- Node30 -->
<g id="node30" class="node">
<title>Node30</title>
<g id="a_node30"><a xlink:href="class_storm_1_1_fgmres_solver.html" target="_top" xlink:title="The FGMRES (Flexible Generalized Minimal Residual) linear operator equation solver.">
<polygon fill="white" stroke="#666666" points="1129.75,-226.5 1020.75,-226.5 1020.75,-196 1129.75,-196 1129.75,-226.5"/>
<text text-anchor="start" x="1028.75" y="-213" font-family="Helvetica,sans-Serif" font-size="10.00">Storm::FgmresSolver</text>
<text text-anchor="middle" x="1075.25" y="-201.75" font-family="Helvetica,sans-Serif" font-size="10.00">&lt; Vector &gt;</text>
</a>
</g>
</g>
<!-- Node29&#45;&gt;Node30 -->
<g id="edge29" class="edge">
<title>Node29&#45;&gt;Node30</title>
<path fill="none" stroke="#63b8ff" d="M992.94,-211.25C1002.26,-211.25 1011.64,-211.25 1020.56,-211.25"/>
<polygon fill="#63b8ff" stroke="#63b8ff" points="993.07,-207.75 983.07,-211.25 993.07,-214.75 993.07,-207.75"/>
</g>
<!-- Node32 -->
<g id="node32" class="node">
<title>Node32</title>
<g id="a_node32"><a xlink:href="class_storm_1_1_gmres_solver.html" target="_top" xlink:title="The GMRES (Generalized Minimal Residual) linear operator equation solver.">
<polygon fill="white" stroke="#666666" points="1127.88,-177.5 1022.62,-177.5 1022.62,-147 1127.88,-147 1127.88,-177.5"/>
<text text-anchor="start" x="1030.62" y="-164" font-family="Helvetica,sans-Serif" font-size="10.00">Storm::GmresSolver</text>
<text text-anchor="middle" x="1075.25" y="-152.75" font-family="Helvetica,sans-Serif" font-size="10.00">&lt; Vector &gt;</text>
</a>
</g>
</g>
<!-- Node31&#45;&gt;Node32 -->
<g id="edge31" class="edge">
<title>Node31&#45;&gt;Node32</title>
<path fill="none" stroke="#63b8ff" d="M992.88,-162.25C1002.9,-162.25 1013,-162.25 1022.51,-162.25"/>
<polygon fill="#63b8ff" stroke="#63b8ff" points="993.07,-158.75 983.07,-162.25 993.07,-165.75 993.07,-158.75"/>
</g>
<!-- Node42 -->
<g id="node42" class="node">
<title>Node42</title>
<g id="a_node42"><a xlink:href="class_storm_1_1_vulture_1_1gl_1_1_multisampled_texture2_d.html" target="_top" xlink:title="OpenGL multisampled 2D texture.">
<polygon fill="white" stroke="#666666" points="459.75,-298.12 335,-298.12 335,-256.38 459.75,-256.38 459.75,-298.12"/>
<text text-anchor="start" x="343" y="-284.62" font-family="Helvetica,sans-Serif" font-size="10.00">Storm::Vulture::gl</text>
<text text-anchor="start" x="343" y="-273.38" font-family="Helvetica,sans-Serif" font-size="10.00">::MultisampledTexture2D</text>
<text text-anchor="middle" x="397.38" y="-262.12" font-family="Helvetica,sans-Serif" font-size="10.00">&lt; Pixel &gt;</text>
</a>
</g>
</g>
<!-- Node41&#45;&gt;Node42 -->
<g id="edge41" class="edge">
<title>Node41&#45;&gt;Node42</title>
<path fill="none" stroke="#63b8ff" d="M275.88,-240.36C294.63,-246.1 315.65,-252.54 334.82,-258.4"/>
<polygon fill="#63b8ff" stroke="#63b8ff" points="277.01,-236.74 266.42,-237.16 274.96,-243.43 277.01,-236.74"/>
</g>
<!-- Node43 -->
<g id="node43" class="node">
<title>Node43</title>
<g id="a_node43"><a xlink:href="class_storm_1_1_vulture_1_1gl_1_1_texture2_d.html" target="_top" xlink:title="OpenGL 2D texture.">
<polygon fill="white" stroke="#666666" points="450.75,-238.5 344,-238.5 344,-208 450.75,-208 450.75,-238.5"/>
<text text-anchor="start" x="352" y="-225" font-family="Helvetica,sans-Serif" font-size="10.00">Storm::Vulture::gl</text>
<text text-anchor="middle" x="397.38" y="-213.75" font-family="Helvetica,sans-Serif" font-size="10.00">::Texture2D&lt; Pixel &gt;</text>
</a>
</g>
</g>
<!-- Node41&#45;&gt;Node43 -->
<g id="edge42" class="edge">
<title>Node41&#45;&gt;Node43</title>
<path fill="none" stroke="#63b8ff" d="M276.39,-223.25C297.94,-223.25 322.41,-223.25 343.6,-223.25"/>
<polygon fill="#63b8ff" stroke="#63b8ff" points="276.42,-219.75 266.42,-223.25 276.42,-226.75 276.42,-219.75"/>
</g>
<!-- Node44 -->
<g id="node44" class="node">
<title>Node44</title>
<g id="a_node44"><a xlink:href="class_storm_1_1_vulture_1_1gl_1_1_texture_buffer.html" target="_top" xlink:title="OpenGL texture buffer.">
<polygon fill="white" stroke="#666666" points="443.62,-189.5 351.12,-189.5 351.12,-159 443.62,-159 443.62,-189.5"/>
<text text-anchor="start" x="359.12" y="-176" font-family="Helvetica,sans-Serif" font-size="10.00">Storm::Vulture::gl</text>
<text text-anchor="middle" x="397.38" y="-164.75" font-family="Helvetica,sans-Serif" font-size="10.00">::TextureBuffer</text>
</a>
</g>
</g>
<!-- Node41&#45;&gt;Node44 -->
<g id="edge43" class="edge">
<title>Node41&#45;&gt;Node44</title>
<path fill="none" stroke="#63b8ff" d="M275.87,-207.73C300.02,-201.02 327.93,-193.27 350.8,-186.91"/>
<polygon fill="#63b8ff" stroke="#63b8ff" points="275.12,-204.58 266.42,-210.63 276.99,-211.33 275.12,-204.58"/>
</g>
</g>
</svg>
