<?xml version="1.0" encoding="UTF-8" standalone="no"?>
<!DOCTYPE svg PUBLIC "-//W3C//DTD SVG 1.1//EN"
 "http://www.w3.org/Graphics/SVG/1.1/DTD/svg11.dtd">
<!-- Generated by graphviz version 7.0.2 (20221119.0110)
 -->
<!-- Title: Storm::TargetMatrixView&lt; Matrix &gt; Pages: 1 -->
<svg width="475pt" height="124pt"
 viewBox="0.00 0.00 475.00 123.50" xmlns="http://www.w3.org/2000/svg" xmlns:xlink="http://www.w3.org/1999/xlink">
<g id="graph0" class="graph" transform="scale(1 1) rotate(0) translate(4 119.5)">
<title>Storm::TargetMatrixView&lt; Matrix &gt;</title>
<!-- Node1 -->
<g id="node1" class="node">
<title>Node1</title>
<g id="a_node1"><a xlink:title="Output matrix as target wrapper.">
<polygon fill="#999999" stroke="#666666" points="467,-67.5 342,-67.5 342,-37.5 467,-37.5 467,-67.5"/>
<text text-anchor="start" x="350" y="-55.5" font-family="Helvetica,sans-Serif" font-size="10.00">Storm::TargetMatrixView</text>
<text text-anchor="middle" x="404.5" y="-44.5" font-family="Helvetica,sans-Serif" font-size="10.00">&lt; Matrix &gt;</text>
</a>
</g>
</g>
<!-- Node2 -->
<g id="node2" class="node">
<title>Node2</title>
<g id="a_node2"><a xlink:href="class_storm_1_1_matrix_view_interface.html" target="_top" xlink:title=" ">
<polygon fill="white" stroke="#666666" points="306,-115.5 151,-115.5 151,-85.5 306,-85.5 306,-115.5"/>
<text text-anchor="start" x="159" y="-103.5" font-family="Helvetica,sans-Serif" font-size="10.00">Storm::MatrixViewInterface</text>
<text text-anchor="middle" x="228.5" y="-92.5" font-family="Helvetica,sans-Serif" font-size="10.00">&lt; TargetMatrixView&lt; Matrix &gt; &gt;</text>
</a>
</g>
</g>
<!-- Node2&#45;&gt;Node1 -->
<g id="edge1" class="edge">
<title>Node2&#45;&gt;Node1</title>
<path fill="none" stroke="#63b8ff" d="M296.43,-82.04C313.33,-77.37 331.3,-72.42 347.59,-67.92"/>
<polygon fill="#63b8ff" stroke="#63b8ff" points="295.68,-78.61 286.97,-84.65 297.54,-85.36 295.68,-78.61"/>
</g>
<!-- Node3 -->
<g id="node3" class="node">
<title>Node3</title>
<g id="a_node3"><a xlink:href="class_storm_1_1_target_matrix_interface.html" target="_top" xlink:title=" ">
<polygon fill="white" stroke="#666666" points="306,-67.5 151,-67.5 151,-37.5 306,-37.5 306,-67.5"/>
<text text-anchor="start" x="159" y="-55.5" font-family="Helvetica,sans-Serif" font-size="10.00">Storm::TargetMatrixInterface</text>
<text text-anchor="middle" x="228.5" y="-44.5" font-family="Helvetica,sans-Serif" font-size="10.00">&lt; TargetMatrixView&lt; Matrix &gt; &gt;</text>
</a>
</g>
</g>
<!-- Node3&#45;&gt;Node1 -->
<g id="edge2" class="edge">
<title>Node3&#45;&gt;Node1</title>
<path fill="none" stroke="#63b8ff" d="M317.75,-52.5C325.84,-52.5 333.92,-52.5 341.7,-52.5"/>
<polygon fill="#63b8ff" stroke="#63b8ff" points="317.84,-49 307.84,-52.5 317.84,-56 317.84,-49"/>
</g>
<!-- Node4 -->
<g id="node4" class="node">
<title>Node4</title>
<g id="a_node4"><a xlink:href="class_storm_1_1_non_assignable.html" target="_top" xlink:title="Non assignable object interface.">
<polygon fill="white" stroke="#666666" points="115,-62 0,-62 0,-43 115,-43 115,-62"/>
<text text-anchor="middle" x="57.5" y="-50" font-family="Helvetica,sans-Serif" font-size="10.00">Storm::NonAssignable</text>
</a>
</g>
</g>
<!-- Node4&#45;&gt;Node3 -->
<g id="edge3" class="edge">
<title>Node4&#45;&gt;Node3</title>
<path fill="none" stroke="#63b8ff" d="M126.69,-52.5C134.62,-52.5 142.75,-52.5 150.79,-52.5"/>
<polygon fill="#63b8ff" stroke="#63b8ff" points="126.76,-49 116.76,-52.5 126.76,-56 126.76,-49"/>
</g>
<!-- Node5 -->
<g id="node5" class="node">
<title>Node5</title>
<g id="a_node5"><a xlink:href="class_storm_1_1_non_movable.html" target="_top" xlink:title="Non movable (and non copyable) object interface.">
<polygon fill="white" stroke="#666666" points="280.5,-19 176.5,-19 176.5,0 280.5,0 280.5,-19"/>
<text text-anchor="middle" x="228.5" y="-7" font-family="Helvetica,sans-Serif" font-size="10.00">Storm::NonMovable</text>
</a>
</g>
</g>
<!-- Node5&#45;&gt;Node1 -->
<g id="edge4" class="edge">
<title>Node5&#45;&gt;Node1</title>
<path fill="none" stroke="#63b8ff" d="M280.99,-22.22C299.99,-26.92 321.71,-32.29 341.54,-37.19"/>
<polygon fill="#63b8ff" stroke="#63b8ff" points="281.87,-18.84 271.33,-19.84 280.19,-25.63 281.87,-18.84"/>
</g>
</g>
</svg>
