<?xml version="1.0" encoding="UTF-8" standalone="no"?>
<!DOCTYPE svg PUBLIC "-//W3C//DTD SVG 1.1//EN"
 "http://www.w3.org/Graphics/SVG/1.1/DTD/svg11.dtd">
<!-- Generated by graphviz version 8.0.5 (20230430.1635)
 -->
<!-- Title: Storm::FgmresSolver&lt; Vector &gt; Pages: 1 -->
<svg width="137pt" height="415pt"
 viewBox="0.00 0.00 137.25 415.00" xmlns="http://www.w3.org/2000/svg" xmlns:xlink="http://www.w3.org/1999/xlink">
<g id="graph0" class="graph" transform="scale(1 1) rotate(0) translate(4 411)">
<title>Storm::FgmresSolver&lt; Vector &gt;</title>
<!-- Node1 -->
<g id="node1" class="node">
<title>Node1</title>
<g id="a_node1"><a xlink:title="The FGMRES (Flexible Generalized Minimal Residual) linear operator equation solver.">
<polygon fill="#999999" stroke="#666666" points="119.12,-30.5 10.12,-30.5 10.12,0 119.12,0 119.12,-30.5"/>
<text text-anchor="start" x="18.12" y="-17" font-family="Helvetica,sans-Serif" font-size="10.00">Storm::FgmresSolver</text>
<text text-anchor="middle" x="64.62" y="-5.75" font-family="Helvetica,sans-Serif" font-size="10.00">&lt; Vector &gt;</text>
</a>
</g>
</g>
<!-- Node2 -->
<g id="node2" class="node">
<title>Node2</title>
<g id="a_node2"><a xlink:href="class_storm_1_1_base_gmres_solver.html" target="_top" xlink:title=" ">
<polygon fill="white" stroke="#666666" points="128.5,-97 0.75,-97 0.75,-66.5 128.5,-66.5 128.5,-97"/>
<text text-anchor="start" x="8.75" y="-83.5" font-family="Helvetica,sans-Serif" font-size="10.00">Storm::BaseGmresSolver</text>
<text text-anchor="middle" x="64.62" y="-72.25" font-family="Helvetica,sans-Serif" font-size="10.00">&lt; Vector, true &gt;</text>
</a>
</g>
</g>
<!-- Node2&#45;&gt;Node1 -->
<g id="edge1" class="edge">
<title>Node2&#45;&gt;Node1</title>
<path fill="none" stroke="#63b8ff" d="M64.62,-55.38C64.62,-47.05 64.62,-38.08 64.62,-30.83"/>
<polygon fill="#63b8ff" stroke="#63b8ff" points="61.13,-55.11 64.62,-65.11 68.13,-55.11 61.13,-55.11"/>
</g>
<!-- Node3 -->
<g id="node3" class="node">
<title>Node3</title>
<g id="a_node3"><a xlink:href="class_storm_1_1_inner_outer_iterative_solver.html" target="_top" xlink:title=" ">
<polygon fill="white" stroke="#666666" points="129.25,-163.5 0,-163.5 0,-133 129.25,-133 129.25,-163.5"/>
<text text-anchor="start" x="8" y="-150" font-family="Helvetica,sans-Serif" font-size="10.00">Storm::InnerOuterIterative</text>
<text text-anchor="middle" x="64.62" y="-138.75" font-family="Helvetica,sans-Serif" font-size="10.00">Solver&lt; Vector &gt;</text>
</a>
</g>
</g>
<!-- Node3&#45;&gt;Node2 -->
<g id="edge2" class="edge">
<title>Node3&#45;&gt;Node2</title>
<path fill="none" stroke="#63b8ff" d="M64.62,-121.88C64.62,-113.55 64.62,-104.58 64.62,-97.33"/>
<polygon fill="#63b8ff" stroke="#63b8ff" points="61.13,-121.61 64.62,-131.61 68.13,-121.61 61.13,-121.61"/>
</g>
<!-- Node4 -->
<g id="node4" class="node">
<title>Node4</title>
<g id="a_node4"><a xlink:href="class_storm_1_1_iterative_solver.html" target="_top" xlink:title="Abstract operator equation iterative solver. &#45;=&#45;=&#45;=&#45;=&#45;=&#45;=&#45;=&#45;=&#45;=&#45;=&#45;=&#45;=&#45;=&#45;=&#45;=&#45;=&#45;=&#45;=&#45;=&#45;=&#45;=&#45;=&#45;=&#45;=&#45;=&#45;=&#45;=&#45;=...">
<polygon fill="white" stroke="#666666" points="124.75,-230 4.5,-230 4.5,-199.5 124.75,-199.5 124.75,-230"/>
<text text-anchor="start" x="12.5" y="-216.5" font-family="Helvetica,sans-Serif" font-size="10.00">Storm::IterativeSolver</text>
<text text-anchor="middle" x="64.62" y="-205.25" font-family="Helvetica,sans-Serif" font-size="10.00">&lt; InVector, OutVector &gt;</text>
</a>
</g>
</g>
<!-- Node4&#45;&gt;Node3 -->
<g id="edge3" class="edge">
<title>Node4&#45;&gt;Node3</title>
<path fill="none" stroke="#63b8ff" d="M64.62,-188.38C64.62,-180.05 64.62,-171.08 64.62,-163.83"/>
<polygon fill="#63b8ff" stroke="#63b8ff" points="61.13,-188.11 64.62,-198.11 68.13,-188.11 61.13,-188.11"/>
</g>
<!-- Node5 -->
<g id="node5" class="node">
<title>Node5</title>
<g id="a_node5"><a xlink:href="class_storm_1_1_solver.html" target="_top" xlink:title="Abstract operator equation solver. &#45;=&#45;=&#45;=&#45;=&#45;=&#45;=&#45;=&#45;=&#45;=&#45;=&#45;=&#45;=&#45;=&#45;=&#45;=&#45;=&#45;=&#45;=&#45;=&#45;=&#45;=&#45;=&#45;=&#45;=&#45;=&#45;=&#45;=&#45;=&#45;=&#45;=&#45;=&#45;=&#45; ...">
<polygon fill="white" stroke="#666666" points="126.62,-296.5 2.62,-296.5 2.62,-266 126.62,-266 126.62,-296.5"/>
<text text-anchor="start" x="10.62" y="-283" font-family="Helvetica,sans-Serif" font-size="10.00">Storm::Solver&lt; InVector,</text>
<text text-anchor="middle" x="64.62" y="-271.75" font-family="Helvetica,sans-Serif" font-size="10.00"> OutVector &gt;</text>
</a>
</g>
</g>
<!-- Node5&#45;&gt;Node4 -->
<g id="edge4" class="edge">
<title>Node5&#45;&gt;Node4</title>
<path fill="none" stroke="#63b8ff" d="M64.62,-254.88C64.62,-246.55 64.62,-237.58 64.62,-230.33"/>
<polygon fill="#63b8ff" stroke="#63b8ff" points="61.13,-254.61 64.62,-264.61 68.13,-254.61 61.13,-254.61"/>
</g>
<!-- Node6 -->
<g id="node6" class="node">
<title>Node6</title>
<g id="a_node6"><a xlink:href="class_storm_1_1_object.html" target="_top" xlink:title="A base object.">
<polygon fill="white" stroke="#666666" points="103,-351.75 26.25,-351.75 26.25,-332.5 103,-332.5 103,-351.75"/>
<text text-anchor="middle" x="64.62" y="-338.25" font-family="Helvetica,sans-Serif" font-size="10.00">Storm::Object</text>
</a>
</g>
</g>
<!-- Node6&#45;&gt;Node5 -->
<g id="edge5" class="edge">
<title>Node6&#45;&gt;Node5</title>
<path fill="none" stroke="#63b8ff" d="M64.62,-321.2C64.62,-313.2 64.62,-304.15 64.62,-296.78"/>
<polygon fill="#63b8ff" stroke="#63b8ff" points="61.13,-321.18 64.62,-331.18 68.13,-321.18 61.13,-321.18"/>
</g>
<!-- Node7 -->
<g id="node7" class="node">
<title>Node7</title>
<g id="a_node7"><a xlink:href="class_storm_1_1_non_copyable.html" target="_top" xlink:title="Non copyable object interface.">
<polygon fill="white" stroke="#666666" points="119.88,-407 9.38,-407 9.38,-387.75 119.88,-387.75 119.88,-407"/>
<text text-anchor="middle" x="64.62" y="-393.5" font-family="Helvetica,sans-Serif" font-size="10.00">detail_::noncopyable_</text>
</a>
</g>
</g>
<!-- Node7&#45;&gt;Node6 -->
<g id="edge6" class="edge">
<title>Node7&#45;&gt;Node6</title>
<path fill="none" stroke="#63b8ff" d="M64.62,-376.71C64.62,-368.27 64.62,-358.83 64.62,-352.11"/>
<polygon fill="#63b8ff" stroke="#63b8ff" points="61.13,-376.58 64.62,-386.58 68.13,-376.58 61.13,-376.58"/>
</g>
</g>
</svg>
