<?xml version="1.0" encoding="UTF-8" standalone="no"?>
<!DOCTYPE svg PUBLIC "-//W3C//DTD SVG 1.1//EN"
 "http://www.w3.org/Graphics/SVG/1.1/DTD/svg11.dtd">
<!-- Generated by graphviz version 8.0.5 (20230430.1635)
 -->
<!-- Title: Storm::IdentityPreconditioner&lt; Vector &gt; Pages: 1 -->
<svg width="151pt" height="271pt"
 viewBox="0.00 0.00 150.75 270.75" xmlns="http://www.w3.org/2000/svg" xmlns:xlink="http://www.w3.org/1999/xlink">
<g id="graph0" class="graph" transform="scale(1 1) rotate(0) translate(4 266.75)">
<title>Storm::IdentityPreconditioner&lt; Vector &gt;</title>
<!-- Node1 -->
<g id="node1" class="node">
<title>Node1</title>
<g id="a_node1"><a xlink:title="Identity preconditioner, intended to be used for debugging only. &#45;=&#45;=&#45;=&#45;=&#45;=&#45;=&#45;=&#45;=&#45;=&#45;=&#45;=&#45;=&#45;=&#45;=&#45;=&#45;=&#45;=&#45;=...">
<polygon fill="#999999" stroke="#666666" points="142.75,-30.5 0,-30.5 0,0 142.75,0 142.75,-30.5"/>
<text text-anchor="start" x="8" y="-17" font-family="Helvetica,sans-Serif" font-size="10.00">Storm::IdentityPreconditioner</text>
<text text-anchor="middle" x="71.38" y="-5.75" font-family="Helvetica,sans-Serif" font-size="10.00">&lt; Vector &gt;</text>
</a>
</g>
</g>
<!-- Node2 -->
<g id="node2" class="node">
<title>Node2</title>
<g id="a_node2"><a xlink:href="class_storm_1_1_preconditioner.html" target="_top" xlink:title="Abstract preconditioner operator. &#45;=&#45;=&#45;=&#45;=&#45;=&#45;=&#45;=&#45;=&#45;=&#45;=&#45;=&#45;=&#45;=&#45;=&#45;=&#45;=&#45;=&#45;=&#45;=&#45;=&#45;=&#45;=&#45;=&#45;=&#45;=&#45;=&#45;=&#45;=&#45;=&#45;=&#45;=&#45;=&#45; /...">
<polygon fill="white" stroke="#666666" points="126.62,-97 16.12,-97 16.12,-66.5 126.62,-66.5 126.62,-97"/>
<text text-anchor="start" x="24.12" y="-83.5" font-family="Helvetica,sans-Serif" font-size="10.00">Storm::Preconditioner</text>
<text text-anchor="middle" x="71.38" y="-72.25" font-family="Helvetica,sans-Serif" font-size="10.00">&lt; Vector &gt;</text>
</a>
</g>
</g>
<!-- Node2&#45;&gt;Node1 -->
<g id="edge1" class="edge">
<title>Node2&#45;&gt;Node1</title>
<path fill="none" stroke="#63b8ff" d="M71.38,-55.38C71.38,-47.05 71.38,-38.08 71.38,-30.83"/>
<polygon fill="#63b8ff" stroke="#63b8ff" points="67.88,-55.11 71.38,-65.11 74.88,-55.11 67.88,-55.11"/>
</g>
<!-- Node3 -->
<g id="node3" class="node">
<title>Node3</title>
<g id="a_node3"><a xlink:href="class_storm_1_1_operator.html" target="_top" xlink:title=" ">
<polygon fill="white" stroke="#666666" points="137.5,-152.25 5.25,-152.25 5.25,-133 137.5,-133 137.5,-152.25"/>
<text text-anchor="middle" x="71.38" y="-138.75" font-family="Helvetica,sans-Serif" font-size="10.00">Storm::Operator&lt; Vector &gt;</text>
</a>
</g>
</g>
<!-- Node3&#45;&gt;Node2 -->
<g id="edge2" class="edge">
<title>Node3&#45;&gt;Node2</title>
<path fill="none" stroke="#63b8ff" d="M71.38,-121.7C71.38,-113.7 71.38,-104.65 71.38,-97.28"/>
<polygon fill="#63b8ff" stroke="#63b8ff" points="67.88,-121.68 71.38,-131.68 74.88,-121.68 67.88,-121.68"/>
</g>
<!-- Node4 -->
<g id="node4" class="node">
<title>Node4</title>
<g id="a_node4"><a xlink:href="class_storm_1_1_object.html" target="_top" xlink:title="A base object.">
<polygon fill="white" stroke="#666666" points="109.75,-207.5 33,-207.5 33,-188.25 109.75,-188.25 109.75,-207.5"/>
<text text-anchor="middle" x="71.38" y="-194" font-family="Helvetica,sans-Serif" font-size="10.00">Storm::Object</text>
</a>
</g>
</g>
<!-- Node4&#45;&gt;Node3 -->
<g id="edge3" class="edge">
<title>Node4&#45;&gt;Node3</title>
<path fill="none" stroke="#63b8ff" d="M71.38,-177.21C71.38,-168.77 71.38,-159.33 71.38,-152.61"/>
<polygon fill="#63b8ff" stroke="#63b8ff" points="67.88,-177.08 71.38,-187.08 74.88,-177.08 67.88,-177.08"/>
</g>
<!-- Node5 -->
<g id="node5" class="node">
<title>Node5</title>
<g id="a_node5"><a xlink:href="class_storm_1_1_non_copyable.html" target="_top" xlink:title="Non copyable object interface.">
<polygon fill="white" stroke="#666666" points="126.62,-262.75 16.12,-262.75 16.12,-243.5 126.62,-243.5 126.62,-262.75"/>
<text text-anchor="middle" x="71.38" y="-249.25" font-family="Helvetica,sans-Serif" font-size="10.00">detail_::noncopyable_</text>
</a>
</g>
</g>
<!-- Node5&#45;&gt;Node4 -->
<g id="edge4" class="edge">
<title>Node5&#45;&gt;Node4</title>
<path fill="none" stroke="#63b8ff" d="M71.38,-232.46C71.38,-224.02 71.38,-214.58 71.38,-207.86"/>
<polygon fill="#63b8ff" stroke="#63b8ff" points="67.88,-232.33 71.38,-242.33 74.88,-232.33 67.88,-232.33"/>
</g>
</g>
</svg>
