<?xml version="1.0" encoding="UTF-8" standalone="no"?>
<!DOCTYPE svg PUBLIC "-//W3C//DTD SVG 1.1//EN"
 "http://www.w3.org/Graphics/SVG/1.1/DTD/svg11.dtd">
<!-- Generated by graphviz version 8.0.5 (20230430.1635)
 -->
<!-- Title: Storm::Feathers::iConvectionScheme Pages: 1 -->
<svg width="586pt" height="98pt"
 viewBox="0.00 0.00 586.25 98.12" xmlns="http://www.w3.org/2000/svg" xmlns:xlink="http://www.w3.org/1999/xlink">
<g id="graph0" class="graph" transform="scale(1 1) rotate(0) translate(4 94.12)">
<title>Storm::Feathers::iConvectionScheme</title>
<!-- Node1 -->
<g id="node1" class="node">
<title>Node1</title>
<g id="a_node1"><a xlink:title=" ">
<polygon fill="#999999" stroke="#666666" points="333.5,-57.5 189.25,-57.5 189.25,-27 333.5,-27 333.5,-57.5"/>
<text text-anchor="start" x="197.25" y="-44" font-family="Helvetica,sans-Serif" font-size="10.00">Storm::Feathers::iConvection</text>
<text text-anchor="middle" x="261.38" y="-32.75" font-family="Helvetica,sans-Serif" font-size="10.00">Scheme</text>
</a>
</g>
</g>
<!-- Node3 -->
<g id="node3" class="node">
<title>Node3</title>
<g id="a_node3"><a xlink:href="class_storm_1_1_feathers_1_1_linear_upwind_convection_scheme.html" target="_top" xlink:title="Piecewise&#45;linear upwind convection scheme.">
<polygon fill="white" stroke="#666666" points="578.25,-90.12 369.5,-90.12 369.5,-48.38 578.25,-48.38 578.25,-90.12"/>
<text text-anchor="start" x="377.5" y="-76.62" font-family="Helvetica,sans-Serif" font-size="10.00">Storm::Feathers::LinearUpwind</text>
<text text-anchor="start" x="377.5" y="-65.38" font-family="Helvetica,sans-Serif" font-size="10.00">ConvectionScheme&lt; Mesh, FluxScheme,</text>
<text text-anchor="middle" x="473.88" y="-54.12" font-family="Helvetica,sans-Serif" font-size="10.00"> GradientScheme, GradientLimiterScheme &gt;</text>
</a>
</g>
</g>
<!-- Node1&#45;&gt;Node3 -->
<g id="edge2" class="edge">
<title>Node1&#45;&gt;Node3</title>
<path fill="none" stroke="#63b8ff" d="M344.7,-52.81C352.7,-53.84 360.87,-54.88 369.04,-55.93"/>
<polygon fill="#63b8ff" stroke="#63b8ff" points="345.3,-49.23 334.93,-51.43 344.41,-56.17 345.3,-49.23"/>
</g>
<!-- Node4 -->
<g id="node4" class="node">
<title>Node4</title>
<g id="a_node4"><a xlink:href="class_storm_1_1_feathers_1_1_upwind_convection_scheme.html" target="_top" xlink:title="Piecewise&#45;constant upwind convection scheme.">
<polygon fill="white" stroke="#666666" points="561.38,-30.5 386.38,-30.5 386.38,0 561.38,0 561.38,-30.5"/>
<text text-anchor="start" x="394.38" y="-17" font-family="Helvetica,sans-Serif" font-size="10.00">Storm::Feathers::UpwindConvection</text>
<text text-anchor="middle" x="473.88" y="-5.75" font-family="Helvetica,sans-Serif" font-size="10.00">Scheme&lt; Mesh, FluxScheme &gt;</text>
</a>
</g>
</g>
<!-- Node1&#45;&gt;Node4 -->
<g id="edge3" class="edge">
<title>Node1&#45;&gt;Node4</title>
<path fill="none" stroke="#63b8ff" d="M344.72,-31.69C358.34,-29.94 372.49,-28.13 386.21,-26.37"/>
<polygon fill="#63b8ff" stroke="#63b8ff" points="344.41,-28.33 334.93,-33.07 345.3,-35.27 344.41,-28.33"/>
</g>
<!-- Node2 -->
<g id="node2" class="node">
<title>Node2</title>
<g id="a_node2"><a xlink:title=" ">
<polygon fill="white" stroke="#bfbfbf" points="153.25,-51.88 0,-51.88 0,-32.62 153.25,-32.62 153.25,-51.88"/>
<text text-anchor="middle" x="76.62" y="-38.38" font-family="Helvetica,sans-Serif" font-size="10.00">tObject&lt; iConvectionScheme &gt;</text>
</a>
</g>
</g>
<!-- Node2&#45;&gt;Node1 -->
<g id="edge1" class="edge">
<title>Node2&#45;&gt;Node1</title>
<path fill="none" stroke="#63b8ff" d="M164.28,-42.25C172.49,-42.25 180.75,-42.25 188.8,-42.25"/>
<polygon fill="#63b8ff" stroke="#63b8ff" points="164.54,-38.75 154.54,-42.25 164.54,-45.75 164.54,-38.75"/>
</g>
</g>
</svg>
