<?xml version="1.0" encoding="UTF-8" standalone="no"?>
<!DOCTYPE svg PUBLIC "-//W3C//DTD SVG 1.1//EN"
 "http://www.w3.org/Graphics/SVG/1.1/DTD/svg11.dtd">
<!-- Generated by graphviz version 7.0.2 (20221119.0110)
 -->
<!-- Title: Storm::Object Pages: 1 -->
<svg width="1070pt" height="609pt"
 viewBox="0.00 0.00 1070.00 609.00" xmlns="http://www.w3.org/2000/svg" xmlns:xlink="http://www.w3.org/1999/xlink">
<g id="graph0" class="graph" transform="scale(1 1) rotate(0) translate(4 605)">
<title>Storm::Object</title>
<!-- Node1 -->
<g id="node1" class="node">
<title>Node1</title>
<g id="a_node1"><a xlink:title="A base object.">
<polygon fill="#999999" stroke="#666666" points="224,-485.5 147,-485.5 147,-466.5 224,-466.5 224,-485.5"/>
<text text-anchor="middle" x="185.5" y="-473.5" font-family="Helvetica,sans-Serif" font-size="10.00">Storm::Object</text>
</a>
</g>
</g>
<!-- Node3 -->
<g id="node3" class="node">
<title>Node3</title>
<g id="a_node3"><a xlink:href="class_storm_1_1_operator.html" target="_top" xlink:title=" ">
<polygon fill="white" stroke="#666666" points="394,-601 260,-601 260,-571 394,-571 394,-601"/>
<text text-anchor="start" x="268" y="-589" font-family="Helvetica,sans-Serif" font-size="10.00">Storm::Operator&lt; InVector,</text>
<text text-anchor="middle" x="327" y="-578" font-family="Helvetica,sans-Serif" font-size="10.00"> InVector &gt;</text>
</a>
</g>
</g>
<!-- Node1&#45;&gt;Node3 -->
<g id="edge2" class="edge">
<title>Node1&#45;&gt;Node3</title>
<path fill="none" stroke="#63b8ff" d="M198.78,-495.54C211.83,-514.86 234.12,-544.06 260,-562 264.71,-565.26 269.91,-568.14 275.27,-570.66"/>
<polygon fill="#63b8ff" stroke="#63b8ff" points="201.75,-493.69 193.35,-487.23 195.89,-497.51 201.75,-493.69"/>
</g>
<!-- Node4 -->
<g id="node4" class="node">
<title>Node4</title>
<g id="a_node4"><a xlink:href="class_storm_1_1_operator.html" target="_top" xlink:title=" ">
<polygon fill="white" stroke="#666666" points="393.5,-552.5 260.5,-552.5 260.5,-533.5 393.5,-533.5 393.5,-552.5"/>
<text text-anchor="middle" x="327" y="-540.5" font-family="Helvetica,sans-Serif" font-size="10.00">Storm::Operator&lt; Vector &gt;</text>
</a>
</g>
</g>
<!-- Node1&#45;&gt;Node4 -->
<g id="edge3" class="edge">
<title>Node1&#45;&gt;Node4</title>
<path fill="none" stroke="#63b8ff" d="M208,-492.51C222.15,-502.73 241.42,-515.49 260,-524 267.7,-527.52 276.2,-530.56 284.47,-533.1"/>
<polygon fill="#63b8ff" stroke="#63b8ff" points="210.43,-489.95 200.31,-486.82 206.26,-495.58 210.43,-489.95"/>
</g>
<!-- Node7 -->
<g id="node7" class="node">
<title>Node7</title>
<g id="a_node7"><a xlink:href="class_storm_1_1_solver.html" target="_top" xlink:title=" ">
<polygon fill="white" stroke="#666666" points="389.5,-515 264.5,-515 264.5,-485 389.5,-485 389.5,-515"/>
<text text-anchor="start" x="272.5" y="-503" font-family="Helvetica,sans-Serif" font-size="10.00">Storm::Solver&lt; InVector,</text>
<text text-anchor="middle" x="327" y="-492" font-family="Helvetica,sans-Serif" font-size="10.00"> OutVector &gt;</text>
</a>
</g>
</g>
<!-- Node1&#45;&gt;Node7 -->
<g id="edge6" class="edge">
<title>Node1&#45;&gt;Node7</title>
<path fill="none" stroke="#63b8ff" d="M235.57,-484.44C244.76,-486.02 254.49,-487.7 264.02,-489.34"/>
<polygon fill="#63b8ff" stroke="#63b8ff" points="236.19,-481 225.74,-482.75 235,-487.9 236.19,-481"/>
</g>
<!-- Node9 -->
<g id="node9" class="node">
<title>Node9</title>
<g id="a_node9"><a xlink:href="class_storm_1_1_solver.html" target="_top" xlink:title=" ">
<polygon fill="white" stroke="#666666" points="389.5,-467 264.5,-467 264.5,-437 389.5,-437 389.5,-467"/>
<text text-anchor="start" x="272.5" y="-455" font-family="Helvetica,sans-Serif" font-size="10.00">Storm::Solver&lt; InVector,</text>
<text text-anchor="middle" x="327" y="-444" font-family="Helvetica,sans-Serif" font-size="10.00"> InVector &gt;</text>
</a>
</g>
</g>
<!-- Node1&#45;&gt;Node9 -->
<g id="edge8" class="edge">
<title>Node1&#45;&gt;Node9</title>
<path fill="none" stroke="#63b8ff" d="M235.57,-467.56C244.76,-465.98 254.49,-464.3 264.02,-462.66"/>
<polygon fill="#63b8ff" stroke="#63b8ff" points="235,-464.1 225.74,-469.25 236.19,-471 235,-464.1"/>
</g>
<!-- Node10 -->
<g id="node10" class="node">
<title>Node10</title>
<g id="a_node10"><a xlink:href="class_storm_1_1_operator.html" target="_top" xlink:title="Abstract operator ð’š â† ð“(ð’™). &#45;=&#45;=&#45;=&#45;=&#45;=&#45;=&#45;=&#45;=&#45;=&#45;=&#45;=&#45;=&#45;=&#45;=&#45;=&#45;=&#45;=&#45;=&#45;=&#45;=&#45;=&#45;=&#45;=&#45;=&#45;=&#45;=&#45;=&#45;=&#45;=&#45;=&#45;=&#45;=&#45; ///.">
<polygon fill="white" stroke="#666666" points="394,-419 260,-419 260,-389 394,-389 394,-419"/>
<text text-anchor="start" x="268" y="-407" font-family="Helvetica,sans-Serif" font-size="10.00">Storm::Operator&lt; InVector,</text>
<text text-anchor="middle" x="327" y="-396" font-family="Helvetica,sans-Serif" font-size="10.00"> OutVector &gt;</text>
</a>
</g>
</g>
<!-- Node1&#45;&gt;Node10 -->
<g id="edge9" class="edge">
<title>Node1&#45;&gt;Node10</title>
<path fill="none" stroke="#63b8ff" d="M208.46,-459.74C222.67,-449.71 241.84,-437.08 260,-428 266.11,-424.95 272.7,-422.08 279.27,-419.47"/>
<polygon fill="#63b8ff" stroke="#63b8ff" points="206.8,-456.63 200.72,-465.31 210.88,-462.31 206.8,-456.63"/>
</g>
<!-- Node12 -->
<g id="node12" class="node">
<title>Node12</title>
<g id="a_node12"><a xlink:href="class_storm_1_1_solver.html" target="_top" xlink:title="Abstract operator equation solver. &#45;=&#45;=&#45;=&#45;=&#45;=&#45;=&#45;=&#45;=&#45;=&#45;=&#45;=&#45;=&#45;=&#45;=&#45;=&#45;=&#45;=&#45;=&#45;=&#45;=&#45;=&#45;=&#45;=&#45;=&#45;=&#45;=&#45;=&#45;=&#45;=&#45;=&#45;=&#45;=&#45; ...">
<polygon fill="white" stroke="#666666" points="389.5,-350 264.5,-350 264.5,-320 389.5,-320 389.5,-350"/>
<text text-anchor="start" x="272.5" y="-338" font-family="Helvetica,sans-Serif" font-size="10.00">Storm::Solver&lt; InVector,</text>
<text text-anchor="middle" x="327" y="-327" font-family="Helvetica,sans-Serif" font-size="10.00"> OutVector &gt;</text>
</a>
</g>
</g>
<!-- Node1&#45;&gt;Node12 -->
<g id="edge11" class="edge">
<title>Node1&#45;&gt;Node12</title>
<path fill="none" stroke="#63b8ff" d="M198.59,-456.7C212.01,-436.21 235.07,-403.59 260,-380 271.89,-368.75 286.84,-358.31 299.5,-350.32"/>
<polygon fill="#63b8ff" stroke="#63b8ff" points="195.77,-454.61 193.31,-464.92 201.66,-458.39 195.77,-454.61"/>
</g>
<!-- Node2 -->
<g id="node2" class="node">
<title>Node2</title>
<g id="a_node2"><a xlink:href="class_storm_1_1_non_copyable.html" target="_top" xlink:title="Non copyable object interface.">
<polygon fill="white" stroke="#666666" points="111,-485.5 0,-485.5 0,-466.5 111,-466.5 111,-485.5"/>
<text text-anchor="middle" x="55.5" y="-473.5" font-family="Helvetica,sans-Serif" font-size="10.00">detail_::noncopyable_</text>
</a>
</g>
</g>
<!-- Node2&#45;&gt;Node1 -->
<g id="edge1" class="edge">
<title>Node2&#45;&gt;Node1</title>
<path fill="none" stroke="#63b8ff" d="M122.44,-476C130.74,-476 139,-476 146.65,-476"/>
<polygon fill="#63b8ff" stroke="#63b8ff" points="122.67,-472.5 112.67,-476 122.67,-479.5 122.67,-472.5"/>
</g>
<!-- Node5 -->
<g id="node5" class="node">
<title>Node5</title>
<g id="a_node5"><a xlink:href="class_storm_1_1_preconditioner.html" target="_top" xlink:title="Abstract preconditioner operator. &#45;=&#45;=&#45;=&#45;=&#45;=&#45;=&#45;=&#45;=&#45;=&#45;=&#45;=&#45;=&#45;=&#45;=&#45;=&#45;=&#45;=&#45;=&#45;=&#45;=&#45;=&#45;=&#45;=&#45;=&#45;=&#45;=&#45;=&#45;=&#45;=&#45;=&#45;=&#45;=&#45; /...">
<polygon fill="white" stroke="#666666" points="551,-574 440,-574 440,-544 551,-544 551,-574"/>
<text text-anchor="start" x="448" y="-562" font-family="Helvetica,sans-Serif" font-size="10.00">Storm::Preconditioner</text>
<text text-anchor="middle" x="495.5" y="-551" font-family="Helvetica,sans-Serif" font-size="10.00">&lt; Vector &gt;</text>
</a>
</g>
</g>
<!-- Node4&#45;&gt;Node5 -->
<g id="edge4" class="edge">
<title>Node4&#45;&gt;Node5</title>
<path fill="none" stroke="#63b8ff" d="M404.95,-550.39C416.65,-551.52 428.52,-552.66 439.63,-553.73"/>
<polygon fill="#63b8ff" stroke="#63b8ff" points="405.6,-546.94 395.31,-549.47 404.93,-553.91 405.6,-546.94"/>
</g>
<!-- Node6 -->
<g id="node6" class="node">
<title>Node6</title>
<g id="a_node6"><a xlink:href="class_storm_1_1_identity_preconditioner.html" target="_top" xlink:title="Identity preconditioner, intended to be used for debugging only. &#45;=&#45;=&#45;=&#45;=&#45;=&#45;=&#45;=&#45;=&#45;=&#45;=&#45;=&#45;=&#45;=&#45;=&#45;=&#45;=&#45;=&#45;=...">
<polygon fill="white" stroke="#666666" points="743,-585 600,-585 600,-555 743,-555 743,-585"/>
<text text-anchor="start" x="608" y="-573" font-family="Helvetica,sans-Serif" font-size="10.00">Storm::IdentityPreconditioner</text>
<text text-anchor="middle" x="671.5" y="-562" font-family="Helvetica,sans-Serif" font-size="10.00">&lt; Vector &gt;</text>
</a>
</g>
</g>
<!-- Node5&#45;&gt;Node6 -->
<g id="edge5" class="edge">
<title>Node5&#45;&gt;Node6</title>
<path fill="none" stroke="#63b8ff" d="M562.47,-563.17C574.58,-563.94 587.26,-564.74 599.5,-565.51"/>
<polygon fill="#63b8ff" stroke="#63b8ff" points="562.79,-559.68 552.59,-562.55 562.35,-566.67 562.79,-559.68"/>
</g>
<!-- Node8 -->
<g id="node8" class="node">
<title>Node8</title>
<g id="a_node8"><a xlink:href="class_storm_1_1_iterative_solver.html" target="_top" xlink:title=" ">
<polygon fill="white" stroke="#666666" points="552,-515 439,-515 439,-485 552,-485 552,-515"/>
<text text-anchor="start" x="447" y="-503" font-family="Helvetica,sans-Serif" font-size="10.00">Storm::IterativeSolver</text>
<text text-anchor="middle" x="495.5" y="-492" font-family="Helvetica,sans-Serif" font-size="10.00">&lt; InVector, InVector &gt;</text>
</a>
</g>
</g>
<!-- Node7&#45;&gt;Node8 -->
<g id="edge7" class="edge">
<title>Node7&#45;&gt;Node8</title>
<path fill="none" stroke="#63b8ff" d="M401.4,-500C413.94,-500 426.78,-500 438.76,-500"/>
<polygon fill="#63b8ff" stroke="#63b8ff" points="401.51,-496.5 391.51,-500 401.51,-503.5 401.51,-496.5"/>
</g>
<!-- Node11 -->
<g id="node11" class="node">
<title>Node11</title>
<g id="a_node11"><a xlink:href="class_storm_1_1_functional_operator.html" target="_top" xlink:title="Operator implementation with external function pointers. &#45;=&#45;=&#45;=&#45;=&#45;=&#45;=&#45;=&#45;=&#45;=&#45;=&#45;=&#45;=&#45;=&#45;=&#45;=&#45;=&#45;=&#45;=&#45;=&#45;=&#45;=&#45;=...">
<polygon fill="white" stroke="#666666" points="561,-419 430,-419 430,-389 561,-389 561,-419"/>
<text text-anchor="start" x="438" y="-407" font-family="Helvetica,sans-Serif" font-size="10.00">Storm::FunctionalOperator</text>
<text text-anchor="middle" x="495.5" y="-396" font-family="Helvetica,sans-Serif" font-size="10.00">&lt; InVector, OutVector &gt;</text>
</a>
</g>
</g>
<!-- Node10&#45;&gt;Node11 -->
<g id="edge10" class="edge">
<title>Node10&#45;&gt;Node11</title>
<path fill="none" stroke="#63b8ff" d="M405.55,-404C413.57,-404 421.67,-404 429.53,-404"/>
<polygon fill="#63b8ff" stroke="#63b8ff" points="405.8,-400.5 395.8,-404 405.8,-407.5 405.8,-400.5"/>
</g>
<!-- Node13 -->
<g id="node13" class="node">
<title>Node13</title>
<g id="a_node13"><a xlink:href="class_storm_1_1_iterative_solver.html" target="_top" xlink:title=" ">
<polygon fill="white" stroke="#666666" points="551.5,-350 439.5,-350 439.5,-320 551.5,-320 551.5,-350"/>
<text text-anchor="start" x="447.5" y="-338" font-family="Helvetica,sans-Serif" font-size="10.00">Storm::IterativeSolver</text>
<text text-anchor="middle" x="495.5" y="-327" font-family="Helvetica,sans-Serif" font-size="10.00">&lt; Vector &gt;</text>
</a>
</g>
</g>
<!-- Node12&#45;&gt;Node13 -->
<g id="edge12" class="edge">
<title>Node12&#45;&gt;Node13</title>
<path fill="none" stroke="#63b8ff" d="M401.46,-335C414.08,-335 426.99,-335 439.04,-335"/>
<polygon fill="#63b8ff" stroke="#63b8ff" points="401.51,-331.5 391.51,-335 401.51,-338.5 401.51,-331.5"/>
</g>
<!-- Node25 -->
<g id="node25" class="node">
<title>Node25</title>
<g id="a_node25"><a xlink:href="class_storm_1_1_iterative_solver.html" target="_top" xlink:title="Abstract operator equation iterative solver. &#45;=&#45;=&#45;=&#45;=&#45;=&#45;=&#45;=&#45;=&#45;=&#45;=&#45;=&#45;=&#45;=&#45;=&#45;=&#45;=&#45;=&#45;=&#45;=&#45;=&#45;=&#45;=&#45;=&#45;=&#45;=&#45;=&#45;=&#45;=...">
<polygon fill="white" stroke="#666666" points="556,-126 435,-126 435,-96 556,-96 556,-126"/>
<text text-anchor="start" x="443" y="-114" font-family="Helvetica,sans-Serif" font-size="10.00">Storm::IterativeSolver</text>
<text text-anchor="middle" x="495.5" y="-103" font-family="Helvetica,sans-Serif" font-size="10.00">&lt; InVector, OutVector &gt;</text>
</a>
</g>
</g>
<!-- Node12&#45;&gt;Node25 -->
<g id="edge24" class="edge">
<title>Node12&#45;&gt;Node25</title>
<path fill="none" stroke="#63b8ff" d="M346.18,-310.54C380.72,-264.08 454.88,-164.3 483.2,-126.21"/>
<polygon fill="#63b8ff" stroke="#63b8ff" points="343.5,-308.28 340.35,-318.39 349.12,-312.45 343.5,-308.28"/>
</g>
<!-- Node14 -->
<g id="node14" class="node">
<title>Node14</title>
<g id="a_node14"><a xlink:href="class_storm_1_1_base_tfqmr_solver.html" target="_top" xlink:title=" ">
<polygon fill="white" stroke="#666666" points="734,-537 609,-537 609,-507 734,-507 734,-537"/>
<text text-anchor="start" x="617" y="-525" font-family="Helvetica,sans-Serif" font-size="10.00">Storm::BaseTfqmrSolver</text>
<text text-anchor="middle" x="671.5" y="-514" font-family="Helvetica,sans-Serif" font-size="10.00">&lt; Vector, true &gt;</text>
</a>
</g>
</g>
<!-- Node13&#45;&gt;Node14 -->
<g id="edge13" class="edge">
<title>Node13&#45;&gt;Node14</title>
<path fill="none" stroke="#63b8ff" d="M536.38,-356.64C545.51,-363.14 554.44,-370.99 561,-380 593.25,-424.34 558.61,-458.85 597,-498 600.48,-501.55 604.49,-504.57 608.8,-507.14"/>
<polygon fill="#63b8ff" stroke="#63b8ff" points="538.42,-353.8 528.15,-351.2 534.56,-359.64 538.42,-353.8"/>
</g>
<!-- Node16 -->
<g id="node16" class="node">
<title>Node16</title>
<g id="a_node16"><a xlink:href="class_storm_1_1_base_tfqmr_solver.html" target="_top" xlink:title=" ">
<polygon fill="white" stroke="#666666" points="734,-489 609,-489 609,-459 734,-459 734,-489"/>
<text text-anchor="start" x="617" y="-477" font-family="Helvetica,sans-Serif" font-size="10.00">Storm::BaseTfqmrSolver</text>
<text text-anchor="middle" x="671.5" y="-466" font-family="Helvetica,sans-Serif" font-size="10.00">&lt; Vector, false &gt;</text>
</a>
</g>
</g>
<!-- Node13&#45;&gt;Node16 -->
<g id="edge15" class="edge">
<title>Node13&#45;&gt;Node16</title>
<path fill="none" stroke="#63b8ff" d="M534,-356.6C543.57,-363.27 553.32,-371.21 561,-380 584.02,-406.34 570.37,-427.31 597,-450 600.88,-453.31 605.23,-456.16 609.82,-458.63"/>
<polygon fill="#63b8ff" stroke="#63b8ff" points="536.1,-353.79 525.83,-351.19 532.24,-359.63 536.1,-353.79"/>
</g>
<!-- Node18 -->
<g id="node18" class="node">
<title>Node18</title>
<g id="a_node18"><a xlink:href="class_storm_1_1_base_tfqmr_solver.html" target="_top" xlink:title="Parametrized TFQMR solver.">
<polygon fill="white" stroke="#666666" points="734,-441 609,-441 609,-411 734,-411 734,-441"/>
<text text-anchor="start" x="617" y="-429" font-family="Helvetica,sans-Serif" font-size="10.00">Storm::BaseTfqmrSolver</text>
<text text-anchor="middle" x="671.5" y="-418" font-family="Helvetica,sans-Serif" font-size="10.00">&lt; Vector, L1 &gt;</text>
</a>
</g>
</g>
<!-- Node13&#45;&gt;Node18 -->
<g id="edge17" class="edge">
<title>Node13&#45;&gt;Node18</title>
<path fill="none" stroke="#63b8ff" d="M527.03,-356.69C551.12,-373.54 582.93,-395.17 597,-402 603.4,-405.11 610.3,-407.95 617.22,-410.52"/>
<polygon fill="#63b8ff" stroke="#63b8ff" points="529.34,-354.03 519.15,-351.14 525.32,-359.76 529.34,-354.03"/>
</g>
<!-- Node19 -->
<g id="node19" class="node">
<title>Node19</title>
<g id="a_node19"><a xlink:href="class_storm_1_1_bi_cg_stab_solver.html" target="_top" xlink:title="The BiCGStab (Biconjugate Gradients Stabilized) linear operator equation solver.">
<polygon fill="white" stroke="#666666" points="731,-393 612,-393 612,-363 731,-363 731,-393"/>
<text text-anchor="start" x="620" y="-381" font-family="Helvetica,sans-Serif" font-size="10.00">Storm::BiCgStabSolver</text>
<text text-anchor="middle" x="671.5" y="-370" font-family="Helvetica,sans-Serif" font-size="10.00">&lt; Vector &gt;</text>
</a>
</g>
</g>
<!-- Node13&#45;&gt;Node19 -->
<g id="edge18" class="edge">
<title>Node13&#45;&gt;Node19</title>
<path fill="none" stroke="#63b8ff" d="M562.53,-351.32C578.66,-355.3 595.82,-359.54 611.59,-363.44"/>
<polygon fill="#63b8ff" stroke="#63b8ff" points="563.57,-347.97 553.02,-348.97 561.89,-354.77 563.57,-347.97"/>
</g>
<!-- Node20 -->
<g id="node20" class="node">
<title>Node20</title>
<g id="a_node20"><a xlink:href="class_storm_1_1_cg_solver.html" target="_top" xlink:title="The CG (Conjugate Gradients) linear self&#45;adjoint definite operator equation solver.">
<polygon fill="white" stroke="#666666" points="739.5,-344.5 603.5,-344.5 603.5,-325.5 739.5,-325.5 739.5,-344.5"/>
<text text-anchor="middle" x="671.5" y="-332.5" font-family="Helvetica,sans-Serif" font-size="10.00">Storm::CgSolver&lt; Vector &gt;</text>
</a>
</g>
</g>
<!-- Node13&#45;&gt;Node20 -->
<g id="edge19" class="edge">
<title>Node13&#45;&gt;Node20</title>
<path fill="none" stroke="#63b8ff" d="M562.96,-335C576.17,-335 590.05,-335 603.29,-335"/>
<polygon fill="#63b8ff" stroke="#63b8ff" points="563.07,-331.5 553.07,-335 563.07,-338.5 563.07,-331.5"/>
</g>
<!-- Node21 -->
<g id="node21" class="node">
<title>Node21</title>
<g id="a_node21"><a xlink:href="class_storm_1_1_cgs_solver.html" target="_top" xlink:title="The CGS (Conjugate Gradients Squared) linear operator equation solver.">
<polygon fill="white" stroke="#666666" points="742,-307.5 601,-307.5 601,-288.5 742,-288.5 742,-307.5"/>
<text text-anchor="middle" x="671.5" y="-295.5" font-family="Helvetica,sans-Serif" font-size="10.00">Storm::CgsSolver&lt; Vector &gt;</text>
</a>
</g>
</g>
<!-- Node13&#45;&gt;Node21 -->
<g id="edge20" class="edge">
<title>Node13&#45;&gt;Node21</title>
<path fill="none" stroke="#63b8ff" d="M562.66,-320.93C582.99,-316.61 604.94,-311.94 623.7,-307.95"/>
<polygon fill="#63b8ff" stroke="#63b8ff" points="562.09,-317.47 553.04,-322.98 563.54,-324.32 562.09,-317.47"/>
</g>
<!-- Node22 -->
<g id="node22" class="node">
<title>Node22</title>
<g id="a_node22"><a xlink:href="class_storm_1_1_jfnk_solver.html" target="_top" xlink:title="The first&#45;order JFNK (Jacobian free&#45;Newton&#45;Krylov) nonlinear operator equation solver.">
<polygon fill="white" stroke="#666666" points="722,-270 621,-270 621,-240 722,-240 722,-270"/>
<text text-anchor="start" x="629" y="-258" font-family="Helvetica,sans-Serif" font-size="10.00">Storm::JfnkSolver&lt;</text>
<text text-anchor="middle" x="671.5" y="-247" font-family="Helvetica,sans-Serif" font-size="10.00"> Vector &gt;</text>
</a>
</g>
</g>
<!-- Node13&#45;&gt;Node22 -->
<g id="edge21" class="edge">
<title>Node13&#45;&gt;Node22</title>
<path fill="none" stroke="#63b8ff" d="M530.72,-313.76C549.78,-302.5 574.19,-288.97 597,-279 604.5,-275.72 612.6,-272.64 620.59,-269.85"/>
<polygon fill="#63b8ff" stroke="#63b8ff" points="529.09,-310.66 522.31,-318.81 532.69,-316.67 529.09,-310.66"/>
</g>
<!-- Node23 -->
<g id="node23" class="node">
<title>Node23</title>
<g id="a_node23"><a xlink:href="class_storm_1_1_newton_solver.html" target="_top" xlink:title="The Newton method nonlinear operator equation solver.">
<polygon fill="white" stroke="#666666" points="726.5,-222 616.5,-222 616.5,-192 726.5,-192 726.5,-222"/>
<text text-anchor="start" x="624.5" y="-210" font-family="Helvetica,sans-Serif" font-size="10.00">Storm::NewtonSolver</text>
<text text-anchor="middle" x="671.5" y="-199" font-family="Helvetica,sans-Serif" font-size="10.00">&lt; Vector &gt;</text>
</a>
</g>
</g>
<!-- Node13&#45;&gt;Node23 -->
<g id="edge22" class="edge">
<title>Node13&#45;&gt;Node23</title>
<path fill="none" stroke="#63b8ff" d="M514.25,-310.68C532.55,-287.2 563.14,-252.19 597,-231 602.92,-227.3 609.46,-224.11 616.14,-221.38"/>
<polygon fill="#63b8ff" stroke="#63b8ff" points="511.6,-308.38 508.32,-318.45 517.17,-312.62 511.6,-308.38"/>
</g>
<!-- Node24 -->
<g id="node24" class="node">
<title>Node24</title>
<g id="a_node24"><a xlink:href="class_storm_1_1_richardson_solver.html" target="_top" xlink:title="The Richardson iteration linear operator equation solver.">
<polygon fill="white" stroke="#666666" points="734.5,-174 608.5,-174 608.5,-144 734.5,-144 734.5,-174"/>
<text text-anchor="start" x="616.5" y="-162" font-family="Helvetica,sans-Serif" font-size="10.00">Storm::RichardsonSolver</text>
<text text-anchor="middle" x="671.5" y="-151" font-family="Helvetica,sans-Serif" font-size="10.00">&lt; Vector &gt;</text>
</a>
</g>
</g>
<!-- Node13&#45;&gt;Node24 -->
<g id="edge23" class="edge">
<title>Node13&#45;&gt;Node24</title>
<path fill="none" stroke="#63b8ff" d="M507.04,-309.17C522.1,-275.39 552.92,-216.59 597,-183 601.27,-179.75 606,-176.92 610.94,-174.48"/>
<polygon fill="#63b8ff" stroke="#63b8ff" points="503.89,-307.63 503.14,-318.2 510.32,-310.41 503.89,-307.63"/>
</g>
<!-- Node15 -->
<g id="node15" class="node">
<title>Node15</title>
<g id="a_node15"><a xlink:href="class_storm_1_1_tfqmr1_solver.html" target="_top" xlink:title="The TFQMR1 (Transpose&#45;Free 1&#45;norm Quasi&#45;Minimal Residual) linear operator equation solver.">
<polygon fill="white" stroke="#666666" points="902.5,-537 795.5,-537 795.5,-507 902.5,-507 902.5,-537"/>
<text text-anchor="start" x="803.5" y="-525" font-family="Helvetica,sans-Serif" font-size="10.00">Storm::Tfqmr1Solver</text>
<text text-anchor="middle" x="849" y="-514" font-family="Helvetica,sans-Serif" font-size="10.00">&lt; Vector &gt;</text>
</a>
</g>
</g>
<!-- Node14&#45;&gt;Node15 -->
<g id="edge14" class="edge">
<title>Node14&#45;&gt;Node15</title>
<path fill="none" stroke="#63b8ff" d="M745.71,-522C762.28,-522 779.57,-522 795.12,-522"/>
<polygon fill="#63b8ff" stroke="#63b8ff" points="745.89,-518.5 735.89,-522 745.89,-525.5 745.89,-518.5"/>
</g>
<!-- Node17 -->
<g id="node17" class="node">
<title>Node17</title>
<g id="a_node17"><a xlink:href="class_storm_1_1_tfqmr_solver.html" target="_top" xlink:title="The TFQMR (Transpose&#45;Free Quasi&#45;Minimal Residual) linear operator equation solver.">
<polygon fill="white" stroke="#666666" points="900,-489 798,-489 798,-459 900,-459 900,-489"/>
<text text-anchor="start" x="806" y="-477" font-family="Helvetica,sans-Serif" font-size="10.00">Storm::TfqmrSolver</text>
<text text-anchor="middle" x="849" y="-466" font-family="Helvetica,sans-Serif" font-size="10.00">&lt; Vector &gt;</text>
</a>
</g>
</g>
<!-- Node16&#45;&gt;Node17 -->
<g id="edge16" class="edge">
<title>Node16&#45;&gt;Node17</title>
<path fill="none" stroke="#63b8ff" d="M745.72,-474C763.21,-474 781.48,-474 797.67,-474"/>
<polygon fill="#63b8ff" stroke="#63b8ff" points="745.89,-470.5 735.89,-474 745.89,-477.5 745.89,-470.5"/>
</g>
<!-- Node26 -->
<g id="node26" class="node">
<title>Node26</title>
<g id="a_node26"><a xlink:href="class_storm_1_1_inner_outer_iterative_solver.html" target="_top" xlink:title=" ">
<polygon fill="white" stroke="#666666" points="736.5,-126 606.5,-126 606.5,-96 736.5,-96 736.5,-126"/>
<text text-anchor="start" x="614.5" y="-114" font-family="Helvetica,sans-Serif" font-size="10.00">Storm::InnerOuterIterative</text>
<text text-anchor="middle" x="671.5" y="-103" font-family="Helvetica,sans-Serif" font-size="10.00">Solver&lt; Vector &gt;</text>
</a>
</g>
</g>
<!-- Node25&#45;&gt;Node26 -->
<g id="edge25" class="edge">
<title>Node25&#45;&gt;Node26</title>
<path fill="none" stroke="#63b8ff" d="M567.84,-111C580.49,-111 593.6,-111 606.05,-111"/>
<polygon fill="#63b8ff" stroke="#63b8ff" points="567.89,-107.5 557.89,-111 567.89,-114.5 567.89,-107.5"/>
</g>
<!-- Node34 -->
<g id="node34" class="node">
<title>Node34</title>
<g id="a_node34"><a xlink:href="class_storm_1_1_inner_outer_iterative_solver.html" target="_top" xlink:title="Abstract inner&#45;outer iterative solver. &#45;=&#45;=&#45;=&#45;=&#45;=&#45;=&#45;=&#45;=&#45;=&#45;=&#45;=&#45;=&#45;=&#45;=&#45;=&#45;=&#45;=&#45;=&#45;=&#45;=&#45;=&#45;=&#45;=&#45;=&#45;=&#45;=&#45;=&#45;=&#45;=&#45;=&#45;=...">
<polygon fill="white" stroke="#666666" points="746,-78 597,-78 597,-48 746,-48 746,-78"/>
<text text-anchor="start" x="605" y="-66" font-family="Helvetica,sans-Serif" font-size="10.00">Storm::InnerOuterIterative</text>
<text text-anchor="middle" x="671.5" y="-55" font-family="Helvetica,sans-Serif" font-size="10.00">Solver&lt; InVector, OutVector &gt;</text>
</a>
</g>
</g>
<!-- Node25&#45;&gt;Node34 -->
<g id="edge33" class="edge">
<title>Node25&#45;&gt;Node34</title>
<path fill="none" stroke="#63b8ff" d="M563.43,-92.54C580.33,-87.87 598.3,-82.92 614.59,-78.42"/>
<polygon fill="#63b8ff" stroke="#63b8ff" points="562.68,-89.11 553.97,-95.15 564.54,-95.86 562.68,-89.11"/>
</g>
<!-- Node27 -->
<g id="node27" class="node">
<title>Node27</title>
<g id="a_node27"><a xlink:href="class_storm_1_1_base_gmres_solver.html" target="_top" xlink:title=" ">
<polygon fill="white" stroke="#666666" points="913,-222 785,-222 785,-192 913,-192 913,-222"/>
<text text-anchor="start" x="793" y="-210" font-family="Helvetica,sans-Serif" font-size="10.00">Storm::BaseGmresSolver</text>
<text text-anchor="middle" x="849" y="-199" font-family="Helvetica,sans-Serif" font-size="10.00">&lt; Vector, true &gt;</text>
</a>
</g>
</g>
<!-- Node26&#45;&gt;Node27 -->
<g id="edge26" class="edge">
<title>Node26&#45;&gt;Node27</title>
<path fill="none" stroke="#63b8ff" d="M741.12,-131.77C742.79,-132.79 744.42,-133.87 746,-135 767.68,-150.53 760.58,-167.12 782,-183 786.41,-186.27 791.3,-189.13 796.38,-191.62"/>
<polygon fill="#63b8ff" stroke="#63b8ff" points="742.9,-128.75 732.44,-127.11 739.59,-134.92 742.9,-128.75"/>
</g>
<!-- Node29 -->
<g id="node29" class="node">
<title>Node29</title>
<g id="a_node29"><a xlink:href="class_storm_1_1_base_gmres_solver.html" target="_top" xlink:title=" ">
<polygon fill="white" stroke="#666666" points="913,-174 785,-174 785,-144 913,-144 913,-174"/>
<text text-anchor="start" x="793" y="-162" font-family="Helvetica,sans-Serif" font-size="10.00">Storm::BaseGmresSolver</text>
<text text-anchor="middle" x="849" y="-151" font-family="Helvetica,sans-Serif" font-size="10.00">&lt; Vector, false &gt;</text>
</a>
</g>
</g>
<!-- Node26&#45;&gt;Node29 -->
<g id="edge28" class="edge">
<title>Node26&#45;&gt;Node29</title>
<path fill="none" stroke="#63b8ff" d="M740.01,-129.46C757.06,-134.13 775.18,-139.08 791.61,-143.58"/>
<polygon fill="#63b8ff" stroke="#63b8ff" points="741.02,-126.11 730.46,-126.85 739.18,-132.87 741.02,-126.11"/>
</g>
<!-- Node31 -->
<g id="node31" class="node">
<title>Node31</title>
<g id="a_node31"><a xlink:href="class_storm_1_1_base_gmres_solver.html" target="_top" xlink:title="Parmetrized GMRES solver.">
<polygon fill="white" stroke="#666666" points="916,-126 782,-126 782,-96 916,-96 916,-126"/>
<text text-anchor="start" x="790" y="-114" font-family="Helvetica,sans-Serif" font-size="10.00">Storm::BaseGmresSolver</text>
<text text-anchor="middle" x="849" y="-103" font-family="Helvetica,sans-Serif" font-size="10.00">&lt; Vector, Flexible, Loose &gt;</text>
</a>
</g>
</g>
<!-- Node26&#45;&gt;Node31 -->
<g id="edge30" class="edge">
<title>Node26&#45;&gt;Node31</title>
<path fill="none" stroke="#63b8ff" d="M748.28,-111C759.37,-111 770.71,-111 781.59,-111"/>
<polygon fill="#63b8ff" stroke="#63b8ff" points="748.37,-107.5 738.37,-111 748.37,-114.5 748.37,-107.5"/>
</g>
<!-- Node32 -->
<g id="node32" class="node">
<title>Node32</title>
<g id="a_node32"><a xlink:href="class_storm_1_1_bi_cg_stab_l_solver.html" target="_top" xlink:title="The BiCGStab(l) (Biconjugate Gradients Stabilized) linear operator equation solver.">
<polygon fill="white" stroke="#666666" points="911,-78 787,-78 787,-48 911,-48 911,-78"/>
<text text-anchor="start" x="795" y="-66" font-family="Helvetica,sans-Serif" font-size="10.00">Storm::BiCgStabLSolver</text>
<text text-anchor="middle" x="849" y="-55" font-family="Helvetica,sans-Serif" font-size="10.00">&lt; Vector &gt;</text>
</a>
</g>
</g>
<!-- Node26&#45;&gt;Node32 -->
<g id="edge31" class="edge">
<title>Node26&#45;&gt;Node32</title>
<path fill="none" stroke="#63b8ff" d="M740.01,-92.54C757.06,-87.87 775.18,-82.92 791.61,-78.42"/>
<polygon fill="#63b8ff" stroke="#63b8ff" points="739.18,-89.13 730.46,-95.15 741.02,-95.89 739.18,-89.13"/>
</g>
<!-- Node33 -->
<g id="node33" class="node">
<title>Node33</title>
<g id="a_node33"><a xlink:href="class_storm_1_1_idrs_solver.html" target="_top" xlink:title="The IDR(s) (Induced Dimension Reduction) linear operator equation solver.">
<polygon fill="white" stroke="#666666" points="898.5,-30 799.5,-30 799.5,0 898.5,0 898.5,-30"/>
<text text-anchor="start" x="807.5" y="-18" font-family="Helvetica,sans-Serif" font-size="10.00">Storm::IdrsSolver&lt;</text>
<text text-anchor="middle" x="849" y="-7" font-family="Helvetica,sans-Serif" font-size="10.00"> Vector &gt;</text>
</a>
</g>
</g>
<!-- Node26&#45;&gt;Node33 -->
<g id="edge32" class="edge">
<title>Node26&#45;&gt;Node33</title>
<path fill="none" stroke="#63b8ff" d="M741.12,-90.23C742.79,-89.21 744.42,-88.13 746,-87 767.68,-71.47 760.58,-54.88 782,-39 787.19,-35.15 793.06,-31.87 799.11,-29.08"/>
<polygon fill="#63b8ff" stroke="#63b8ff" points="739.59,-87.08 732.44,-94.89 742.9,-93.25 739.59,-87.08"/>
</g>
<!-- Node28 -->
<g id="node28" class="node">
<title>Node28</title>
<g id="a_node28"><a xlink:href="class_storm_1_1_fgmres_solver.html" target="_top" xlink:title="The FGMRES (Flexible Generalized Minimal Residual) linear operator equation solver.">
<polygon fill="white" stroke="#666666" points="1062,-222 952,-222 952,-192 1062,-192 1062,-222"/>
<text text-anchor="start" x="960" y="-210" font-family="Helvetica,sans-Serif" font-size="10.00">Storm::FgmresSolver</text>
<text text-anchor="middle" x="1007" y="-199" font-family="Helvetica,sans-Serif" font-size="10.00">&lt; Vector &gt;</text>
</a>
</g>
</g>
<!-- Node27&#45;&gt;Node28 -->
<g id="edge27" class="edge">
<title>Node27&#45;&gt;Node28</title>
<path fill="none" stroke="#63b8ff" d="M924.82,-207C933.86,-207 942.94,-207 951.6,-207"/>
<polygon fill="#63b8ff" stroke="#63b8ff" points="924.96,-203.5 914.96,-207 924.96,-210.5 924.96,-203.5"/>
</g>
<!-- Node30 -->
<g id="node30" class="node">
<title>Node30</title>
<g id="a_node30"><a xlink:href="class_storm_1_1_gmres_solver.html" target="_top" xlink:title="The GMRES (Generalized Minimal Residual) linear operator equation solver.">
<polygon fill="white" stroke="#666666" points="1060,-174 954,-174 954,-144 1060,-144 1060,-174"/>
<text text-anchor="start" x="962" y="-162" font-family="Helvetica,sans-Serif" font-size="10.00">Storm::GmresSolver</text>
<text text-anchor="middle" x="1007" y="-151" font-family="Helvetica,sans-Serif" font-size="10.00">&lt; Vector &gt;</text>
</a>
</g>
</g>
<!-- Node29&#45;&gt;Node30 -->
<g id="edge29" class="edge">
<title>Node29&#45;&gt;Node30</title>
<path fill="none" stroke="#63b8ff" d="M924.8,-159C934.52,-159 944.31,-159 953.57,-159"/>
<polygon fill="#63b8ff" stroke="#63b8ff" points="924.96,-155.5 914.96,-159 924.96,-162.5 924.96,-155.5"/>
</g>
</g>
</svg>
