<?xml version="1.0" encoding="UTF-8" standalone="no"?>
<!DOCTYPE svg PUBLIC "-//W3C//DTD SVG 1.1//EN"
 "http://www.w3.org/Graphics/SVG/1.1/DTD/svg11.dtd">
<!-- Generated by graphviz version 7.1.0 (20230121.1956)
 -->
<!-- Title: Storm::FunctionalOperator&lt; InVector, OutVector &gt; Pages: 1 -->
<svg width="142pt" height="214pt"
 viewBox="0.00 0.00 142.00 214.00" xmlns="http://www.w3.org/2000/svg" xmlns:xlink="http://www.w3.org/1999/xlink">
<g id="graph0" class="graph" transform="scale(1 1) rotate(0) translate(4 210)">
<title>Storm::FunctionalOperator&lt; InVector, OutVector &gt;</title>
<!-- Node1 -->
<g id="node1" class="node">
<title>Node1</title>
<g id="a_node1"><a xlink:title="Operator implementation with external function pointers. &#45;=&#45;=&#45;=&#45;=&#45;=&#45;=&#45;=&#45;=&#45;=&#45;=&#45;=&#45;=&#45;=&#45;=&#45;=&#45;=&#45;=&#45;=&#45;=&#45;=&#45;=&#45;=...">
<polygon fill="#999999" stroke="#666666" points="132.5,-30 1.5,-30 1.5,0 132.5,0 132.5,-30"/>
<text text-anchor="start" x="9.5" y="-18" font-family="Helvetica,sans-Serif" font-size="10.00">Storm::FunctionalOperator</text>
<text text-anchor="middle" x="67" y="-7" font-family="Helvetica,sans-Serif" font-size="10.00">&lt; InVector, OutVector &gt;</text>
</a>
</g>
</g>
<!-- Node2 -->
<g id="node2" class="node">
<title>Node2</title>
<g id="a_node2"><a xlink:href="class_storm_1_1_operator.html" target="_top" xlink:title="Abstract operator ð’š â† ð“(ð’™). &#45;=&#45;=&#45;=&#45;=&#45;=&#45;=&#45;=&#45;=&#45;=&#45;=&#45;=&#45;=&#45;=&#45;=&#45;=&#45;=&#45;=&#45;=&#45;=&#45;=&#45;=&#45;=&#45;=&#45;=&#45;=&#45;=&#45;=&#45;=&#45;=&#45;=&#45;=&#45;=&#45; ///.">
<polygon fill="white" stroke="#666666" points="134,-96 0,-96 0,-66 134,-66 134,-96"/>
<text text-anchor="start" x="8" y="-84" font-family="Helvetica,sans-Serif" font-size="10.00">Storm::Operator&lt; InVector,</text>
<text text-anchor="middle" x="67" y="-73" font-family="Helvetica,sans-Serif" font-size="10.00"> OutVector &gt;</text>
</a>
</g>
</g>
<!-- Node2&#45;&gt;Node1 -->
<g id="edge1" class="edge">
<title>Node2&#45;&gt;Node1</title>
<path fill="none" stroke="#63b8ff" d="M67,-54.39C67,-46.13 67,-37.28 67,-30.16"/>
<polygon fill="#63b8ff" stroke="#63b8ff" points="63.5,-54.28 67,-64.28 70.5,-54.28 63.5,-54.28"/>
</g>
<!-- Node3 -->
<g id="node3" class="node">
<title>Node3</title>
<g id="a_node3"><a xlink:href="class_storm_1_1_object.html" target="_top" xlink:title="A base object.">
<polygon fill="white" stroke="#666666" points="105.5,-151 28.5,-151 28.5,-132 105.5,-132 105.5,-151"/>
<text text-anchor="middle" x="67" y="-139" font-family="Helvetica,sans-Serif" font-size="10.00">Storm::Object</text>
</a>
</g>
</g>
<!-- Node3&#45;&gt;Node2 -->
<g id="edge2" class="edge">
<title>Node3&#45;&gt;Node2</title>
<path fill="none" stroke="#63b8ff" d="M67,-120.51C67,-112.49 67,-103.43 67,-96.11"/>
<polygon fill="#63b8ff" stroke="#63b8ff" points="63.5,-120.35 67,-130.35 70.5,-120.35 63.5,-120.35"/>
</g>
<!-- Node4 -->
<g id="node4" class="node">
<title>Node4</title>
<g id="a_node4"><a xlink:href="class_storm_1_1_non_copyable.html" target="_top" xlink:title="Non copyable object interface.">
<polygon fill="white" stroke="#666666" points="122.5,-206 11.5,-206 11.5,-187 122.5,-187 122.5,-206"/>
<text text-anchor="middle" x="67" y="-194" font-family="Helvetica,sans-Serif" font-size="10.00">detail_::noncopyable_</text>
</a>
</g>
</g>
<!-- Node4&#45;&gt;Node3 -->
<g id="edge3" class="edge">
<title>Node4&#45;&gt;Node3</title>
<path fill="none" stroke="#63b8ff" d="M67,-175.35C67,-167.1 67,-157.97 67,-151.44"/>
<polygon fill="#63b8ff" stroke="#63b8ff" points="63.5,-175.23 67,-185.23 70.5,-175.23 63.5,-175.23"/>
</g>
</g>
</svg>
