<?xml version="1.0" encoding="UTF-8" standalone="no"?>
<!DOCTYPE svg PUBLIC "-//W3C//DTD SVG 1.1//EN"
 "http://www.w3.org/Graphics/SVG/1.1/DTD/svg11.dtd">
<!-- Generated by graphviz version 7.1.0 (20230121.1956)
 -->
<!-- Title: Storm::Feathers::MhdFvBcNoSlipT&lt; MhdPhysicsT &gt; Pages: 1 -->
<svg width="143pt" height="181pt"
 viewBox="0.00 0.00 143.00 181.00" xmlns="http://www.w3.org/2000/svg" xmlns:xlink="http://www.w3.org/1999/xlink">
<g id="graph0" class="graph" transform="scale(1 1) rotate(0) translate(4 177)">
<title>Storm::Feathers::MhdFvBcNoSlipT&lt; MhdPhysicsT &gt;</title>
<!-- Node1 -->
<g id="node1" class="node">
<title>Node1</title>
<g id="a_node1"><a xlink:title="No&#45;slip wall boundary condition.">
<polygon fill="#999999" stroke="#666666" points="135,-30 0,-30 0,0 135,0 135,-30"/>
<text text-anchor="start" x="8" y="-18" font-family="Helvetica,sans-Serif" font-size="10.00">Storm::Feathers::MhdFvBc</text>
<text text-anchor="middle" x="67.5" y="-7" font-family="Helvetica,sans-Serif" font-size="10.00">NoSlipT&lt; MhdPhysicsT &gt;</text>
</a>
</g>
</g>
<!-- Node2 -->
<g id="node2" class="node">
<title>Node2</title>
<g id="a_node2"><a xlink:href="class_storm_1_1_feathers_1_1_mhd_fv_bc_p_t.html" target="_top" xlink:title="Abstract boundary condition.">
<polygon fill="white" stroke="#666666" points="135,-96 0,-96 0,-66 135,-66 135,-96"/>
<text text-anchor="start" x="8" y="-84" font-family="Helvetica,sans-Serif" font-size="10.00">Storm::Feathers::MhdFvBc</text>
<text text-anchor="middle" x="67.5" y="-73" font-family="Helvetica,sans-Serif" font-size="10.00">PT&lt; MhdPhysicsT &gt;</text>
</a>
</g>
</g>
<!-- Node2&#45;&gt;Node1 -->
<g id="edge1" class="edge">
<title>Node2&#45;&gt;Node1</title>
<path fill="none" stroke="#63b8ff" d="M67.5,-54.39C67.5,-46.13 67.5,-37.28 67.5,-30.16"/>
<polygon fill="#63b8ff" stroke="#63b8ff" points="64,-54.28 67.5,-64.28 71,-54.28 64,-54.28"/>
</g>
<!-- Node3 -->
<g id="node3" class="node">
<title>Node3</title>
<g id="a_node3"><a xlink:title=" ">
<polygon fill="white" stroke="#bfbfbf" points="130.5,-173 4.5,-173 4.5,-132 130.5,-132 130.5,-173"/>
<text text-anchor="start" x="12.5" y="-161" font-family="Helvetica,sans-Serif" font-size="10.00">std::enable_shared</text>
<text text-anchor="start" x="12.5" y="-150" font-family="Helvetica,sans-Serif" font-size="10.00">_from_this&lt; MhdFvBcPT</text>
<text text-anchor="middle" x="67.5" y="-139" font-family="Helvetica,sans-Serif" font-size="10.00">&lt; MhdPhysicsT &gt; &gt;</text>
</a>
</g>
</g>
<!-- Node3&#45;&gt;Node2 -->
<g id="edge2" class="edge">
<title>Node3&#45;&gt;Node2</title>
<path fill="none" stroke="#63b8ff" d="M67.5,-120.38C67.5,-112.04 67.5,-103.43 67.5,-96.47"/>
<polygon fill="#63b8ff" stroke="#63b8ff" points="64,-120.26 67.5,-130.26 71,-120.26 64,-120.26"/>
</g>
</g>
</svg>
