<?xml version="1.0" encoding="UTF-8" standalone="no"?>
<!-- Created with Inkscape (http://www.inkscape.org/) -->

<svg
   width="123.42861mm"
   height="41.034615mm"
   viewBox="0 0 123.42862 41.034615"
   version="1.1"
   id="svg5"
   inkscape:version="1.2.2 (b0a84865, 2022-12-01)"
   sodipodi:docname="Logo.svg"
   xmlns:inkscape="http://www.inkscape.org/namespaces/inkscape"
   xmlns:sodipodi="http://sodipodi.sourceforge.net/DTD/sodipodi-0.dtd"
   xmlns:xlink="http://www.w3.org/1999/xlink"
   xmlns="http://www.w3.org/2000/svg"
   xmlns:svg="http://www.w3.org/2000/svg">
  <sodipodi:namedview
     id="namedview7"
     pagecolor="#ffffff"
     bordercolor="#000000"
     borderopacity="0.25"
     inkscape:showpageshadow="2"
     inkscape:pageopacity="0.0"
     inkscape:pagecheckerboard="0"
     inkscape:deskcolor="#d1d1d1"
     inkscape:document-units="mm"
     showgrid="false"
     inkscape:zoom="1.6887897"
     inkscape:cx="253.43593"
     inkscape:cy="71.648944"
     inkscape:window-width="1440"
     inkscape:window-height="900"
     inkscape:window-x="0"
     inkscape:window-y="0"
     inkscape:window-maximized="0"
     inkscape:current-layer="layer1" />
  <defs
     id="defs2">
    <rect
       x="175.66647"
       y="7.433548"
       width="392.15848"
       height="169.45923"
       id="rect23167" />
    <linearGradient
       inkscape:collect="always"
       id="linearGradient10512">
      <stop
         style="stop-color:#004b80;stop-opacity:1;"
         offset="0"
         id="stop10508" />
      <stop
         style="stop-color:#0c4774;stop-opacity:1;"
         offset="1"
         id="stop10510" />
    </linearGradient>
    <linearGradient
       inkscape:collect="always"
       id="linearGradient10472">
      <stop
         style="stop-color:#017f7f;stop-opacity:1;"
         offset="0"
         id="stop10468" />
      <stop
         style="stop-color:#136d6d;stop-opacity:1;"
         offset="1"
         id="stop10470" />
    </linearGradient>
    <linearGradient
       inkscape:collect="always"
       xlink:href="#linearGradient10472"
       id="linearGradient10474"
       x1="89.79261"
       y1="66.561844"
       x2="119.28751"
       y2="9.0712605"
       gradientUnits="userSpaceOnUse"
       gradientTransform="matrix(0.35094192,0,0,0.35094192,3.2234329,5.4951393)" />
    <radialGradient
       inkscape:collect="always"
       xlink:href="#linearGradient10512"
       id="radialGradient10514"
       cx="70.597359"
       cy="80.592194"
       fx="70.597359"
       fy="80.592194"
       r="64.933601"
       gradientTransform="matrix(0.26963182,0.22463061,-0.33387408,0.40076051,35.871356,-14.378178)"
       gradientUnits="userSpaceOnUse" />
  </defs>
  <g
     inkscape:label="Слой 1"
     inkscape:groupmode="layer"
     id="layer1"
     transform="translate(-4.9663244,-9.5246625)">
    <g
       aria-label="STORM"
       transform="matrix(0.26458333,0,0,0.26458333,-3.0651645,16.34698)"
       id="text23165"
       style="font-size:96px;line-height:1;letter-spacing:-4.34px;word-spacing:-0.07px;white-space:pre;shape-inside:url(#rect23167);fill:#014b7f;stroke-width:5.29134">
      <path
         d="m 220.67949,28.453864 q -2.02667,-2.560008 -5.54668,-3.733345 -3.41335,-1.280004 -6.50669,-1.280004 -1.81334,0 -3.73335,0.426668 -1.92,0.426668 -3.62667,1.386671 -1.70668,0.853336 -2.77335,2.346674 -1.06667,1.493338 -1.06667,3.626678 0,3.413344 2.56001,5.226683 2.56001,1.813339 6.40002,3.093343 3.94668,1.280004 8.42669,2.560008 4.48002,1.280004 8.32003,3.626678 3.94668,2.346674 6.50669,6.293353 2.56001,3.946679 2.56001,10.560033 0,6.293353 -2.34668,10.986701 -2.34667,4.693348 -6.40002,7.786691 -3.94668,3.093343 -9.28003,4.586681 -5.22668,1.493338 -11.09337,1.493338 -7.36002,0 -13.65337,-2.240007 -6.29335,-2.240007 -11.73337,-7.253356 l 11.84004,-13.013374 q 2.56,3.413344 6.40002,5.33335 3.94667,1.813339 8.10669,1.813339 2.02667,0 4.05334,-0.426668 2.13334,-0.533335 3.73335,-1.493338 1.70667,-0.960003 2.66667,-2.453341 1.06667,-1.493338 1.06667,-3.520011 0,-3.413344 -2.66667,-5.33335 -2.56001,-2.026673 -6.50669,-3.413344 -3.94668,-1.386671 -8.53336,-2.773342 -4.58668,-1.386671 -8.53336,-3.733345 -3.94668,-2.346674 -6.61335,-6.186686 -2.56001,-3.840012 -2.56001,-10.133365 0,-6.080019 2.34667,-10.6667 2.45334,-4.586681 6.40002,-7.680024 4.05335,-3.093343 9.28003,-4.5866806 5.22669,-1.600005 10.77337,-1.600005 6.40002,0 12.37337,1.813339 5.97335,1.8133386 10.77337,6.0800186 z"
         style="font-size:106.667px"
         id="path26504" />
      <path
         d="m 252.61681,30.800709 h -19.392 v -13.248 h 53.76 v 13.248 h -19.392 v 54.72 h -14.976 z"
         style="letter-spacing:-8.28px"
         id="path26506" />
      <path
         d="m 282.64075,51.536709 q 0,-8.16 2.688,-14.784 2.784,-6.624 7.68,-11.232 4.896,-4.704 11.616,-7.2 6.72,-2.496 14.688,-2.496 7.968,0 14.688,2.496 6.72,2.496 11.616,7.2 4.896,4.608 7.584,11.232 2.784,6.624 2.784,14.784 0,8.16 -2.784,14.784 -2.688,6.624 -7.584,11.328 -4.896,4.608 -11.616,7.104 -6.72,2.496 -14.688,2.496 -7.968,0 -14.688,-2.496 -6.72,-2.496 -11.616,-7.104 -4.896,-4.704 -7.68,-11.328 -2.688,-6.624 -2.688,-14.784 z m 15.552,0 q 0,4.8 1.44,8.832 1.536,3.936 4.32,6.912 2.784,2.88 6.624,4.512 3.936,1.632 8.736,1.632 4.8,0 8.64,-1.632 3.936,-1.632 6.72,-4.512 2.784,-2.976 4.224,-6.912 1.536,-4.032 1.536,-8.832 0,-4.704 -1.536,-8.736 -1.44,-4.032 -4.224,-6.912 -2.784,-2.976 -6.72,-4.608 -3.84,-1.632 -8.64,-1.632 -4.8,0 -8.736,1.632 -3.84,1.632 -6.624,4.608 -2.784,2.88 -4.32,6.912 -1.44,4.032 -1.44,8.736 z"
         style="letter-spacing:-8.34px"
         id="path26508" />
      <path
         d="m 357.82065,17.552709 h 26.304 q 5.184,0 9.792,1.056 4.704,0.96 8.16,3.36 3.552,2.304 5.568,6.336 2.112,3.936 2.112,9.888 0,7.2 -3.744,12.288 -3.744,4.992 -10.944,6.336 l 17.28,28.704 h -17.952 l -14.208,-27.168 h -7.392 v 27.168 h -14.976 z m 14.976,28.128 h 8.832 q 2.016,0 4.224,-0.096 2.304,-0.192 4.128,-0.864 1.824,-0.768 2.976,-2.304 1.248,-1.536 1.248,-4.32 0,-2.592 -1.056,-4.128 -1.056,-1.536 -2.688,-2.304 -1.632,-0.864 -3.744,-1.152 -2.112,-0.288 -4.128,-0.288 h -9.792 z"
         style="letter-spacing:-8.34px"
         id="path26510" />
      <path
         d="m 414.05708,17.552709 h 22.656 l 15.648,44.352 h 0.192 l 15.744,-44.352 h 22.56 v 67.968 h -14.976 v -52.128 h -0.192 l -17.856,52.128 h -11.424 l -17.184,-52.128 h -0.192 v 52.128 h -14.976 z"
         style="letter-spacing:-6.28px"
         id="path26512" />
    </g>
    <g
       id="g26559"
       transform="translate(0.52916663,1.0583333)">
      <path
         style="fill:url(#linearGradient10474);fill-opacity:1;stroke:#ffffff;stroke-width:0.491318;stroke-dasharray:none;stroke-opacity:1"
         d="m 47.281874,8.9685147 c 2.744727,-0.7110954 2.399864,0.1932141 1.681756,1.0455083 -6.83219,7.710632 -8.280306,13.069411 -9.612801,18.397139 l -8.876144,0.785899 C 32.620597,20.265928 40.113994,11.170857 47.281874,8.9685147 Z"
         id="path10362"
         sodipodi:nodetypes="ccccc" />
      <path
         style="fill:url(#radialGradient10514);fill-opacity:1;stroke:#ffffff;stroke-width:0.491318;stroke-dasharray:none;stroke-opacity:1"
         d="m 40.865365,36.714116 c 1.885466,-2.601601 2.031823,-6.06316 4.166487,-8.015305 1.501358,-0.234555 4.578648,0.321826 5.515137,1.576752 0.182385,-0.45588 0.558489,-1.18342 0.23352,-1.681273 -0.428981,-0.595927 -1.621531,-1.796511 -5.121531,-2.194942 -0.406955,-0.843586 -0.846415,-1.665505 -1.881378,-2.09042 -1.59894,-0.567672 -3.073819,-0.04568 -4.389883,1.04521 -2.784164,2.098491 -5.683781,2.580632 -8.570729,3.240152 C 25.836701,19.938304 16.073947,16.126721 6.7907115,14.797512 5.8584848,14.610394 4.7386821,15.546053 5.4210874,16.118944 14.43744,23.020357 25.651554,33.888155 25.196193,37.892405 24.882726,39.997384 22.02813,41.7139 19.539023,43.8178 c 1.467414,2.199627 4.994983,4.942217 7.633306,5.409517 3.557384,-6.983551 9.788524,-7.429553 13.693036,-12.513201 z"
         id="path10360"
         sodipodi:nodetypes="cccccccccccccc" />
    </g>
  </g>
</svg>
