<?xml version="1.0" encoding="UTF-8" standalone="no"?>
<!-- Created with Inkscape (http://www.inkscape.org/) -->
<svg width="144mm" height="50mm" viewBox="0 0 144 49.999999" version="1.1" id="svg5" inkscape:version="1.2.2 (b0a84865, 2022-12-01)" sodipodi:docname="Logo.svg" xmlns:inkscape="http://www.inkscape.org/namespaces/inkscape" xmlns:sodipodi="http://sodipodi.sourceforge.net/DTD/sodipodi-0.dtd" xmlns="http://www.w3.org/2000/svg" xmlns:svg="http://www.w3.org/2000/svg">
	<namedview id="namedview7" pagecolor="#ffffff" bordercolor="#000000" borderopacity="0.25" inkscape:showpageshadow="2" inkscape:pageopacity="0.0" inkscape:pagecheckerboard="0" inkscape:deskcolor="#d1d1d1" inkscape:document-units="mm" showgrid="false" inkscape:zoom="1.3948531" inkscape:cx="250.56402" inkscape:cy="71.333677" inkscape:window-width="1728" inkscape:window-height="1051" inkscape:window-x="0" inkscape:window-y="38" inkscape:window-maximized="1" inkscape:current-layer="layer1" />
	<defs id="defs2" />
	<g inkscape:label="Storm Logo" inkscape:groupmode="layer" id="layer1" transform="translate(-3.436151,16.804356)">
		<path id="path2464" style="font-style:italic;font-weight:900;font-stretch:condensed;font-size:35.2778px;font-family:'Avenir Next Condensed';-inkscape-font-specification:'Avenir Next Condensed,  Heavy Italic Condensed';letter-spacing:0px;fill:#0a5078;stroke-width:1.5;stroke-linecap:round;stroke-linejoin:round;paint-order:stroke fill markers" d="M 62.43255 6.1911396 C 60.950884 6.1911396 59.622155 6.4382909 58.44623 6.9321796 C 57.270304 7.4025499 56.270594 8.0494818 55.447447 8.8726297 C 54.624299 9.6722593 53.988989 10.612829 53.542137 11.69468 C 53.118804 12.776531 52.90755 13.917249 52.90755 15.116693 C 52.90755 16.010397 53.024798 16.798336 53.259983 17.480373 C 53.495168 18.16241 53.813082 18.761822 54.212897 19.27923 C 54.612711 19.773118 55.071116 20.219902 55.588523 20.619716 C 56.105931 20.996013 56.635098 21.337169 57.176023 21.64291 C 57.999171 22.11328 58.563719 22.524682 58.86946 22.87746 C 59.1752 23.206719 59.32783 23.571635 59.32783 23.97145 C 59.32783 24.512376 59.128198 24.912156 58.728383 25.17086 C 58.352087 25.406045 57.928547 25.523293 57.458177 25.523293 C 56.799659 25.523293 56.141105 25.393907 55.482587 25.135203 C 54.847587 24.852981 54.295177 24.512341 53.824807 24.112526 L 49.591473 29.721486 C 50.391102 30.45056 51.484301 31.062111 52.871893 31.556 C 54.283004 32.049888 55.847262 32.29704 57.564113 32.29704 C 58.693001 32.29704 59.821581 32.120651 60.95047 31.767873 C 62.102877 31.438613 63.126346 30.909447 64.02005 30.180373 C 64.937272 29.4513 65.677692 28.522352 66.242137 27.393463 C 66.806581 26.264575 67.089113 24.912087 67.089113 23.336346 C 67.089113 22.348569 66.935967 21.478245 66.630227 20.725653 C 66.324485 19.97306 65.936843 19.326128 65.466473 18.785203 C 65.019622 18.244277 64.537457 17.785873 64.02005 17.409576 C 63.526161 17.03328 63.06724 16.727505 62.643907 16.49232 C 61.891315 16.045468 61.362148 15.69269 61.056407 15.433986 C 60.750666 15.175283 60.598037 14.834127 60.598037 14.410793 C 60.598037 14.105053 60.656661 13.858418 60.774253 13.67027 C 60.891846 13.458603 61.044992 13.293836 61.23314 13.176243 C 61.421288 13.035128 61.62092 12.941123 61.832587 12.89409 C 62.067772 12.84705 62.291163 12.823293 62.50283 12.823293 C 63.043756 12.823293 63.596682 12.952679 64.161127 13.211383 C 64.725571 13.470087 65.195597 13.788 65.571893 14.164296 L 69.805227 8.7310363 C 69.12319 8.0019624 68.135618 7.4025499 66.8421 6.9321796 C 65.548582 6.4382909 64.078846 6.1911396 62.43255 6.1911396 z M 94.558238 8.6183816 C 92.801406 8.6183816 91.224259 9.0419225 89.82726 9.8885883 C 88.451428 10.735254 87.287466 11.856759 86.334967 13.253758 C 85.382468 14.62959 84.651886 16.206737 84.143886 17.984735 C 83.635887 19.762733 83.382176 21.593592 83.382176 23.477423 C 83.382176 24.810922 83.551489 26.028214 83.890155 27.12888 C 84.249988 28.208379 84.768283 29.139342 85.445616 29.922508 C 86.122948 30.705673 86.948801 31.308883 87.922467 31.732216 C 88.917299 32.155549 90.049677 32.36732 91.319676 32.36732 C 93.076507 32.36732 94.653138 31.944295 96.050136 31.09763 C 97.447135 30.250964 98.62197 29.128942 99.574469 27.731944 C 100.54813 26.334945 101.28907 24.747442 101.79707 22.969444 C 102.30507 21.191445 102.55878 19.360587 102.55878 17.476756 C 102.55878 16.143257 102.38947 14.936837 102.0508 13.857338 C 101.71214 12.756673 101.2042 11.825193 100.52687 11.063194 C 99.870702 10.280028 99.045363 9.6768179 98.050531 9.253485 C 97.055699 8.8301521 95.891736 8.6183816 94.558238 8.6183816 z M 70.401573 9.253485 L 69.417137 14.90482 L 73.417926 14.90482 L 70.465135 31.732216 L 77.037343 31.732216 L 79.958095 14.90482 L 83.958885 14.90482 L 84.943321 9.253485 L 70.401573 9.253485 z M 105.59632 9.253485 L 101.69114 31.732216 L 108.04114 31.732216 L 109.46999 23.540985 L 110.29526 23.540985 L 111.50191 31.732216 L 118.51853 31.732216 L 116.39153 22.143654 C 117.57686 21.635655 118.48711 20.821191 119.12211 19.699359 C 119.77828 18.577527 120.10603 17.201277 120.10603 15.571446 C 120.10603 13.475948 119.52405 11.899317 118.35989 10.840985 C 117.21689 9.7826525 115.55534 9.253485 113.37518 9.253485 L 105.59632 9.253485 z M 123.88461 9.253485 L 119.97891 31.732216 L 125.94805 31.732216 L 127.94845 18.556276 L 128.07557 18.556276 L 128.51999 31.732216 L 132.77451 31.732216 L 138.01295 18.556276 L 138.10855 18.556276 L 135.53661 31.732216 L 142.04526 31.732216 L 145.95045 9.253485 L 137.2192 9.253485 L 132.5523 21.381944 L 132.42518 21.381944 L 131.75855 9.253485 L 123.88461 9.253485 z M 110.99393 14.809735 L 111.88276 14.809735 C 112.20026 14.809735 112.52853 14.915362 112.8672 15.127028 C 113.22703 15.338695 113.4067 15.772592 113.4067 16.428758 C 113.4067 17.36009 113.15299 18.01663 112.64499 18.39763 C 112.15816 18.778629 111.59689 18.968654 110.96189 18.968654 L 110.26374 18.968654 L 110.99393 14.809735 z M 93.827533 15.095506 C 94.483699 15.095506 94.970926 15.412903 95.288426 16.047902 C 95.605925 16.682902 95.764366 17.476653 95.764366 18.429152 C 95.764366 19.169985 95.679967 19.974092 95.510634 20.841925 C 95.362468 21.709757 95.129469 22.514382 94.811969 23.255214 C 94.515636 23.996047 94.134552 24.609613 93.668886 25.096446 C 93.224387 25.583278 92.716448 25.82715 92.144948 25.82715 C 91.404116 25.82715 90.885821 25.520109 90.589488 24.906276 C 90.314321 24.271277 90.176593 23.487881 90.176593 22.556549 C 90.176593 21.79455 90.250635 20.979569 90.398802 20.111737 C 90.568135 19.243904 90.801134 18.439797 91.097467 17.698964 C 91.414967 16.958132 91.795533 16.344049 92.240033 15.857216 C 92.705699 15.349217 93.234867 15.095506 93.827533 15.095506 z " inkscape:label="Storm" />
		<path id="path39461" style="fill:#0a5078;fill-opacity:1;stroke:none;stroke-width:1.5;stroke-linecap:round;stroke-linejoin:round;stroke-dasharray:none;stroke-opacity:1;paint-order:stroke fill markers" inkscape:label="Petrel" d="m 6.3249396,-15.97408 c -0.8886564,-0.04929 -1.8329631,0.807019 -1.1932088,1.344104 9.7618682,6.5700624 22.3540462,16.5287558 20.0762942,20.0359863 -1.390334,1.6907973 -4.572633,5.3011727 -12.189954,8.9002317 -3.1993223,1.447697 4.317274,5.184522 6.119006,3.900021 5.416249,-3.7211 16.536105,-5.613896 20.440613,-10.6975387 1.885464,-2.6015984 3.5699,-3.7214124 5.704562,-5.6735555 1.501356,-0.2345547 3.010965,0.014675 4.225581,0.7751465 0.182385,-0.4558795 0.55958,-1.4007396 0.234611,-1.89859211 -0.42898,-0.5959264 -1.024552,-0.81420455 -3.647322,-1.42316894 C 45.688167,-1.5550309 45.248545,-2.3768429 44.213583,-2.8017574 42.614645,-3.3694289 41.636748,-3.1790926 39.82367,-1.75686 37.039509,0.34162892 35.485216,-0.32916822 32.598271,0.33035112 27.617989,-8.3256262 15.784383,-14.622135 6.5011562,-15.951342 c -0.058264,-0.01169 -0.1169728,-0.01945 -0.1762166,-0.02274 z M 39.941492,8.2518314 c -1.385471,1.6645415 -3.405666,2.9462776 -5.67924,4.0529826 6.275252,3.550644 8.412266,7.427088 13.852902,15.334981 0.360462,0.536617 1.417251,-0.11456 1.246952,-0.833024 C 47.834636,18.88932 44.351041,11.91348 39.941492,8.2518314 Z" />
	</g>
</svg>
